<?xml version="1.0" encoding="UTF-8" standalone="no"?>
<!-- Created with Inkscape (http://www.inkscape.org/) -->

<svg
   xmlns:ns0="http://www.iki.fi/pav/software/textext/"
   xmlns:dc="http://purl.org/dc/elements/1.1/"
   xmlns:cc="http://creativecommons.org/ns#"
   xmlns:rdf="http://www.w3.org/1999/02/22-rdf-syntax-ns#"
   xmlns:svg="http://www.w3.org/2000/svg"
   xmlns="http://www.w3.org/2000/svg"
   xmlns:xlink="http://www.w3.org/1999/xlink"
   xmlns:sodipodi="http://sodipodi.sourceforge.net/DTD/sodipodi-0.dtd"
   xmlns:inkscape="http://www.inkscape.org/namespaces/inkscape"
   width="148.67902"
   height="164.38356"
   id="svg15533"
   version="1.1"
   inkscape:version="0.48.2 r9819"
   sodipodi:docname="simpleLogoConcept.svg">
  <sodipodi:namedview
     id="base"
     pagecolor="#ffffff"
     bordercolor="#666666"
     borderopacity="1.0"
     inkscape:pageopacity="0.0"
     inkscape:pageshadow="2"
     inkscape:zoom="0.98994949"
     inkscape:cx="29.860308"
     inkscape:cy="145.60836"
     inkscape:document-units="px"
     inkscape:current-layer="layer1"
     showgrid="false"
     inkscape:window-width="1920"
     inkscape:window-height="1126"
     inkscape:window-x="0"
     inkscape:window-y="25"
     inkscape:window-maximized="1"
     fit-margin-top="0"
     fit-margin-left="0"
     fit-margin-right="0"
     fit-margin-bottom="0" />
  <defs
     id="defs15535" />
  <metadata
     id="metadata15538">
    <rdf:RDF>
      <cc:Work
         rdf:about="">
        <dc:format>image/svg+xml</dc:format>
        <dc:type
           rdf:resource="http://purl.org/dc/dcmitype/StillImage" />
        <dc:title></dc:title>
      </cc:Work>
    </rdf:RDF>
  </metadata>
  <g
     inkscape:label="Layer 1"
     inkscape:groupmode="layer"
     id="layer1"
     transform="translate(-120.00116,-499.36486)">
    <g
       id="g17886"
       transform="translate(13.683129,0)">
      <path
         style="stroke:#000000;stroke-opacity:1"
         d="m 122.0358,556.90484 c -0.3025,-5.625 0.1425,-10.99625 1.2425,-16.0475 l -7.965,7.60875 c -1.1,5.04875 -1.54375,10.42375 -1.2425,16.04375 0.3675,6.79375 1.795,13.435 4.11125,19.75875 l 7.965,-7.61 c -2.3175,-6.32 -3.7475,-12.96625 -4.11125,-19.75375"
         id="path4502"
         inkscape:connector-curvature="0" />
      <path
         style="stroke:#000000;stroke-opacity:1"
         d="m 122.0358,556.90484 c -0.3025,-5.625 0.1425,-10.99625 1.2425,-16.0475 l -7.965,7.60875 c -1.1,5.04875 -1.54375,10.42375 -1.2425,16.04375 0.3675,6.79375 1.795,13.435 4.11125,19.75875 l 7.965,-7.61 c -2.3175,-6.32 -3.7475,-12.96625 -4.11125,-19.75375"
         id="path4504"
         inkscape:connector-curvature="0" />
      <path
         style="stroke:#000000;stroke-opacity:1"
         d="m 122.0358,556.90484 c -0.3025,-5.625 0.1425,-10.99625 1.2425,-16.0475 l -7.965,7.60875 c -1.1,5.04875 -1.54375,10.42375 -1.2425,16.04375 0.3675,6.79375 1.795,13.435 4.11125,19.75875 l 7.965,-7.61 c -2.3175,-6.32 -3.7475,-12.96625 -4.11125,-19.75375"
         id="path4506"
         inkscape:connector-curvature="0" />
      <path
         style="stroke:#000000;stroke-opacity:1"
         d="m 122.0358,556.90484 c -0.3025,-5.625 0.1425,-10.99625 1.2425,-16.0475 l -7.965,7.60875 c -1.1,5.04875 -1.54375,10.42375 -1.2425,16.04375 0.3675,6.79375 1.795,13.435 4.11125,19.75875 l 7.965,-7.61 c -2.3175,-6.32 -3.7475,-12.96625 -4.11125,-19.75375"
         id="path4508"
         inkscape:connector-curvature="0" />
      <path
         style="stroke:#000000;stroke-opacity:1"
         d="m 122.0358,556.90484 c -0.3025,-5.625 0.1425,-10.99625 1.2425,-16.0475 l -7.965,7.60875 c -1.1,5.04875 -1.54375,10.42375 -1.2425,16.04375 0.3675,6.79375 1.795,13.435 4.11125,19.75875 l 7.965,-7.61 c -2.3175,-6.32 -3.7475,-12.96625 -4.11125,-19.75375"
         id="path4510"
         inkscape:connector-curvature="0" />
      <path
         style="fill:#800000;stroke:#000000;stroke-opacity:1"
         d="m 122.0358,556.90484 c -0.3025,-5.625 0.1425,-10.99625 1.2425,-16.0475 l -7.965,7.60875 c -1.1,5.04875 -1.54375,10.42375 -1.2425,16.04375 0.3675,6.79375 1.795,13.435 4.11125,19.75875 l 7.965,-7.61 c -2.3175,-6.32 -3.7475,-12.96625 -4.11125,-19.75375"
         id="path4512"
         inkscape:connector-curvature="0" />
      <path
         style="stroke:#000000;stroke-opacity:1"
         d="m 232.77455,576.52984 13.2275,8.6 c -2.065,9.4625 -6.43625,17.78125 -12.5525,24.40875 l -13.8575,-9.0925 c 0.535,-4.41875 1.99875,-9.035 4.4225,-13.42125 2.425,-4.3925 5.4825,-7.96 8.76,-10.495"
         id="path4522"
         inkscape:connector-curvature="0" />
      <path
         style="stroke:#000000;stroke-opacity:1"
         d="m 232.77455,576.52984 13.2275,8.6 c -2.065,9.4625 -6.43625,17.78125 -12.5525,24.40875 l -13.8575,-9.0925 c 0.535,-4.41875 1.99875,-9.035 4.4225,-13.42125 2.425,-4.3925 5.4825,-7.96 8.76,-10.495"
         id="path4524"
         inkscape:connector-curvature="0" />
      <path
         style="stroke:#000000;stroke-opacity:1"
         d="m 232.77455,576.52984 13.2275,8.6 c -2.065,9.4625 -6.43625,17.78125 -12.5525,24.40875 l -13.8575,-9.0925 c 0.535,-4.41875 1.99875,-9.035 4.4225,-13.42125 2.425,-4.3925 5.4825,-7.96 8.76,-10.495"
         id="path4526"
         inkscape:connector-curvature="0" />
      <path
         style="fill:#ffffff;stroke:#000000;stroke-opacity:1"
         d="m 232.77455,576.52984 13.2275,8.6 c -2.065,9.4625 -6.43625,17.78125 -12.5525,24.40875 l -13.8575,-9.0925 c 0.535,-4.41875 1.99875,-9.035 4.4225,-13.42125 2.425,-4.3925 5.4825,-7.96 8.76,-10.495"
         id="path4528"
         inkscape:connector-curvature="0" />
      <path
         style="stroke:#000000;stroke-opacity:1"
         d="m 226.5058,522.85234 c 7.275,7.59625 13.02375,16.64375 16.625,26.475 l -13.02375,6.48625 c -3.65,-3.26375 -7.12375,-7.46625 -10.04875,-12.3775 -2.925,-4.9125 -4.9,-9.85625 -5.89875,-14.35 l 12.34625,-6.23375"
         id="path4548"
         inkscape:connector-curvature="0" />
      <path
         style="stroke:#000000;stroke-opacity:1"
         d="m 226.5058,522.85234 c 7.275,7.59625 13.02375,16.64375 16.625,26.475 l -13.02375,6.48625 c -3.65,-3.26375 -7.12375,-7.46625 -10.04875,-12.3775 -2.925,-4.9125 -4.9,-9.85625 -5.89875,-14.35 l 12.34625,-6.23375"
         id="path4550"
         inkscape:connector-curvature="0" />
      <path
         style="stroke:#000000;stroke-opacity:1"
         d="m 226.5058,522.85234 c 7.275,7.59625 13.02375,16.64375 16.625,26.475 l -13.02375,6.48625 c -3.65,-3.26375 -7.12375,-7.46625 -10.04875,-12.3775 -2.925,-4.9125 -4.9,-9.85625 -5.89875,-14.35 l 12.34625,-6.23375"
         id="path4552"
         inkscape:connector-curvature="0" />
      <path
         style="fill:#ffffff;stroke:#000000;stroke-opacity:1"
         d="m 226.5058,522.85234 c 7.275,7.59625 13.02375,16.64375 16.625,26.475 l -13.02375,6.48625 c -3.65,-3.26375 -7.12375,-7.46625 -10.04875,-12.3775 -2.925,-4.9125 -4.9,-9.85625 -5.89875,-14.35 l 12.34625,-6.23375"
         id="path4554"
         inkscape:connector-curvature="0" />
      <path
         d="m 206.93205,536.91234 c 1.78375,1.61 3.44625,3.3575 4.96,5.2175 l -0.07,0.0625 c -1.5,-1.8475 -3.14125,-3.575 -4.9125,-5.1725 l 0.0637,-0.0688 -0.0412,-0.0388"
         style="fill:#feffff;fill-opacity:1;fill-rule:nonzero;stroke:#000000;stroke-opacity:1"
         id="path4556"
         inkscape:connector-curvature="0" />
      <path
         d="m 195.74705,529.48734 0.0475,0.0163 -10e-4,0.005 c -0.015,-0.008 -0.03,-0.0163 -0.0463,-0.0213"
         style="fill:#7a7b7d;fill-opacity:1;fill-rule:nonzero;stroke:#000000;stroke-opacity:1"
         id="path4558"
         inkscape:connector-curvature="0" />
      <path
         d="m 208.6983,544.82234 c -1.37875,-1.71875 -2.9,-3.32875 -4.54375,-4.8 l 1.7625,-1.92 0.9925,-1.0825 c 1.77125,1.5975 3.4125,3.325 4.9125,5.1725 l -1.1775,0.99375 -1.94625,1.63625"
         style="fill:#811920;fill-opacity:1;fill-rule:nonzero;stroke:#000000;stroke-opacity:1"
         id="path4560"
         inkscape:connector-curvature="0" />
      <path
         d="m 211.8858,542.27609 c 2.7975,3.45875 5.095,7.32125 6.7475,11.43375 l -1.48875,0.34875 -2.61875,0.61875 c -1.42625,-3.5075 -3.385,-6.8025 -5.755,-9.76875 l 1.945,-1.64 1.17,-0.9925"
         style="fill:#f6f6f6;fill-opacity:1;fill-rule:nonzero;stroke:#000000;stroke-opacity:1"
         id="path4562"
         inkscape:connector-curvature="0" />
      <path
         d="m 188.40705,531.48734 0,0 c 0.015,0.002 0.03,0.005 0.0475,0.0125 l -0.0475,-0.0125"
         style="fill:#7a7b7d;fill-opacity:1;fill-rule:nonzero;stroke:#000000;stroke-opacity:1"
         id="path4564"
         inkscape:connector-curvature="0" />
      <path
         d="m 217.28205,562.48109 0.0238,0.1 -0.0812,0.0237 -0.0688,0.0163 -0.002,-0.0688 -0.002,-0.0838 0.05,0.005 0.0812,0.008"
         style="fill:#feffff;fill-opacity:1;fill-rule:nonzero;stroke:#000000;stroke-opacity:1"
         id="path4566"
         inkscape:connector-curvature="0" />
      <path
         d="m 220.70955,560.50109 c 0.4275,1.9925 0.70625,4.02375 0.815,6.08 0.11875,2.195 0.0438,4.33125 -0.20625,6.38375 l -1.57625,-0.47875 -2.7825,-0.84875 c 0.2075,-1.7675 0.2725,-3.6 0.17125,-5.485 -0.0962,-1.74625 -0.325,-3.4675 -0.67625,-5.165 l 2.64875,-0.3025 1.60625,-0.18375"
         style="fill:#f6f6f6;fill-opacity:1;fill-rule:nonzero;stroke:#000000;stroke-opacity:1"
         id="path4568"
         inkscape:connector-curvature="0" />
      <path
         d="m 216.8608,571.60734 0.003,0.005 c -0.003,0.0137 -0.004,0.0287 -0.006,0.0487 l 0.004,-0.0537"
         style="fill:#7a7b7d;fill-opacity:1;fill-rule:nonzero;stroke:#000000;stroke-opacity:1"
         id="path4570"
         inkscape:connector-curvature="0" />
      <path
         d="m 195.7683,529.60109 c 4.0175,1.87125 7.75375,4.36625 11.05875,7.35 l -0.98625,1.07625 -1.76625,1.91875 c -2.84,-2.53375 -6.025,-4.665 -9.4525,-6.2775 l 0.715,-2.53125 0.43125,-1.53625"
         style="fill:#f6f6f6;fill-opacity:1;fill-rule:nonzero;stroke:#000000;stroke-opacity:1"
         id="path4572"
         inkscape:connector-curvature="0" />
      <path
         d="m 189.20705,527.08609 -0.05,-0.0163 c 2.265,0.61375 4.465,1.43 6.59,2.4175 l -0.0488,-0.0225 -0.0262,0.0888 c -2.09125,-0.97 -4.2575,-1.76625 -6.47625,-2.375 l -0.24625,1.5375 0.2575,-1.63"
         style="fill:#feffff;fill-opacity:1;fill-rule:nonzero;stroke:#000000;stroke-opacity:1"
         id="path4574"
         inkscape:connector-curvature="0" />
      <path
         d="m 195.2408,531.09234 -0.71375,2.5275 c -1.9325,-0.9075 -3.94,-1.64625 -6.005,-2.2025 l 0.4275,-2.70125 0.24625,-1.5375 c 2.21875,0.60875 4.385,1.405 6.47625,2.375 l -0.43125,1.53875"
         style="fill:#811920;fill-opacity:1;fill-rule:nonzero;stroke:#000000;stroke-opacity:1"
         id="path4576"
         inkscape:connector-curvature="0" />
      <path
         d="m 217.17955,554.16109 1.49375,-0.35375 c 0.85125,2.14 1.52625,4.33875 2.0175,6.5925 l -1.61125,0.18125 -2.64875,0.3075 c -0.44,-2.09375 -1.06625,-4.135 -1.86625,-6.11375 l 2.615,-0.61375"
         style="fill:#811920;fill-opacity:1;fill-rule:nonzero;stroke:#000000;stroke-opacity:1"
         id="path4578"
         inkscape:connector-curvature="0" />
      <path
         style="stroke:#000000;stroke-opacity:1"
         d="m 181.25955,500.15484 c 4.45375,0.43625 8.82,1.32875 13.05375,2.62 l 0.8425,15.57875 c -4.18375,1.16375 -9.11875,1.575 -14.47,1.0575 -5.35,-0.52375 -10.3875,-1.90375 -14.66375,-3.85625 l -0.8625,-14.84125 c 5.09125,-0.8875 10.4875,-1.105 16.1,-0.55875"
         id="path4588"
         inkscape:connector-curvature="0" />
      <path
         style="stroke:#000000;stroke-opacity:1"
         d="m 181.25955,500.15484 c 4.45375,0.43625 8.82,1.32875 13.05375,2.62 l 0.8425,15.57875 c -4.18375,1.16375 -9.11875,1.575 -14.47,1.0575 -5.35,-0.52375 -10.3875,-1.90375 -14.66375,-3.85625 l -0.8625,-14.84125 c 5.09125,-0.8875 10.4875,-1.105 16.1,-0.55875"
         id="path4590"
         inkscape:connector-curvature="0" />
      <path
         style="stroke:#000000;stroke-opacity:1"
         d="m 181.25955,500.15484 c 4.45375,0.43625 8.82,1.32875 13.05375,2.62 l 0.8425,15.57875 c -4.18375,1.16375 -9.11875,1.575 -14.47,1.0575 -5.35,-0.52375 -10.3875,-1.90375 -14.66375,-3.85625 l -0.8625,-14.84125 c 5.09125,-0.8875 10.4875,-1.105 16.1,-0.55875"
         id="path4592"
         inkscape:connector-curvature="0" />
      <path
         style="fill:#ffffff;stroke:#000000;stroke-opacity:1"
         d="m 181.25955,500.15484 c 4.45375,0.43625 8.82,1.32875 13.05375,2.62 l 0.8425,15.57875 c -4.18375,1.16375 -9.11875,1.575 -14.47,1.0575 -5.35,-0.52375 -10.3875,-1.90375 -14.66375,-3.85625 l -0.8625,-14.84125 c 5.09125,-0.8875 10.4875,-1.105 16.1,-0.55875"
         id="path4594"
         inkscape:connector-curvature="0" />
      <path
         d="m 176.56205,525.88609 c -2.1875,0.15125 -4.295,0.51125 -6.31125,1.055 l 0.5775,1.57 -0.615,-1.66875 c 2.015,-0.545 4.13,-0.9025 6.325,-1.055 l 0.0238,0.0987"
         style="fill:#feffff;fill-opacity:1;fill-rule:nonzero;stroke:#000000;stroke-opacity:1"
         id="path4596"
         inkscape:connector-curvature="0" />
      <path
         d="m 171.84455,531.26984 -1.01625,-2.75875 -0.5775,-1.57 c 2.01625,-0.54375 4.12375,-0.90375 6.31125,-1.055 l 0.43125,1.66375 0.70625,2.74375 c -2.02875,0.1325 -3.985,0.4625 -5.855,0.97625"
         style="fill:#811920;fill-opacity:1;fill-rule:nonzero;stroke:#000000;stroke-opacity:1"
         id="path4598"
         inkscape:connector-curvature="0" />
      <path
         d="m 216.94955,571.73359 2.775,0.84875 1.58125,0.48 c -0.27375,2.17 -0.74875,4.25625 -1.4,6.24 l -1.6175,-0.675 -2.64375,-1.1075 c 0.61875,-1.83 1.05875,-3.76375 1.305,-5.78625"
         style="fill:#811920;fill-opacity:1;fill-rule:nonzero;stroke:#000000;stroke-opacity:1"
         id="path4600"
         inkscape:connector-curvature="0" />
      <path
         d="m 159.6258,532.01484 0,0.002 c -0.01,0.009 -0.0238,0.02 -0.0337,0.025 l 0.0337,-0.0275"
         style="fill:#7a7b7d;fill-opacity:1;fill-rule:nonzero;stroke:#000000;stroke-opacity:1"
         id="path4602"
         inkscape:connector-curvature="0" />
      <path
         d="m 215.61705,577.60859 2.64375,1.1075 1.61125,0.67875 c -1.2725,3.8075 -3.215,7.23375 -5.7025,10.1525 l -1.235,-1.1775 -2.20125,-2.085 c 2.115,-2.5075 3.7725,-5.43 4.88375,-8.67625"
         style="fill:#f6f6f6;fill-opacity:1;fill-rule:nonzero;stroke:#000000;stroke-opacity:1"
         id="path4604"
         inkscape:connector-curvature="0" />
      <path
         d="m 141.7158,533.22609 c -0.004,0.005 -0.005,0.0163 -0.005,0.0263 -0.52875,4.3325 -1.9875,8.93625 -4.4075,13.31625 -1.85,3.34875 -4.06625,6.21875 -6.495,8.535 l 7.9675,-7.605 c 2.42625,-2.3175 4.64375,-5.1875 6.49,-8.53625 2.42375,-4.38125 3.88,-8.98625 4.41,-13.31875 l 0,-10e-4 c 0,-0.005 0,-0.0175 0.002,-0.0263 l -7.9625,7.61"
         style="fill:#5e131c;fill-opacity:1;fill-rule:nonzero;stroke:#000000;stroke-opacity:1"
         id="path4606"
         inkscape:connector-curvature="0" />
      <path
         d="m 170.1583,526.96359 0.57875,1.5725 1.015,2.76 c -3.3075,0.92125 -6.32,2.41125 -8.93,4.37875 l -1.94625,-2.2275 -1.17625,-1.34875 c 3.05625,-2.32125 6.57625,-4.0725 10.45875,-5.135"
         style="fill:#f6f6f6;fill-opacity:1;fill-rule:nonzero;stroke:#000000;stroke-opacity:1"
         id="path4608"
         inkscape:connector-curvature="0" />
      <path
         d="m 158.60705,539.63234 -2.2,-2.085 -1.2375,-1.1775 c 1.33625,-1.555 2.825,-2.965 4.45625,-4.2125 l 1.1775,1.3475 0.8975,1.02875 1.045,1.19875 c -1.51625,1.14625 -2.91,2.45375 -4.13875,3.9"
         style="fill:#811920;fill-opacity:1;fill-rule:nonzero;stroke:#000000;stroke-opacity:1"
         id="path4610"
         inkscape:connector-curvature="0" />
      <path
         d="m 159.6258,532.15734 c -1.63125,1.2475 -3.12,2.6575 -4.45625,4.2125 l 1.2375,1.1775 -1.31375,-1.2475 c 1.33875,-1.56 2.83,-2.97625 4.46,-4.22625 l 0.0725,0.0838"
         style="fill:#feffff;fill-opacity:1;fill-rule:nonzero;stroke:#000000;stroke-opacity:1"
         id="path4612"
         inkscape:connector-curvature="0" />
      <path
         d="m 210.67455,586.35109 2.19375,2.0875 1.23875,1.17875 c -1.33625,1.5525 -2.8225,2.96375 -4.45125,4.21375 l -1.17625,-1.34625 -1.9375,-2.2325 c 1.51875,-1.1475 2.9025,-2.45375 4.1325,-3.90125"
         style="fill:#811920;fill-opacity:1;fill-rule:nonzero;stroke:#000000;stroke-opacity:1"
         id="path4614"
         inkscape:connector-curvature="0" />
      <path
         d="m 214.10705,589.61734 0.08,0.075 c -1.33875,1.55375 -2.83125,2.97125 -4.46125,4.22125 l -1.24625,-1.42875 1.17625,1.34625 c 1.62875,-1.25 3.115,-2.66125 4.45125,-4.21375"
         style="fill:#feffff;fill-opacity:1;fill-rule:nonzero;stroke:#000000;stroke-opacity:1"
         id="path4616"
         inkscape:connector-curvature="0" />
      <path
         d="m 155.1083,536.43859 1.24,1.17625 2.1975,2.0925 c -2.11375,2.505 -3.77375,5.42375 -4.88125,8.66875 l -2.65125,-1.10875 -1.6075,-0.67125 c 1.2725,-3.80875 3.21625,-7.23625 5.7025,-10.1575"
         style="fill:#f6f6f6;fill-opacity:1;fill-rule:nonzero;stroke:#000000;stroke-opacity:1"
         id="path4618"
         inkscape:connector-curvature="0" />
      <path
         d="m 206.4658,590.30984 1.9425,2.2275 1.17125,1.3525 c -3.04875,2.32125 -6.57625,4.0675 -10.45875,5.13 l -0.57625,-1.57 -1.01875,-2.7575 c 3.30625,-0.92625 6.31875,-2.41375 8.94,-4.3825"
         style="fill:#f6f6f6;fill-opacity:1;fill-rule:nonzero;stroke:#000000;stroke-opacity:1"
         id="path4620"
         inkscape:connector-curvature="0" />
      <path
         d="m 152.33205,554.24859 -2.77875,-0.84875 -1.5775,-0.47875 c 0.275,-2.16625 0.7475,-4.25625 1.40375,-6.24 l 1.615,0.67875 2.63625,1.10625 c -0.61,1.835 -1.05125,3.76625 -1.29875,5.7825"
         style="fill:#811920;fill-opacity:1;fill-rule:nonzero;stroke:#000000;stroke-opacity:1"
         id="path4622"
         inkscape:connector-curvature="0" />
      <path
         d="m 197.4358,594.71984 1.01625,2.7525 0.57625,1.5775 c -2.015,0.54125 -4.1275,0.89875 -6.31125,1.05125 l -0.435,-1.665 -0.70375,-2.74375 c 2.03125,-0.135 3.98875,-0.46375 5.8575,-0.9725"
         style="fill:#811920;fill-opacity:1;fill-rule:nonzero;stroke:#000000;stroke-opacity:1"
         id="path4624"
         inkscape:connector-curvature="0" />
      <path
         d="m 152.92455,564.98734 0,0 0.01,0.0525 c -0.002,-0.02 -0.007,-0.035 -0.01,-0.0525"
         style="fill:#7a7b7d;fill-opacity:1;fill-rule:nonzero;stroke:#000000;stroke-opacity:1"
         id="path4626"
         inkscape:connector-curvature="0" />
      <path
         d="m 138.7658,547.51234 -7.9625,7.605 c -0.74,0.70625 -1.49375,1.35875 -2.26,1.95 l 7.9675,-7.605 c 0.76375,-0.5975 1.52,-1.25125 2.255,-1.95 l 0,0"
         style="fill:#787a7b;fill-opacity:1;fill-rule:nonzero;stroke:#000000;stroke-opacity:1"
         id="path4636"
         inkscape:connector-curvature="0" />
      <path
         d="m 147.9658,553.01984 1.57375,0.47875 2.78125,0.84875 c -0.21,1.765 -0.2725,3.60125 -0.17,5.485 0.0937,1.74625 0.325,3.47125 0.675,5.16625 l -2.65375,0.30625 -1.605,0.18 c -0.4275,-1.99375 -0.70375,-4.02375 -0.81125,-6.0775 -0.1225,-2.195 -0.045,-4.335 0.21,-6.3875"
         style="fill:#f6f6f6;fill-opacity:1;fill-rule:nonzero;stroke:#000000;stroke-opacity:1"
         id="path4638"
         inkscape:connector-curvature="0" />
      <path
         d="m 191.45455,595.59609 0.05,-0.004 c -0.0187,0 -0.0325,0 -0.05,0.007 l 0,-0.004"
         style="fill:#7a7b7d;fill-opacity:1;fill-rule:nonzero;stroke:#000000;stroke-opacity:1"
         id="path4640"
         inkscape:connector-curvature="0" />
      <path
         d="m 180.8558,594.59609 c 1.8125,0.48125 3.65875,0.82375 5.5375,1.00875 1.73625,0.17 3.435,0.1925 5.08375,0.0937 l 0.71,2.7475 0.4275,1.665 c -1.94,0.13125 -3.93625,0.1025 -5.985,-0.095 -2.1875,-0.2125 -4.3425,-0.61125 -6.445,-1.18375 l 0.245,-1.52875 0.42625,-2.7075"
         style="fill:#f6f6f6;fill-opacity:1;fill-rule:nonzero;stroke:#000000;stroke-opacity:1"
         id="path4642"
         inkscape:connector-curvature="0" />
      <path
         d="m 149.6783,525.61609 -7.9625,7.61 -13.84625,-9.1725 7.965,-7.605 13.84375,9.1675"
         style="fill:#5d131c;fill-opacity:1;fill-rule:nonzero;stroke:#000000;stroke-opacity:1"
         id="path4644"
         inkscape:connector-curvature="0" />
      <path
         d="m 135.83455,516.44859 -7.965,7.605 c 0.71,-0.7675 1.44125,-1.51375 2.20125,-2.23875 l 7.96375,-7.605 c -0.7575,0.7225 -1.49,1.4675 -2.2,2.23875 l 0,0"
         style="fill:#5e131c;fill-opacity:1;fill-rule:nonzero;stroke:#000000;stroke-opacity:1"
         id="path4654"
         inkscape:connector-curvature="0" />
      <path
         style="stroke:#000000;stroke-opacity:1"
         d="m 135.83455,516.44859 13.855,9.09 c -0.53875,4.41875 -1.995,9.0325 -4.42375,13.42375 -2.42,4.3925 -5.4825,7.9575 -8.755,10.5 l -13.2325,-8.605 c 2.0625,-9.46625 6.435,-17.7825 12.55625,-24.40875"
         id="path4664"
         inkscape:connector-curvature="0" />
      <path
         style="stroke:#000000;stroke-opacity:1"
         d="m 135.83455,516.44859 13.855,9.09 c -0.53875,4.41875 -1.995,9.0325 -4.42375,13.42375 -2.42,4.3925 -5.4825,7.9575 -8.755,10.5 l -13.2325,-8.605 c 2.0625,-9.46625 6.435,-17.7825 12.55625,-24.40875"
         id="path4666"
         inkscape:connector-curvature="0" />
      <path
         style="stroke:#000000;stroke-opacity:1"
         d="m 135.83455,516.44859 13.855,9.09 c -0.53875,4.41875 -1.995,9.0325 -4.42375,13.42375 -2.42,4.3925 -5.4825,7.9575 -8.755,10.5 l -13.2325,-8.605 c 2.0625,-9.46625 6.435,-17.7825 12.55625,-24.40875"
         id="path4668"
         inkscape:connector-curvature="0" />
      <path
         style="fill:#ffffff;stroke:#000000;stroke-opacity:1"
         d="m 135.83455,516.44859 13.855,9.09 c -0.53875,4.41875 -1.995,9.0325 -4.42375,13.42375 -2.42,4.3925 -5.4825,7.9575 -8.755,10.5 l -13.2325,-8.605 c 2.0625,-9.46625 6.435,-17.7825 12.55625,-24.40875"
         id="path4670"
         inkscape:connector-curvature="0" />
      <path
         d="m 150.2008,565.40359 2.6475,-0.305 c 0.4425,2.09125 1.06625,4.13625 1.86375,6.11 l -2.6125,0.61875 -1.49125,0.3525 c -0.85375,-2.1375 -1.52875,-4.34125 -2.0175,-6.59 l 1.61,-0.18625"
         style="fill:#811920;fill-opacity:1;fill-rule:nonzero;stroke:#000000;stroke-opacity:1"
         id="path4672"
         inkscape:connector-curvature="0" />
      <path
         d="m 148.5908,565.58984 c 0.48875,2.24875 1.16375,4.4525 2.0175,6.59 l 1.49125,-0.3525 -1.58375,0.37625 c -0.86625,-2.16125 -1.545,-4.385 -2.0325,-6.66125 l 0.01,0.0525 1.7075,-0.19125 -1.61,0.18625"
         style="fill:#feffff;fill-opacity:1;fill-rule:nonzero;stroke:#000000;stroke-opacity:1"
         id="path4674"
         inkscape:connector-curvature="0" />
      <path
         d="m 174.03705,594.89359 0.71625,-2.5275 c 1.93,0.90875 3.94,1.6475 6.00375,2.205 l -0.4275,2.70125 -0.245,1.53375 c -2.22375,-0.6075 -4.385,-1.40625 -6.47875,-2.37 l 0.43125,-1.5425"
         style="fill:#811920;fill-opacity:1;fill-rule:nonzero;stroke:#000000;stroke-opacity:1"
         id="path4676"
         inkscape:connector-curvature="0" />
      <path
         d="m 154.7558,571.30609 c 1.425,3.51125 3.38,6.805 5.7625,9.775 l -1.95125,1.64 -1.17375,0.9875 c -2.7975,-3.46 -5.0975,-7.32 -6.74375,-11.43 l 1.48625,-0.35375 2.62,-0.61875"
         style="fill:#f6f6f6;fill-opacity:1;fill-rule:nonzero;stroke:#000000;stroke-opacity:1"
         id="path4678"
         inkscape:connector-curvature="0" />
      <path
         d="m 165.20955,586.03859 c 2.8325,2.5325 6.02,4.665 9.44625,6.2775 l -0.715,2.53625 -0.4325,1.5325 c -4.01875,-1.86875 -7.75125,-4.365 -11.04875,-7.34125 l 0.99375,-1.08625 1.75625,-1.91875"
         style="fill:#f6f6f6;fill-opacity:1;fill-rule:nonzero;stroke:#000000;stroke-opacity:1"
         id="path4680"
         inkscape:connector-curvature="0" />
      <path
         d="m 160.58705,581.16234 c 1.38125,1.7225 2.90875,3.32875 4.54,4.79875 l -1.75375,1.92375 -0.99625,1.0825 c -1.7675,-1.59375 -3.41375,-3.32875 -4.9175,-5.1725 l 1.175,-0.9975 1.9525,-1.635"
         style="fill:#811920;fill-opacity:1;fill-rule:nonzero;stroke:#000000;stroke-opacity:1"
         id="path4682"
         inkscape:connector-curvature="0" />
      <path
         d="m 149.22205,582.54734 c -2.92375,-4.90875 -6.39875,-9.11375 -9.98625,-12.32125 l -7.96625,7.60875 c 0.009,0.0113 0.02,0.0175 0.0275,0.03 10e-4,-0.002 10e-4,-0.002 10e-4,-0.002 3.57625,3.205 7.03875,7.395 9.9575,12.2925 2.925,4.91125 4.90375,9.86125 5.91875,14.4325 l 7.96625,-7.6075 c -1.01625,-4.5725 -2.995,-9.52125 -5.91875,-14.4325"
         style="fill:#5e131c;fill-opacity:1;fill-rule:nonzero;stroke:#000000;stroke-opacity:1"
         id="path4684"
         inkscape:connector-curvature="0" />
      <path
         d="m 188.59455,606.58234 c -5.3475,-0.52625 -10.2875,-0.11375 -14.39375,1.0225 l -7.96625,7.60875 c 4.10875,-1.135 9.04625,-1.54625 14.39625,-1.02625 5.3525,0.52125 10.3825,1.9025 14.73125,3.8925 l 7.96625,-7.6125 c -4.35125,-1.98625 -9.38375,-3.365 -14.73375,-3.885"
         style="fill:#5e131c;fill-opacity:1;fill-rule:nonzero;stroke:#000000;stroke-opacity:1"
         id="path4686"
         inkscape:connector-curvature="0" />
      <path
         d="m 174.96205,623.20984 -7.96125,7.61 -0.84,-15.5825 7.96375,-7.60625 0.8375,15.57875"
         style="fill:#747677;fill-opacity:1;fill-rule:nonzero;stroke:#000000;stroke-opacity:1"
         id="path4688"
         inkscape:connector-curvature="0" />
      <path
         d="m 155.12205,596.89609 -7.96375,7.61 -12.3475,6.23125 7.96375,-7.6075 12.3475,-6.23375"
         style="fill:#737577;fill-opacity:1;fill-rule:nonzero;stroke:#000000;stroke-opacity:1"
         id="path4690"
         inkscape:connector-curvature="0" />
      <path
         d="m 150.53705,572.24984 c 0.002,0.01 0.006,0.0188 0.007,0.0263 l -0.007,-0.0225 0,-0.004"
         style="fill:#7a7b7d;fill-opacity:1;fill-rule:nonzero;stroke:#000000;stroke-opacity:1"
         id="path4692"
         inkscape:connector-curvature="0" />
      <path
         d="m 150.53705,572.25359 0.007,0.0225 c 0.006,0.009 0.009,0.0163 0.0125,0.0225 l -0.004,0.003 -0.0162,-0.0475"
         style="fill:#7a7b7d;fill-opacity:1;fill-rule:nonzero;stroke:#000000;stroke-opacity:1"
         id="path4694"
         inkscape:connector-curvature="0" />
      <path
         d="m 139.2358,570.22609 -7.96625,7.60875 -13.0875,6.43375 7.965,-7.61 13.08875,-6.4325"
         style="fill:#5b131b;fill-opacity:1;fill-rule:nonzero;stroke:#000000;stroke-opacity:1"
         id="path4696"
         inkscape:connector-curvature="0" />
      <path
         style="stroke:#000000;stroke-opacity:1"
         d="m 139.17455,570.17609 c 3.64875,3.2575 7.12375,7.4625 10.0475,12.37125 2.92375,4.91125 4.9025,9.86 5.9,14.34875 l -12.3475,6.23375 c -7.275,-7.59 -13.02625,-16.6375 -16.6275,-26.47125 l 13.0275,-6.4825"
         id="path4706"
         inkscape:connector-curvature="0" />
      <path
         style="stroke:#000000;stroke-opacity:1"
         d="m 139.17455,570.17609 c 3.64875,3.2575 7.12375,7.4625 10.0475,12.37125 2.92375,4.91125 4.9025,9.86 5.9,14.34875 l -12.3475,6.23375 c -7.275,-7.59 -13.02625,-16.6375 -16.6275,-26.47125 l 13.0275,-6.4825"
         id="path4708"
         inkscape:connector-curvature="0" />
      <path
         style="stroke:#000000;stroke-opacity:1"
         d="m 139.17455,570.17609 c 3.64875,3.2575 7.12375,7.4625 10.0475,12.37125 2.92375,4.91125 4.9025,9.86 5.9,14.34875 l -12.3475,6.23375 c -7.275,-7.59 -13.02625,-16.6375 -16.6275,-26.47125 l 13.0275,-6.4825"
         id="path4710"
         inkscape:connector-curvature="0" />
      <path
         style="fill:#ffffff;stroke:#000000;stroke-opacity:1"
         d="m 139.17455,570.17609 c 3.64875,3.2575 7.12375,7.4625 10.0475,12.37125 2.92375,4.91125 4.9025,9.86 5.9,14.34875 l -12.3475,6.23375 c -7.275,-7.59 -13.02625,-16.6375 -16.6275,-26.47125 l 13.0275,-6.4825"
         id="path4712"
         inkscape:connector-curvature="0" />
      <path
         style="stroke:#000000;stroke-opacity:1"
         d="m 232.82955,576.48484 13.1725,8.645 c 1.09875,-5.05125 1.545,-10.42625 1.24125,-16.0475 -0.365,-6.7925 -1.795,-13.43625 -4.1125,-19.755 l -13.0875,6.42875 c -3.58625,-3.20625 -7.06,-7.40875 -9.985,-12.32 -2.925,-4.9125 -4.9,-9.85625 -5.91875,-14.42375 l 12.36625,-6.16 c -8.8675,-9.25 -19.98,-16.345 -32.19,-20.0725 l 0.765,15.59625 c -4.10875,1.14125 -9.04375,1.5525 -14.395,1.035 -5.35,-0.52375 -10.3875,-1.90375 -14.73625,-3.895 l -0.79,-14.8025 c -11.7,2.03375 -21.82375,7.61125 -29.325,15.735 l 13.84375,9.1675 c -0.5275,4.34375 -1.98375,8.955 -4.4125,13.34625 -2.42,4.3925 -5.4825,7.9575 -8.81625,10.5375 l -13.17125,-8.6425 c -1.1,5.05125 -1.545,10.4225 -1.2425,16.0475 0.36375,6.7875 1.79375,13.43375 4.11125,19.75375 l 13.08875,-6.4325 c 3.5875,3.2075 7.0625,7.4125 9.98625,12.32125 2.92375,4.91125 4.9025,9.86 5.91875,14.4325 l -12.36625,6.15 c 8.86375,9.25375 19.9875,16.35125 32.1875,20.08 l -0.76125,-15.605 c 4.10625,-1.13625 9.04625,-1.54875 14.39375,-1.0225 5.35,0.52 10.3825,1.89875 14.73375,3.88875 l 0.79625,14.80375 c 11.695,-2.03375 21.82125,-7.615 29.3225,-15.73625 l -13.84625,-9.1675 c 0.52625,-4.34375 1.99,-8.96 4.41375,-13.34625 2.425,-4.3925 5.4775,-7.96 8.815,-10.54 z m -45.89,29.26625 c -23.5175,-2.29125 -43.63375,-23.2825 -44.90375,-46.89875 -1.27,-23.6175 16.77375,-40.905 40.3025,-38.62 23.52875,2.29 43.635,23.29 44.90375,46.90625 1.27125,23.61375 -16.77625,40.9025 -40.3025,38.6125 l 0,0"
         id="path4722"
         inkscape:connector-curvature="0" />
      <path
         style="fill:#800000;stroke:#000000;stroke-opacity:1"
         d="m 232.82955,576.48484 13.1725,8.645 c 1.09875,-5.05125 1.545,-10.42625 1.24125,-16.0475 -0.365,-6.7925 -1.795,-13.43625 -4.1125,-19.755 l -13.0875,6.42875 c -3.58625,-3.20625 -7.06,-7.40875 -9.985,-12.32 -2.925,-4.9125 -4.9,-9.85625 -5.91875,-14.42375 l 12.36625,-6.16 c -8.8675,-9.25 -19.98,-16.345 -32.19,-20.0725 l 0.765,15.59625 c -4.10875,1.14125 -9.04375,1.5525 -14.395,1.035 -5.35,-0.52375 -10.3875,-1.90375 -14.73625,-3.895 l -0.79,-14.8025 c -11.7,2.03375 -21.82375,7.61125 -29.325,15.735 l 13.84375,9.1675 c -0.5275,4.34375 -1.98375,8.955 -4.4125,13.34625 -2.42,4.3925 -5.4825,7.9575 -8.81625,10.5375 l -13.17125,-8.6425 c -1.1,5.05125 -1.545,10.4225 -1.2425,16.0475 0.36375,6.7875 1.79375,13.43375 4.11125,19.75375 l 13.08875,-6.4325 c 3.5875,3.2075 7.0625,7.4125 9.98625,12.32125 2.92375,4.91125 4.9025,9.86 5.91875,14.4325 l -12.36625,6.15 c 8.86375,9.25375 19.9875,16.35125 32.1875,20.08 l -0.76125,-15.605 c 4.10625,-1.13625 9.04625,-1.54875 14.39375,-1.0225 5.35,0.52 10.3825,1.89875 14.73375,3.88875 l 0.79625,14.80375 c 11.695,-2.03375 21.82125,-7.615 29.3225,-15.73625 l -13.84625,-9.1675 c 0.52625,-4.34375 1.99,-8.96 4.41375,-13.34625 2.425,-4.3925 5.4775,-7.96 8.815,-10.54 z m -45.89,29.26625 c -23.5175,-2.29125 -43.63375,-23.2825 -44.90375,-46.89875 -1.27,-23.6175 16.77375,-40.905 40.3025,-38.62 23.52875,2.29 43.635,23.29 44.90375,46.90625 1.27125,23.61375 -16.77625,40.9025 -40.3025,38.6125 l 0,0"
         id="path4724"
         inkscape:connector-curvature="0" />
      <path
         d="m 182.6483,525.96609 c 2.185,0.21625 4.34125,0.62125 6.4475,1.18625 l -0.24875,1.535 -0.425,2.70375 c -1.8125,-0.485 -3.65875,-0.82375 -5.53875,-1.00625 -1.7375,-0.1675 -3.43125,-0.19875 -5.0825,-0.0963 l -0.7125,-2.74875 -0.42625,-1.66 c 1.94125,-0.13625 3.93625,-0.11 5.98625,0.0863"
         style="fill:#f6f6f6;fill-opacity:1;fill-rule:nonzero;stroke:#000000;stroke-opacity:1"
         id="path4726"
         inkscape:connector-curvature="0" />
      <path
         d="m 162.37705,588.96734 -0.0625,0.0662 0.0412,0.04 c -1.785,-1.61125 -3.4525,-3.355 -4.96625,-5.22 l 0.07,-0.0588 c 1.50375,1.84375 3.15,3.57875 4.9175,5.1725"
         style="fill:#feffff;fill-opacity:1;fill-rule:nonzero;stroke:#000000;stroke-opacity:1"
         id="path4728"
         inkscape:connector-curvature="0" />
      <path
         style="stroke:#000000;stroke-opacity:1"
         d="m 227.38705,567.13859 c -1.26875,-23.61625 -21.375,-44.61625 -44.905,-46.90625 -23.53,-2.285 -41.57375,15.0025 -40.30125,38.62 1.26875,23.61625 21.38375,44.6075 44.9,46.89875 23.53,2.2875 41.57625,-14.99875 40.30625,-38.6125 z m -5.8425,5.95375 c -0.2775,2.19625 -0.75375,4.29625 -1.415,6.29875 -1.28,3.8525 -3.245,7.31375 -5.79875,10.30125 -1.33875,1.55375 -2.83,2.97125 -4.535,4.27875 -3.0625,2.32875 -6.60875,4.0875 -10.53625,5.15875 -2.05125,0.55625 -4.1975,0.9175 -6.425,1.07875 -1.9625,0.135 -3.9875,0.11 -6.055,-0.0925 -2.21,-0.215 -4.39125,-0.62625 -6.515,-1.19875 -2.26125,-0.61625 -4.4625,-1.435 -6.59125,-2.41375 -4.05125,-1.88125 -7.81125,-4.395 -11.17,-7.43 -1.7875,-1.61125 -3.45625,-3.355 -5.00875,-5.2625 -2.82,-3.485 -5.135,-7.37125 -6.83375,-11.6075 -0.86375,-2.16125 -1.545,-4.385 -2.03625,-6.65625 -0.43375,-2.01625 -0.7175,-4.075 -0.8275,-6.15 -0.1175,-2.205 -0.0413,-4.3425 0.225,-6.5025 0.2725,-2.1775 0.74875,-4.26875 1.42,-6.29875 1.27375,-3.83875 3.22625,-7.28875 5.79375,-10.29625 1.34,-1.56 2.8325,-2.97625 4.53375,-4.2825 3.085,-2.33875 6.63375,-4.1025 10.585,-5.175 2.02,-0.545 4.13375,-0.9025 6.42625,-1.06125 1.94875,-0.1325 3.95,-0.10875 6.0025,0.0913 2.21625,0.2175 4.39,0.62 6.51625,1.1975 2.265,0.61375 4.4675,1.43 6.63875,2.43875 4.04625,1.88625 7.80625,4.40125 11.13875,7.40375 1.78125,1.61 3.44375,3.3575 4.99375,5.26625 2.83375,3.49125 5.15125,7.395 6.82,11.55375 0.8625,2.1575 1.5475,4.38375 2.04875,6.71 0.43625,2.015 0.71875,4.0675 0.8325,6.15 0.11625,2.22 0.0425,4.37375 -0.2275,6.5 l 0,0"
         id="path4738"
         inkscape:connector-curvature="0" />
      <path
         style="stroke:#000000;stroke-opacity:1"
         d="m 227.38705,567.13859 c -1.26875,-23.61625 -21.375,-44.61625 -44.905,-46.90625 -23.53,-2.285 -41.57375,15.0025 -40.30125,38.62 1.26875,23.61625 21.38375,44.6075 44.9,46.89875 23.53,2.2875 41.57625,-14.99875 40.30625,-38.6125 z m -5.8425,5.95375 c -0.2775,2.19625 -0.75375,4.29625 -1.415,6.29875 -1.28,3.8525 -3.245,7.31375 -5.79875,10.30125 -1.33875,1.55375 -2.83,2.97125 -4.535,4.27875 -3.0625,2.32875 -6.60875,4.0875 -10.53625,5.15875 -2.05125,0.55625 -4.1975,0.9175 -6.425,1.07875 -1.9625,0.135 -3.9875,0.11 -6.055,-0.0925 -2.21,-0.215 -4.39125,-0.62625 -6.515,-1.19875 -2.26125,-0.61625 -4.4625,-1.435 -6.59125,-2.41375 -4.05125,-1.88125 -7.81125,-4.395 -11.17,-7.43 -1.7875,-1.61125 -3.45625,-3.355 -5.00875,-5.2625 -2.82,-3.485 -5.135,-7.37125 -6.83375,-11.6075 -0.86375,-2.16125 -1.545,-4.385 -2.03625,-6.65625 -0.43375,-2.01625 -0.7175,-4.075 -0.8275,-6.15 -0.1175,-2.205 -0.0413,-4.3425 0.225,-6.5025 0.2725,-2.1775 0.74875,-4.26875 1.42,-6.29875 1.27375,-3.83875 3.22625,-7.28875 5.79375,-10.29625 1.34,-1.56 2.8325,-2.97625 4.53375,-4.2825 3.085,-2.33875 6.63375,-4.1025 10.585,-5.175 2.02,-0.545 4.13375,-0.9025 6.42625,-1.06125 1.94875,-0.1325 3.95,-0.10875 6.0025,0.0913 2.21625,0.2175 4.39,0.62 6.51625,1.1975 2.265,0.61375 4.4675,1.43 6.63875,2.43875 4.04625,1.88625 7.80625,4.40125 11.13875,7.40375 1.78125,1.61 3.44375,3.3575 4.99375,5.26625 2.83375,3.49125 5.15125,7.395 6.82,11.55375 0.8625,2.1575 1.5475,4.38375 2.04875,6.71 0.43625,2.015 0.71875,4.0675 0.8325,6.15 0.11625,2.22 0.0425,4.37375 -0.2275,6.5 l 0,0"
         id="path4740"
         inkscape:connector-curvature="0" />
      <path
         style="stroke:#000000;stroke-opacity:1"
         d="m 227.38705,567.13859 c -1.26875,-23.61625 -21.375,-44.61625 -44.905,-46.90625 -23.53,-2.285 -41.57375,15.0025 -40.30125,38.62 1.26875,23.61625 21.38375,44.6075 44.9,46.89875 23.53,2.2875 41.57625,-14.99875 40.30625,-38.6125 z m -5.8425,5.95375 c -0.2775,2.19625 -0.75375,4.29625 -1.415,6.29875 -1.28,3.8525 -3.245,7.31375 -5.79875,10.30125 -1.33875,1.55375 -2.83,2.97125 -4.535,4.27875 -3.0625,2.32875 -6.60875,4.0875 -10.53625,5.15875 -2.05125,0.55625 -4.1975,0.9175 -6.425,1.07875 -1.9625,0.135 -3.9875,0.11 -6.055,-0.0925 -2.21,-0.215 -4.39125,-0.62625 -6.515,-1.19875 -2.26125,-0.61625 -4.4625,-1.435 -6.59125,-2.41375 -4.05125,-1.88125 -7.81125,-4.395 -11.17,-7.43 -1.7875,-1.61125 -3.45625,-3.355 -5.00875,-5.2625 -2.82,-3.485 -5.135,-7.37125 -6.83375,-11.6075 -0.86375,-2.16125 -1.545,-4.385 -2.03625,-6.65625 -0.43375,-2.01625 -0.7175,-4.075 -0.8275,-6.15 -0.1175,-2.205 -0.0413,-4.3425 0.225,-6.5025 0.2725,-2.1775 0.74875,-4.26875 1.42,-6.29875 1.27375,-3.83875 3.22625,-7.28875 5.79375,-10.29625 1.34,-1.56 2.8325,-2.97625 4.53375,-4.2825 3.085,-2.33875 6.63375,-4.1025 10.585,-5.175 2.02,-0.545 4.13375,-0.9025 6.42625,-1.06125 1.94875,-0.1325 3.95,-0.10875 6.0025,0.0913 2.21625,0.2175 4.39,0.62 6.51625,1.1975 2.265,0.61375 4.4675,1.43 6.63875,2.43875 4.04625,1.88625 7.80625,4.40125 11.13875,7.40375 1.78125,1.61 3.44375,3.3575 4.99375,5.26625 2.83375,3.49125 5.15125,7.395 6.82,11.55375 0.8625,2.1575 1.5475,4.38375 2.04875,6.71 0.43625,2.015 0.71875,4.0675 0.8325,6.15 0.11625,2.22 0.0425,4.37375 -0.2275,6.5 l 0,0"
         id="path4742"
         inkscape:connector-curvature="0" />
      <path
         style="stroke:#000000;stroke-opacity:1"
         d="m 191.2258,606.44484 c -1.37375,0 -2.7725,-0.0675 -4.1925,-0.20375 l 0,0 c -23.7775,-2.32875 -44.04875,-23.48625 -45.34875,-47.36375 l 0,0 c -0.0412,-0.79625 -0.0625,-1.58375 -0.0625,-2.3625 l 0,0 c -0.001,-10.6375 3.9275,-19.8925 10.49125,-26.4775 l 0,0 c 6.56125,-6.58875 15.74625,-10.505 26.22375,-10.5025 l 0,0 c 1.37625,-0.003 2.77875,0.0675 4.19625,0.20375 l 0,0 c 23.78625,2.33125 44.045,23.495 45.345,47.37125 l 0,0 -0.49125,0.0288 -0.4925,0.025 c -1.24375,-23.355 -21.1925,-44.19 -44.4575,-46.4425 l 0,0 c -1.38875,-0.13375 -2.7575,-0.2025 -4.1,-0.2025 l 0,0 c -20.44875,0.0163 -35.7125,15.2175 -35.73,35.99625 l 0,0 c 0,0.75875 0.02,1.53 0.0613,2.31 l 0,0 c 1.2475,23.35375 21.2025,44.1825 44.4625,46.435 l 0,0 c 1.38375,0.13125 2.7525,0.1975 4.095,0.1975 l 0,0 c 20.4525,-0.0138 35.7125,-15.2125 35.72875,-35.98875 l 0,0 c 0,-0.76125 -0.0162,-1.5325 -0.06,-2.305 l 0,0 0.4925,-0.025 0.49125,-0.0288 c 0.0412,0.795 0.0637,1.5825 0.0637,2.35875 l 0,0 c 0.001,10.63625 -3.93,19.88875 -10.48875,26.47375 l 0,0 c -6.5587,6.58625 -15.7462,10.5025 -26.2187,10.5025 l 0,0 c 0,0 -0.003,0 -0.009,0 l 0,0 z m -4.49375,-5.83875 c -2.24,-0.21625 -4.445,-0.63375 -6.59375,-1.21375 l 0,0 c -2.29125,-0.625 -4.5225,-1.4525 -6.6725,-2.4425 l 0,0 c -4.0975,-1.905 -7.89875,-4.445 -11.29625,-7.5125 l 0,0 c -1.805,-1.62625 -3.49125,-3.3875 -5.05875,-5.31625 l 0,0 c -2.85125,-3.52125 -5.18875,-7.45125 -6.90875,-11.735 l 0,0 c -0.8725,-2.1875 -1.565,-4.4375 -2.05625,-6.73625 l 0,0 c -0.4425,-2.04 -0.72875,-4.125 -0.8425,-6.225 l 0,0 c -0.0362,-0.68375 -0.0538,-1.3575 -0.0538,-2.0325 l 0,0 c 0,-1.53 0.0937,-3.0425 0.28375,-4.55875 l 0,0 c 0.2775,-2.21 0.76,-4.33125 1.4375,-6.395 l 0,0 c 1.295,-3.89625 3.2825,-7.40625 5.89,-10.46 l 0,0 c 1.3625,-1.585 2.88,-3.02625 4.6125,-4.35375 l 0,0 c 3.1325,-2.37875 6.7375,-4.17 10.75375,-5.25875 l 0,0 c 2.05,-0.55375 4.1975,-0.91625 6.52,-1.07625 l 0,0 c 0.82,-0.06 1.64375,-0.0888 2.47875,-0.0888 l 0,0 c 1.185,0 2.38625,0.0562 3.60625,0.17875 l 0,0 c 2.24375,0.2225 4.44625,0.62875 6.59625,1.2125 l 0,0 c 2.29625,0.62 4.525,1.44875 6.71875,2.46875 l 0,0 c 4.095,1.9075 7.8925,4.45 11.25625,7.485 l 0,0 c 1.805,1.625 3.48625,3.39375 5.05125,5.32 l 0,0 c 2.86125,3.53 5.20625,7.47625 6.895,11.68125 l 0,0 c 0.8725,2.18375 1.5625,4.43625 2.07625,6.79 l 0,0 c 0.43625,2.04 0.7225,4.11875 0.83625,6.23125 l 0,0 c 0.0388,0.6825 0.0575,1.36 0.0575,2.03375 l 0,0 c 0,1.5375 -0.0987,3.05 -0.285,4.5525 l 0,0 c -0.2825,2.225 -0.76375,4.35875 -1.44125,6.39 l 0,0 c -1.29875,3.9125 -3.29625,7.42875 -5.89125,10.46875 l 0,0 c -1.355,1.5775 -2.875,3.01875 -4.605,4.34875 l 0,0 c -3.115,2.3675 -6.72125,4.15375 -10.7075,5.245 l 0,0 c -2.08375,0.5625 -4.2625,0.93125 -6.5225,1.09125 l 0,0 c -0.8225,0.0563 -1.655,0.085 -2.4925,0.085 l 0,0 c -1.2,0 -2.41375,-0.0575 -3.6425,-0.1775 l 0,0 z m -9.91875,-74.335 c -2.2625,0.15875 -4.34375,0.51 -6.3275,1.0475 l 0,0 c -3.895,1.05625 -7.38625,2.79 -10.4125,5.09125 l 0,0 c -1.68125,1.285 -3.14625,2.67375 -4.4625,4.20875 l 0,0 c -2.52625,2.96125 -4.44875,6.3525 -5.7,10.13125 l 0,0 c -0.665,2.0025 -1.13125,4.06125 -1.40125,6.205 l 0,0 c -0.1825,1.4775 -0.275,2.9475 -0.275,4.4375 l 0,0 c 0,0.655 0.02,1.31375 0.0562,1.97875 l 0,0 c 0.1075,2.04625 0.38625,4.08125 0.81875,6.07125 l 0,0 c 0.47875,2.2425 1.15375,4.44 2.0075,6.575 l 0,0 c 1.6825,4.19125 3.96875,8.03625 6.76,11.48125 l 0,0 c 1.535,1.89 3.1875,3.6125 4.95125,5.20625 l 0,0 c 3.3275,3.00375 7.04875,5.4925 11.05375,7.3475 l 0,0 c 2.1,0.9725 4.2775,1.77875 6.51,2.385 l 0,0 c 2.10125,0.57 4.255,0.975 6.435,1.1875 l 0,0 c 1.19875,0.11625 2.38,0.17125 3.5475,0.175 l 0,0 c 0.81625,-0.004 1.6275,-0.0312 2.4225,-0.0825 l 0,0 c 2.20125,-0.16125 4.31375,-0.51875 6.3325,-1.06375 l 0,0 c 3.8675,-1.05625 7.35625,-2.785 10.3675,-5.07625 l 0,0 c 1.67625,-1.2875 3.1425,-2.6825 4.4575,-4.20375 l 0,0 c 2.51,-2.94375 4.44375,-6.345 5.70625,-10.13875 l 0,0 c 0.64875,-1.97125 1.12125,-4.04 1.39625,-6.205 l 0,0 c 0.1825,-1.45875 0.275,-2.92875 0.275,-4.4275 l 0,0 c 0,-0.65625 -0.0213,-1.31625 -0.0538,-1.98375 l 0,0 c -0.11125,-2.055 -0.38875,-4.0825 -0.82125,-6.0725 l 0,0 c -0.49875,-2.3 -1.1725,-4.5 -2.02125,-6.63125 l 0,0 c -1.65375,-4.10875 -3.94375,-7.97375 -6.74625,-11.42625 l 0,0 c -1.535,-1.89 -3.18125,-3.6175 -4.945,-5.21 l 0,0 c -3.29375,-2.97125 -7.01125,-5.46 -11.01625,-7.32375 l 0,0 c -2.145,-0.9975 -4.32,-1.80375 -6.55625,-2.41 l 0,0 c -2.1025,-0.57125 -4.24625,-0.96875 -6.4375,-1.1825 l 0,0 c -1.1875,-0.12125 -2.355,-0.17375 -3.50875,-0.17375 l 0,0 c -0.81125,0 -1.61375,0.0263 -2.4125,0.0825 l 0,0"
         id="path4752"
         inkscape:connector-curvature="0" />
      <path
         style="stroke:#000000;stroke-opacity:1"
         d="m 191.2258,606.44484 c -1.37375,0 -2.7725,-0.0675 -4.1925,-0.20375 l 0,0 c -23.7775,-2.32875 -44.04875,-23.48625 -45.34875,-47.36375 l 0,0 c -0.0412,-0.79625 -0.0625,-1.58375 -0.0625,-2.3625 l 0,0 c -0.001,-10.6375 3.9275,-19.8925 10.49125,-26.4775 l 0,0 c 6.56125,-6.58875 15.74625,-10.505 26.22375,-10.5025 l 0,0 c 1.37625,-0.003 2.77875,0.0675 4.19625,0.20375 l 0,0 c 23.78625,2.33125 44.045,23.495 45.345,47.37125 l 0,0 -0.49125,0.0288 -0.4925,0.025 c -1.24375,-23.355 -21.1925,-44.19 -44.4575,-46.4425 l 0,0 c -1.38875,-0.13375 -2.7575,-0.2025 -4.1,-0.2025 l 0,0 c -20.44875,0.0163 -35.7125,15.2175 -35.73,35.99625 l 0,0 c 0,0.75875 0.02,1.53 0.0613,2.31 l 0,0 c 1.2475,23.35375 21.2025,44.1825 44.4625,46.435 l 0,0 c 1.38375,0.13125 2.7525,0.1975 4.095,0.1975 l 0,0 c 20.4525,-0.0138 35.7125,-15.2125 35.72875,-35.98875 l 0,0 c 0,-0.76125 -0.0162,-1.5325 -0.06,-2.305 l 0,0 0.4925,-0.025 0.49125,-0.0288 c 0.0412,0.795 0.0637,1.5825 0.0637,2.35875 l 0,0 c 0.001,10.63625 -3.93,19.88875 -10.48875,26.47375 l 0,0 c -6.5587,6.58625 -15.7462,10.5025 -26.2187,10.5025 l 0,0 c 0,0 -0.003,0 -0.009,0 l 0,0 z m -4.49375,-5.83875 c -2.24,-0.21625 -4.445,-0.63375 -6.59375,-1.21375 l 0,0 c -2.29125,-0.625 -4.5225,-1.4525 -6.6725,-2.4425 l 0,0 c -4.0975,-1.905 -7.89875,-4.445 -11.29625,-7.5125 l 0,0 c -1.805,-1.62625 -3.49125,-3.3875 -5.05875,-5.31625 l 0,0 c -2.85125,-3.52125 -5.18875,-7.45125 -6.90875,-11.735 l 0,0 c -0.8725,-2.1875 -1.565,-4.4375 -2.05625,-6.73625 l 0,0 c -0.4425,-2.04 -0.72875,-4.125 -0.8425,-6.225 l 0,0 c -0.0362,-0.68375 -0.0538,-1.3575 -0.0538,-2.0325 l 0,0 c 0,-1.53 0.0937,-3.0425 0.28375,-4.55875 l 0,0 c 0.2775,-2.21 0.76,-4.33125 1.4375,-6.395 l 0,0 c 1.295,-3.89625 3.2825,-7.40625 5.89,-10.46 l 0,0 c 1.3625,-1.585 2.88,-3.02625 4.6125,-4.35375 l 0,0 c 3.1325,-2.37875 6.7375,-4.17 10.75375,-5.25875 l 0,0 c 2.05,-0.55375 4.1975,-0.91625 6.52,-1.07625 l 0,0 c 0.82,-0.06 1.64375,-0.0888 2.47875,-0.0888 l 0,0 c 1.185,0 2.38625,0.0562 3.60625,0.17875 l 0,0 c 2.24375,0.2225 4.44625,0.62875 6.59625,1.2125 l 0,0 c 2.29625,0.62 4.525,1.44875 6.71875,2.46875 l 0,0 c 4.095,1.9075 7.8925,4.45 11.25625,7.485 l 0,0 c 1.805,1.625 3.48625,3.39375 5.05125,5.32 l 0,0 c 2.86125,3.53 5.20625,7.47625 6.895,11.68125 l 0,0 c 0.8725,2.18375 1.5625,4.43625 2.07625,6.79 l 0,0 c 0.43625,2.04 0.7225,4.11875 0.83625,6.23125 l 0,0 c 0.0388,0.6825 0.0575,1.36 0.0575,2.03375 l 0,0 c 0,1.5375 -0.0987,3.05 -0.285,4.5525 l 0,0 c -0.2825,2.225 -0.76375,4.35875 -1.44125,6.39 l 0,0 c -1.29875,3.9125 -3.29625,7.42875 -5.89125,10.46875 l 0,0 c -1.355,1.5775 -2.875,3.01875 -4.605,4.34875 l 0,0 c -3.115,2.3675 -6.72125,4.15375 -10.7075,5.245 l 0,0 c -2.08375,0.5625 -4.2625,0.93125 -6.5225,1.09125 l 0,0 c -0.8225,0.0563 -1.655,0.085 -2.4925,0.085 l 0,0 c -1.2,0 -2.41375,-0.0575 -3.6425,-0.1775 l 0,0 z m -9.91875,-74.335 c -2.2625,0.15875 -4.34375,0.51 -6.3275,1.0475 l 0,0 c -3.895,1.05625 -7.38625,2.79 -10.4125,5.09125 l 0,0 c -1.68125,1.285 -3.14625,2.67375 -4.4625,4.20875 l 0,0 c -2.52625,2.96125 -4.44875,6.3525 -5.7,10.13125 l 0,0 c -0.665,2.0025 -1.13125,4.06125 -1.40125,6.205 l 0,0 c -0.1825,1.4775 -0.275,2.9475 -0.275,4.4375 l 0,0 c 0,0.655 0.02,1.31375 0.0562,1.97875 l 0,0 c 0.1075,2.04625 0.38625,4.08125 0.81875,6.07125 l 0,0 c 0.47875,2.2425 1.15375,4.44 2.0075,6.575 l 0,0 c 1.6825,4.19125 3.96875,8.03625 6.76,11.48125 l 0,0 c 1.535,1.89 3.1875,3.6125 4.95125,5.20625 l 0,0 c 3.3275,3.00375 7.04875,5.4925 11.05375,7.3475 l 0,0 c 2.1,0.9725 4.2775,1.77875 6.51,2.385 l 0,0 c 2.10125,0.57 4.255,0.975 6.435,1.1875 l 0,0 c 1.19875,0.11625 2.38,0.17125 3.5475,0.175 l 0,0 c 0.81625,-0.004 1.6275,-0.0312 2.4225,-0.0825 l 0,0 c 2.20125,-0.16125 4.31375,-0.51875 6.3325,-1.06375 l 0,0 c 3.8675,-1.05625 7.35625,-2.785 10.3675,-5.07625 l 0,0 c 1.67625,-1.2875 3.1425,-2.6825 4.4575,-4.20375 l 0,0 c 2.51,-2.94375 4.44375,-6.345 5.70625,-10.13875 l 0,0 c 0.64875,-1.97125 1.12125,-4.04 1.39625,-6.205 l 0,0 c 0.1825,-1.45875 0.275,-2.92875 0.275,-4.4275 l 0,0 c 0,-0.65625 -0.0213,-1.31625 -0.0538,-1.98375 l 0,0 c -0.11125,-2.055 -0.38875,-4.0825 -0.82125,-6.0725 l 0,0 c -0.49875,-2.3 -1.1725,-4.5 -2.02125,-6.63125 l 0,0 c -1.65375,-4.10875 -3.94375,-7.97375 -6.74625,-11.42625 l 0,0 c -1.535,-1.89 -3.18125,-3.6175 -4.945,-5.21 l 0,0 c -3.29375,-2.97125 -7.01125,-5.46 -11.01625,-7.32375 l 0,0 c -2.145,-0.9975 -4.32,-1.80375 -6.55625,-2.41 l 0,0 c -2.1025,-0.57125 -4.24625,-0.96875 -6.4375,-1.1825 l 0,0 c -1.1875,-0.12125 -2.355,-0.17375 -3.50875,-0.17375 l 0,0 c -0.81125,0 -1.61375,0.0263 -2.4125,0.0825 l 0,0"
         id="path4754"
         inkscape:connector-curvature="0" />
      <path
         style="stroke:#000000;stroke-opacity:1"
         d="m 191.2258,606.44484 c -1.37375,0 -2.7725,-0.0675 -4.1925,-0.20375 l 0,0 c -23.7775,-2.32875 -44.04875,-23.48625 -45.34875,-47.36375 l 0,0 c -0.0412,-0.79625 -0.0625,-1.58375 -0.0625,-2.3625 l 0,0 c -0.001,-10.6375 3.9275,-19.8925 10.49125,-26.4775 l 0,0 c 6.56125,-6.58875 15.74625,-10.505 26.22375,-10.5025 l 0,0 c 1.37625,-0.003 2.77875,0.0675 4.19625,0.20375 l 0,0 c 23.78625,2.33125 44.045,23.495 45.345,47.37125 l 0,0 -0.49125,0.0288 -0.4925,0.025 c -1.24375,-23.355 -21.1925,-44.19 -44.4575,-46.4425 l 0,0 c -1.38875,-0.13375 -2.7575,-0.2025 -4.1,-0.2025 l 0,0 c -20.44875,0.0163 -35.7125,15.2175 -35.73,35.99625 l 0,0 c 0,0.75875 0.02,1.53 0.0613,2.31 l 0,0 c 1.2475,23.35375 21.2025,44.1825 44.4625,46.435 l 0,0 c 1.38375,0.13125 2.7525,0.1975 4.095,0.1975 l 0,0 c 20.4525,-0.0138 35.7125,-15.2125 35.72875,-35.98875 l 0,0 c 0,-0.76125 -0.0162,-1.5325 -0.06,-2.305 l 0,0 0.4925,-0.025 0.49125,-0.0288 c 0.0412,0.795 0.0637,1.5825 0.0637,2.35875 l 0,0 c 0.001,10.63625 -3.93,19.88875 -10.48875,26.47375 l 0,0 c -6.5587,6.58625 -15.7462,10.5025 -26.2187,10.5025 l 0,0 c 0,0 -0.003,0 -0.009,0 l 0,0 z m -4.49375,-5.83875 c -2.24,-0.21625 -4.445,-0.63375 -6.59375,-1.21375 l 0,0 c -2.29125,-0.625 -4.5225,-1.4525 -6.6725,-2.4425 l 0,0 c -4.0975,-1.905 -7.89875,-4.445 -11.29625,-7.5125 l 0,0 c -1.805,-1.62625 -3.49125,-3.3875 -5.05875,-5.31625 l 0,0 c -2.85125,-3.52125 -5.18875,-7.45125 -6.90875,-11.735 l 0,0 c -0.8725,-2.1875 -1.565,-4.4375 -2.05625,-6.73625 l 0,0 c -0.4425,-2.04 -0.72875,-4.125 -0.8425,-6.225 l 0,0 c -0.0362,-0.68375 -0.0538,-1.3575 -0.0538,-2.0325 l 0,0 c 0,-1.53 0.0937,-3.0425 0.28375,-4.55875 l 0,0 c 0.2775,-2.21 0.76,-4.33125 1.4375,-6.395 l 0,0 c 1.295,-3.89625 3.2825,-7.40625 5.89,-10.46 l 0,0 c 1.3625,-1.585 2.88,-3.02625 4.6125,-4.35375 l 0,0 c 3.1325,-2.37875 6.7375,-4.17 10.75375,-5.25875 l 0,0 c 2.05,-0.55375 4.1975,-0.91625 6.52,-1.07625 l 0,0 c 0.82,-0.06 1.64375,-0.0888 2.47875,-0.0888 l 0,0 c 1.185,0 2.38625,0.0562 3.60625,0.17875 l 0,0 c 2.24375,0.2225 4.44625,0.62875 6.59625,1.2125 l 0,0 c 2.29625,0.62 4.525,1.44875 6.71875,2.46875 l 0,0 c 4.095,1.9075 7.8925,4.45 11.25625,7.485 l 0,0 c 1.805,1.625 3.48625,3.39375 5.05125,5.32 l 0,0 c 2.86125,3.53 5.20625,7.47625 6.895,11.68125 l 0,0 c 0.8725,2.18375 1.5625,4.43625 2.07625,6.79 l 0,0 c 0.43625,2.04 0.7225,4.11875 0.83625,6.23125 l 0,0 c 0.0388,0.6825 0.0575,1.36 0.0575,2.03375 l 0,0 c 0,1.5375 -0.0987,3.05 -0.285,4.5525 l 0,0 c -0.2825,2.225 -0.76375,4.35875 -1.44125,6.39 l 0,0 c -1.29875,3.9125 -3.29625,7.42875 -5.89125,10.46875 l 0,0 c -1.355,1.5775 -2.875,3.01875 -4.605,4.34875 l 0,0 c -3.115,2.3675 -6.72125,4.15375 -10.7075,5.245 l 0,0 c -2.08375,0.5625 -4.2625,0.93125 -6.5225,1.09125 l 0,0 c -0.8225,0.0563 -1.655,0.085 -2.4925,0.085 l 0,0 c -1.2,0 -2.41375,-0.0575 -3.6425,-0.1775 l 0,0 z m -9.91875,-74.335 c -2.2625,0.15875 -4.34375,0.51 -6.3275,1.0475 l 0,0 c -3.895,1.05625 -7.38625,2.79 -10.4125,5.09125 l 0,0 c -1.68125,1.285 -3.14625,2.67375 -4.4625,4.20875 l 0,0 c -2.52625,2.96125 -4.44875,6.3525 -5.7,10.13125 l 0,0 c -0.665,2.0025 -1.13125,4.06125 -1.40125,6.205 l 0,0 c -0.1825,1.4775 -0.275,2.9475 -0.275,4.4375 l 0,0 c 0,0.655 0.02,1.31375 0.0562,1.97875 l 0,0 c 0.1075,2.04625 0.38625,4.08125 0.81875,6.07125 l 0,0 c 0.47875,2.2425 1.15375,4.44 2.0075,6.575 l 0,0 c 1.6825,4.19125 3.96875,8.03625 6.76,11.48125 l 0,0 c 1.535,1.89 3.1875,3.6125 4.95125,5.20625 l 0,0 c 3.3275,3.00375 7.04875,5.4925 11.05375,7.3475 l 0,0 c 2.1,0.9725 4.2775,1.77875 6.51,2.385 l 0,0 c 2.10125,0.57 4.255,0.975 6.435,1.1875 l 0,0 c 1.19875,0.11625 2.38,0.17125 3.5475,0.175 l 0,0 c 0.81625,-0.004 1.6275,-0.0312 2.4225,-0.0825 l 0,0 c 2.20125,-0.16125 4.31375,-0.51875 6.3325,-1.06375 l 0,0 c 3.8675,-1.05625 7.35625,-2.785 10.3675,-5.07625 l 0,0 c 1.67625,-1.2875 3.1425,-2.6825 4.4575,-4.20375 l 0,0 c 2.51,-2.94375 4.44375,-6.345 5.70625,-10.13875 l 0,0 c 0.64875,-1.97125 1.12125,-4.04 1.39625,-6.205 l 0,0 c 0.1825,-1.45875 0.275,-2.92875 0.275,-4.4275 l 0,0 c 0,-0.65625 -0.0213,-1.31625 -0.0538,-1.98375 l 0,0 c -0.11125,-2.055 -0.38875,-4.0825 -0.82125,-6.0725 l 0,0 c -0.49875,-2.3 -1.1725,-4.5 -2.02125,-6.63125 l 0,0 c -1.65375,-4.10875 -3.94375,-7.97375 -6.74625,-11.42625 l 0,0 c -1.535,-1.89 -3.18125,-3.6175 -4.945,-5.21 l 0,0 c -3.29375,-2.97125 -7.01125,-5.46 -11.01625,-7.32375 l 0,0 c -2.145,-0.9975 -4.32,-1.80375 -6.55625,-2.41 l 0,0 c -2.1025,-0.57125 -4.24625,-0.96875 -6.4375,-1.1825 l 0,0 c -1.1875,-0.12125 -2.355,-0.17375 -3.50875,-0.17375 l 0,0 c -0.81125,0 -1.61375,0.0263 -2.4125,0.0825 l 0,0"
         id="path4756"
         inkscape:connector-curvature="0" />
      <path
         style="stroke:#000000;stroke-opacity:1"
         d="m 191.2258,606.44484 c -1.37375,0 -2.7725,-0.0675 -4.1925,-0.20375 l 0,0 c -23.7775,-2.32875 -44.04875,-23.48625 -45.34875,-47.36375 l 0,0 c -0.0412,-0.79625 -0.0625,-1.58375 -0.0625,-2.3625 l 0,0 c -0.001,-10.6375 3.9275,-19.8925 10.49125,-26.4775 l 0,0 c 6.56125,-6.58875 15.74625,-10.505 26.22375,-10.5025 l 0,0 c 1.37625,-0.003 2.77875,0.0675 4.19625,0.20375 l 0,0 c 23.78625,2.33125 44.045,23.495 45.345,47.37125 l 0,0 -0.49125,0.0288 -0.4925,0.025 c -1.24375,-23.355 -21.1925,-44.19 -44.4575,-46.4425 l 0,0 c -1.38875,-0.13375 -2.7575,-0.2025 -4.1,-0.2025 l 0,0 c -20.44875,0.0163 -35.7125,15.2175 -35.73,35.99625 l 0,0 c 0,0.75875 0.02,1.53 0.0613,2.31 l 0,0 c 1.2475,23.35375 21.2025,44.1825 44.4625,46.435 l 0,0 c 1.38375,0.13125 2.7525,0.1975 4.095,0.1975 l 0,0 c 20.4525,-0.0138 35.7125,-15.2125 35.72875,-35.98875 l 0,0 c 0,-0.76125 -0.0162,-1.5325 -0.06,-2.305 l 0,0 0.4925,-0.025 0.49125,-0.0288 c 0.0412,0.795 0.0637,1.5825 0.0637,2.35875 l 0,0 c 0.001,10.63625 -3.93,19.88875 -10.48875,26.47375 l 0,0 c -6.5587,6.58625 -15.7462,10.5025 -26.2187,10.5025 l 0,0 c 0,0 -0.003,0 -0.009,0 l 0,0 z m -4.49375,-5.83875 c -2.24,-0.21625 -4.445,-0.63375 -6.59375,-1.21375 l 0,0 c -2.29125,-0.625 -4.5225,-1.4525 -6.6725,-2.4425 l 0,0 c -4.0975,-1.905 -7.89875,-4.445 -11.29625,-7.5125 l 0,0 c -1.805,-1.62625 -3.49125,-3.3875 -5.05875,-5.31625 l 0,0 c -2.85125,-3.52125 -5.18875,-7.45125 -6.90875,-11.735 l 0,0 c -0.8725,-2.1875 -1.565,-4.4375 -2.05625,-6.73625 l 0,0 c -0.4425,-2.04 -0.72875,-4.125 -0.8425,-6.225 l 0,0 c -0.0362,-0.68375 -0.0538,-1.3575 -0.0538,-2.0325 l 0,0 c 0,-1.53 0.0937,-3.0425 0.28375,-4.55875 l 0,0 c 0.2775,-2.21 0.76,-4.33125 1.4375,-6.395 l 0,0 c 1.295,-3.89625 3.2825,-7.40625 5.89,-10.46 l 0,0 c 1.3625,-1.585 2.88,-3.02625 4.6125,-4.35375 l 0,0 c 3.1325,-2.37875 6.7375,-4.17 10.75375,-5.25875 l 0,0 c 2.05,-0.55375 4.1975,-0.91625 6.52,-1.07625 l 0,0 c 0.82,-0.06 1.64375,-0.0888 2.47875,-0.0888 l 0,0 c 1.185,0 2.38625,0.0562 3.60625,0.17875 l 0,0 c 2.24375,0.2225 4.44625,0.62875 6.59625,1.2125 l 0,0 c 2.29625,0.62 4.525,1.44875 6.71875,2.46875 l 0,0 c 4.095,1.9075 7.8925,4.45 11.25625,7.485 l 0,0 c 1.805,1.625 3.48625,3.39375 5.05125,5.32 l 0,0 c 2.86125,3.53 5.20625,7.47625 6.895,11.68125 l 0,0 c 0.8725,2.18375 1.5625,4.43625 2.07625,6.79 l 0,0 c 0.43625,2.04 0.7225,4.11875 0.83625,6.23125 l 0,0 c 0.0388,0.6825 0.0575,1.36 0.0575,2.03375 l 0,0 c 0,1.5375 -0.0987,3.05 -0.285,4.5525 l 0,0 c -0.2825,2.225 -0.76375,4.35875 -1.44125,6.39 l 0,0 c -1.29875,3.9125 -3.29625,7.42875 -5.89125,10.46875 l 0,0 c -1.355,1.5775 -2.875,3.01875 -4.605,4.34875 l 0,0 c -3.115,2.3675 -6.72125,4.15375 -10.7075,5.245 l 0,0 c -2.08375,0.5625 -4.2625,0.93125 -6.5225,1.09125 l 0,0 c -0.8225,0.0563 -1.655,0.085 -2.4925,0.085 l 0,0 c -1.2,0 -2.41375,-0.0575 -3.6425,-0.1775 l 0,0 z m -9.91875,-74.335 c -2.2625,0.15875 -4.34375,0.51 -6.3275,1.0475 l 0,0 c -3.895,1.05625 -7.38625,2.79 -10.4125,5.09125 l 0,0 c -1.68125,1.285 -3.14625,2.67375 -4.4625,4.20875 l 0,0 c -2.52625,2.96125 -4.44875,6.3525 -5.7,10.13125 l 0,0 c -0.665,2.0025 -1.13125,4.06125 -1.40125,6.205 l 0,0 c -0.1825,1.4775 -0.275,2.9475 -0.275,4.4375 l 0,0 c 0,0.655 0.02,1.31375 0.0562,1.97875 l 0,0 c 0.1075,2.04625 0.38625,4.08125 0.81875,6.07125 l 0,0 c 0.47875,2.2425 1.15375,4.44 2.0075,6.575 l 0,0 c 1.6825,4.19125 3.96875,8.03625 6.76,11.48125 l 0,0 c 1.535,1.89 3.1875,3.6125 4.95125,5.20625 l 0,0 c 3.3275,3.00375 7.04875,5.4925 11.05375,7.3475 l 0,0 c 2.1,0.9725 4.2775,1.77875 6.51,2.385 l 0,0 c 2.10125,0.57 4.255,0.975 6.435,1.1875 l 0,0 c 1.19875,0.11625 2.38,0.17125 3.5475,0.175 l 0,0 c 0.81625,-0.004 1.6275,-0.0312 2.4225,-0.0825 l 0,0 c 2.20125,-0.16125 4.31375,-0.51875 6.3325,-1.06375 l 0,0 c 3.8675,-1.05625 7.35625,-2.785 10.3675,-5.07625 l 0,0 c 1.67625,-1.2875 3.1425,-2.6825 4.4575,-4.20375 l 0,0 c 2.51,-2.94375 4.44375,-6.345 5.70625,-10.13875 l 0,0 c 0.64875,-1.97125 1.12125,-4.04 1.39625,-6.205 l 0,0 c 0.1825,-1.45875 0.275,-2.92875 0.275,-4.4275 l 0,0 c 0,-0.65625 -0.0213,-1.31625 -0.0538,-1.98375 l 0,0 c -0.11125,-2.055 -0.38875,-4.0825 -0.82125,-6.0725 l 0,0 c -0.49875,-2.3 -1.1725,-4.5 -2.02125,-6.63125 l 0,0 c -1.65375,-4.10875 -3.94375,-7.97375 -6.74625,-11.42625 l 0,0 c -1.535,-1.89 -3.18125,-3.6175 -4.945,-5.21 l 0,0 c -3.29375,-2.97125 -7.01125,-5.46 -11.01625,-7.32375 l 0,0 c -2.145,-0.9975 -4.32,-1.80375 -6.55625,-2.41 l 0,0 c -2.1025,-0.57125 -4.24625,-0.96875 -6.4375,-1.1825 l 0,0 c -1.1875,-0.12125 -2.355,-0.17375 -3.50875,-0.17375 l 0,0 c -0.81125,0 -1.61375,0.0263 -2.4125,0.0825 l 0,0"
         id="path4758"
         inkscape:connector-curvature="0" />
      <path
         style="stroke:#000000;stroke-opacity:1"
         d="m 191.2258,606.44484 c -1.37375,0 -2.7725,-0.0675 -4.1925,-0.20375 l 0,0 c -23.7775,-2.32875 -44.04875,-23.48625 -45.34875,-47.36375 l 0,0 c -0.0412,-0.79625 -0.0625,-1.58375 -0.0625,-2.3625 l 0,0 c -0.001,-10.6375 3.9275,-19.8925 10.49125,-26.4775 l 0,0 c 6.56125,-6.58875 15.74625,-10.505 26.22375,-10.5025 l 0,0 c 1.37625,-0.003 2.77875,0.0675 4.19625,0.20375 l 0,0 c 23.78625,2.33125 44.045,23.495 45.345,47.37125 l 0,0 -0.49125,0.0288 -0.4925,0.025 c -1.24375,-23.355 -21.1925,-44.19 -44.4575,-46.4425 l 0,0 c -1.38875,-0.13375 -2.7575,-0.2025 -4.1,-0.2025 l 0,0 c -20.44875,0.0163 -35.7125,15.2175 -35.73,35.99625 l 0,0 c 0,0.75875 0.02,1.53 0.0613,2.31 l 0,0 c 1.2475,23.35375 21.2025,44.1825 44.4625,46.435 l 0,0 c 1.38375,0.13125 2.7525,0.1975 4.095,0.1975 l 0,0 c 20.4525,-0.0138 35.7125,-15.2125 35.72875,-35.98875 l 0,0 c 0,-0.76125 -0.0162,-1.5325 -0.06,-2.305 l 0,0 0.4925,-0.025 0.49125,-0.0288 c 0.0412,0.795 0.0637,1.5825 0.0637,2.35875 l 0,0 c 0.001,10.63625 -3.93,19.88875 -10.48875,26.47375 l 0,0 c -6.5587,6.58625 -15.7462,10.5025 -26.2187,10.5025 l 0,0 c 0,0 -0.003,0 -0.009,0 l 0,0 z m -4.49375,-5.83875 c -2.24,-0.21625 -4.445,-0.63375 -6.59375,-1.21375 l 0,0 c -2.29125,-0.625 -4.5225,-1.4525 -6.6725,-2.4425 l 0,0 c -4.0975,-1.905 -7.89875,-4.445 -11.29625,-7.5125 l 0,0 c -1.805,-1.62625 -3.49125,-3.3875 -5.05875,-5.31625 l 0,0 c -2.85125,-3.52125 -5.18875,-7.45125 -6.90875,-11.735 l 0,0 c -0.8725,-2.1875 -1.565,-4.4375 -2.05625,-6.73625 l 0,0 c -0.4425,-2.04 -0.72875,-4.125 -0.8425,-6.225 l 0,0 c -0.0362,-0.68375 -0.0538,-1.3575 -0.0538,-2.0325 l 0,0 c 0,-1.53 0.0937,-3.0425 0.28375,-4.55875 l 0,0 c 0.2775,-2.21 0.76,-4.33125 1.4375,-6.395 l 0,0 c 1.295,-3.89625 3.2825,-7.40625 5.89,-10.46 l 0,0 c 1.3625,-1.585 2.88,-3.02625 4.6125,-4.35375 l 0,0 c 3.1325,-2.37875 6.7375,-4.17 10.75375,-5.25875 l 0,0 c 2.05,-0.55375 4.1975,-0.91625 6.52,-1.07625 l 0,0 c 0.82,-0.06 1.64375,-0.0888 2.47875,-0.0888 l 0,0 c 1.185,0 2.38625,0.0562 3.60625,0.17875 l 0,0 c 2.24375,0.2225 4.44625,0.62875 6.59625,1.2125 l 0,0 c 2.29625,0.62 4.525,1.44875 6.71875,2.46875 l 0,0 c 4.095,1.9075 7.8925,4.45 11.25625,7.485 l 0,0 c 1.805,1.625 3.48625,3.39375 5.05125,5.32 l 0,0 c 2.86125,3.53 5.20625,7.47625 6.895,11.68125 l 0,0 c 0.8725,2.18375 1.5625,4.43625 2.07625,6.79 l 0,0 c 0.43625,2.04 0.7225,4.11875 0.83625,6.23125 l 0,0 c 0.0388,0.6825 0.0575,1.36 0.0575,2.03375 l 0,0 c 0,1.5375 -0.0987,3.05 -0.285,4.5525 l 0,0 c -0.2825,2.225 -0.76375,4.35875 -1.44125,6.39 l 0,0 c -1.29875,3.9125 -3.29625,7.42875 -5.89125,10.46875 l 0,0 c -1.355,1.5775 -2.875,3.01875 -4.605,4.34875 l 0,0 c -3.115,2.3675 -6.72125,4.15375 -10.7075,5.245 l 0,0 c -2.08375,0.5625 -4.2625,0.93125 -6.5225,1.09125 l 0,0 c -0.8225,0.0563 -1.655,0.085 -2.4925,0.085 l 0,0 c -1.2,0 -2.41375,-0.0575 -3.6425,-0.1775 l 0,0 z m -9.91875,-74.335 c -2.2625,0.15875 -4.34375,0.51 -6.3275,1.0475 l 0,0 c -3.895,1.05625 -7.38625,2.79 -10.4125,5.09125 l 0,0 c -1.68125,1.285 -3.14625,2.67375 -4.4625,4.20875 l 0,0 c -2.52625,2.96125 -4.44875,6.3525 -5.7,10.13125 l 0,0 c -0.665,2.0025 -1.13125,4.06125 -1.40125,6.205 l 0,0 c -0.1825,1.4775 -0.275,2.9475 -0.275,4.4375 l 0,0 c 0,0.655 0.02,1.31375 0.0562,1.97875 l 0,0 c 0.1075,2.04625 0.38625,4.08125 0.81875,6.07125 l 0,0 c 0.47875,2.2425 1.15375,4.44 2.0075,6.575 l 0,0 c 1.6825,4.19125 3.96875,8.03625 6.76,11.48125 l 0,0 c 1.535,1.89 3.1875,3.6125 4.95125,5.20625 l 0,0 c 3.3275,3.00375 7.04875,5.4925 11.05375,7.3475 l 0,0 c 2.1,0.9725 4.2775,1.77875 6.51,2.385 l 0,0 c 2.10125,0.57 4.255,0.975 6.435,1.1875 l 0,0 c 1.19875,0.11625 2.38,0.17125 3.5475,0.175 l 0,0 c 0.81625,-0.004 1.6275,-0.0312 2.4225,-0.0825 l 0,0 c 2.20125,-0.16125 4.31375,-0.51875 6.3325,-1.06375 l 0,0 c 3.8675,-1.05625 7.35625,-2.785 10.3675,-5.07625 l 0,0 c 1.67625,-1.2875 3.1425,-2.6825 4.4575,-4.20375 l 0,0 c 2.51,-2.94375 4.44375,-6.345 5.70625,-10.13875 l 0,0 c 0.64875,-1.97125 1.12125,-4.04 1.39625,-6.205 l 0,0 c 0.1825,-1.45875 0.275,-2.92875 0.275,-4.4275 l 0,0 c 0,-0.65625 -0.0213,-1.31625 -0.0538,-1.98375 l 0,0 c -0.11125,-2.055 -0.38875,-4.0825 -0.82125,-6.0725 l 0,0 c -0.49875,-2.3 -1.1725,-4.5 -2.02125,-6.63125 l 0,0 c -1.65375,-4.10875 -3.94375,-7.97375 -6.74625,-11.42625 l 0,0 c -1.535,-1.89 -3.18125,-3.6175 -4.945,-5.21 l 0,0 c -3.29375,-2.97125 -7.01125,-5.46 -11.01625,-7.32375 l 0,0 c -2.145,-0.9975 -4.32,-1.80375 -6.55625,-2.41 l 0,0 c -2.1025,-0.57125 -4.24625,-0.96875 -6.4375,-1.1825 l 0,0 c -1.1875,-0.12125 -2.355,-0.17375 -3.50875,-0.17375 l 0,0 c -0.81125,0 -1.61375,0.0263 -2.4125,0.0825 l 0,0"
         id="path4760"
         inkscape:connector-curvature="0" />
      <path
         style="fill:#ff6600;stroke:#000000;stroke-opacity:1"
         d="m 191.2258,606.44484 c -1.37375,0 -2.7725,-0.0675 -4.1925,-0.20375 l 0,0 c -23.7775,-2.32875 -44.04875,-23.48625 -45.34875,-47.36375 l 0,0 c -0.0412,-0.79625 -0.0625,-1.58375 -0.0625,-2.3625 l 0,0 c -0.001,-10.6375 3.9275,-19.8925 10.49125,-26.4775 l 0,0 c 6.56125,-6.58875 15.74625,-10.505 26.22375,-10.5025 l 0,0 c 1.37625,-0.003 2.77875,0.0675 4.19625,0.20375 l 0,0 c 23.78625,2.33125 44.045,23.495 45.345,47.37125 l 0,0 -0.49125,0.0288 -0.4925,0.025 c -1.24375,-23.355 -21.1925,-44.19 -44.4575,-46.4425 l 0,0 c -1.38875,-0.13375 -2.7575,-0.2025 -4.1,-0.2025 l 0,0 c -20.44875,0.0163 -35.7125,15.2175 -35.73,35.99625 l 0,0 c 0,0.75875 0.02,1.53 0.0613,2.31 l 0,0 c 1.2475,23.35375 21.2025,44.1825 44.4625,46.435 l 0,0 c 1.38375,0.13125 2.7525,0.1975 4.095,0.1975 l 0,0 c 20.4525,-0.0138 35.7125,-15.2125 35.72875,-35.98875 l 0,0 c 0,-0.76125 -0.0162,-1.5325 -0.06,-2.305 l 0,0 0.4925,-0.025 0.49125,-0.0288 c 0.0412,0.795 0.0637,1.5825 0.0637,2.35875 l 0,0 c 0.001,10.63625 -3.93,19.88875 -10.48875,26.47375 l 0,0 c -6.5587,6.58625 -15.7462,10.5025 -26.2187,10.5025 l 0,0 c 0,0 -0.003,0 -0.009,0 l 0,0 z m -4.49375,-5.83875 c -2.24,-0.21625 -4.445,-0.63375 -6.59375,-1.21375 l 0,0 c -2.29125,-0.625 -4.5225,-1.4525 -6.6725,-2.4425 l 0,0 c -4.0975,-1.905 -7.89875,-4.445 -11.29625,-7.5125 l 0,0 c -1.805,-1.62625 -3.49125,-3.3875 -5.05875,-5.31625 l 0,0 c -2.85125,-3.52125 -5.18875,-7.45125 -6.90875,-11.735 l 0,0 c -0.8725,-2.1875 -1.565,-4.4375 -2.05625,-6.73625 l 0,0 c -0.4425,-2.04 -0.72875,-4.125 -0.8425,-6.225 l 0,0 c -0.0362,-0.68375 -0.0538,-1.3575 -0.0538,-2.0325 l 0,0 c 0,-1.53 0.0937,-3.0425 0.28375,-4.55875 l 0,0 c 0.2775,-2.21 0.76,-4.33125 1.4375,-6.395 l 0,0 c 1.295,-3.89625 3.2825,-7.40625 5.89,-10.46 l 0,0 c 1.3625,-1.585 2.88,-3.02625 4.6125,-4.35375 l 0,0 c 3.1325,-2.37875 6.7375,-4.17 10.75375,-5.25875 l 0,0 c 2.05,-0.55375 4.1975,-0.91625 6.52,-1.07625 l 0,0 c 0.82,-0.06 1.64375,-0.0888 2.47875,-0.0888 l 0,0 c 1.185,0 2.38625,0.0562 3.60625,0.17875 l 0,0 c 2.24375,0.2225 4.44625,0.62875 6.59625,1.2125 l 0,0 c 2.29625,0.62 4.525,1.44875 6.71875,2.46875 l 0,0 c 4.095,1.9075 7.8925,4.45 11.25625,7.485 l 0,0 c 1.805,1.625 3.48625,3.39375 5.05125,5.32 l 0,0 c 2.86125,3.53 5.20625,7.47625 6.895,11.68125 l 0,0 c 0.8725,2.18375 1.5625,4.43625 2.07625,6.79 l 0,0 c 0.43625,2.04 0.7225,4.11875 0.83625,6.23125 l 0,0 c 0.0388,0.6825 0.0575,1.36 0.0575,2.03375 l 0,0 c 0,1.5375 -0.0987,3.05 -0.285,4.5525 l 0,0 c -0.2825,2.225 -0.76375,4.35875 -1.44125,6.39 l 0,0 c -1.29875,3.9125 -3.29625,7.42875 -5.89125,10.46875 l 0,0 c -1.355,1.5775 -2.875,3.01875 -4.605,4.34875 l 0,0 c -3.115,2.3675 -6.72125,4.15375 -10.7075,5.245 l 0,0 c -2.08375,0.5625 -4.2625,0.93125 -6.5225,1.09125 l 0,0 c -0.8225,0.0563 -1.655,0.085 -2.4925,0.085 l 0,0 c -1.2,0 -2.41375,-0.0575 -3.6425,-0.1775 l 0,0 z m -9.91875,-74.335 c -2.2625,0.15875 -4.34375,0.51 -6.3275,1.0475 l 0,0 c -3.895,1.05625 -7.38625,2.79 -10.4125,5.09125 l 0,0 c -1.68125,1.285 -3.14625,2.67375 -4.4625,4.20875 l 0,0 c -2.52625,2.96125 -4.44875,6.3525 -5.7,10.13125 l 0,0 c -0.665,2.0025 -1.13125,4.06125 -1.40125,6.205 l 0,0 c -0.1825,1.4775 -0.275,2.9475 -0.275,4.4375 l 0,0 c 0,0.655 0.02,1.31375 0.0562,1.97875 l 0,0 c 0.1075,2.04625 0.38625,4.08125 0.81875,6.07125 l 0,0 c 0.47875,2.2425 1.15375,4.44 2.0075,6.575 l 0,0 c 1.6825,4.19125 3.96875,8.03625 6.76,11.48125 l 0,0 c 1.535,1.89 3.1875,3.6125 4.95125,5.20625 l 0,0 c 3.3275,3.00375 7.04875,5.4925 11.05375,7.3475 l 0,0 c 2.1,0.9725 4.2775,1.77875 6.51,2.385 l 0,0 c 2.10125,0.57 4.255,0.975 6.435,1.1875 l 0,0 c 1.19875,0.11625 2.38,0.17125 3.5475,0.175 l 0,0 c 0.81625,-0.004 1.6275,-0.0312 2.4225,-0.0825 l 0,0 c 2.20125,-0.16125 4.31375,-0.51875 6.3325,-1.06375 l 0,0 c 3.8675,-1.05625 7.35625,-2.785 10.3675,-5.07625 l 0,0 c 1.67625,-1.2875 3.1425,-2.6825 4.4575,-4.20375 l 0,0 c 2.51,-2.94375 4.44375,-6.345 5.70625,-10.13875 l 0,0 c 0.64875,-1.97125 1.12125,-4.04 1.39625,-6.205 l 0,0 c 0.1825,-1.45875 0.275,-2.92875 0.275,-4.4275 l 0,0 c 0,-0.65625 -0.0213,-1.31625 -0.0538,-1.98375 l 0,0 c -0.11125,-2.055 -0.38875,-4.0825 -0.82125,-6.0725 l 0,0 c -0.49875,-2.3 -1.1725,-4.5 -2.02125,-6.63125 l 0,0 c -1.65375,-4.10875 -3.94375,-7.97375 -6.74625,-11.42625 l 0,0 c -1.535,-1.89 -3.18125,-3.6175 -4.945,-5.21 l 0,0 c -3.29375,-2.97125 -7.01125,-5.46 -11.01625,-7.32375 l 0,0 c -2.145,-0.9975 -4.32,-1.80375 -6.55625,-2.41 l 0,0 c -2.1025,-0.57125 -4.24625,-0.96875 -6.4375,-1.1825 l 0,0 c -1.1875,-0.12125 -2.355,-0.17375 -3.50875,-0.17375 l 0,0 c -0.81125,0 -1.61375,0.0263 -2.4125,0.0825 l 0,0"
         id="path4762"
         inkscape:connector-curvature="0" />
      <path
         d="m 216.35455,560.99734 -0.007,-0.0263 c 0.002,0.01 0.005,0.02 0.007,0.0263 l 0,0"
         style="fill:#7a7b7d;fill-opacity:1;fill-rule:nonzero;stroke:#000000;stroke-opacity:1"
         id="path4764"
         inkscape:connector-curvature="0" />
      <path
         d="m 176.6383,525.77484 0,0.006 c -0.0162,0 -0.0312,0 -0.0475,0 l 0.0475,-0.006"
         style="fill:#7a7b7d;fill-opacity:1;fill-rule:nonzero;stroke:#000000;stroke-opacity:1"
         id="path4766"
         inkscape:connector-curvature="0" />
      <path
         d="m 171.78955,531.39484 0,0 c 0.0163,-0.008 0.0312,-0.009 0.045,-0.0125 l -0.045,0.0125"
         style="fill:#7a7b7d;fill-opacity:1;fill-rule:nonzero;stroke:#000000;stroke-opacity:1"
         id="path4768"
         inkscape:connector-curvature="0" />
      <path
         d="m 210.6583,586.20734 0,0 c -0.0112,0.0112 -0.02,0.0225 -0.03,0.0337 l 0.03,-0.0337"
         style="fill:#7a7b7d;fill-opacity:1;fill-rule:nonzero;stroke:#000000;stroke-opacity:1"
         id="path4770"
         inkscape:connector-curvature="0" />
      <path
         d="m 155.0333,536.36984 0,0 0.03,-0.0362 c -0.0125,0.0125 -0.0213,0.0225 -0.03,0.0362"
         style="fill:#7a7b7d;fill-opacity:1;fill-rule:nonzero;stroke:#000000;stroke-opacity:1"
         id="path4772"
         inkscape:connector-curvature="0" />
      <path
         d="m 209.6558,593.97109 -0.002,-0.004 c 0.009,-0.008 0.0225,-0.0175 0.035,-0.0263 l -0.0325,0.03"
         style="fill:#7a7b7d;fill-opacity:1;fill-rule:nonzero;stroke:#000000;stroke-opacity:1"
         id="path4774"
         inkscape:connector-curvature="0" />
      <path
         d="m 199.0683,599.13984 0,0 c 0.002,0 0.005,0 0.0113,0 l -0.0113,0"
         style="fill:#7a7b7d;fill-opacity:1;fill-rule:nonzero;stroke:#000000;stroke-opacity:1"
         id="path4776"
         inkscape:connector-curvature="0" />
      <path
         d="m 147.8658,552.99109 -0.005,0 0.0125,-0.0462 c -0.004,0.015 -0.007,0.0287 -0.007,0.0462"
         style="fill:#7a7b7d;fill-opacity:1;fill-rule:nonzero;stroke:#000000;stroke-opacity:1"
         id="path4778"
         inkscape:connector-curvature="0" />
      <path
         d="m 180.82205,594.48609 0.0488,0.0113 0,0 c -0.0188,0 -0.035,-0.004 -0.0488,-0.0113"
         style="fill:#7a7b7d;fill-opacity:1;fill-rule:nonzero;stroke:#000000;stroke-opacity:1"
         id="path4780"
         inkscape:connector-curvature="0" />
      <path
         d="m 204.12455,625.27484 -7.965,7.60625 -0.7975,-14.80125 7.96625,-7.6125 0.79625,14.8075"
         style="fill:#5b131b;fill-opacity:1;fill-rule:nonzero;stroke:#000000;stroke-opacity:1"
         id="path4782"
         inkscape:connector-curvature="0" />
      <path
         style="stroke:#000000;stroke-opacity:1"
         d="m 204.12455,625.27484 -7.965,7.60625 c 10.5825,-1.84 19.88125,-6.5825 27.11375,-13.49 l 7.96375,-7.605 c -7.23125,6.90625 -16.5275,11.65 -27.1125,13.48875"
         id="path4792"
         inkscape:connector-curvature="0" />
      <path
         style="stroke:#000000;stroke-opacity:1"
         d="m 204.12455,625.27484 -7.965,7.60625 c 10.5825,-1.84 19.88125,-6.5825 27.11375,-13.49 l 7.96375,-7.605 c -7.23125,6.90625 -16.5275,11.65 -27.1125,13.48875"
         id="path4794"
         inkscape:connector-curvature="0" />
      <path
         style="stroke:#000000;stroke-opacity:1"
         d="m 204.12455,625.27484 -7.965,7.60625 c 10.5825,-1.84 19.88125,-6.5825 27.11375,-13.49 l 7.96375,-7.605 c -7.23125,6.90625 -16.5275,11.65 -27.1125,13.48875"
         id="path4796"
         inkscape:connector-curvature="0" />
      <path
         style="stroke:#000000;stroke-opacity:1"
         d="m 204.12455,625.27484 -7.965,7.60625 c 10.5825,-1.84 19.88125,-6.5825 27.11375,-13.49 l 7.96375,-7.605 c -7.23125,6.90625 -16.5275,11.65 -27.1125,13.48875"
         id="path4798"
         inkscape:connector-curvature="0" />
      <path
         style="stroke:#000000;stroke-opacity:1"
         d="m 204.12455,625.27484 -7.965,7.60625 c 10.5825,-1.84 19.88125,-6.5825 27.11375,-13.49 l 7.96375,-7.605 c -7.23125,6.90625 -16.5275,11.65 -27.1125,13.48875"
         id="path4800"
         inkscape:connector-curvature="0" />
      <path
         style="fill:#800000;stroke:#000000;stroke-opacity:1"
         d="m 204.12455,625.27484 -7.965,7.60625 c 10.5825,-1.84 19.88125,-6.5825 27.11375,-13.49 l 7.96375,-7.605 c -7.23125,6.90625 -16.5275,11.65 -27.1125,13.48875"
         id="path4802"
         inkscape:connector-curvature="0" />
      <path
         style="stroke:#000000;stroke-opacity:1"
         d="m 127.8683,524.05359 c -6.11875,6.6275 -10.4925,14.94625 -12.555,24.40875 l 7.965,-7.605 c 2.0625,-9.46625 6.435,-17.7825 12.55625,-24.40875 l -7.96625,7.605"
         id="path4812"
         inkscape:connector-curvature="0" />
      <path
         style="stroke:#000000;stroke-opacity:1"
         d="m 127.8683,524.05359 c -6.11875,6.6275 -10.4925,14.94625 -12.555,24.40875 l 7.965,-7.605 c 2.0625,-9.46625 6.435,-17.7825 12.55625,-24.40875 l -7.96625,7.605"
         id="path4814"
         inkscape:connector-curvature="0" />
      <path
         style="stroke:#000000;stroke-opacity:1"
         d="m 127.8683,524.05359 c -6.11875,6.6275 -10.4925,14.94625 -12.555,24.40875 l 7.965,-7.605 c 2.0625,-9.46625 6.435,-17.7825 12.55625,-24.40875 l -7.96625,7.605"
         id="path4816"
         inkscape:connector-curvature="0" />
      <path
         style="fill:#ffffff;stroke:#000000;stroke-opacity:1"
         d="m 127.8683,524.05359 c -6.11875,6.6275 -10.4925,14.94625 -12.555,24.40875 l 7.965,-7.605 c 2.0625,-9.46625 6.435,-17.7825 12.55625,-24.40875 l -7.96625,7.605"
         id="path4818"
         inkscape:connector-curvature="0" />
      <path
         d="m 162.3958,589.11234 -0.04,-0.0388 c 0.0138,0.0125 0.025,0.025 0.0413,0.0338 l -0.001,0.005"
         style="fill:#7a7b7d;fill-opacity:1;fill-rule:nonzero;stroke:#000000;stroke-opacity:1"
         id="path4820"
         inkscape:connector-curvature="0" />
      <path
         style="stroke:#000000;stroke-opacity:1"
         d="m 188.59455,606.58234 c 5.35,0.52 10.3825,1.89875 14.6575,3.85125 l 0.8725,14.84125 c -5.1,0.88375 -10.49625,1.1 -16.10625,0.55625 -4.45,-0.43625 -8.81625,-1.33 -13.05625,-2.62125 l -0.8375,-15.57875 0.0762,-0.0263 c 4.10625,-1.1362 9.04625,-1.5487 14.39375,-1.02245"
         id="path4830"
         inkscape:connector-curvature="0" />
      <path
         style="stroke:#000000;stroke-opacity:1"
         d="m 188.59455,606.58234 c 5.35,0.52 10.3825,1.89875 14.6575,3.85125 l 0.8725,14.84125 c -5.1,0.88375 -10.49625,1.1 -16.10625,0.55625 -4.45,-0.43625 -8.81625,-1.33 -13.05625,-2.62125 l -0.8375,-15.57875 0.0762,-0.0263 c 4.10625,-1.1362 9.04625,-1.5487 14.39375,-1.02245"
         id="path4832"
         inkscape:connector-curvature="0" />
      <path
         style="stroke:#000000;stroke-opacity:1"
         d="m 188.59455,606.58234 c 5.35,0.52 10.3825,1.89875 14.6575,3.85125 l 0.8725,14.84125 c -5.1,0.88375 -10.49625,1.1 -16.10625,0.55625 -4.45,-0.43625 -8.81625,-1.33 -13.05625,-2.62125 l -0.8375,-15.57875 0.0762,-0.0263 c 4.10625,-1.1362 9.04625,-1.5487 14.39375,-1.02245"
         id="path4834"
         inkscape:connector-curvature="0" />
      <path
         style="fill:#ffffff;stroke:#000000;stroke-opacity:1"
         d="m 188.59455,606.58234 c 5.35,0.52 10.3825,1.89875 14.6575,3.85125 l 0.8725,14.84125 c -5.1,0.88375 -10.49625,1.1 -16.10625,0.55625 -4.45,-0.43625 -8.81625,-1.33 -13.05625,-2.62125 l -0.8375,-15.57875 0.0762,-0.0263 c 4.10625,-1.1362 9.04625,-1.5487 14.39375,-1.02245"
         id="path4836"
         inkscape:connector-curvature="0" />
      <path
         style="stroke:#000000;stroke-opacity:1"
         d="m 188.0183,625.83109 c -4.45,-0.43625 -8.81625,-1.33 -13.05625,-2.62125 l -7.96125,7.61 c 4.2375,1.2925 8.60375,2.18375 13.0525,2.61625 5.61,0.54375 11.00625,0.3275 16.10625,-0.5575 l 7.965,-7.60375 c -5.1,0.88375 -10.49625,1.1 -16.10625,0.55625"
         id="path4846"
         inkscape:connector-curvature="0" />
      <path
         style="stroke:#000000;stroke-opacity:1"
         d="m 188.0183,625.83109 c -4.45,-0.43625 -8.81625,-1.33 -13.05625,-2.62125 l -7.96125,7.61 c 4.2375,1.2925 8.60375,2.18375 13.0525,2.61625 5.61,0.54375 11.00625,0.3275 16.10625,-0.5575 l 7.965,-7.60375 c -5.1,0.88375 -10.49625,1.1 -16.10625,0.55625"
         id="path4848"
         inkscape:connector-curvature="0" />
      <path
         style="stroke:#000000;stroke-opacity:1"
         d="m 188.0183,625.83109 c -4.45,-0.43625 -8.81625,-1.33 -13.05625,-2.62125 l -7.96125,7.61 c 4.2375,1.2925 8.60375,2.18375 13.0525,2.61625 5.61,0.54375 11.00625,0.3275 16.10625,-0.5575 l 7.965,-7.60375 c -5.1,0.88375 -10.49625,1.1 -16.10625,0.55625"
         id="path4850"
         inkscape:connector-curvature="0" />
      <path
         style="fill:#ffffff;stroke:#000000;stroke-opacity:1"
         d="m 188.0183,625.83109 c -4.45,-0.43625 -8.81625,-1.33 -13.05625,-2.62125 l -7.96125,7.61 c 4.2375,1.2925 8.60375,2.18375 13.0525,2.61625 5.61,0.54375 11.00625,0.3275 16.10625,-0.5575 l 7.965,-7.60375 c -5.1,0.88375 -10.49625,1.1 -16.10625,0.55625"
         id="path4852"
         inkscape:connector-curvature="0" />
      <path
         style="stroke:#000000;stroke-opacity:1"
         d="m 142.77455,603.12984 -7.96375,7.6075 c 8.8625,9.25625 19.97875,16.35375 32.19,20.0825 l 7.96125,-7.61 c -12.2,-3.72875 -23.32,-10.82625 -32.1875,-20.08"
         id="path4862"
         inkscape:connector-curvature="0" />
      <path
         style="stroke:#000000;stroke-opacity:1"
         d="m 142.77455,603.12984 -7.96375,7.6075 c 8.8625,9.25625 19.97875,16.35375 32.19,20.0825 l 7.96125,-7.61 c -12.2,-3.72875 -23.32,-10.82625 -32.1875,-20.08"
         id="path4864"
         inkscape:connector-curvature="0" />
      <path
         style="stroke:#000000;stroke-opacity:1"
         d="m 142.77455,603.12984 -7.96375,7.6075 c 8.8625,9.25625 19.97875,16.35375 32.19,20.0825 l 7.96125,-7.61 c -12.2,-3.72875 -23.32,-10.82625 -32.1875,-20.08"
         id="path4866"
         inkscape:connector-curvature="0" />
      <path
         style="stroke:#000000;stroke-opacity:1"
         d="m 142.77455,603.12984 -7.96375,7.6075 c 8.8625,9.25625 19.97875,16.35375 32.19,20.0825 l 7.96125,-7.61 c -12.2,-3.72875 -23.32,-10.82625 -32.1875,-20.08"
         id="path4868"
         inkscape:connector-curvature="0" />
      <path
         style="stroke:#000000;stroke-opacity:1"
         d="m 142.77455,603.12984 -7.96375,7.6075 c 8.8625,9.25625 19.97875,16.35375 32.19,20.0825 l 7.96125,-7.61 c -12.2,-3.72875 -23.32,-10.82625 -32.1875,-20.08"
         id="path4870"
         inkscape:connector-curvature="0" />
      <path
         style="fill:#800000;stroke:#000000;stroke-opacity:1"
         d="m 142.77455,603.12984 -7.96375,7.6075 c 8.8625,9.25625 19.97875,16.35375 32.19,20.0825 l 7.96125,-7.61 c -12.2,-3.72875 -23.32,-10.82625 -32.1875,-20.08"
         id="path4872"
         inkscape:connector-curvature="0" />
      <path
         style="stroke:#000000;stroke-opacity:1"
         d="m 126.14705,576.65859 -7.965,7.61 c 3.60375,9.82625 9.35375,18.87875 16.62875,26.46875 l 7.96375,-7.6075 c -7.275,-7.59 -13.02625,-16.6375 -16.6275,-26.47125"
         id="path4882"
         inkscape:connector-curvature="0" />
      <path
         style="stroke:#000000;stroke-opacity:1"
         d="m 126.14705,576.65859 -7.965,7.61 c 3.60375,9.82625 9.35375,18.87875 16.62875,26.46875 l 7.96375,-7.6075 c -7.275,-7.59 -13.02625,-16.6375 -16.6275,-26.47125"
         id="path4884"
         inkscape:connector-curvature="0" />
      <path
         style="stroke:#000000;stroke-opacity:1"
         d="m 126.14705,576.65859 -7.965,7.61 c 3.60375,9.82625 9.35375,18.87875 16.62875,26.46875 l 7.96375,-7.6075 c -7.275,-7.59 -13.02625,-16.6375 -16.6275,-26.47125"
         id="path4886"
         inkscape:connector-curvature="0" />
      <path
         style="fill:#ffffff;stroke:#000000;stroke-opacity:1"
         d="m 126.14705,576.65859 -7.965,7.61 c 3.60375,9.82625 9.35375,18.87875 16.62875,26.46875 l 7.96375,-7.6075 c -7.275,-7.59 -13.02625,-16.6375 -16.6275,-26.47125"
         id="path4888"
         inkscape:connector-curvature="0" />
      <g
         id="g16728"
         ns0:preamble=""
         ns0:text="$\\mathcal{L}$"
         transform="matrix(5.4775565,-1.2263736,1.6721517,5.5050629,-1281.8603,116.47602)">
        <defs
           id="defs16730">
          <g
             id="g16732">
            <symbol
               id="textext-3b424cce-0"
               overflow="visible"
               style="overflow:visible">
              <path
                 id="path16735"
                 d="m 6.546875,-1.421875 c -0.015625,0 -0.0625,-0.03125 -0.09375,-0.03125 -0.140625,0 -0.390625,0.125 -0.546875,0.234375 -0.28125,0.171875 -0.296875,0.234375 -0.359375,0.40625 -0.0625,0.15625 -0.15625,0.28125 -0.15625,0.296875 -0.09375,0.109375 -0.09375,0.109375 -0.25,0.109375 -0.4375,0 -0.96875,-0.125 -1.359375,-0.234375 -0.5,-0.15625 -1.078125,-0.328125 -1.609375,-0.328125 -0.234375,0 -0.265625,0.015625 -0.375,0.046875 0.53125,-0.78125 0.71875,-1.546875 0.8125,-1.953125 0.1875,-0.75 0.65625,-2.59375 1.375,-3.3125 0.140625,-0.15625 0.203125,-0.21875 0.53125,-0.21875 0.59375,0 0.6875,0.578125 0.6875,0.828125 0,0.15625 -0.046875,0.328125 -0.046875,0.359375 0,0.03125 0,0.078125 0.09375,0.078125 0.140625,0 0.421875,-0.125 0.65625,-0.296875 0.15625,-0.125 0.265625,-0.203125 0.265625,-0.65625 0,-0.453125 -0.203125,-0.9375 -0.859375,-0.9375 -0.8125,0 -1.75,0.578125 -2.21875,1.140625 -0.703125,0.84375 -1.046875,1.90625 -1.453125,3.5 -0.375,1.5 -0.953125,2.0625 -0.96875,2.09375 C 0.34375,-0.015625 0.3125,0.125 0.3125,0.15625 c 0,0.015625 0.015625,0.0625 0.09375,0.0625 0.171875,0 0.671875,-0.234375 0.921875,-0.5625 0.3125,0 0.578125,0 1.515625,0.28125 0.34375,0.09375 0.96875,0.28125 1.5,0.28125 0.734375,0 1.96875,-0.671875 2.203125,-1.640625 z m 0,0"
                 style="stroke:none"
                 inkscape:connector-curvature="0" />
            </symbol>
          </g>
        </defs>
        <g
           id="textext-3b424cce-1">
          <g
             id="g16738"
             style="fill:#000000;fill-opacity:1">
            <use
               id="use16740"
               y="134.765"
               x="223.43201"
               xlink:href="#textext-3b424cce-0"
               width="744.09448"
               height="1052.3622" />
          </g>
        </g>
      </g>
    </g>
    <g
       id="g17688"
       transform="matrix(3.1008921,0,0,3.1008921,-574.82389,245.51753)"
       ns0:preamble=""
       ns0:text="\\textbf{GAMBIT}"
       style="fill:#800000">
      <defs
         id="defs17690">
        <g
           id="g17692">
          <symbol
             id="textext-a8dc9600-0"
             overflow="visible"
             style="overflow:visible">
            <path
               id="path17695"
               d="M 6.515625,-0.53125 C 6.8125,-0.265625 7.421875,0 7.484375,0 7.625,0 7.625,-0.125 7.625,-0.28125 l 0,-2 0.796875,0 0,-0.46875 c -0.34375,0.03125 -1.21875,0.03125 -1.609375,0.03125 -0.578125,0 -1.5,0 -2.03125,-0.03125 l 0,0.46875 1.421875,0 0,1 c 0,0.1875 0,0.484375 -0.375,0.71875 C 5.5625,-0.421875 5.25,-0.359375 4.921875,-0.359375 c -0.859375,0 -1.71875,-0.28125 -2.203125,-0.90625 -0.421875,-0.546875 -0.5625,-1.25 -0.5625,-2.15625 0,-1.125 0.203125,-1.703125 0.578125,-2.1875 0.390625,-0.5 1.15625,-0.875 2.125,-0.875 1.0625,0 2.015625,0.765625 2.234375,2.03125 C 7.125,-4.265625 7.125,-4.25 7.359375,-4.25 c 0.25,0 0.265625,-0.015625 0.265625,-0.28125 l 0,-2.140625 c 0,-0.1875 0,-0.28125 -0.171875,-0.28125 -0.09375,0 -0.109375,0.03125 -0.203125,0.09375 l -0.65625,0.59375 c -0.71875,-0.578125 -1.4375,-0.6875 -1.953125,-0.6875 -2.453125,0 -4,1.46875 -4,3.53125 0,1.984375 1.4375,3.53125 4.015625,3.53125 0.328125,0 1.359375,-0.015625 1.859375,-0.640625 z m 0,0"
               style="stroke:none"
               inkscape:connector-curvature="0" />
          </symbol>
          <symbol
             id="textext-a8dc9600-1"
             overflow="visible"
             style="overflow:visible">
            <path
               id="path17698"
               d="m 4.71875,-6.703125 c -0.109375,-0.25 -0.21875,-0.25 -0.390625,-0.25 -0.28125,0 -0.328125,0.078125 -0.390625,0.25 l -2.46875,6 C 1.40625,-0.546875 1.375,-0.46875 0.625,-0.46875 l -0.21875,0 0,0.46875 c 0.375,-0.015625 0.859375,-0.03125 1.171875,-0.03125 0.390625,0 0.9375,0 1.3125,0.03125 l 0,-0.46875 C 2.875,-0.46875 2,-0.46875 2,-0.59375 c 0,-0.015625 0.03125,-0.109375 0.046875,-0.125 l 0.5,-1.203125 2.671875,0 0.59375,1.453125 -0.953125,0 0,0.46875 C 5.25,-0.03125 6.1875,-0.03125 6.625,-0.03125 c 0.390625,0 1.265625,0 1.625,0.03125 l 0,-0.46875 -0.96875,0 z M 3.875,-5.15625 l 1.140625,2.765625 -2.28125,0 z m 0,0"
               style="stroke:none"
               inkscape:connector-curvature="0" />
          </symbol>
          <symbol
             id="textext-a8dc9600-2"
             overflow="visible"
             style="overflow:visible">
            <path
               id="path17701"
               d="M 5.4375,-1.3125 3.046875,-6.59375 c -0.109375,-0.25 -0.21875,-0.25 -0.4375,-0.25 l -2.203125,0 0,0.46875 1.0625,0 0,5.625 c 0,0.21875 0,0.21875 -0.28125,0.25 -0.234375,0.03125 -0.265625,0.03125 -0.546875,0.03125 l -0.234375,0 0,0.46875 c 0.375,-0.03125 0.9375,-0.03125 1.328125,-0.03125 0.421875,0 0.9375,0 1.34375,0.03125 l 0,-0.46875 -0.25,0 C 2.65625,-0.46875 2.484375,-0.484375 2.296875,-0.5 2.015625,-0.53125 2,-0.53125 2,-0.75 l 0,-5.484375 0.015625,0 L 4.71875,-0.25 C 4.8125,-0.046875 4.9375,0 5.046875,0 5.25,0 5.328125,-0.15625 5.359375,-0.234375 l 2.78125,-6.140625 0.015625,0 0,5.90625 -1.078125,0 0,0.46875 c 0.359375,-0.03125 1.28125,-0.03125 1.6875,-0.03125 0.421875,0 1.359375,0 1.71875,0.03125 l 0,-0.46875 -1.078125,0 0,-5.90625 1.078125,0 0,-0.46875 -2.203125,0 c -0.21875,0 -0.34375,0 -0.453125,0.25 z m 0,0"
               style="stroke:none"
               inkscape:connector-curvature="0" />
          </symbol>
          <symbol
             id="textext-a8dc9600-3"
             overflow="visible"
             style="overflow:visible">
            <path
               id="path17704"
               d="m 2.765625,-3.734375 0,-2.640625 1.8125,0 c 1.015625,0 1.1875,0.796875 1.1875,1.25 0,0.765625 -0.46875,1.390625 -1.4375,1.390625 z M 5.46875,-3.5625 C 6.546875,-3.765625 7.1875,-4.359375 7.1875,-5.125 c 0,-0.921875 -0.875,-1.71875 -2.46875,-1.71875 l -4.328125,0 0,0.46875 1.078125,0 0,5.90625 -1.078125,0 0,0.46875 4.625,0 C 6.671875,0 7.5,-0.875 7.5,-1.859375 7.5,-2.8125 6.65625,-3.484375 5.46875,-3.5625 z m -0.859375,3.09375 -1.84375,0 0,-2.90625 1.9375,0 c 0.203125,0 0.671875,0 1.015625,0.421875 0.328125,0.421875 0.328125,0.984375 0.328125,1.09375 0,0.109375 0,1.390625 -1.4375,1.390625 z m 0,0"
               style="stroke:none"
               inkscape:connector-curvature="0" />
          </symbol>
          <symbol
             id="textext-a8dc9600-4"
             overflow="visible"
             style="overflow:visible">
            <path
               id="path17707"
               d="m 2.875,-6.375 1.140625,0 0,-0.46875 C 3.609375,-6.8125 2.625,-6.8125 2.171875,-6.8125 c -0.453125,0 -1.4375,0 -1.84375,-0.03125 l 0,0.46875 1.140625,0 0,5.90625 -1.140625,0 0,0.46875 c 0.40625,-0.03125 1.390625,-0.03125 1.84375,-0.03125 0.453125,0 1.4375,0 1.84375,0.03125 l 0,-0.46875 -1.140625,0 z m 0,0"
               style="stroke:none"
               inkscape:connector-curvature="0" />
          </symbol>
          <symbol
             id="textext-a8dc9600-5"
             overflow="visible"
             style="overflow:visible">
            <path
               id="path17710"
               d="m 7.34375,-6.734375 -6.71875,0 -0.203125,2.40625 0.46875,0 c 0.09375,-1.125 0.1875,-1.9375 1.625,-1.9375 l 0.765625,0 0,5.796875 -1.53125,0 L 1.75,0 c 0.546875,-0.03125 1.65625,-0.03125 2.234375,-0.03125 0.59375,0 1.703125,0 2.234375,0.03125 l 0,-0.46875 -1.53125,0 0,-5.796875 0.765625,0 c 1.421875,0 1.53125,0.796875 1.625,1.9375 l 0.46875,0 z m 0,0"
               style="stroke:none"
               inkscape:connector-curvature="0" />
          </symbol>
        </g>
      </defs>
      <g
         id="textext-a8dc9600-6"
         style="fill:#800000">
        <g
           id="g17713"
           style="fill:#800000;fill-opacity:1">
          <use
             id="use17715"
             y="134.765"
             x="223.43201"
             xlink:href="#textext-a8dc9600-0"
             width="744.09448"
             height="1052.3622"
             style="fill:#800000" />
          <use
             id="use17717"
             y="134.765"
             x="232.44019"
             xlink:href="#textext-a8dc9600-1"
             width="744.09448"
             height="1052.3622"
             style="fill:#800000" />
          <use
             id="use17719"
             y="134.765"
             x="241.10167"
             xlink:href="#textext-a8dc9600-2"
             width="744.09448"
             height="1052.3622"
             style="fill:#800000" />
          <use
             id="use17721"
             y="134.765"
             x="251.97784"
             xlink:href="#textext-a8dc9600-3"
             width="744.09448"
             height="1052.3622"
             style="fill:#800000" />
          <use
             id="use17723"
             y="134.765"
             x="260.12823"
             xlink:href="#textext-a8dc9600-4"
             width="744.09448"
             height="1052.3622"
             style="fill:#800000" />
          <use
             id="use17725"
             y="134.765"
             x="264.47293"
             xlink:href="#textext-a8dc9600-5"
             width="744.09448"
             height="1052.3622"
             style="fill:#800000" />
        </g>
      </g>
    </g>
  </g>
</svg>
