<?xml version="1.0" encoding="UTF-8" standalone="no"?>
<!DOCTYPE svg PUBLIC "-//W3C//DTD SVG 20010904//EN"
              "http://www.w3.org/TR/2001/REC-SVG-20010904/DTD/svg10.dtd">

<svg xmlns="http://www.w3.org/2000/svg"
     width="14.401in" height="11.2208in"
     viewBox="0 0 1037 808">
  <path id="Axis_60-200_0-100"
        fill="none" stroke="black" stroke-width="1"
        d="M 193.00,76.00
           C 193.00,76.00 182.00,76.00 182.00,76.00
             182.00,76.00 182.00,692.00 182.00,692.00
             182.00,692.00 835.00,692.00 835.00,692.00
             835.00,692.00 835.00,681.00 835.00,681.00M 236.00,681.00
           C 236.00,681.00 236.00,692.00 236.00,692.00" />
  <path id=".051pb"
        fill="none" stroke="black" stroke-width="1"
        d="M 439.00,241.00
           C 439.00,241.00 439.00,339.00 439.00,339.00
             439.00,339.00 418.00,339.00 418.00,339.00
             418.00,339.00 418.00,241.00 418.00,241.00
             418.00,241.00 439.00,241.00 439.00,241.00 Z
           M 610.00,363.00
           C 610.00,363.00 610.00,411.00 610.00,411.00
             610.00,411.00 632.00,411.00 632.00,411.00
             632.00,411.00 632.00,473.00 632.00,473.00
             632.00,473.00 653.00,473.00 653.00,473.00
             653.00,473.00 653.00,497.00 653.00,497.00
             653.00,497.00 675.00,497.00 675.00,497.00
             675.00,497.00 675.00,509.00 675.00,509.00
             675.00,509.00 696.00,509.00 696.00,509.00
             696.00,509.00 696.00,522.00 696.00,522.00
             696.00,522.00 675.00,522.00 675.00,522.00
             675.00,522.00 675.00,534.00 675.00,534.00
             675.00,534.00 718.00,534.00 718.00,534.00
             718.00,534.00 718.00,546.00 718.00,546.00
             718.00,546.00 696.00,546.00 696.00,546.00
             696.00,546.00 696.00,558.00 696.00,558.00
             696.00,558.00 718.00,558.00 718.00,558.00
             718.00,558.00 718.00,570.00 718.00,570.00
             718.00,570.00 739.00,570.00 739.00,570.00
             739.00,570.00 739.00,595.00 739.00,595.00
             739.00,595.00 782.00,595.00 782.00,595.00
             782.00,595.00 782.00,631.00 782.00,631.00
             782.00,631.00 803.00,631.00 803.00,631.00
             803.00,631.00 803.00,680.00 803.00,680.00
             803.00,680.00 610.00,680.00 610.00,680.00
             610.00,680.00 610.00,668.00 610.00,668.00
             610.00,668.00 589.00,668.00 589.00,668.00
             589.00,668.00 589.00,656.00 589.00,656.00
             589.00,656.00 546.00,656.00 546.00,656.00
             546.00,656.00 546.00,680.00 546.00,680.00
             546.00,680.00 524.00,680.00 524.00,680.00
             524.00,680.00 524.00,656.00 524.00,656.00
             524.00,656.00 503.00,656.00 503.00,656.00
             503.00,656.00 503.00,680.00 503.00,680.00
             503.00,680.00 481.00,680.00 481.00,680.00
             481.00,680.00 481.00,644.00 481.00,644.00
             481.00,644.00 461.00,644.00 461.00,644.00
             461.00,644.00 461.00,631.00 461.00,631.00
             461.00,631.00 439.00,631.00 439.00,631.00
             439.00,631.00 439.00,668.00 439.00,668.00
             439.00,668.00 461.00,668.00 461.00,668.00
             461.00,668.00 461.00,680.00 461.00,680.00
             461.00,680.00 418.00,680.00 418.00,680.00
             418.00,680.00 418.00,558.00 418.00,558.00
             418.00,558.00 439.00,558.00 439.00,558.00
             439.00,558.00 439.00,570.00 439.00,570.00
             439.00,570.00 461.00,570.00 461.00,570.00
             461.00,570.00 461.00,607.00 461.00,607.00
             461.00,607.00 439.00,607.00 439.00,607.00
             439.00,607.00 439.00,619.00 439.00,619.00
             439.00,619.00 461.00,619.00 461.00,619.00
             461.00,619.00 461.00,631.00 461.00,631.00
             461.00,631.00 482.00,631.00 482.00,631.00
             482.00,631.00 482.00,619.00 482.00,619.00
             482.00,619.00 503.00,619.00 503.00,619.00
             503.00,619.00 503.00,595.00 503.00,595.00
             503.00,595.00 546.00,595.00 546.00,595.00
             546.00,595.00 546.00,571.00 546.00,571.00
             546.00,571.00 524.00,571.00 524.00,571.00
             524.00,571.00 524.00,558.00 524.00,558.00
             524.00,558.00 546.00,558.00 546.00,558.00
             546.00,558.00 546.00,534.00 546.00,534.00
             546.00,534.00 567.00,534.00 567.00,534.00
             567.00,534.00 567.00,509.00 567.00,509.00
             567.00,509.00 589.00,509.00 589.00,509.00
             589.00,509.00 589.00,534.00 589.00,534.00
             589.00,534.00 610.00,534.00 610.00,534.00
             610.00,534.00 610.00,558.00 610.00,558.00
             610.00,558.00 632.00,558.00 632.00,558.00
             632.00,558.00 632.00,497.00 632.00,497.00
             632.00,497.00 567.00,497.00 567.00,497.00
             567.00,497.00 567.00,473.00 567.00,473.00
             567.00,473.00 546.00,473.00 546.00,473.00
             546.00,473.00 546.00,485.00 546.00,485.00
             546.00,485.00 524.00,485.00 524.00,485.00
             524.00,485.00 524.00,448.00 524.00,448.00
             524.00,448.00 546.00,448.00 546.00,448.00
             546.00,448.00 546.00,461.00 546.00,461.00
             546.00,461.00 589.00,461.00 589.00,461.00
             589.00,461.00 589.00,473.00 589.00,473.00
             589.00,473.00 610.00,473.00 610.00,473.00
             610.00,473.00 610.00,436.00 610.00,436.00
             610.00,436.00 524.00,436.00 524.00,436.00
             524.00,436.00 524.00,387.00 524.00,387.00
             524.00,387.00 546.00,387.00 546.00,387.00
             546.00,387.00 546.00,411.00 546.00,411.00
             546.00,411.00 567.00,411.00 567.00,411.00
             567.00,411.00 567.00,387.00 567.00,387.00
             567.00,387.00 589.00,387.00 589.00,387.00
             589.00,387.00 589.00,363.00 589.00,363.00
             589.00,363.00 610.00,363.00 610.00,363.00 Z
           M 589.00,411.00
           C 589.00,411.00 589.00,424.00 589.00,424.00
             589.00,424.00 610.00,424.00 610.00,424.00
             610.00,424.00 610.00,411.00 610.00,411.00
             610.00,411.00 589.00,411.00 589.00,411.00 Z
           M 482.00,521.00
           C 482.00,521.00 482.00,534.00 482.00,534.00
             482.00,534.00 460.00,534.00 460.00,534.00
             460.00,534.00 460.00,521.00 460.00,521.00
             460.00,521.00 482.00,521.00 482.00,521.00 Z
           M 589.00,631.00
           C 589.00,631.00 589.00,644.00 589.00,644.00
             589.00,644.00 610.00,644.00 610.00,644.00
             610.00,644.00 610.00,631.00 610.00,631.00
             610.00,631.00 589.00,631.00 589.00,631.00 Z
           M 610.00,656.00
           C 610.00,656.00 610.00,668.00 610.00,668.00
             610.00,668.00 632.00,668.00 632.00,668.00
             632.00,668.00 632.00,656.00 632.00,656.00
             632.00,656.00 610.00,656.00 610.00,656.00 Z" />
  <path id=".15pb"
        fill="none" stroke="black" stroke-width="1"
        d="M 439.00,143.00
           C 439.00,143.00 439.00,155.00 439.00,155.00
             439.00,155.00 418.00,155.00 418.00,155.00
             418.00,155.00 418.00,143.00 418.00,143.00
             418.00,143.00 439.00,143.00 439.00,143.00 Z
           M 396.00,155.00
           C 396.00,155.00 396.00,168.00 396.00,168.00
             396.00,168.00 375.00,168.00 375.00,168.00
             375.00,168.00 375.00,155.00 375.00,155.00
             375.00,155.00 396.00,155.00 396.00,155.00 Z
           M 439.00,168.00
           C 439.00,168.00 439.00,192.00 439.00,192.00
             439.00,192.00 461.00,192.00 461.00,192.00
             461.00,192.00 461.00,180.00 461.00,180.00
             461.00,180.00 481.00,180.00 481.00,180.00
             481.00,180.00 481.00,192.00 481.00,192.00
             481.00,192.00 503.00,192.00 503.00,192.00
             503.00,192.00 503.00,204.00 503.00,204.00
             503.00,204.00 524.00,204.00 524.00,204.00
             524.00,204.00 524.00,228.00 524.00,228.00
             524.00,228.00 546.00,228.00 546.00,228.00
             546.00,228.00 546.00,241.00 546.00,241.00
             546.00,241.00 524.00,241.00 524.00,241.00
             524.00,241.00 524.00,253.00 524.00,253.00
             524.00,253.00 567.00,253.00 567.00,253.00
             567.00,253.00 567.00,290.00 567.00,290.00
             567.00,290.00 589.00,290.00 589.00,290.00
             589.00,290.00 589.00,314.00 589.00,314.00
             589.00,314.00 610.00,314.00 610.00,314.00
             610.00,314.00 610.00,326.00 610.00,326.00
             610.00,326.00 589.00,326.00 589.00,326.00
             589.00,326.00 589.00,351.00 589.00,351.00
             589.00,351.00 632.00,351.00 632.00,351.00
             632.00,351.00 632.00,387.00 632.00,387.00
             632.00,387.00 653.00,387.00 653.00,387.00
             653.00,387.00 653.00,411.00 653.00,411.00
             653.00,411.00 675.00,411.00 675.00,411.00
             675.00,411.00 675.00,448.00 675.00,448.00
             675.00,448.00 696.00,448.00 696.00,448.00
             696.00,448.00 696.00,473.00 696.00,473.00
             696.00,473.00 718.00,473.00 718.00,473.00
             718.00,473.00 718.00,497.00 718.00,497.00
             718.00,497.00 739.00,497.00 739.00,497.00
             739.00,497.00 739.00,534.00 739.00,534.00
             739.00,534.00 760.00,534.00 760.00,534.00
             760.00,534.00 760.00,558.00 760.00,558.00
             760.00,558.00 782.00,558.00 782.00,558.00
             782.00,558.00 782.00,607.00 782.00,607.00
             782.00,607.00 803.00,607.00 803.00,607.00
             803.00,607.00 803.00,631.00 803.00,631.00
             803.00,631.00 824.00,631.00 824.00,631.00
             824.00,631.00 824.00,656.00 824.00,656.00
             824.00,656.00 803.00,656.00 803.00,656.00
             803.00,656.00 803.00,680.00 803.00,680.00
             803.00,680.00 418.00,680.00 418.00,680.00
             418.00,680.00 418.00,656.00 418.00,656.00
             418.00,656.00 396.00,656.00 396.00,656.00
             396.00,656.00 396.00,644.00 396.00,644.00
             396.00,644.00 418.00,644.00 418.00,644.00
             418.00,644.00 418.00,168.00 418.00,168.00
             418.00,168.00 439.00,168.00 439.00,168.00 Z
           M 461.00,192.00
           C 461.00,192.00 461.00,204.00 461.00,204.00
             461.00,204.00 481.00,204.00 481.00,204.00
             481.00,204.00 481.00,192.00 481.00,192.00
             481.00,192.00 461.00,192.00 461.00,192.00 Z
           M 503.00,228.00
           C 503.00,228.00 503.00,241.00 503.00,241.00
             503.00,241.00 524.00,241.00 524.00,241.00
             524.00,241.00 524.00,228.00 524.00,228.00
             524.00,228.00 503.00,228.00 503.00,228.00 Z
           M 482.00,241.00
           C 482.00,241.00 482.00,253.00 482.00,253.00
             482.00,253.00 503.00,253.00 503.00,253.00
             503.00,253.00 503.00,241.00 503.00,241.00
             503.00,241.00 482.00,241.00 482.00,241.00 Z
           M 546.00,290.00
           C 546.00,290.00 546.00,302.00 546.00,302.00
             546.00,302.00 567.00,302.00 567.00,302.00
             567.00,302.00 567.00,290.00 567.00,290.00
             567.00,290.00 546.00,290.00 546.00,290.00 Z
           M 546.00,314.00
           C 546.00,314.00 546.00,325.00 546.00,325.00
             546.00,325.00 567.00,325.00 567.00,325.00
             567.00,325.00 567.00,314.00 567.00,314.00
             567.00,314.00 546.00,314.00 546.00,314.00 Z
           M 396.00,315.00
           C 396.00,315.00 396.00,326.00 396.00,326.00
             396.00,326.00 375.00,326.00 375.00,326.00
             375.00,326.00 375.00,315.00 375.00,315.00
             375.00,315.00 396.00,315.00 396.00,315.00 Z
           M 439.00,326.00
           C 439.00,326.00 439.00,351.00 439.00,351.00
             439.00,351.00 460.00,351.00 460.00,351.00
             460.00,351.00 460.00,326.00 460.00,326.00
             460.00,326.00 439.00,326.00 439.00,326.00 Z
           M 396.00,351.00
           C 396.00,351.00 396.00,412.00 396.00,412.00
             396.00,412.00 375.00,412.00 375.00,412.00
             375.00,412.00 375.00,387.00 375.00,387.00
             375.00,387.00 353.00,387.00 353.00,387.00
             353.00,387.00 353.00,412.00 353.00,412.00
             353.00,412.00 331.00,412.00 331.00,412.00
             331.00,412.00 331.00,387.00 331.00,387.00
             331.00,387.00 353.00,387.00 353.00,387.00
             353.00,387.00 353.00,351.00 353.00,351.00
             353.00,351.00 396.00,351.00 396.00,351.00 Z
           M 267.00,363.00
           C 267.00,363.00 267.00,387.00 267.00,387.00
             267.00,387.00 246.00,387.00 246.00,387.00
             246.00,387.00 246.00,363.00 246.00,363.00
             246.00,363.00 267.00,363.00 267.00,363.00 Z
           M 460.00,375.00
           C 460.00,375.00 460.00,387.00 460.00,387.00
             460.00,387.00 482.00,387.00 482.00,387.00
             482.00,387.00 482.00,375.00 482.00,375.00
             482.00,375.00 460.00,375.00 460.00,375.00 Z
           M 267.00,424.00
           C 267.00,424.00 267.00,436.00 267.00,436.00
             267.00,436.00 311.00,436.00 311.00,436.00
             311.00,436.00 311.00,424.00 311.00,424.00
             311.00,424.00 331.00,424.00 331.00,424.00
             331.00,424.00 331.00,461.00 331.00,461.00
             331.00,461.00 310.00,461.00 310.00,461.00
             310.00,461.00 310.00,473.00 310.00,473.00
             310.00,473.00 331.00,473.00 331.00,473.00
             331.00,473.00 331.00,497.00 331.00,497.00
             331.00,497.00 310.00,497.00 310.00,497.00
             310.00,497.00 310.00,534.00 310.00,534.00
             310.00,534.00 289.00,534.00 289.00,534.00
             289.00,534.00 289.00,497.00 289.00,497.00
             289.00,497.00 268.00,497.00 268.00,497.00
             268.00,497.00 268.00,473.00 268.00,473.00
             268.00,473.00 246.00,473.00 246.00,473.00
             246.00,473.00 246.00,448.00 246.00,448.00
             246.00,448.00 225.00,448.00 225.00,448.00
             225.00,448.00 225.00,436.00 225.00,436.00
             225.00,436.00 246.00,436.00 246.00,436.00
             246.00,436.00 246.00,424.00 246.00,424.00
             246.00,424.00 267.00,424.00 267.00,424.00 Z
           M 439.00,436.00
           C 439.00,436.00 439.00,449.00 439.00,449.00
             439.00,449.00 460.00,449.00 460.00,449.00
             460.00,449.00 460.00,473.00 460.00,473.00
             460.00,473.00 482.00,473.00 482.00,473.00
             482.00,473.00 482.00,436.00 482.00,436.00
             482.00,436.00 439.00,436.00 439.00,436.00 Z
           M 439.00,485.00
           C 439.00,485.00 439.00,510.00 439.00,510.00
             439.00,510.00 460.00,510.00 460.00,510.00
             460.00,510.00 460.00,485.00 460.00,485.00
             460.00,485.00 439.00,485.00 439.00,485.00 Z
           M 460.00,534.00
           C 460.00,534.00 460.00,546.00 460.00,546.00
             460.00,546.00 482.00,546.00 482.00,546.00
             482.00,546.00 482.00,534.00 482.00,534.00
             482.00,534.00 460.00,534.00 460.00,534.00 Z
           M 482.00,583.00
           C 482.00,583.00 482.00,595.00 482.00,595.00
             482.00,595.00 503.00,595.00 503.00,595.00
             503.00,595.00 503.00,583.00 503.00,583.00
             503.00,583.00 482.00,583.00 482.00,583.00 Z
           M 353.00,583.00
           C 353.00,583.00 353.00,595.00 353.00,595.00
             353.00,595.00 332.00,595.00 332.00,595.00
             332.00,595.00 332.00,583.00 332.00,583.00
             332.00,583.00 353.00,583.00 353.00,583.00 Z
           M 461.00,607.00
           C 461.00,607.00 461.00,631.00 461.00,631.00
             461.00,631.00 482.00,631.00 482.00,631.00
             482.00,631.00 482.00,607.00 482.00,607.00
             482.00,607.00 461.00,607.00 461.00,607.00 Z" />
  <path id=".5pb"
        fill="none" stroke="black" stroke-width="1"
        d="M 439.00,82.00
           C 439.00,82.00 439.00,106.00 439.00,106.00
             439.00,106.00 460.00,106.00 460.00,106.00
             460.00,106.00 460.00,119.00 460.00,119.00
             460.00,119.00 439.00,119.00 439.00,119.00
             439.00,119.00 439.00,131.00 439.00,131.00
             439.00,131.00 481.00,131.00 481.00,131.00
             481.00,131.00 481.00,168.00 481.00,168.00
             481.00,168.00 503.00,168.00 503.00,168.00
             503.00,168.00 503.00,192.00 503.00,192.00
             503.00,192.00 524.00,192.00 524.00,192.00
             524.00,192.00 524.00,228.00 524.00,228.00
             524.00,228.00 546.00,228.00 546.00,228.00
             546.00,228.00 546.00,253.00 546.00,253.00
             546.00,253.00 567.00,253.00 567.00,253.00
             567.00,253.00 567.00,290.00 567.00,290.00
             567.00,290.00 589.00,290.00 589.00,290.00
             589.00,290.00 589.00,314.00 589.00,314.00
             589.00,314.00 610.00,314.00 610.00,314.00
             610.00,314.00 610.00,351.00 610.00,351.00
             610.00,351.00 632.00,351.00 632.00,351.00
             632.00,351.00 632.00,375.00 632.00,375.00
             632.00,375.00 653.00,375.00 653.00,375.00
             653.00,375.00 653.00,411.00 653.00,411.00
             653.00,411.00 675.00,411.00 675.00,411.00
             675.00,411.00 675.00,436.00 675.00,436.00
             675.00,436.00 696.00,436.00 696.00,436.00
             696.00,436.00 696.00,473.00 696.00,473.00
             696.00,473.00 718.00,473.00 718.00,473.00
             718.00,473.00 718.00,497.00 718.00,497.00
             718.00,497.00 739.00,497.00 739.00,497.00
             739.00,497.00 739.00,534.00 739.00,534.00
             739.00,534.00 760.00,534.00 760.00,534.00
             760.00,534.00 760.00,558.00 760.00,558.00
             760.00,558.00 782.00,558.00 782.00,558.00
             782.00,558.00 782.00,595.00 782.00,595.00
             782.00,595.00 803.00,595.00 803.00,595.00
             803.00,595.00 803.00,619.00 803.00,619.00
             803.00,619.00 824.00,619.00 824.00,619.00
             824.00,619.00 824.00,656.00 824.00,656.00
             824.00,656.00 803.00,656.00 803.00,656.00
             803.00,656.00 803.00,680.00 803.00,680.00
             803.00,680.00 418.00,680.00 418.00,680.00
             418.00,680.00 418.00,656.00 418.00,656.00
             418.00,656.00 375.00,656.00 375.00,656.00
             375.00,656.00 375.00,631.00 375.00,631.00
             375.00,631.00 353.00,631.00 353.00,631.00
             353.00,631.00 353.00,595.00 353.00,595.00
             353.00,595.00 332.00,595.00 332.00,595.00
             332.00,595.00 332.00,570.00 332.00,570.00
             332.00,570.00 310.00,570.00 310.00,570.00
             310.00,570.00 310.00,534.00 310.00,534.00
             310.00,534.00 289.00,534.00 289.00,534.00
             289.00,534.00 289.00,509.00 289.00,509.00
             289.00,509.00 268.00,509.00 268.00,509.00
             268.00,509.00 268.00,473.00 268.00,473.00
             268.00,473.00 246.00,473.00 246.00,473.00
             246.00,473.00 246.00,448.00 246.00,448.00
             246.00,448.00 225.00,448.00 225.00,448.00
             225.00,448.00 225.00,351.00 225.00,351.00
             225.00,351.00 267.00,351.00 267.00,351.00
             267.00,351.00 267.00,290.00 267.00,290.00
             267.00,290.00 311.00,290.00 311.00,290.00
             311.00,290.00 311.00,253.00 311.00,253.00
             311.00,253.00 332.00,253.00 332.00,253.00
             332.00,253.00 332.00,228.00 332.00,228.00
             332.00,228.00 353.00,228.00 353.00,228.00
             353.00,228.00 353.00,216.00 353.00,216.00
             353.00,216.00 332.00,216.00 332.00,216.00
             332.00,216.00 332.00,204.00 332.00,204.00
             332.00,204.00 353.00,204.00 353.00,204.00
             353.00,204.00 353.00,180.00 353.00,180.00
             353.00,180.00 375.00,180.00 375.00,180.00
             375.00,180.00 375.00,143.00 375.00,143.00
             375.00,143.00 396.00,143.00 396.00,143.00
             396.00,143.00 396.00,131.00 396.00,131.00
             396.00,131.00 418.00,131.00 418.00,131.00
             418.00,131.00 418.00,82.00 418.00,82.00
             418.00,82.00 439.00,82.00 439.00,82.00 Z
           M 396.00,168.00
           C 396.00,168.00 396.00,192.00 396.00,192.00
             396.00,192.00 418.00,192.00 418.00,192.00
             418.00,192.00 418.00,168.00 418.00,168.00
             418.00,168.00 396.00,168.00 396.00,168.00 Z" />
</svg>
