<?xml version="1.0" encoding="UTF-8" standalone="no"?>
<!DOCTYPE svg PUBLIC "-//W3C//DTD SVG 20010904//EN"
              "http://www.w3.org/TR/2001/REC-SVG-20010904/DTD/svg10.dtd">

<svg xmlns="http://www.w3.org/2000/svg"
     width="14.526in" height="11.4569in"
     viewBox="0 0 1046 825">
  <path id="Axis_75-100_0-100"
        fill="none" stroke="black" stroke-width="1"
        d="M 187.00,100.00
           C 187.00,100.00 176.00,100.00 176.00,100.00
             176.00,100.00 176.00,705.00 176.00,705.00
             176.00,705.00 749.00,705.00 749.00,705.00
             749.00,705.00 749.00,693.00 749.00,693.00" />
  <path id=".1pb"
        fill="none" stroke="black" stroke-width="1"
        d="M 806.00,262.00
           C 806.00,262.00 806.00,286.00 806.00,286.00
             806.00,286.00 795.00,286.00 795.00,286.00
             795.00,286.00 795.00,298.00 795.00,298.00
             795.00,298.00 806.00,298.00 806.00,298.00
             806.00,298.00 806.00,465.00 806.00,465.00
             806.00,465.00 692.00,465.00 692.00,465.00
             692.00,465.00 692.00,453.00 692.00,453.00
             692.00,453.00 772.00,453.00 772.00,453.00
             772.00,453.00 772.00,442.00 772.00,442.00
             772.00,442.00 692.00,442.00 692.00,442.00
             692.00,442.00 692.00,406.00 692.00,406.00
             692.00,406.00 577.00,406.00 577.00,406.00
             577.00,406.00 577.00,394.00 577.00,394.00
             577.00,394.00 656.00,394.00 656.00,394.00
             656.00,394.00 656.00,382.00 656.00,382.00
             656.00,382.00 462.00,382.00 462.00,382.00
             462.00,382.00 462.00,394.00 462.00,394.00
             462.00,394.00 347.00,394.00 347.00,394.00
             347.00,394.00 347.00,370.00 347.00,370.00
             347.00,370.00 462.00,370.00 462.00,370.00
             462.00,370.00 462.00,358.00 462.00,358.00
             462.00,358.00 577.00,358.00 577.00,358.00
             577.00,358.00 577.00,370.00 577.00,370.00
             577.00,370.00 691.00,370.00 691.00,370.00
             691.00,370.00 691.00,346.00 691.00,346.00
             691.00,346.00 577.00,346.00 577.00,346.00
             577.00,346.00 577.00,298.00 577.00,298.00
             577.00,298.00 771.00,298.00 771.00,298.00
             771.00,298.00 771.00,286.00 771.00,286.00
             771.00,286.00 691.00,286.00 691.00,286.00
             691.00,286.00 691.00,274.00 691.00,274.00
             691.00,274.00 771.00,274.00 771.00,274.00
             771.00,274.00 771.00,262.00 771.00,262.00
             771.00,262.00 806.00,262.00 806.00,262.00 Z
           M 577.00,418.00
           C 577.00,418.00 577.00,430.00 577.00,430.00
             577.00,430.00 462.00,430.00 462.00,430.00
             462.00,430.00 462.00,418.00 462.00,418.00
             462.00,418.00 577.00,418.00 577.00,418.00 Z
           M 794.00,490.00
           C 794.00,490.00 794.00,501.00 794.00,501.00
             794.00,501.00 772.00,501.00 772.00,501.00
             772.00,501.00 772.00,490.00 772.00,490.00
             772.00,490.00 794.00,490.00 794.00,490.00 Z" />
  <path id="1pb"
        fill="none" stroke="black" stroke-width="1"
        d="M 173.00,286.00
           C 173.00,286.00 188.00,286.00 188.00,286.00
             188.00,286.00 188.00,274.00 188.00,274.00
             188.00,274.00 222.00,274.00 222.00,274.00
             222.00,274.00 222.00,262.00 222.00,262.00
             222.00,262.00 256.00,262.00 256.00,262.00
             256.00,262.00 256.00,250.00 256.00,250.00
             256.00,250.00 348.00,250.00 348.00,250.00
             348.00,250.00 348.00,226.00 348.00,226.00
             348.00,226.00 371.00,226.00 371.00,226.00
             371.00,226.00 371.00,214.00 371.00,214.00
             371.00,214.00 462.00,214.00 462.00,214.00
             462.00,214.00 462.00,202.00 462.00,202.00
             462.00,202.00 577.00,202.00 577.00,202.00
             577.00,202.00 577.00,166.00 577.00,166.00
             577.00,166.00 691.00,166.00 691.00,166.00
             691.00,166.00 691.00,154.00 691.00,154.00
             691.00,154.00 806.00,154.00 806.00,154.00
             806.00,154.00 806.00,106.00 806.00,106.00
             806.00,106.00 829.00,106.00 829.00,106.00
             829.00,106.00 829.00,118.00 829.00,118.00
             829.00,118.00 817.00,118.00 817.00,118.00
             817.00,118.00 817.00,130.00 817.00,130.00
             817.00,130.00 829.00,130.00 829.00,130.00
             829.00,130.00 829.00,250.00 829.00,250.00
             829.00,250.00 842.00,250.00 842.00,250.00M 842.00,502.00
           C 842.00,502.00 829.00,502.00 829.00,502.00
             829.00,502.00 829.00,693.00 829.00,693.00
             829.00,693.00 806.00,693.00 806.00,693.00
             806.00,693.00 806.00,708.00 806.00,708.00M 842.00,453.00
           C 842.00,453.00 829.00,453.00 829.00,453.00
             829.00,453.00 829.00,466.00 829.00,466.00
             829.00,466.00 842.00,466.00 842.00,466.00M 842.00,262.00
           C 842.00,262.00 829.00,262.00 829.00,262.00
             829.00,262.00 829.00,274.00 829.00,274.00
             829.00,274.00 842.00,274.00 842.00,274.00" />
  <path id="2pb"
        fill="none" stroke="black" stroke-width="1"
        d="M 173.00,286.00
           C 173.00,286.00 188.00,286.00 188.00,286.00
             188.00,286.00 188.00,274.00 188.00,274.00
             188.00,274.00 222.00,274.00 222.00,274.00
             222.00,274.00 222.00,262.00 222.00,262.00
             222.00,262.00 256.00,262.00 256.00,262.00
             256.00,262.00 256.00,250.00 256.00,250.00
             256.00,250.00 348.00,250.00 348.00,250.00
             348.00,250.00 348.00,226.00 348.00,226.00
             348.00,226.00 371.00,226.00 371.00,226.00
             371.00,226.00 371.00,214.00 371.00,214.00
             371.00,214.00 462.00,214.00 462.00,214.00
             462.00,214.00 462.00,202.00 462.00,202.00
             462.00,202.00 577.00,202.00 577.00,202.00
             577.00,202.00 577.00,166.00 577.00,166.00
             577.00,166.00 691.00,166.00 691.00,166.00
             691.00,166.00 691.00,154.00 691.00,154.00
             691.00,154.00 806.00,154.00 806.00,154.00
             806.00,154.00 806.00,106.00 806.00,106.00
             806.00,106.00 829.00,106.00 829.00,106.00
             829.00,106.00 829.00,154.00 829.00,154.00
             829.00,154.00 842.00,154.00 842.00,154.00M 842.00,693.00
           C 842.00,693.00 806.00,693.00 806.00,693.00
             806.00,693.00 806.00,708.00 806.00,708.00M 842.00,597.00
           C 842.00,597.00 829.00,597.00 829.00,597.00
             829.00,597.00 829.00,633.00 829.00,633.00
             829.00,633.00 842.00,633.00 842.00,633.00M 842.00,561.00
           C 842.00,561.00 829.00,561.00 829.00,561.00
             829.00,561.00 829.00,585.00 829.00,585.00
             829.00,585.00 842.00,585.00 842.00,585.00M 842.00,190.00
           C 842.00,190.00 829.00,190.00 829.00,190.00
             829.00,190.00 829.00,202.00 829.00,202.00
             829.00,202.00 842.00,202.00 842.00,202.00" />
</svg>
