<?xml version="1.0" encoding="UTF-8" standalone="no"?>
<!DOCTYPE svg PUBLIC "-//W3C//DTD SVG 20010904//EN"
              "http://www.w3.org/TR/2001/REC-SVG-20010904/DTD/svg10.dtd">

<svg xmlns="http://www.w3.org/2000/svg"
     width="14.5954in" height="11.193in"
     viewBox="0 0 1051 806">
  <path id="Axis"
        fill="none" stroke="black" stroke-width="1"
        d="M 196.00,83.00
           C 196.00,83.00 185.00,83.00 185.00,83.00
             185.00,83.00 185.00,689.00 185.00,689.00
             185.00,689.00 759.00,689.00 759.00,689.00
             759.00,689.00 759.00,678.00 759.00,678.00" />
  <path id="2pb"
        fill="none" stroke="black" stroke-width="1"
        d="M 182.00,269.00
           C 182.00,269.00 197.00,269.00 197.00,269.00
             197.00,269.00 197.00,257.00 197.00,257.00
             197.00,257.00 231.00,257.00 231.00,257.00
             231.00,257.00 231.00,245.00 231.00,245.00
             231.00,245.00 249.00,244.00 249.00,244.00
             249.00,244.00 265.00,244.00 265.00,244.00
             265.00,244.00 265.00,233.00 265.00,233.00
             265.00,233.00 311.00,233.00 311.00,233.00
             311.00,233.00 311.00,221.00 311.00,221.00
             311.00,221.00 357.00,221.00 357.00,221.00
             357.00,221.00 357.00,209.00 357.00,209.00
             357.00,209.00 380.00,209.00 380.00,209.00
             380.00,209.00 380.00,197.00 380.00,197.00
             380.00,197.00 426.00,197.00 426.00,197.00
             426.00,197.00 426.00,185.00 426.00,185.00
             426.00,185.00 472.00,185.00 472.00,185.00
             472.00,185.00 472.00,173.00 472.00,173.00
             472.00,173.00 587.00,173.00 587.00,173.00
             587.00,173.00 587.00,137.00 587.00,137.00
             587.00,137.00 701.00,137.00 701.00,137.00
             701.00,137.00 701.00,113.00 701.00,113.00
             701.00,113.00 816.00,113.00 816.00,113.00
             816.00,113.00 816.00,78.00 816.00,78.00
             816.00,78.00 839.00,78.00 839.00,78.00
             839.00,78.00 839.00,101.00 839.00,101.00
             839.00,101.00 852.00,101.00 852.00,101.00M 852.00,677.00
           C 852.00,677.00 816.00,677.00 816.00,677.00
             816.00,677.00 816.00,692.00 816.00,692.00" />
  <path id="1pb"
        fill="none" stroke="black" stroke-width="1"
        d="M 182.00,269.00
           C 182.00,269.00 197.00,269.00 197.00,269.00
             197.00,269.00 197.00,257.00 197.00,257.00
             197.00,257.00 243.00,257.00 243.00,257.00
             243.00,257.00 243.00,245.00 243.00,245.00
             243.00,245.00 265.00,245.00 265.00,245.00
             265.00,245.00 265.00,233.00 265.00,233.00
             265.00,233.00 357.00,233.00 357.00,233.00
             357.00,233.00 357.00,209.00 357.00,209.00
             357.00,209.00 380.00,209.00 380.00,209.00
             380.00,209.00 380.00,197.00 380.00,197.00
             380.00,197.00 472.00,197.00 472.00,197.00
             472.00,197.00 472.00,173.00 472.00,173.00
             472.00,173.00 587.00,173.00 587.00,173.00
             587.00,173.00 587.00,137.00 587.00,137.00
             587.00,137.00 701.00,137.00 701.00,137.00
             701.00,137.00 701.00,113.00 701.00,113.00
             701.00,113.00 816.00,113.00 816.00,113.00
             816.00,113.00 816.00,78.00 816.00,78.00
             816.00,78.00 839.00,78.00 839.00,78.00
             839.00,78.00 839.00,125.00 839.00,125.00
             839.00,125.00 852.00,125.00 852.00,125.00M 852.00,544.57
           C 852.00,544.57 838.00,545.00 838.00,545.00
             838.00,545.00 838.00,665.00 838.00,665.00
             838.00,665.00 816.00,665.00 816.00,665.00
             816.00,665.00 816.00,692.00 816.00,692.00" />
  <path id=".1pb"
        fill="none" stroke="black" stroke-width="1"
        d="M 182.00,269.00
           C 182.00,269.00 243.00,269.00 243.00,269.00
             243.00,269.00 243.00,245.00 243.00,245.00
             243.00,245.00 357.00,245.00 357.00,245.00
             357.00,245.00 357.00,209.00 357.00,209.00
             357.00,209.00 472.00,209.00 472.00,209.00
             472.00,209.00 472.00,185.00 472.00,185.00
             472.00,185.00 587.00,185.00 587.00,185.00
             587.00,185.00 587.00,149.00 587.00,149.00
             587.00,149.00 701.00,149.00 701.00,149.00
             701.00,149.00 701.00,137.00 701.00,137.00
             701.00,137.00 816.00,137.00 816.00,137.00
             816.00,137.00 816.00,161.00 816.00,161.00
             816.00,161.00 839.00,161.00 839.00,161.00
             839.00,161.00 839.00,425.00 839.00,425.00
             839.00,425.00 816.00,425.00 816.00,425.00
             816.00,425.00 816.00,557.00 816.00,557.00
             816.00,557.00 701.00,557.00 701.00,557.00
             701.00,557.00 701.00,593.00 701.00,593.00
             701.00,593.00 666.00,593.00 666.00,593.00
             666.00,593.00 666.00,582.00 666.00,582.00
             666.00,582.00 586.00,582.00 586.00,582.00
             586.00,582.00 586.00,630.00 586.00,630.00
             586.00,630.00 471.00,630.00 471.00,630.00
             471.00,630.00 471.00,641.00 471.00,641.00
             471.00,641.00 358.00,641.00 358.00,641.00
             358.00,641.00 358.00,677.00 358.00,677.00
             358.00,677.00 242.00,677.00 242.00,677.00
             242.00,677.00 242.00,692.00 242.00,692.00" />
  <path id=".05pb"
        fill="none" stroke="black" stroke-width="1"
        d="M 182.00,281.00
           C 182.00,281.00 243.00,281.00 243.00,281.00
             243.00,281.00 243.00,257.00 243.00,257.00
             243.00,257.00 357.00,257.00 357.00,257.00
             357.00,257.00 357.00,221.00 357.00,221.00
             357.00,221.00 472.00,221.00 472.00,221.00
             472.00,221.00 472.00,197.00 472.00,197.00
             472.00,197.00 587.00,197.00 587.00,197.00
             587.00,197.00 587.00,161.00 587.00,161.00
             587.00,161.00 701.00,161.00 701.00,161.00
             701.00,161.00 701.00,173.00 701.00,173.00
             701.00,173.00 782.00,173.00 782.00,173.00
             782.00,173.00 782.00,185.00 782.00,185.00
             782.00,185.00 816.00,185.00 816.00,185.00
             816.00,185.00 816.00,449.00 816.00,449.00
             816.00,449.00 782.00,449.00 782.00,449.00
             782.00,449.00 782.00,461.00 782.00,461.00
             782.00,461.00 701.00,461.00 701.00,461.00
             701.00,461.00 701.00,449.00 701.00,449.00
             701.00,449.00 587.00,449.00 587.00,449.00
             587.00,449.00 587.00,461.00 587.00,461.00
             587.00,461.00 472.00,461.00 472.00,461.00
             472.00,461.00 472.00,485.00 472.00,485.00
             472.00,485.00 242.00,485.00 242.00,485.00
             242.00,485.00 242.00,473.00 242.00,473.00
             242.00,473.00 182.00,473.00 182.00,473.00" />
</svg>
