<?xml version="1.0" encoding="UTF-8" standalone="no"?>
<!DOCTYPE svg PUBLIC "-//W3C//DTD SVG 20010904//EN"
              "http://www.w3.org/TR/2001/REC-SVG-20010904/DTD/svg10.dtd">

<svg xmlns="http://www.w3.org/2000/svg"
     width="14.3593in" height="11.2625in"
     viewBox="0 0 1034 811">
  <path id="Axis_75-100_0-100"
        fill="none" stroke="black" stroke-width="1"
        d="M 753.00,676.00
           C 753.00,676.00 753.00,688.00 753.00,688.00
             753.00,688.00 179.00,688.00 179.00,688.00
             179.00,688.00 179.00,82.00 179.00,82.00
             179.00,82.00 190.00,82.00 190.00,82.00" />
  <path id="2pb"
        fill="none" stroke="black" stroke-width="1"
        d="M 176.00,269.00
           C 176.00,269.00 191.00,269.00 191.00,269.00
             191.00,269.00 191.00,257.00 191.00,257.00
             191.00,257.00 236.00,257.00 236.00,257.00
             236.00,257.00 236.00,245.00 236.00,245.00
             236.00,245.00 351.00,245.00 351.00,245.00
             351.00,245.00 351.00,209.00 351.00,209.00
             351.00,209.00 466.00,209.00 466.00,209.00
             466.00,209.00 466.00,185.00 466.00,185.00
             466.00,185.00 580.00,185.00 580.00,185.00
             580.00,185.00 580.00,161.00 580.00,161.00
             580.00,161.00 695.00,161.00 695.00,161.00
             695.00,161.00 695.00,149.00 695.00,149.00
             695.00,149.00 809.00,149.00 809.00,149.00
             809.00,149.00 809.00,89.00 809.00,89.00
             809.00,89.00 832.00,89.00 832.00,89.00
             832.00,89.00 832.00,125.00 832.00,125.00
             832.00,125.00 843.00,125.00 843.00,125.00
             843.00,125.00 843.00,484.00 843.00,484.00
             843.00,484.00 832.00,484.00 832.00,484.00
             832.00,484.00 832.00,653.00 832.00,653.00
             832.00,653.00 843.00,653.00 843.00,653.00
             843.00,653.00 843.00,676.00 843.00,676.00
             843.00,676.00 809.00,676.00 809.00,676.00
             809.00,676.00 809.00,691.00 809.00,691.00" />
  <path id="1pb"
        fill="none" stroke="black" stroke-width="1"
        d="M 176.00,269.00
           C 176.00,269.00 191.00,269.00 191.00,269.00
             191.00,269.00 191.00,257.00 191.00,257.00
             191.00,257.00 236.00,257.00 236.00,257.00
             236.00,257.00 236.00,245.00 236.00,245.00
             236.00,245.00 351.00,245.00 351.00,245.00
             351.00,245.00 351.00,209.00 351.00,209.00
             351.00,209.00 466.00,209.00 466.00,209.00
             466.00,209.00 466.00,185.00 466.00,185.00
             466.00,185.00 580.00,185.00 580.00,185.00
             580.00,185.00 580.00,161.00 580.00,161.00
             580.00,161.00 695.00,161.00 695.00,161.00
             695.00,161.00 695.00,149.00 695.00,149.00
             695.00,149.00 775.00,149.00 775.00,149.00
             775.00,149.00 775.00,161.00 775.00,161.00
             775.00,161.00 809.00,161.00 809.00,161.00
             809.00,161.00 809.00,89.00 809.00,89.00
             809.00,89.00 832.00,89.00 832.00,89.00
             832.00,89.00 832.00,125.00 832.00,125.00
             832.00,125.00 832.00,137.00 832.00,137.00
             832.00,137.00 821.00,137.00 821.00,137.00
             821.00,137.00 821.00,161.00 821.00,161.00
             821.00,161.00 832.00,161.00 832.00,161.00
             832.00,161.00 832.00,197.00 832.00,197.00
             832.00,197.00 843.00,197.00 843.00,197.00
             843.00,197.00 843.00,221.00 843.00,221.00
             843.00,221.00 832.00,221.00 832.00,221.00
             832.00,221.00 832.00,233.00 832.00,233.00
             832.00,233.00 843.00,233.00 843.00,233.00
             843.00,233.00 843.00,244.00 843.00,244.00
             843.00,244.00 832.00,244.00 832.00,244.00
             832.09,248.28 832.00,257.00 832.00,257.00
             832.00,257.00 843.00,257.00 843.00,257.00
             843.00,257.00 843.00,269.00 843.00,269.00
             843.00,269.00 832.00,269.00 832.00,269.00
             832.00,269.00 832.00,281.00 832.00,281.00
             832.00,281.00 843.00,281.00 843.00,281.00
             843.00,281.00 843.00,292.00 843.00,292.00
             843.00,292.00 832.00,292.00 832.00,292.00
             832.00,292.00 832.00,484.00 832.00,484.00
             832.00,484.00 832.00,653.00 832.00,653.00
             832.00,653.00 832.00,676.00 832.00,676.00
             832.00,676.00 809.00,676.00 809.00,676.00
             809.00,676.00 809.00,691.00 809.00,691.00" />
  <path id=".1pb"
        fill="none" stroke="black" stroke-width="1"
        d="M 236.00,497.00
           C 236.00,497.00 236.00,473.00 236.00,473.00
             236.00,473.00 350.00,473.00 350.00,473.00
             350.00,473.00 350.00,497.00 350.00,497.00
             350.00,497.00 236.00,497.00 236.00,497.00M 236.00,449.00
           C 236.00,449.00 236.00,424.00 236.00,424.00
             236.00,424.00 350.00,424.00 350.00,424.00
             350.00,424.00 350.00,449.00 350.00,449.00
             350.00,449.00 465.00,449.00 465.00,449.00
             465.00,449.00 465.00,436.00 465.00,436.00
             465.00,436.00 580.00,436.00 580.00,436.00
             580.00,436.00 580.00,425.00 580.00,425.00
             580.00,425.00 465.00,425.00 465.00,425.00
             465.00,425.00 465.00,413.00 465.00,413.00
             465.00,413.00 350.00,413.00 350.00,413.00
             350.00,413.00 350.00,389.00 350.00,389.00
             350.00,389.00 465.00,389.00 465.00,389.00
             465.00,389.00 465.00,400.00 465.00,400.00
             465.00,400.00 580.00,400.00 580.00,400.00
             580.00,400.00 580.00,412.00 580.00,412.00
             580.00,412.00 694.00,412.00 694.00,412.00
             694.00,412.00 694.00,400.00 694.00,400.00
             694.00,400.00 775.00,400.00 775.00,400.00
             775.00,400.00 775.00,388.00 775.00,388.00
             775.00,388.00 809.00,388.00 809.00,388.00
             809.00,388.00 809.00,413.00 809.00,413.00
             809.00,413.00 695.00,413.00 695.00,413.00
             695.00,413.00 695.00,437.00 695.00,437.00
             695.00,437.00 580.00,437.00 580.00,437.00
             580.00,437.00 580.00,449.00 580.00,449.00
             580.00,449.00 465.00,449.00 465.00,449.00
             465.00,449.00 465.00,461.00 465.00,461.00
             465.00,461.00 350.00,461.00 350.00,461.00
             350.00,461.00 350.00,449.00 350.00,449.00
             350.00,449.00 236.00,449.00 236.00,449.00M 775.00,473.00
           C 775.00,473.00 775.00,460.00 775.00,460.00
             775.00,460.00 809.00,460.00 809.00,460.00
             809.00,460.00 809.00,473.00 809.00,473.00
             809.00,473.00 775.00,473.00 775.00,473.00M 775.00,269.00
           C 775.00,269.00 775.00,256.00 775.00,256.00
             775.00,256.00 809.00,256.00 809.00,256.00
             809.00,256.00 809.00,269.00 809.00,269.00
             809.00,269.00 775.00,269.00 775.00,269.00M 350.00,377.00
           C 350.00,377.00 350.00,364.00 350.00,364.00
             350.00,364.00 465.00,364.00 465.00,364.00
             465.00,364.00 465.00,340.00 465.00,340.00
             465.00,340.00 580.00,340.00 580.00,340.00
             580.00,340.00 580.00,353.00 580.00,353.00
             580.00,353.00 694.00,353.00 694.00,353.00
             694.00,353.00 694.00,329.00 694.00,329.00
             694.00,329.00 580.00,329.00 580.00,329.00
             580.00,329.00 580.00,292.00 580.00,292.00
             580.00,292.00 660.00,292.00 660.00,292.00
             660.00,292.00 660.00,304.00 660.00,304.00
             660.00,304.00 775.00,304.00 775.00,304.00
             775.00,304.00 775.00,293.00 775.00,293.00
             775.00,293.00 694.00,293.00 694.00,293.00
             694.00,293.00 694.00,280.00 694.00,280.00
             694.00,280.00 809.00,280.00 809.00,280.00
             809.00,280.00 809.00,365.00 809.00,365.00
             809.00,365.00 775.00,365.00 775.00,365.00
             775.00,365.00 775.00,353.00 775.00,353.00
             775.00,353.00 695.00,353.00 695.00,353.00
             695.00,353.00 695.00,377.00 695.00,377.00
             695.00,377.00 350.00,377.00 350.00,377.00" />
</svg>
