<?xml version="1.0" encoding="UTF-8" standalone="no"?>
<!DOCTYPE svg PUBLIC "-//W3C//DTD SVG 20010904//EN"
              "http://www.w3.org/TR/2001/REC-SVG-20010904/DTD/svg10.dtd">

<svg xmlns="http://www.w3.org/2000/svg"
     width="14.276in" height="11.1375in"
     viewBox="0 0 1028 802">
  <path id="Axis_60-200_0-100"
        fill="none" stroke="black" stroke-width="1"
        d="M 188.00,67.00
           C 188.00,67.00 177.00,67.00 177.00,67.00
             177.00,67.00 177.00,684.00 177.00,684.00
             177.00,684.00 831.00,684.00 831.00,684.00
             831.00,684.00 831.00,673.00 831.00,673.00M 231.00,673.00
           C 231.00,673.00 231.00,684.00 231.00,684.00" />
  <path id=".051pb"
        fill="none" stroke="black" stroke-width="1"
        d="M 434.00,85.00
           C 434.00,85.00 434.00,97.00 434.00,97.00
             434.00,97.00 413.00,97.00 413.00,97.00
             413.00,97.00 413.00,85.00 413.00,85.00
             413.00,85.00 434.00,85.00 434.00,85.00 Z
           M 391.00,134.00
           C 391.00,134.00 391.00,158.00 391.00,158.00
             391.00,158.00 370.00,158.00 370.00,158.00
             370.00,158.00 370.00,134.00 370.00,134.00
             370.00,134.00 391.00,134.00 391.00,134.00 Z
           M 434.00,134.00
           C 434.00,134.00 434.00,146.00 434.00,146.00
             434.00,146.00 413.00,146.00 413.00,146.00
             413.00,146.00 413.00,134.00 413.00,134.00
             413.00,134.00 434.00,134.00 434.00,134.00 Z
           M 434.00,158.00
           C 434.00,158.00 434.00,207.00 434.00,207.00
             434.00,207.00 455.00,207.00 455.00,207.00
             455.00,207.00 455.00,195.00 455.00,195.00
             455.00,195.00 499.00,195.00 499.00,195.00
             499.00,195.00 499.00,220.00 499.00,220.00
             499.00,220.00 477.00,220.00 477.00,220.00
             477.00,220.00 477.00,232.00 477.00,232.00
             477.00,232.00 499.00,232.00 499.00,232.00
             499.00,232.00 499.00,244.00 499.00,244.00
             499.00,244.00 520.00,244.00 520.00,244.00
             520.00,244.00 520.00,293.00 520.00,293.00
             520.00,293.00 477.00,293.00 477.00,293.00
             477.00,293.00 477.00,281.00 477.00,281.00
             477.00,281.00 434.00,281.00 434.00,281.00
             434.00,281.00 434.00,293.00 434.00,293.00
             434.00,293.00 413.00,293.00 413.00,293.00
             413.00,293.00 413.00,281.00 413.00,281.00
             413.00,281.00 434.00,281.00 434.00,281.00
             434.00,281.00 434.00,256.00 434.00,256.00
             434.00,256.00 413.00,256.00 413.00,256.00
             413.00,256.00 413.00,158.00 413.00,158.00
             413.00,158.00 434.00,158.00 434.00,158.00 Z
           M 370.00,170.00
           C 370.00,170.00 370.00,183.00 370.00,183.00
             370.00,183.00 348.00,183.00 348.00,183.00
             348.00,183.00 348.00,170.00 348.00,170.00
             348.00,170.00 370.00,170.00 370.00,170.00 Z
           M 477.00,256.00
           C 477.00,256.00 477.00,268.00 477.00,268.00
             477.00,268.00 499.00,268.00 499.00,268.00
             499.00,268.00 499.00,256.00 499.00,256.00
             499.00,256.00 477.00,256.00 477.00,256.00 Z
           M 284.00,281.00
           C 284.00,281.00 284.00,293.00 284.00,293.00
             284.00,293.00 262.00,293.00 262.00,293.00
             262.00,293.00 262.00,281.00 262.00,281.00
             262.00,281.00 284.00,281.00 284.00,281.00 Z
           M 520.00,305.00
           C 520.00,305.00 520.00,317.00 520.00,317.00
             520.00,317.00 542.00,317.00 542.00,317.00
             542.00,317.00 542.00,342.00 542.00,342.00
             542.00,342.00 585.00,342.00 585.00,342.00
             585.00,342.00 585.00,354.00 585.00,354.00
             585.00,354.00 606.00,354.00 606.00,354.00
             606.00,354.00 606.00,378.00 606.00,378.00
             606.00,378.00 649.00,378.00 649.00,378.00
             649.00,378.00 649.00,427.00 649.00,427.00
             649.00,427.00 670.00,427.00 670.00,427.00
             670.00,427.00 670.00,452.00 670.00,452.00
             670.00,452.00 692.00,452.00 692.00,452.00
             692.00,452.00 692.00,464.00 692.00,464.00
             692.00,464.00 713.00,464.00 713.00,464.00
             713.00,464.00 713.00,513.00 713.00,513.00
             713.00,513.00 734.00,513.00 734.00,513.00
             734.00,513.00 734.00,525.00 734.00,525.00
             734.00,525.00 756.00,525.00 756.00,525.00
             756.00,525.00 756.00,538.00 756.00,538.00
             756.00,538.00 734.00,538.00 734.00,538.00
             734.00,538.00 734.00,550.00 734.00,550.00
             734.00,550.00 756.00,550.00 756.00,550.00
             756.00,550.00 756.00,574.00 756.00,574.00
             756.00,574.00 777.00,574.00 777.00,574.00
             777.00,574.00 777.00,611.00 777.00,611.00
             777.00,611.00 799.00,611.00 799.00,611.00
             799.00,611.00 799.00,672.00 799.00,672.00
             799.00,672.00 584.00,672.00 584.00,672.00
             584.00,672.00 584.00,648.00 584.00,648.00
             584.00,648.00 563.00,648.00 563.00,648.00
             563.00,648.00 563.00,672.00 563.00,672.00
             563.00,672.00 477.00,672.00 477.00,672.00
             477.00,672.00 477.00,648.00 477.00,648.00
             477.00,648.00 456.00,648.00 456.00,648.00
             456.00,648.00 456.00,672.00 456.00,672.00
             456.00,672.00 413.00,672.00 413.00,672.00
             413.00,672.00 413.00,476.00 413.00,476.00
             413.00,476.00 434.00,476.00 434.00,476.00
             434.00,476.00 434.00,501.00 434.00,501.00
             434.00,501.00 456.00,501.00 456.00,501.00
             456.00,501.00 456.00,476.00 456.00,476.00
             456.00,476.00 477.00,476.00 477.00,476.00
             477.00,476.00 477.00,439.00 477.00,439.00
             477.00,439.00 520.00,439.00 520.00,439.00
             520.00,439.00 520.00,427.00 520.00,427.00
             520.00,427.00 499.00,427.00 499.00,427.00
             499.00,427.00 499.00,402.00 499.00,402.00
             499.00,402.00 520.00,402.00 520.00,402.00
             520.00,402.00 520.00,366.00 520.00,366.00
             520.00,366.00 541.00,366.00 541.00,366.00
             541.00,366.00 541.00,354.00 541.00,354.00
             541.00,354.00 520.00,354.00 520.00,354.00
             520.00,354.00 520.00,342.00 520.00,342.00
             520.00,342.00 477.00,342.00 477.00,342.00
             477.00,342.00 477.00,330.00 477.00,330.00
             477.00,330.00 455.00,330.00 455.00,330.00
             455.00,330.00 455.00,318.00 455.00,318.00
             455.00,318.00 434.00,318.00 434.00,318.00
             434.00,318.00 434.00,464.00 434.00,464.00
             434.00,464.00 413.00,464.00 413.00,464.00
             413.00,464.00 413.00,305.00 413.00,305.00
             413.00,305.00 520.00,305.00 520.00,305.00 Z
           M 241.00,342.00
           C 241.00,342.00 241.00,354.00 241.00,354.00
             241.00,354.00 262.00,354.00 262.00,354.00
             262.00,354.00 262.00,379.00 262.00,379.00
             262.00,379.00 241.00,379.00 241.00,379.00
             241.00,379.00 241.00,366.00 241.00,366.00
             241.00,366.00 220.00,366.00 220.00,366.00
             220.00,366.00 220.00,342.00 220.00,342.00
             220.00,342.00 241.00,342.00 241.00,342.00 Z
           M 370.00,342.00
           C 370.00,342.00 370.00,366.00 370.00,366.00
             370.00,366.00 348.00,366.00 348.00,366.00
             348.00,366.00 348.00,342.00 348.00,342.00
             348.00,342.00 370.00,342.00 370.00,342.00 Z
           M 541.00,366.00
           C 541.00,366.00 541.00,378.00 541.00,378.00
             541.00,378.00 563.00,378.00 563.00,378.00
             563.00,378.00 563.00,366.00 563.00,366.00
             563.00,366.00 541.00,366.00 541.00,366.00 Z
           M 391.00,378.00
           C 391.00,378.00 391.00,391.00 391.00,391.00
             391.00,391.00 370.00,391.00 370.00,391.00
             370.00,391.00 370.00,378.00 370.00,378.00
             370.00,378.00 391.00,378.00 391.00,378.00 Z
           M 606.00,391.00
           C 606.00,391.00 606.00,403.00 606.00,403.00
             606.00,403.00 627.00,403.00 627.00,403.00
             627.00,403.00 627.00,391.00 627.00,391.00
             627.00,391.00 606.00,391.00 606.00,391.00 Z
           M 348.00,391.00
           C 348.00,391.00 348.00,403.00 348.00,403.00
             348.00,403.00 327.00,403.00 327.00,403.00
             327.00,403.00 327.00,391.00 327.00,391.00
             327.00,391.00 348.00,391.00 348.00,391.00 Z
           M 477.00,391.00
           C 477.00,391.00 477.00,403.00 477.00,403.00
             477.00,403.00 455.00,403.00 455.00,403.00
             455.00,403.00 455.00,391.00 455.00,391.00
             455.00,391.00 477.00,391.00 477.00,391.00 Z
           M 263.00,439.00
           C 263.00,439.00 263.00,464.00 263.00,464.00
             263.00,464.00 241.00,464.00 241.00,464.00
             241.00,464.00 241.00,439.00 241.00,439.00
             241.00,439.00 263.00,439.00 263.00,439.00 Z
           M 305.00,439.00
           C 305.00,439.00 305.00,464.00 305.00,464.00
             305.00,464.00 284.00,464.00 284.00,464.00
             284.00,464.00 284.00,439.00 284.00,439.00
             284.00,439.00 305.00,439.00 305.00,439.00 Z
           M 305.00,476.00
           C 305.00,476.00 305.00,501.00 305.00,501.00
             305.00,501.00 284.00,501.00 284.00,501.00
             284.00,501.00 284.00,476.00 284.00,476.00
             284.00,476.00 305.00,476.00 305.00,476.00 Z
           M 456.00,526.00
           C 456.00,526.00 456.00,550.00 456.00,550.00
             456.00,550.00 434.00,550.00 434.00,550.00
             434.00,550.00 434.00,562.00 434.00,562.00
             434.00,562.00 456.00,562.00 456.00,562.00
             456.00,562.00 456.00,574.00 456.00,574.00
             456.00,574.00 477.00,574.00 477.00,574.00
             477.00,574.00 477.00,586.00 477.00,586.00
             477.00,586.00 498.00,586.00 498.00,586.00
             498.00,586.00 498.00,550.00 498.00,550.00
             498.00,550.00 477.00,550.00 477.00,550.00
             477.00,550.00 477.00,526.00 477.00,526.00
             477.00,526.00 456.00,526.00 456.00,526.00 Z
           M 456.00,598.00
           C 456.00,598.00 456.00,623.00 456.00,623.00
             456.00,623.00 477.00,623.00 477.00,623.00
             477.00,623.00 477.00,598.00 477.00,598.00
             477.00,598.00 456.00,598.00 456.00,598.00 Z
           M 434.00,635.00
           C 434.00,635.00 434.00,648.00 434.00,648.00
             434.00,648.00 456.00,648.00 456.00,648.00
             456.00,648.00 456.00,635.00 456.00,635.00
             456.00,635.00 434.00,635.00 434.00,635.00 Z" />
  <path id=".15pb"
        fill="none" stroke="black" stroke-width="1"
        d="M 434.00,73.00
           C 434.00,73.00 434.00,97.00 434.00,97.00
             434.00,97.00 456.00,97.00 456.00,97.00
             456.00,97.00 456.00,109.00 456.00,109.00
             456.00,109.00 434.00,109.00 434.00,109.00
             434.00,109.00 434.00,122.00 434.00,122.00
             434.00,122.00 456.00,122.00 456.00,122.00
             456.00,122.00 456.00,171.00 456.00,171.00
             456.00,171.00 477.00,171.00 477.00,171.00
             477.00,171.00 477.00,158.00 477.00,158.00
             477.00,158.00 499.00,158.00 499.00,158.00
             499.00,158.00 499.00,182.00 499.00,182.00
             499.00,182.00 520.00,182.00 520.00,182.00
             520.00,182.00 520.00,219.00 520.00,219.00
             520.00,219.00 542.00,219.00 542.00,219.00
             542.00,219.00 542.00,243.00 542.00,243.00
             542.00,243.00 563.00,243.00 563.00,243.00
             563.00,243.00 563.00,281.00 563.00,281.00
             563.00,281.00 584.00,281.00 584.00,281.00
             584.00,281.00 584.00,305.00 584.00,305.00
             584.00,305.00 606.00,305.00 606.00,305.00
             606.00,305.00 606.00,342.00 606.00,342.00
             606.00,342.00 627.00,342.00 627.00,342.00
             627.00,342.00 627.00,366.00 627.00,366.00
             627.00,366.00 649.00,366.00 649.00,366.00
             649.00,366.00 649.00,403.00 649.00,403.00
             649.00,403.00 670.00,403.00 670.00,403.00
             670.00,403.00 670.00,427.00 670.00,427.00
             670.00,427.00 692.00,427.00 692.00,427.00
             692.00,427.00 692.00,464.00 692.00,464.00
             692.00,464.00 713.00,464.00 713.00,464.00
             713.00,464.00 713.00,489.00 713.00,489.00
             713.00,489.00 734.00,489.00 734.00,489.00
             734.00,489.00 734.00,525.00 734.00,525.00
             734.00,525.00 756.00,525.00 756.00,525.00
             756.00,525.00 756.00,550.00 756.00,550.00
             756.00,550.00 777.00,550.00 777.00,550.00
             777.00,550.00 777.00,599.00 777.00,599.00
             777.00,599.00 799.00,599.00 799.00,599.00
             799.00,599.00 799.00,611.00 799.00,611.00
             799.00,611.00 820.00,611.00 820.00,611.00
             820.00,611.00 820.00,647.00 820.00,647.00
             820.00,647.00 799.00,647.00 799.00,647.00
             799.00,647.00 799.00,672.00 799.00,672.00
             799.00,672.00 413.00,672.00 413.00,672.00
             413.00,672.00 413.00,647.00 413.00,647.00
             413.00,647.00 391.00,647.00 391.00,647.00
             391.00,647.00 391.00,635.00 391.00,635.00
             391.00,635.00 370.00,635.00 370.00,635.00
             370.00,635.00 370.00,623.00 370.00,623.00
             370.00,623.00 348.00,623.00 348.00,623.00
             348.00,623.00 348.00,586.00 348.00,586.00
             348.00,586.00 327.00,586.00 327.00,586.00
             327.00,586.00 327.00,562.00 327.00,562.00
             327.00,562.00 305.00,562.00 305.00,562.00
             305.00,562.00 305.00,525.00 305.00,525.00
             305.00,525.00 284.00,525.00 284.00,525.00
             284.00,525.00 284.00,501.00 284.00,501.00
             284.00,501.00 263.00,501.00 263.00,501.00
             263.00,501.00 263.00,464.00 263.00,464.00
             263.00,464.00 241.00,464.00 241.00,464.00
             241.00,464.00 241.00,439.00 241.00,439.00
             241.00,439.00 220.00,439.00 220.00,439.00
             220.00,439.00 220.00,342.00 220.00,342.00
             220.00,342.00 262.00,342.00 262.00,342.00
             262.00,342.00 262.00,281.00 262.00,281.00
             262.00,281.00 305.00,281.00 305.00,281.00
             305.00,281.00 305.00,244.00 305.00,244.00
             305.00,244.00 327.00,244.00 327.00,244.00
             327.00,244.00 327.00,220.00 327.00,220.00
             327.00,220.00 348.00,220.00 348.00,220.00
             348.00,220.00 348.00,207.00 348.00,207.00
             348.00,207.00 327.00,207.00 327.00,207.00
             327.00,207.00 327.00,195.00 327.00,195.00
             327.00,195.00 370.00,195.00 370.00,195.00
             370.00,195.00 370.00,220.00 370.00,220.00
             370.00,220.00 391.00,220.00 391.00,220.00
             391.00,220.00 391.00,256.00 391.00,256.00
             391.00,256.00 413.00,256.00 413.00,256.00
             413.00,256.00 413.00,158.00 413.00,158.00
             413.00,158.00 391.00,158.00 391.00,158.00
             391.00,158.00 391.00,183.00 391.00,183.00
             391.00,183.00 348.00,183.00 348.00,183.00
             348.00,183.00 348.00,158.00 348.00,158.00
             348.00,158.00 370.00,158.00 370.00,158.00
             370.00,158.00 370.00,134.00 370.00,134.00
             370.00,134.00 391.00,134.00 391.00,134.00
             391.00,134.00 391.00,146.00 391.00,146.00
             391.00,146.00 413.00,146.00 413.00,146.00
             413.00,146.00 413.00,134.00 413.00,134.00
             413.00,134.00 434.00,134.00 434.00,134.00
             434.00,134.00 434.00,122.00 434.00,122.00
             434.00,122.00 413.00,122.00 413.00,122.00
             413.00,122.00 413.00,73.00 413.00,73.00
             413.00,73.00 434.00,73.00 434.00,73.00 Z
           M 413.00,146.00
           C 413.00,146.00 413.00,158.00 413.00,158.00
             413.00,158.00 434.00,158.00 434.00,158.00
             434.00,158.00 434.00,146.00 434.00,146.00
             434.00,146.00 413.00,146.00 413.00,146.00 Z
           M 348.00,220.00
           C 348.00,220.00 348.00,244.00 348.00,244.00
             348.00,244.00 370.00,244.00 370.00,244.00
             370.00,244.00 370.00,220.00 370.00,220.00
             370.00,220.00 348.00,220.00 348.00,220.00 Z
           M 327.00,244.00
           C 327.00,244.00 327.00,281.00 327.00,281.00
             327.00,281.00 348.00,281.00 348.00,281.00
             348.00,281.00 348.00,244.00 348.00,244.00
             348.00,244.00 327.00,244.00 327.00,244.00 Z
           M 370.00,268.00
           C 370.00,268.00 370.00,293.00 370.00,293.00
             370.00,293.00 391.00,293.00 391.00,293.00
             391.00,293.00 391.00,281.00 391.00,281.00
             391.00,281.00 413.00,281.00 413.00,281.00
             413.00,281.00 413.00,268.00 413.00,268.00
             413.00,268.00 370.00,268.00 370.00,268.00 Z
           M 541.00,281.00
           C 541.00,281.00 541.00,293.00 541.00,293.00
             541.00,293.00 563.00,293.00 563.00,293.00
             563.00,293.00 563.00,281.00 563.00,281.00
             563.00,281.00 541.00,281.00 541.00,281.00 Z
           M 305.00,293.00
           C 305.00,293.00 305.00,305.00 305.00,305.00
             305.00,305.00 327.00,305.00 327.00,305.00
             327.00,305.00 327.00,293.00 327.00,293.00
             327.00,293.00 305.00,293.00 305.00,293.00 Z
           M 391.00,317.00
           C 391.00,317.00 391.00,403.00 391.00,403.00
             391.00,403.00 370.00,403.00 370.00,403.00
             370.00,403.00 370.00,464.00 370.00,464.00
             370.00,464.00 391.00,464.00 391.00,464.00
             391.00,464.00 391.00,513.00 391.00,513.00
             391.00,513.00 370.00,513.00 370.00,513.00
             370.00,513.00 370.00,501.00 370.00,501.00
             370.00,501.00 348.00,501.00 348.00,501.00
             348.00,501.00 348.00,476.00 348.00,476.00
             348.00,476.00 327.00,476.00 327.00,476.00
             327.00,476.00 327.00,526.00 327.00,526.00
             327.00,526.00 348.00,526.00 348.00,526.00
             348.00,526.00 348.00,550.00 348.00,550.00
             348.00,550.00 370.00,550.00 370.00,550.00
             370.00,550.00 370.00,562.00 370.00,562.00
             370.00,562.00 391.00,562.00 391.00,562.00
             391.00,562.00 391.00,586.00 391.00,586.00
             391.00,586.00 370.00,586.00 370.00,586.00
             370.00,586.00 370.00,623.00 370.00,623.00
             370.00,623.00 413.00,623.00 413.00,623.00
             413.00,623.00 413.00,317.00 413.00,317.00
             413.00,317.00 391.00,317.00 391.00,317.00 Z
           M 434.00,318.00
           C 434.00,318.00 434.00,330.00 434.00,330.00
             434.00,330.00 455.00,330.00 455.00,330.00
             455.00,330.00 455.00,318.00 455.00,318.00
             455.00,318.00 434.00,318.00 434.00,318.00 Z
           M 262.00,379.00
           C 262.00,379.00 262.00,391.00 262.00,391.00
             262.00,391.00 284.00,391.00 284.00,391.00
             284.00,391.00 284.00,379.00 284.00,379.00
             284.00,379.00 262.00,379.00 262.00,379.00 Z
           M 456.00,598.00
           C 456.00,598.00 456.00,611.00 456.00,611.00
             456.00,611.00 477.00,611.00 477.00,611.00
             477.00,611.00 477.00,598.00 477.00,598.00
             477.00,598.00 456.00,598.00 456.00,598.00 Z
           M 434.00,635.00
           C 434.00,635.00 434.00,648.00 434.00,648.00
             434.00,648.00 456.00,648.00 456.00,648.00
             456.00,648.00 456.00,635.00 456.00,635.00
             456.00,635.00 434.00,635.00 434.00,635.00 Z" />
  <path id=".5pb"
        fill="none" stroke="black" stroke-width="1"
        d="M 434.00,73.00
           C 434.00,73.00 434.00,97.00 434.00,97.00
             434.00,97.00 456.00,97.00 456.00,97.00
             456.00,97.00 456.00,122.00 456.00,122.00
             456.00,122.00 477.00,122.00 477.00,122.00
             477.00,122.00 477.00,158.00 477.00,158.00
             477.00,158.00 499.00,158.00 499.00,158.00
             499.00,158.00 499.00,182.00 499.00,182.00
             499.00,182.00 520.00,182.00 520.00,182.00
             520.00,182.00 520.00,219.00 520.00,219.00
             520.00,219.00 542.00,219.00 542.00,219.00
             542.00,219.00 542.00,243.00 542.00,243.00
             542.00,243.00 563.00,243.00 563.00,243.00
             563.00,243.00 563.00,281.00 563.00,281.00
             563.00,281.00 584.00,281.00 584.00,281.00
             584.00,281.00 584.00,305.00 584.00,305.00
             584.00,305.00 606.00,305.00 606.00,305.00
             606.00,305.00 606.00,342.00 606.00,342.00
             606.00,342.00 627.00,342.00 627.00,342.00
             627.00,342.00 627.00,366.00 627.00,366.00
             627.00,366.00 649.00,366.00 649.00,366.00
             649.00,366.00 649.00,403.00 649.00,403.00
             649.00,403.00 670.00,403.00 670.00,403.00
             670.00,403.00 670.00,427.00 670.00,427.00
             670.00,427.00 692.00,427.00 692.00,427.00
             692.00,427.00 692.00,464.00 692.00,464.00
             692.00,464.00 713.00,464.00 713.00,464.00
             713.00,464.00 713.00,489.00 713.00,489.00
             713.00,489.00 734.00,489.00 734.00,489.00
             734.00,489.00 734.00,525.00 734.00,525.00
             734.00,525.00 756.00,525.00 756.00,525.00
             756.00,525.00 756.00,550.00 756.00,550.00
             756.00,550.00 777.00,550.00 777.00,550.00
             777.00,550.00 777.00,587.00 777.00,587.00
             777.00,587.00 799.00,587.00 799.00,587.00
             799.00,587.00 799.00,611.00 799.00,611.00
             799.00,611.00 820.00,611.00 820.00,611.00
             820.00,611.00 820.00,647.00 820.00,647.00
             820.00,647.00 799.00,647.00 799.00,647.00
             799.00,647.00 799.00,672.00 799.00,672.00
             799.00,672.00 413.00,672.00 413.00,672.00
             413.00,672.00 413.00,647.00 413.00,647.00
             413.00,647.00 370.00,647.00 370.00,647.00
             370.00,647.00 370.00,623.00 370.00,623.00
             370.00,623.00 348.00,623.00 348.00,623.00
             348.00,623.00 348.00,586.00 348.00,586.00
             348.00,586.00 327.00,586.00 327.00,586.00
             327.00,586.00 327.00,562.00 327.00,562.00
             327.00,562.00 305.00,562.00 305.00,562.00
             305.00,562.00 305.00,525.00 305.00,525.00
             305.00,525.00 284.00,525.00 284.00,525.00
             284.00,525.00 284.00,501.00 284.00,501.00
             284.00,501.00 263.00,501.00 263.00,501.00
             263.00,501.00 263.00,464.00 263.00,464.00
             263.00,464.00 241.00,464.00 241.00,464.00
             241.00,464.00 241.00,439.00 241.00,439.00
             241.00,439.00 220.00,439.00 220.00,439.00
             220.00,439.00 220.00,391.00 220.00,391.00
             220.00,391.00 198.00,391.00 198.00,391.00
             198.00,391.00 198.00,366.00 198.00,366.00
             198.00,366.00 220.00,366.00 220.00,366.00
             220.00,366.00 220.00,342.00 220.00,342.00
             220.00,342.00 262.00,342.00 262.00,342.00
             262.00,342.00 262.00,281.00 262.00,281.00
             262.00,281.00 305.00,281.00 305.00,281.00
             305.00,281.00 305.00,220.00 305.00,220.00
             305.00,220.00 348.00,220.00 348.00,220.00
             348.00,220.00 348.00,207.00 348.00,207.00
             348.00,207.00 327.00,207.00 327.00,207.00
             327.00,207.00 327.00,195.00 327.00,195.00
             327.00,195.00 348.00,195.00 348.00,195.00
             348.00,195.00 348.00,158.00 348.00,158.00
             348.00,158.00 370.00,158.00 370.00,158.00
             370.00,158.00 370.00,134.00 370.00,134.00
             370.00,134.00 391.00,134.00 391.00,134.00
             391.00,134.00 391.00,110.00 391.00,110.00
             391.00,110.00 413.00,110.00 413.00,110.00
             413.00,110.00 413.00,73.00 413.00,73.00
             413.00,73.00 434.00,73.00 434.00,73.00 Z" />
</svg>
