<?xml version="1.0" encoding="UTF-8" standalone="no"?>
<!DOCTYPE svg PUBLIC "-//W3C//DTD SVG 20010904//EN"
              "http://www.w3.org/TR/2001/REC-SVG-20010904/DTD/svg10.dtd">

<svg xmlns="http://www.w3.org/2000/svg"
     width="14.3177in" height="11.6097in"
     viewBox="0 0 1031 836">
  <path id="Axis_75-100_0-100"
        fill="none" stroke="black" stroke-width="1"
        d="M 190.00,95.00
           C 190.00,95.00 179.00,95.00 179.00,95.00
             179.00,95.00 179.00,700.00 179.00,700.00
             179.00,700.00 753.00,700.00 753.00,700.00
             753.00,700.00 753.00,689.00 753.00,689.00" />
  <path id="2pb"
        fill="none" stroke="black" stroke-width="1"
        d="M 176.00,281.00
           C 176.00,281.00 191.00,281.00 191.00,281.00
             191.00,281.00 191.00,269.00 191.00,269.00
             191.00,269.00 225.00,269.00 225.00,269.00
             225.00,269.00 225.00,257.00 225.00,257.00
             225.00,257.00 259.00,257.00 259.00,257.00
             259.00,257.00 259.00,245.00 259.00,245.00
             259.00,245.00 305.00,245.00 305.00,245.00
             305.00,245.00 305.00,233.00 305.00,233.00
             305.00,233.00 351.00,233.00 351.00,233.00
             351.00,233.00 351.00,221.00 351.00,221.00
             351.00,221.00 374.00,221.00 374.00,221.00
             374.00,221.00 374.00,209.00 374.00,209.00
             374.00,209.00 420.00,209.00 420.00,209.00
             420.00,209.00 420.00,197.00 420.00,197.00
             420.00,197.00 466.00,197.00 466.00,197.00
             466.00,197.00 466.00,185.00 466.00,185.00
             466.00,185.00 489.00,185.00 489.00,185.00
             489.00,185.00 489.00,173.00 489.00,173.00
             489.00,173.00 581.00,173.00 581.00,173.00
             581.00,173.00 581.00,161.00 581.00,161.00
             581.00,161.00 695.00,161.00 695.00,161.00
             695.00,161.00 695.00,149.00 695.00,149.00
             695.00,149.00 603.00,149.00 603.00,149.00
             603.00,149.00 603.00,137.00 603.00,137.00
             603.00,137.00 810.00,137.00 810.00,137.00
             810.00,137.00 810.00,113.00 810.00,113.00
             810.00,113.00 833.00,113.00 833.00,113.00
             833.00,113.00 833.00,161.00 833.00,161.00
             833.00,161.00 846.00,161.00 846.00,161.00M 846.00,257.00
           C 846.00,257.00 833.00,257.00 833.00,257.00
             833.00,257.00 833.00,269.00 833.00,269.00
             833.00,269.00 846.00,269.00 846.00,269.00M 846.00,221.00
           C 846.00,221.00 833.00,221.00 833.00,221.00
             833.00,221.00 833.00,245.00 833.00,245.00
             833.00,245.00 846.00,245.00 846.00,245.00M 846.00,185.00
           C 846.00,185.00 833.00,185.00 833.00,185.00
             833.00,185.00 833.00,197.00 833.00,197.00
             833.00,197.00 846.00,197.00 846.00,197.00" />
  <path id="1pb"
        fill="none" stroke="black" stroke-width="1"
        d="M 176.00,281.00
           C 176.00,281.00 191.00,281.00 191.00,281.00
             191.00,281.00 191.00,269.00 191.00,269.00
             191.00,269.00 225.00,269.00 225.00,269.00
             225.00,269.00 225.00,257.00 225.00,257.00
             225.00,257.00 259.00,257.00 259.00,257.00
             259.00,257.00 259.00,245.00 259.00,245.00
             259.00,245.00 351.00,245.00 351.00,245.00
             351.00,245.00 351.00,221.00 351.00,221.00
             351.00,221.00 374.00,221.00 374.00,221.00
             374.00,221.00 374.00,209.00 374.00,209.00
             374.00,209.00 466.00,209.00 466.00,209.00
             466.00,209.00 466.00,197.00 466.00,197.00
             466.00,197.00 581.00,197.00 581.00,197.00
             581.00,197.00 581.00,161.00 581.00,161.00
             581.00,161.00 695.00,161.00 695.00,161.00
             695.00,161.00 695.00,149.00 695.00,149.00
             695.00,149.00 810.00,149.00 810.00,149.00
             810.00,149.00 810.00,113.00 810.00,113.00
             810.00,113.00 821.00,113.00 821.00,113.00
             821.00,113.00 821.00,125.00 821.00,125.00
             821.00,125.00 833.00,125.00 833.00,125.00
             833.00,125.00 833.00,269.00 833.00,269.00
             833.00,269.00 846.00,269.00 846.00,269.00M 846.00,497.00
           C 846.00,497.00 833.00,497.00 833.00,497.00
             833.00,497.00 833.00,689.00 833.00,689.00
             833.00,689.00 810.00,689.00 810.00,689.00
             810.00,689.00 810.00,703.00 810.00,703.00M 846.00,448.59
           C 846.00,448.59 833.00,449.00 833.00,449.00
             833.00,449.00 833.00,473.00 833.00,473.00
             833.00,473.00 846.00,473.00 846.00,473.00M 846.00,305.00
           C 846.00,305.00 833.00,305.00 833.00,305.00
             833.00,305.00 833.00,317.00 833.00,317.00
             833.00,317.00 846.00,317.00 846.00,317.00" />
  <path id=".1pb"
        fill="none" stroke="black" stroke-width="1"
        d="M 176.00,341.00
           C 176.00,341.00 236.00,341.00 236.00,341.00
             236.00,341.00 236.00,317.00 236.00,317.00
             236.00,317.00 350.00,317.00 350.00,317.00
             350.00,317.00 350.00,293.00 350.00,293.00
             350.00,293.00 465.00,293.00 465.00,293.00
             465.00,293.00 465.00,281.00 465.00,281.00
             465.00,281.00 580.00,281.00 580.00,281.00
             580.00,281.00 580.00,269.00 580.00,269.00
             580.00,269.00 694.00,269.00 694.00,269.00
             694.00,269.00 694.00,257.00 694.00,257.00
             694.00,257.00 810.00,257.00 810.00,257.00
             810.00,257.00 810.00,437.00 810.00,437.00
             810.00,437.00 798.00,437.00 798.00,437.00
             798.00,437.00 798.00,449.00 798.00,449.00
             798.00,449.00 809.00,449.00 809.00,449.00
             809.00,449.00 809.00,461.00 809.00,461.00
             809.00,461.00 694.00,461.00 694.00,461.00
             694.00,461.00 694.00,413.00 694.00,413.00
             694.00,413.00 660.00,413.00 660.00,413.00
             660.00,413.00 660.00,401.00 660.00,401.00
             660.00,401.00 581.00,401.00 581.00,401.00
             581.00,401.00 581.00,449.00 581.00,449.00
             581.00,449.00 465.00,449.00 465.00,449.00
             465.00,449.00 465.00,438.00 465.00,438.00
             465.00,438.00 351.00,438.00 351.00,438.00
             351.00,438.00 351.00,461.00 351.00,461.00
             351.00,461.00 176.00,461.00 176.00,461.00" />
  <path id=".05pb"
        fill="none" stroke="black" stroke-width="1"
        d="M 798.00,293.00
           C 798.00,293.00 798.00,305.00 798.00,305.00
             798.00,305.00 775.00,305.00 775.00,305.00
             775.00,305.00 775.00,293.00 775.00,293.00
             775.00,293.00 798.00,293.00 798.00,293.00 Z
           M 176.00,365.00
           C 176.00,365.00 236.00,365.00 236.00,365.00
             236.00,365.00 236.00,389.00 236.00,389.00
             236.00,389.00 176.00,389.00 176.00,389.00" />
</svg>
