<?xml version="1.0" encoding="UTF-8" standalone="no"?>
<!-- Created with Inkscape (http://www.inkscape.org/) -->

<svg
   xmlns:dc="http://purl.org/dc/elements/1.1/"
   xmlns:cc="http://creativecommons.org/ns#"
   xmlns:rdf="http://www.w3.org/1999/02/22-rdf-syntax-ns#"
   xmlns:svg="http://www.w3.org/2000/svg"
   xmlns="http://www.w3.org/2000/svg"
   xmlns:sodipodi="http://sodipodi.sourceforge.net/DTD/sodipodi-0.dtd"
   xmlns:inkscape="http://www.inkscape.org/namespaces/inkscape"
   id="svg2"
   version="1.1"
   inkscape:version="0.48.2 r9819"
   width="560"
   height="421.25"
   xml:space="preserve"
   sodipodi:docname="plot1.pdf"><metadata
     id="metadata8"><rdf:RDF><cc:Work
         rdf:about=""><dc:format>image/svg+xml</dc:format><dc:type
           rdf:resource="http://purl.org/dc/dcmitype/StillImage" /><dc:title></dc:title></cc:Work></rdf:RDF></metadata><defs
     id="defs6"><clipPath
       clipPathUnits="userSpaceOnUse"
       id="clipPath18"><path
         d="m 0,3370 4480,0 0,-3360.83203 -4480,0 L 0,3370 z"
         id="path20" /></clipPath><clipPath
       clipPathUnits="userSpaceOnUse"
       id="clipPath228"><path
         d="m 582.5,3017.5 3472.5,0 0,-2605.832 -3472.5,0 0,2605.832 z"
         id="path230" /></clipPath><clipPath
       clipPathUnits="userSpaceOnUse"
       id="clipPath262"><path
         d="m 0,3370 4480,0 0,-3360.83203 -4480,0 L 0,3370 z"
         id="path264" /></clipPath><clipPath
       clipPathUnits="userSpaceOnUse"
       id="clipPath486"><path
         d="m 582.5,3017.5 3472.5,0 0,-2605.832 -3472.5,0 0,2605.832 z"
         id="path488" /></clipPath><clipPath
       clipPathUnits="userSpaceOnUse"
       id="clipPath500"><path
         d="m 0,3370 4480,0 0,-3360.83203 -4480,0 L 0,3370 z"
         id="path502" /></clipPath></defs><sodipodi:namedview
     pagecolor="#ffffff"
     bordercolor="#666666"
     borderopacity="1"
     objecttolerance="10"
     gridtolerance="10"
     guidetolerance="10"
     inkscape:pageopacity="0"
     inkscape:pageshadow="2"
     inkscape:window-width="1600"
     inkscape:window-height="826"
     id="namedview4"
     showgrid="false"
     inkscape:zoom="1.4849242"
     inkscape:cx="260.12117"
     inkscape:cy="201.94076"
     inkscape:window-x="0"
     inkscape:window-y="25"
     inkscape:window-maximized="1"
     inkscape:current-layer="g10" /><g
     id="g10"
     inkscape:groupmode="layer"
     inkscape:label="plot1"
     transform="matrix(1.25,0,0,-1.25,0,421.25)"><path
       inkscape:connector-curvature="0"
       id="path22"
       style="fill:#ffffff;fill-opacity:1;fill-rule:nonzero;stroke:none"
       d="m 0,0.916797 448,0 0,336.083003 -448,0 L 0,0.916797 z" /><path
       inkscape:connector-curvature="0"
       id="path24"
       style="fill:#ffffff;fill-opacity:1;fill-rule:evenodd;stroke:none"
       d="m 58.25,41.25 347.167,0 0,260.5 -347.167,0 0,-260.5 z" /><path
       inkscape:connector-curvature="0"
       id="path26"
       style="fill:none;stroke:#ffffff;stroke-width:0.5;stroke-linecap:butt;stroke-linejoin:round;stroke-miterlimit:10;stroke-opacity:1;stroke-dasharray:none"
       d="m 405.417,41.25 0,260.5 -347.167,0 0,-260.5 347.167,0" /><path
       inkscape:connector-curvature="0"
       id="path28"
       style="fill:none;stroke:#000000;stroke-width:0.5;stroke-linecap:butt;stroke-linejoin:round;stroke-miterlimit:10;stroke-opacity:1;stroke-dasharray:none"
       d="m 405.417,301.75 -347.167,0" /><path
       inkscape:connector-curvature="0"
       id="path30"
       style="fill:none;stroke:#000000;stroke-width:0.5;stroke-linecap:butt;stroke-linejoin:round;stroke-miterlimit:10;stroke-opacity:1;stroke-dasharray:none"
       d="m 405.417,41.25 0,260.5" /><path
       inkscape:connector-curvature="0"
       id="path32"
       style="fill:none;stroke:#000000;stroke-width:0.5;stroke-linecap:butt;stroke-linejoin:round;stroke-miterlimit:10;stroke-opacity:1;stroke-dasharray:none"
       d="m 374.167,301.75 0,-3.417" /><text
       transform="scale(1,-1)"
       id="text36"
       x="365.83301"
       y="-304.66699"><tspan
         style="font-size:10px;font-variant:normal;font-weight:normal;writing-mode:lr-tb;fill:#000000;fill-opacity:1;fill-rule:nonzero;stroke:none;font-family:Helvetica;-inkscape-font-specification:Helvetica"
         x="365.83301 371.39301 376.953"
         y="-304.66699"
         sodipodi:role="line"
         id="tspan38">400</tspan></text>
<path
       inkscape:connector-curvature="0"
       id="path40"
       style="fill:none;stroke:#000000;stroke-width:0.5;stroke-linecap:butt;stroke-linejoin:round;stroke-miterlimit:10;stroke-opacity:1;stroke-dasharray:none"
       d="m 296.25,301.75 0,-3.417" /><text
       transform="scale(1,-1)"
       id="text44"
       x="287.91699"
       y="-304.66699"><tspan
         style="font-size:10px;font-variant:normal;font-weight:normal;writing-mode:lr-tb;fill:#000000;fill-opacity:1;fill-rule:nonzero;stroke:none;font-family:Helvetica;-inkscape-font-specification:Helvetica"
         x="287.91699 293.47699 299.03699"
         y="-304.66699"
         sodipodi:role="line"
         id="tspan46">300</tspan></text>
<path
       inkscape:connector-curvature="0"
       id="path48"
       style="fill:none;stroke:#000000;stroke-width:0.5;stroke-linecap:butt;stroke-linejoin:round;stroke-miterlimit:10;stroke-opacity:1;stroke-dasharray:none"
       d="m 220.583,301.75 0,-3.417" /><text
       transform="scale(1,-1)"
       id="text52"
       x="212.25"
       y="-304.66699"><tspan
         style="font-size:10px;font-variant:normal;font-weight:normal;writing-mode:lr-tb;fill:#000000;fill-opacity:1;fill-rule:nonzero;stroke:none;font-family:Helvetica;-inkscape-font-specification:Helvetica"
         x="212.25 217.81 223.37"
         y="-304.66699"
         sodipodi:role="line"
         id="tspan54">200</tspan></text>
<path
       inkscape:connector-curvature="0"
       id="path56"
       style="fill:none;stroke:#000000;stroke-width:0.5;stroke-linecap:butt;stroke-linejoin:round;stroke-miterlimit:10;stroke-opacity:1;stroke-dasharray:none"
       d="m 150.5,301.75 0,-3.417" /><text
       transform="scale(1,-1)"
       id="text60"
       x="142.16701"
       y="-304.66699"><tspan
         style="font-size:10px;font-variant:normal;font-weight:normal;writing-mode:lr-tb;fill:#000000;fill-opacity:1;fill-rule:nonzero;stroke:none;font-family:Helvetica;-inkscape-font-specification:Helvetica"
         x="142.16701 147.72701 153.287"
         y="-304.66699"
         sodipodi:role="line"
         id="tspan62">100</tspan></text>
<path
       inkscape:connector-curvature="0"
       id="path64"
       style="fill:none;stroke:#000000;stroke-width:0.5;stroke-linecap:butt;stroke-linejoin:round;stroke-miterlimit:10;stroke-opacity:1;stroke-dasharray:none"
       d="m 405.417,41.25 -3.5,0" /><path
       inkscape:connector-curvature="0"
       id="path66"
       style="fill:none;stroke:#000000;stroke-width:0.5;stroke-linecap:butt;stroke-linejoin:round;stroke-miterlimit:10;stroke-opacity:1;stroke-dasharray:none"
       d="m 405.417,51.75 -1.75,0" /><path
       inkscape:connector-curvature="0"
       id="path68"
       style="fill:none;stroke:#000000;stroke-width:0.5;stroke-linecap:butt;stroke-linejoin:round;stroke-miterlimit:10;stroke-opacity:1;stroke-dasharray:none"
       d="m 405.417,62.1668 -1.75,0" /><path
       inkscape:connector-curvature="0"
       id="path70"
       style="fill:none;stroke:#000000;stroke-width:0.5;stroke-linecap:butt;stroke-linejoin:round;stroke-miterlimit:10;stroke-opacity:1;stroke-dasharray:none"
       d="m 405.417,72.5832 -1.75,0" /><path
       inkscape:connector-curvature="0"
       id="path72"
       style="fill:none;stroke:#000000;stroke-width:0.5;stroke-linecap:butt;stroke-linejoin:round;stroke-miterlimit:10;stroke-opacity:1;stroke-dasharray:none"
       d="m 405.417,83 -1.75,0" /><path
       inkscape:connector-curvature="0"
       id="path74"
       style="fill:none;stroke:#000000;stroke-width:0.5;stroke-linecap:butt;stroke-linejoin:round;stroke-miterlimit:10;stroke-opacity:1;stroke-dasharray:none"
       d="m 405.417,93.4168 -1.75,0" /><path
       inkscape:connector-curvature="0"
       id="path76"
       style="fill:none;stroke:#000000;stroke-width:0.5;stroke-linecap:butt;stroke-linejoin:round;stroke-miterlimit:10;stroke-opacity:1;stroke-dasharray:none"
       d="m 405.417,93.4168 -1.75,0" /><path
       inkscape:connector-curvature="0"
       id="path78"
       style="fill:none;stroke:#000000;stroke-width:0.5;stroke-linecap:butt;stroke-linejoin:round;stroke-miterlimit:10;stroke-opacity:1;stroke-dasharray:none"
       d="m 405.417,93.4168 -1.75,0" /><path
       inkscape:connector-curvature="0"
       id="path80"
       style="fill:none;stroke:#000000;stroke-width:0.5;stroke-linecap:butt;stroke-linejoin:round;stroke-miterlimit:10;stroke-opacity:1;stroke-dasharray:none"
       d="m 405.417,93.4168 -1.75,0" /><path
       inkscape:connector-curvature="0"
       id="path82"
       style="fill:none;stroke:#000000;stroke-width:0.5;stroke-linecap:butt;stroke-linejoin:round;stroke-miterlimit:10;stroke-opacity:1;stroke-dasharray:none"
       d="m 405.417,93.4168 -1.75,0" /><path
       inkscape:connector-curvature="0"
       id="path84"
       style="fill:none;stroke:#000000;stroke-width:0.5;stroke-linecap:butt;stroke-linejoin:round;stroke-miterlimit:10;stroke-opacity:1;stroke-dasharray:none"
       d="m 405.417,93.4168 -3.5,0" /><path
       inkscape:connector-curvature="0"
       id="path86"
       style="fill:none;stroke:#000000;stroke-width:0.5;stroke-linecap:butt;stroke-linejoin:round;stroke-miterlimit:10;stroke-opacity:1;stroke-dasharray:none"
       d="m 405.417,103.833 -1.75,0" /><path
       inkscape:connector-curvature="0"
       id="path88"
       style="fill:none;stroke:#000000;stroke-width:0.5;stroke-linecap:butt;stroke-linejoin:round;stroke-miterlimit:10;stroke-opacity:1;stroke-dasharray:none"
       d="m 405.417,114.25 -1.75,0" /><path
       inkscape:connector-curvature="0"
       id="path90"
       style="fill:none;stroke:#000000;stroke-width:0.5;stroke-linecap:butt;stroke-linejoin:round;stroke-miterlimit:10;stroke-opacity:1;stroke-dasharray:none"
       d="m 405.417,124.667 -1.75,0" /><path
       inkscape:connector-curvature="0"
       id="path92"
       style="fill:none;stroke:#000000;stroke-width:0.5;stroke-linecap:butt;stroke-linejoin:round;stroke-miterlimit:10;stroke-opacity:1;stroke-dasharray:none"
       d="m 405.417,135.083 -1.75,0" /><path
       inkscape:connector-curvature="0"
       id="path94"
       style="fill:none;stroke:#000000;stroke-width:0.5;stroke-linecap:butt;stroke-linejoin:round;stroke-miterlimit:10;stroke-opacity:1;stroke-dasharray:none"
       d="m 405.417,145.5 -1.75,0" /><path
       inkscape:connector-curvature="0"
       id="path96"
       style="fill:none;stroke:#000000;stroke-width:0.5;stroke-linecap:butt;stroke-linejoin:round;stroke-miterlimit:10;stroke-opacity:1;stroke-dasharray:none"
       d="m 405.417,145.5 -1.75,0" /><path
       inkscape:connector-curvature="0"
       id="path98"
       style="fill:none;stroke:#000000;stroke-width:0.5;stroke-linecap:butt;stroke-linejoin:round;stroke-miterlimit:10;stroke-opacity:1;stroke-dasharray:none"
       d="m 405.417,145.5 -1.75,0" /><path
       inkscape:connector-curvature="0"
       id="path100"
       style="fill:none;stroke:#000000;stroke-width:0.5;stroke-linecap:butt;stroke-linejoin:round;stroke-miterlimit:10;stroke-opacity:1;stroke-dasharray:none"
       d="m 405.417,145.5 -1.75,0" /><path
       inkscape:connector-curvature="0"
       id="path102"
       style="fill:none;stroke:#000000;stroke-width:0.5;stroke-linecap:butt;stroke-linejoin:round;stroke-miterlimit:10;stroke-opacity:1;stroke-dasharray:none"
       d="m 405.417,145.5 -1.75,0" /><path
       inkscape:connector-curvature="0"
       id="path104"
       style="fill:none;stroke:#000000;stroke-width:0.5;stroke-linecap:butt;stroke-linejoin:round;stroke-miterlimit:10;stroke-opacity:1;stroke-dasharray:none"
       d="m 405.417,145.5 -3.5,0" /><path
       inkscape:connector-curvature="0"
       id="path106"
       style="fill:none;stroke:#000000;stroke-width:0.5;stroke-linecap:butt;stroke-linejoin:round;stroke-miterlimit:10;stroke-opacity:1;stroke-dasharray:none"
       d="m 405.417,155.917 -1.75,0" /><path
       inkscape:connector-curvature="0"
       id="path108"
       style="fill:none;stroke:#000000;stroke-width:0.5;stroke-linecap:butt;stroke-linejoin:round;stroke-miterlimit:10;stroke-opacity:1;stroke-dasharray:none"
       d="m 405.417,166.333 -1.75,0" /><path
       inkscape:connector-curvature="0"
       id="path110"
       style="fill:none;stroke:#000000;stroke-width:0.5;stroke-linecap:butt;stroke-linejoin:round;stroke-miterlimit:10;stroke-opacity:1;stroke-dasharray:none"
       d="m 405.417,176.75 -1.75,0" /><path
       inkscape:connector-curvature="0"
       id="path112"
       style="fill:none;stroke:#000000;stroke-width:0.5;stroke-linecap:butt;stroke-linejoin:round;stroke-miterlimit:10;stroke-opacity:1;stroke-dasharray:none"
       d="m 405.417,187.167 -1.75,0" /><path
       inkscape:connector-curvature="0"
       id="path114"
       style="fill:none;stroke:#000000;stroke-width:0.5;stroke-linecap:butt;stroke-linejoin:round;stroke-miterlimit:10;stroke-opacity:1;stroke-dasharray:none"
       d="m 405.417,197.583 -1.75,0" /><path
       inkscape:connector-curvature="0"
       id="path116"
       style="fill:none;stroke:#000000;stroke-width:0.5;stroke-linecap:butt;stroke-linejoin:round;stroke-miterlimit:10;stroke-opacity:1;stroke-dasharray:none"
       d="m 405.417,197.583 -1.75,0" /><path
       inkscape:connector-curvature="0"
       id="path118"
       style="fill:none;stroke:#000000;stroke-width:0.5;stroke-linecap:butt;stroke-linejoin:round;stroke-miterlimit:10;stroke-opacity:1;stroke-dasharray:none"
       d="m 405.417,197.583 -1.75,0" /><path
       inkscape:connector-curvature="0"
       id="path120"
       style="fill:none;stroke:#000000;stroke-width:0.5;stroke-linecap:butt;stroke-linejoin:round;stroke-miterlimit:10;stroke-opacity:1;stroke-dasharray:none"
       d="m 405.417,197.583 -1.75,0" /><path
       inkscape:connector-curvature="0"
       id="path122"
       style="fill:none;stroke:#000000;stroke-width:0.5;stroke-linecap:butt;stroke-linejoin:round;stroke-miterlimit:10;stroke-opacity:1;stroke-dasharray:none"
       d="m 405.417,197.583 -1.75,0" /><path
       inkscape:connector-curvature="0"
       id="path124"
       style="fill:none;stroke:#000000;stroke-width:0.5;stroke-linecap:butt;stroke-linejoin:round;stroke-miterlimit:10;stroke-opacity:1;stroke-dasharray:none"
       d="m 405.417,197.583 -3.5,0" /><path
       inkscape:connector-curvature="0"
       id="path126"
       style="fill:none;stroke:#000000;stroke-width:0.5;stroke-linecap:butt;stroke-linejoin:round;stroke-miterlimit:10;stroke-opacity:1;stroke-dasharray:none"
       d="m 405.417,208 -1.75,0" /><path
       inkscape:connector-curvature="0"
       id="path128"
       style="fill:none;stroke:#000000;stroke-width:0.5;stroke-linecap:butt;stroke-linejoin:round;stroke-miterlimit:10;stroke-opacity:1;stroke-dasharray:none"
       d="m 405.417,218.417 -1.75,0" /><path
       inkscape:connector-curvature="0"
       id="path130"
       style="fill:none;stroke:#000000;stroke-width:0.5;stroke-linecap:butt;stroke-linejoin:round;stroke-miterlimit:10;stroke-opacity:1;stroke-dasharray:none"
       d="m 405.417,228.833 -1.75,0" /><path
       inkscape:connector-curvature="0"
       id="path132"
       style="fill:none;stroke:#000000;stroke-width:0.5;stroke-linecap:butt;stroke-linejoin:round;stroke-miterlimit:10;stroke-opacity:1;stroke-dasharray:none"
       d="m 405.417,239.25 -1.75,0" /><path
       inkscape:connector-curvature="0"
       id="path134"
       style="fill:none;stroke:#000000;stroke-width:0.5;stroke-linecap:butt;stroke-linejoin:round;stroke-miterlimit:10;stroke-opacity:1;stroke-dasharray:none"
       d="m 405.417,249.667 -1.75,0" /><path
       inkscape:connector-curvature="0"
       id="path136"
       style="fill:none;stroke:#000000;stroke-width:0.5;stroke-linecap:butt;stroke-linejoin:round;stroke-miterlimit:10;stroke-opacity:1;stroke-dasharray:none"
       d="m 405.417,249.667 -1.75,0" /><path
       inkscape:connector-curvature="0"
       id="path138"
       style="fill:none;stroke:#000000;stroke-width:0.5;stroke-linecap:butt;stroke-linejoin:round;stroke-miterlimit:10;stroke-opacity:1;stroke-dasharray:none"
       d="m 405.417,249.667 -1.75,0" /><path
       inkscape:connector-curvature="0"
       id="path140"
       style="fill:none;stroke:#000000;stroke-width:0.5;stroke-linecap:butt;stroke-linejoin:round;stroke-miterlimit:10;stroke-opacity:1;stroke-dasharray:none"
       d="m 405.417,249.667 -1.75,0" /><path
       inkscape:connector-curvature="0"
       id="path142"
       style="fill:none;stroke:#000000;stroke-width:0.5;stroke-linecap:butt;stroke-linejoin:round;stroke-miterlimit:10;stroke-opacity:1;stroke-dasharray:none"
       d="m 405.417,249.667 -1.75,0" /><path
       inkscape:connector-curvature="0"
       id="path144"
       style="fill:none;stroke:#000000;stroke-width:0.5;stroke-linecap:butt;stroke-linejoin:round;stroke-miterlimit:10;stroke-opacity:1;stroke-dasharray:none"
       d="m 405.417,249.667 -3.5,0" /><path
       inkscape:connector-curvature="0"
       id="path146"
       style="fill:none;stroke:#000000;stroke-width:0.5;stroke-linecap:butt;stroke-linejoin:round;stroke-miterlimit:10;stroke-opacity:1;stroke-dasharray:none"
       d="m 405.417,260.083 -1.75,0" /><path
       inkscape:connector-curvature="0"
       id="path148"
       style="fill:none;stroke:#000000;stroke-width:0.5;stroke-linecap:butt;stroke-linejoin:round;stroke-miterlimit:10;stroke-opacity:1;stroke-dasharray:none"
       d="m 405.417,270.5 -1.75,0" /><path
       inkscape:connector-curvature="0"
       id="path150"
       style="fill:none;stroke:#000000;stroke-width:0.5;stroke-linecap:butt;stroke-linejoin:round;stroke-miterlimit:10;stroke-opacity:1;stroke-dasharray:none"
       d="m 405.417,280.917 -1.75,0" /><path
       inkscape:connector-curvature="0"
       id="path152"
       style="fill:none;stroke:#000000;stroke-width:0.5;stroke-linecap:butt;stroke-linejoin:round;stroke-miterlimit:10;stroke-opacity:1;stroke-dasharray:none"
       d="m 405.417,291.333 -1.75,0" /><path
       inkscape:connector-curvature="0"
       id="path154"
       style="fill:none;stroke:#000000;stroke-width:0.5;stroke-linecap:butt;stroke-linejoin:round;stroke-miterlimit:10;stroke-opacity:1;stroke-dasharray:none"
       d="m 405.417,301.75 -1.75,0" /><path
       inkscape:connector-curvature="0"
       id="path156"
       style="fill:none;stroke:#000000;stroke-width:0.5;stroke-linecap:butt;stroke-linejoin:round;stroke-miterlimit:10;stroke-opacity:1;stroke-dasharray:none"
       d="m 405.417,301.75 -1.75,0" /><path
       inkscape:connector-curvature="0"
       id="path158"
       style="fill:none;stroke:#000000;stroke-width:0.5;stroke-linecap:butt;stroke-linejoin:round;stroke-miterlimit:10;stroke-opacity:1;stroke-dasharray:none"
       d="m 405.417,301.75 -1.75,0" /><path
       inkscape:connector-curvature="0"
       id="path160"
       style="fill:none;stroke:#000000;stroke-width:0.5;stroke-linecap:butt;stroke-linejoin:round;stroke-miterlimit:10;stroke-opacity:1;stroke-dasharray:none"
       d="m 405.417,301.75 -1.75,0" /><path
       inkscape:connector-curvature="0"
       id="path162"
       style="fill:none;stroke:#000000;stroke-width:0.5;stroke-linecap:butt;stroke-linejoin:round;stroke-miterlimit:10;stroke-opacity:1;stroke-dasharray:none"
       d="m 405.417,301.75 -1.75,0" /><path
       inkscape:connector-curvature="0"
       id="path164"
       style="fill:none;stroke:#000000;stroke-width:0.5;stroke-linecap:butt;stroke-linejoin:round;stroke-miterlimit:10;stroke-opacity:1;stroke-dasharray:none"
       d="m 405.417,301.75 -3.5,0" /><text
       transform="scale(1,-1)"
       id="text168"
       x="169.25"
       y="-321.41699"><tspan
         style="font-size:14px;font-variant:normal;font-weight:normal;writing-mode:lr-tb;fill:#000000;fill-opacity:1;fill-rule:nonzero;stroke:none;font-family:Helvetica;-inkscape-font-specification:Helvetica"
         x="169.25 178.588 185.588 193.37199 198.034 205.81799 213.60201 221.386 225.278 233.062 240.84601 243.95401 251.73801 259.522 263.414 267.306 271.96802 278.96802 290.63"
         y="-321.41699"
         sodipodi:role="line"
         id="tspan170">Average height (km)</tspan></text>
<path
       inkscape:connector-curvature="0"
       id="path172"
       style="fill:none;stroke:#000000;stroke-width:0.5;stroke-linecap:butt;stroke-linejoin:round;stroke-miterlimit:10;stroke-opacity:1;stroke-dasharray:none"
       d="m 405.417,41.25 -347.167,0" /><path
       inkscape:connector-curvature="0"
       id="path174"
       style="fill:none;stroke:#000000;stroke-width:0.5;stroke-linecap:butt;stroke-linejoin:round;stroke-miterlimit:10;stroke-opacity:1;stroke-dasharray:none"
       d="m 405.417,41.25 0,260.5" /><path
       inkscape:connector-curvature="0"
       id="path176"
       style="fill:none;stroke:#000000;stroke-width:0.5;stroke-linecap:butt;stroke-linejoin:round;stroke-miterlimit:10;stroke-opacity:1;stroke-dasharray:none"
       d="m 405.417,41.25 -3.5,0" /><text
       transform="scale(1,-1)"
       id="text180"
       x="408.25"
       y="-36.083199"><tspan
         style="font-size:14px;font-variant:normal;font-weight:normal;writing-mode:lr-tb;fill:#000000;fill-opacity:1;fill-rule:nonzero;stroke:none;font-family:Helvetica;-inkscape-font-specification:Helvetica"
         x="408.25"
         y="-36.083199"
         id="tspan182">0</tspan></text>
<path
       inkscape:connector-curvature="0"
       id="path184"
       style="fill:none;stroke:#000000;stroke-width:0.5;stroke-linecap:butt;stroke-linejoin:round;stroke-miterlimit:10;stroke-opacity:1;stroke-dasharray:none"
       d="m 405.417,93.4168 -3.5,0" /><text
       transform="scale(1,-1)"
       id="text188"
       x="408.25"
       y="-88.25"><tspan
         style="font-size:14px;font-variant:normal;font-weight:normal;writing-mode:lr-tb;fill:#000000;fill-opacity:1;fill-rule:nonzero;stroke:none;font-family:Helvetica;-inkscape-font-specification:Helvetica"
         x="408.25 416.034 419.92599"
         y="-88.25"
         sodipodi:role="line"
         id="tspan190">0.1</tspan></text>
<path
       inkscape:connector-curvature="0"
       id="path192"
       style="fill:none;stroke:#000000;stroke-width:0.5;stroke-linecap:butt;stroke-linejoin:round;stroke-miterlimit:10;stroke-opacity:1;stroke-dasharray:none"
       d="m 405.417,145.5 -3.5,0" /><text
       transform="scale(1,-1)"
       id="text196"
       x="408.25"
       y="-140.33299"><tspan
         style="font-size:14px;font-variant:normal;font-weight:normal;writing-mode:lr-tb;fill:#000000;fill-opacity:1;fill-rule:nonzero;stroke:none;font-family:Helvetica;-inkscape-font-specification:Helvetica"
         x="408.25 416.034 419.92599"
         y="-140.33299"
         sodipodi:role="line"
         id="tspan198">0.2</tspan></text>
<path
       inkscape:connector-curvature="0"
       id="path200"
       style="fill:none;stroke:#000000;stroke-width:0.5;stroke-linecap:butt;stroke-linejoin:round;stroke-miterlimit:10;stroke-opacity:1;stroke-dasharray:none"
       d="m 405.417,197.583 -3.5,0" /><text
       transform="scale(1,-1)"
       id="text204"
       x="408.25"
       y="-192.41701"><tspan
         style="font-size:14px;font-variant:normal;font-weight:normal;writing-mode:lr-tb;fill:#000000;fill-opacity:1;fill-rule:nonzero;stroke:none;font-family:Helvetica;-inkscape-font-specification:Helvetica"
         x="408.25 416.034 419.92599"
         y="-192.41701"
         sodipodi:role="line"
         id="tspan206">0.3</tspan></text>
<path
       inkscape:connector-curvature="0"
       id="path208"
       style="fill:none;stroke:#000000;stroke-width:0.5;stroke-linecap:butt;stroke-linejoin:round;stroke-miterlimit:10;stroke-opacity:1;stroke-dasharray:none"
       d="m 405.417,249.667 -3.5,0" /><text
       transform="scale(1,-1)"
       id="text212"
       x="408.25"
       y="-244.5"><tspan
         style="font-size:14px;font-variant:normal;font-weight:normal;writing-mode:lr-tb;fill:#000000;fill-opacity:1;fill-rule:nonzero;stroke:none;font-family:Helvetica;-inkscape-font-specification:Helvetica"
         x="408.25 416.034 419.92599"
         y="-244.5"
         sodipodi:role="line"
         id="tspan214">0.4</tspan></text>
<path
       inkscape:connector-curvature="0"
       id="path216"
       style="fill:none;stroke:#000000;stroke-width:0.5;stroke-linecap:butt;stroke-linejoin:round;stroke-miterlimit:10;stroke-opacity:1;stroke-dasharray:none"
       d="m 405.417,301.75 -3.5,0" /><text
       transform="scale(1,-1)"
       id="text220"
       x="408.25"
       y="-296.58301"><tspan
         style="font-size:14px;font-variant:normal;font-weight:normal;writing-mode:lr-tb;fill:#000000;fill-opacity:1;fill-rule:nonzero;stroke:none;font-family:Helvetica;-inkscape-font-specification:Helvetica"
         x="408.25 416.034 419.92599"
         y="-296.58301"
         sodipodi:role="line"
         id="tspan222">0.5</tspan></text>
<g
       id="g226"
       clip-path="url(#clipPath228)"
       transform="scale(0.1,0.1)"><path
         d="m 585,412.5 c 0,-1.379 -1.121,-2.5 -2.5,-2.5 -1.379,0 -2.5,1.121 -2.5,2.5 0,1.379 1.121,2.5 2.5,2.5 1.379,0 2.5,-1.121 2.5,-2.5"
         style="fill:#008000;fill-opacity:1;fill-rule:nonzero;stroke:none"
         id="path232"
         inkscape:connector-curvature="0" /><path
         d="m 2463.33,1212.5 -7.5,1.67 -6.66,1.66 -7.5,-3.33 -7.5,-5 -6.67,0.83 -6.67,0.84 -6.66,-3.34 -6.67,-6.66 -6.67,1.66 -6.66,0.84 -6.67,-2.5 -6.67,0 -5.83,-2.5 -7.5,0 -7.5,-1.67 -6.67,0.83 -7.5,-3.33 -7.5,-0.83 -6.66,-0.84 -6.67,0 -6.67,-2.5 -6.66,-1.66 -6.67,-2.5 -6.67,-1.67 -6.66,-3.33 -6.67,0.83 -5.83,-1.67 -6.67,3.34 -5.83,-2.5 -6.67,-0.84 -7.5,0 -6.67,-4.16 -6.66,0.83 -7.5,-4.17 -6.67,0 -6.67,-0.83 -6.66,1.67 -5.84,-3.34 -6.66,-2.5 -6.67,2.5 -5.83,-4.16 -6.67,0 -5.83,0.83 -5.84,-0.83 -5.83,-0.84 -6.67,-1.66 -6.66,1.66 -6.67,1.67 -6.67,-5 -6.66,2.5 -6.67,0 -6.67,-0.83 -6.66,-1.67 -5.84,-0.83 -6.66,1.66 -5.84,-1.66 -5.83,0 -5.83,1.66 -5.84,-2.5 -5.83,0 -5.83,1.67 -6.67,-2.5 -6.67,0 -6.66,1.67 -5.84,-0.84 -6.66,2.5 -6.67,0.84 -5.83,-2.5 -6.67,1.66 -5.83,3.34 -5.84,1.66 -5.83,-0.83 -5.83,0.83 -5.84,2.5 -5.83,0.84 -5.83,2.5 -5.84,2.5 -5.83,0.83 -5.83,-0.83 -6.67,8.33 -5.83,2.5 -6.67,3.33 -5.83,2.5 -5.84,5.84 -6.66,4.16 -5.84,6.67 -5.83,6.67 -5.83,2.5 -5,5 -5.84,5 -5.83,7.5 -5,5.83 -5.83,5.83 -5.84,5.84 -5.83,5.83 -5.83,5.83 -6.67,5.84 -5.83,4.16 -5.84,5 -5.83,3.34 -5.83,2.5 -5.84,-0.84 -5.83,-2.5 -5,-0.83 -5.83,0 -5,-2.5 -5.84,-5 -5,-5 -5.83,-5.83 -5,-9.17 -5.83,-10 -5.84,-9.17 -5.83,-15.83 -5.83,-13.33 -5.84,-16.67 -5.83,-16.67 -5.83,-17.5 -5,-15.83 -5.84,-18.33 -5.83,-18.34 -5,-18.33 -5,-20 -5.83,-21.67 -5,-20 -5,-18.33 -5,-20 -5.84,-21.668 -5.83,-23.332 -5.83,-21.668 -5.84,-23.332 -5,-20 -5.83,-22.5 -5.83,-20.832 -5,-19.168 -5.84,-19.168 -5,-17.5 -5,-17.5 -5,-15.832 -5,-17.5 -5.83,-16.668 -5,-15.832 -5,-12.5 -5,-16.668 -5.83,-15 -5.84,-14.164 -5,-14.168 -5.83,-11.668 -5,-11.664 -5.83,-10.836 -5,-10 -5,-10 -5.84,-9.164 -5,-8.336 -5,-7.5 -5,-6.664 -5,-8.336 -5,-5.832 -5,-6.668 -5,-6.664 -5.83,-5.836 -5,-5.832 -5.83,-4.168 -5,-5 -5.84,-5 -5,-4.164 -5,-3.336 -5.83,-4.164 -5,-3.336 -5,-2.5 -5,-3.332 -5,-2.5 -5,-2.5 -4.17,-2.5 -5,-2.5 -5.83,-2.5 -5,-1.668 -5.83,-2.5 -5,-1.664 -5.84,-1.668 -5,-0.832 -5,-1.668 -5,-1.668 -5.83,-1.664 -5,-0.836 -5,-1.664 -5,-0.836 -5,-0.832 -4.17,-0.832 -5,-0.836 -5,-0.832 -5,-0.832 -5.83,-0.836 -5.83,-0.832 -5,-0.832 -5.84,0 -5,-0.836 -5,-0.832 -5.83,0 -5,-0.832 -5,0 -5,-0.836 -10,0 -5,-0.832 -9.17,0 -5.83,-0.832 -10.83,0 -5.84,-0.836 -21.66,0 -5.84,-0.832 -30,0 -5,-0.832 -68.33,0 -5.83,-0.836 -524.17,0"
         style="fill:none;stroke:#ff00ff;stroke-width:20;stroke-linecap:butt;stroke-linejoin:round;stroke-miterlimit:10;stroke-opacity:1;stroke-dasharray:none"
         id="path234"
         inkscape:connector-curvature="0" /><path
         d="m 4055,2790.83 -10,-22.5 -10,-28.33 -9.17,-20 -10,-23.33 -9.16,-6.67 -9.17,-21.67 -8.33,-25.83 -9.17,-15.83 -8.33,-20.84 -9.17,-26.66 -8.33,-19.17 -7.5,-11.67 -8.34,-13.33 -10,-20.83 -10.83,-25.84 -10,-17.5 -10,-26.66 -9.17,-19.17 -10,-16.67 -9.16,-20.83 -9.17,-14.17 -9.17,-15.83 -8.33,-12.5 -9.17,-15.83 -8.33,-21.67 -8.33,-10.83 -8.34,-18.34 -8.33,-6.66 -7.5,-17.5 -10,-19.17 -10,-23.33 -10,-10 -10,-20.84 -9.17,-18.33 -9.16,-14.17 -9.17,-15 -9.17,-14.16 -9.16,-17.5 -8.34,-15 -8.33,-11.67 -9.17,-18.33 -7.5,-11.67 -8.33,-12.5 -8.33,-15 -7.5,-14.17 -10,-5.83 -9.17,-24.17 -10,-14.16 -9.17,-10 -10,-16.67 -9.16,-14.17 -9.17,-6.66 -8.33,-11.67 -9.17,-10 -8.33,-16.67 -8.34,-8.33 -8.33,-12.5 -8.33,-10 -7.5,-11.67 -8.34,-10 -7.5,-5.83 -9.16,-7.5 -9.17,-15 -10,-7.5 -9.17,-8.33 -9.16,-13.34 -9.17,-14.16 -8.33,-6.67 -9.17,-4.17 -8.33,-5.83 -8.34,-9.17 -8.33,-3.33 -8.33,-8.33 -8.34,-13.34 -7.5,-2.5 -7.5,-9.16 -7.5,-4.17 -9.16,-7.5 -9.17,-8.33 -9.17,-11.67 -9.16,-9.17 -9.17,-7.5 -9.17,-8.33 -8.33,-10 -8.33,-1.67 -8.34,-5 -8.33,-5 -8.33,-12.5 -8.34,-4.16 -7.5,-5 -7.5,-15 -7.5,4.16 -7.5,-6.66 -8.33,-7.5 -9.17,-13.34 -9.16,4.17 -9.17,-5.83 -9.17,-11.67 -8.33,-5.83 -8.33,0 -8.34,-8.34 -8.33,-4.16 -8.33,-7.5 -7.5,-4.17 -8.34,-8.33 -7.5,3.33 -7.5,-14.17 -7.5,2.5 -7.5,-5.83 -7.5,-10 -9.16,4.17 -9.17,-5 -8.33,-5.84 -8.34,-5 -9.16,-8.33 -7.5,-4.17 -8.34,-3.33 -8.33,-6.67 -7.5,-1.66 -8.33,-5.84 -7.5,0.84 -7.5,-5 -7.5,-8.34 -7.5,0 -6.67,-3.33 -7.5,-0.83 -9.17,-4.17 -8.33,-0.83 -8.33,-12.5 -8.34,-8.34 -8.33,0 -8.33,-7.5 -8.34,2.5 -7.5,-7.5 -7.5,-7.5 -7.5,0 -7.5,0.84 -7.5,-5 -7.5,-10.84 -7.5,-5.83 -6.66,3.33 -7.5,-4.16 -8.34,-9.17 -8.33,1.67 -8.33,-1.67 -8.34,-15 -7.5,7.5 -8.33,-6.67 -7.5,-2.5 -7.5,-10 -7.5,1.67 -7.5,-1.67 -7.5,-1.66 -7.5,-9.17 -6.67,-0.83 -6.66,-2.5 -7.5,1.66 -6.67,-3.33 -8.33,-5.83 -8.34,0.83 -7.5,-1.67 -8.33,-3.33 -7.5,-3.33 -7.5,-6.67 -7.5,-1.67 -7.5,-0.83 -7.5,-1.67 -7.5,-2.5 -6.67,2.5 -7.5,-5.83 -6.66,-3.33 -6.67,-5.84 -6.67,0.84 -6.66,-5.84 -8.34,0.84 -7.5,-6.67 -8.33,-1.67 -7.5,0.84 -7.5,-3.34 -7.5,-5 -7.5,-5.83 -6.67,3.33 -7.5,-4.16 -6.66,-2.5 -7.5,-1.67 -6.67,-1.67 -6.67,0.84 -6.66,-0.84 -6.67,-5 -5.83,1.67 -7.5,-3.33 -8.34,1.66 -7.5,-5.83"
         style="fill:none;stroke:#ff00ff;stroke-width:20;stroke-linecap:butt;stroke-linejoin:round;stroke-miterlimit:10;stroke-opacity:1;stroke-dasharray:none"
         id="path236"
         inkscape:connector-curvature="0" /><path
         d="m 2463.33,1008.33 -7.5,2.5 -6.66,-0.83 -7.5,-1.67 -7.5,-2.5 -6.67,0.84 -6.67,0 -6.66,-0.84 -6.67,1.67 -13.33,0 -6.67,0.83 -6.67,-1.66 -5.83,2.5 -7.5,-5 -7.5,-6.67 -6.67,5.83 -7.5,-2.5 -7.5,0 -6.66,2.5 -6.67,-3.33 -6.67,0 -6.66,-1.668 -6.67,-0.832 -6.67,0.832 -6.66,-4.164 -6.67,1.664 -5.83,1.668 -6.67,-1.668 -5.83,-2.5 -6.67,0.836 -7.5,-1.668 -6.67,-2.5 -6.66,-0.832 -7.5,0.832 -6.67,0 -6.67,-0.832 -6.66,1.664 -5.84,-1.664 -6.66,-0.836 -6.67,0 -5.83,2.5 -6.67,-3.332 -5.83,-0.832 -5.84,-0.836 -5.83,1.668 -6.67,-0.832 -6.66,3.332 -6.67,-2.5 -6.67,-0.832 -6.66,1.664 -6.67,1.668 -6.67,-2.5 -6.66,1.668 -5.84,0.832 -6.66,0 -5.84,0.832 -5.83,-2.5 -5.83,-1.664 -5.84,2.5 -5.83,2.5 -5.83,-1.668 -6.67,2.5 -6.67,-2.5 -6.66,0 -5.84,4.168 -6.66,-1.668 -6.67,0.832 -5.83,0.836 -6.67,4.164 -5.83,1.668 -5.84,-2.5 -5.83,2.5 -5.83,2.5 -5.84,0.83 -5.83,0.84 -5.83,2.5 -5.84,0 -5.83,5 -5.83,4.16 -6.67,1.67 -5.83,4.17 -6.67,5 -5.83,5 -5.84,1.66 -6.66,5.84 -5.84,5.83 -5.83,5 -5.83,5.83 -5,5 -5.84,8.34 -5.83,5.83 -5,6.67 -5.83,6.66 -5.84,5.84 -5.83,8.33 -5.83,5.83 -6.67,5.84 -5.83,5.83 -5.84,3.33 -5.83,5.84 -5.83,5 -5.84,0 -5.83,3.33 -5,-3.33 -5.83,-0.84 -5,0.84 -5.84,-3.34 -5,-5 -5.83,-4.16 -5,-5 -5.83,-9.17 -5.84,-10 -5.83,-12.5 -5.83,-10 -5.84,-12.5 -5.83,-15 -5.83,-14.17 -5,-15 -5.84,-17.5 -5.83,-17.498 -5,-15.832 -5,-19.168 -5.83,-17.5 -5,-17.5 -5,-15.832 -5,-15.832 -5.84,-20 -5.83,-19.168 -5.83,-18.332 -5.84,-20 -5,-18.336 -5.83,-18.332 -5.83,-17.5 -5,-16.668 -5.84,-16.664 -5,-14.168 -5,-15 -5,-15.832 -5,-13.336 -5.83,-13.332 -5,-10.832 -5,-12.5 -5,-13.336 -5.83,-12.5 -5.84,-11.664 -5,-11.668 -5.83,-10 -5,-9.168 -5.83,-9.164 -5,-8.336 -5,-7.5 -5.84,-7.5 -5,-5.832 -5,-6.668 -5,-5.832 -5,-5.832 -5,-4.168 -5,-5 -5,-5.832 -5.83,-4.168 -5,-4.168 -5.83,-4.164 -5,-4.168 -5.84,-3.332 -5,-3.336 -5,-2.5 -5.83,-2.5 -5,-2.5 -5,-3.332 -5,-1.668 -5,-2.5 -5,-1.664 -4.17,-1.668 -5,-1.668 -5.83,-1.664 -5,-1.668 -5.83,-1.668 -5,-1.664 -5.84,-0.836 -5,-1.664 -5,-0.836 -5,-0.832 -5.83,-0.832 -5,-0.836 -5,-0.832 -5,-0.832 -5,-0.836 -4.17,-0.832 -5,-0.832 -5,0 -5,-0.836 -5.83,-0.832 -5.83,0 -5,-0.832 -5.84,0 -5,-0.836 -5,0 -5.83,-0.832 -5,0 -5,-0.832 -15,0 -5,-0.836 -15,0 -5.83,-0.832 -21.67,0 -5.83,-0.832 -57.5,0 -5.84,-0.836 -580.83,0"
         style="fill:none;stroke:#0000ff;stroke-width:20;stroke-linecap:butt;stroke-linejoin:round;stroke-miterlimit:10;stroke-opacity:1;stroke-dasharray:none"
         id="path238"
         inkscape:connector-curvature="0" /><path
         d="m 4055,2284.17 -10,-20.84 -10,-26.66 -9.17,-11.67 -10,-25 -9.16,-14.17 -9.17,-11.66 -8.33,-21.67 -9.17,-28.33 -8.33,-8.34 -9.17,-24.16 -8.33,-15.84 -7.5,-12.5 -8.34,-16.66 -10,-21.67 -10.83,-22.5 -10,-12.5 -10,-18.33 -9.17,-14.17 -10,-20 -9.16,-15 -9.17,-14.17 -9.17,-12.5 -8.33,-12.5 -9.17,-15 -8.33,-17.5 -8.33,-13.33 -8.34,-14.17 -8.33,-5.83 -7.5,-13.33 -10,-11.67 -10,-14.17 -10,-16.66 -10,-20.84 -9.17,-9.16 -9.16,-15 -9.17,-18.34 -9.17,-12.5 -9.16,-13.33 -8.34,-11.67 -8.33,-9.16 -9.17,-5.84 -7.5,-13.33 -8.33,-16.67 -8.33,-9.16 -7.5,-18.34 -10,1.67 -9.17,-12.5 -10,-15 -9.17,-15.83 -10,-10.84 -9.16,-11.66 -9.17,-13.34 -8.33,-9.16 -9.17,-3.34 -8.33,-10.83 -8.34,-12.5 -8.33,-7.5 -8.33,-12.5 -7.5,-5 -8.34,-7.5 -7.5,-4.17 -9.16,-3.33 -9.17,-10.83 -10,-13.34 -9.17,-6.66 -9.16,-10.84 -9.17,-5 -8.33,-6.66 -9.17,-5 -8.33,-9.17 -8.34,-3.33 -8.33,-1.67 -8.33,-6.67 -8.34,-8.33 -7.5,-5 -7.5,-3.33 -7.5,-7.5 -9.16,-1.67 -9.17,-15.83 -9.17,-6.67 -9.16,-2.5 -9.17,0 -9.17,-7.5 -8.33,-3.33 -8.33,-4.17 -8.34,-10 -8.33,-8.33 -8.33,7.5 -8.34,-6.67 -7.5,-7.5 -7.5,-13.33 -7.5,-4.17 -7.5,1.67 -8.33,-5 -9.17,-5 -9.16,-2.5 -9.17,-5 -9.17,-12.5 -8.33,0 -8.33,-6.67 -8.34,6.67 -8.33,-9.17 -8.33,-4.17 -15.84,0 -7.5,-4.16 -7.5,-5.84 -7.5,0 -7.5,-4.16 -7.5,-5 -9.16,-8.34 -9.17,0 -8.33,-5.83 -8.34,3.33 -9.16,-9.16 -7.5,4.16 -8.34,-10 -8.33,-0.83 -7.5,0.83 -8.33,0.84 -7.5,-10 -7.5,-1.67 -7.5,-0.83 -7.5,-6.67 -6.67,-0.83 -7.5,0 -9.17,-4.17 -8.33,-1.67 -8.33,0 -8.34,-7.5 -8.33,-7.5 -8.33,5 -8.34,-7.5 -7.5,2.5 -7.5,-2.5 -7.5,-7.5 -7.5,-2.5 -7.5,-7.5 -7.5,-2.5 -7.5,-1.66 -6.66,3.33 -7.5,-0.83 -8.34,-10 -8.33,1.66 -8.33,-0.83 -8.34,-3.33 -7.5,-0.84 -8.33,-5 -7.5,-5.83 -7.5,-4.17 -7.5,-2.5 -7.5,0.84 -7.5,-1.67 -7.5,-1.67 -6.67,0 -6.66,-3.33 -7.5,-3.33 -6.67,0 -8.33,-2.5 -8.34,-2.5 -7.5,0.83 -8.33,-1.67 -7.5,-5 -7.5,3.34 -7.5,-4.17 -7.5,-0.83 -7.5,-1.67 -7.5,-1.67 -6.67,-4.16 -7.5,1.66 -6.66,-1.66 -6.67,-0.84 -6.67,0.84 -6.66,-5 -8.34,-0.84 -7.5,0.84 -8.33,-7.5 -7.5,-2.5 -7.5,5 -7.5,-5 -7.5,-6.67 -6.67,-2.5 -7.5,2.5 -6.66,0.83 -7.5,-5.83 -6.67,0.83 -6.67,0.84 -6.66,0.83 -6.67,-0.83 -5.83,0.83 -7.5,-2.5 -8.34,-3.33 -7.5,-0.84"
         style="fill:none;stroke:#0000ff;stroke-width:20;stroke-linecap:butt;stroke-linejoin:round;stroke-miterlimit:10;stroke-opacity:1;stroke-dasharray:none"
         id="path240"
         inkscape:connector-curvature="0" /><path
         d="m 2463.33,850.832 -7.5,0 -6.66,3.336 -7.5,-4.168 -7.5,-0.832 -6.67,0 -6.67,-2.5 -6.66,1.664 -6.67,2.5 -6.67,1.668 -6.66,-2.5 -6.67,-0.832 -6.67,2.5 -5.83,-2.5 -7.5,2.5 -7.5,0.832 -6.67,-0.832 -7.5,-3.336 -14.16,0 -6.67,-1.664 -26.67,0 -6.66,-2.5 -6.67,0.832 -5.83,0.832 -6.67,-1.664 -5.83,0 -6.67,1.664 -7.5,-1.664 -6.67,0 -6.66,-0.836 -7.5,2.5 -6.67,-0.832 -6.67,-1.668 -6.66,0.836 -5.84,-0.836 -6.66,-1.664 -6.67,0 -5.83,1.664 -6.67,-0.832 -5.83,-0.832 -5.84,-2.5 -5.83,2.5 -6.67,-0.836 -6.66,0.836 -6.67,1.664 -6.67,0 -6.66,-3.332 -6.67,0.832 -6.67,1.668 -6.66,4.168 -5.84,-0.836 -6.66,-2.5 -5.84,0.836 -5.83,1.664 -5.83,0 -5.84,-0.832 -5.83,-0.832 -5.83,2.5 -6.67,-1.668 -6.67,0.832 -6.66,1.668 -5.84,2.5 -6.66,-0.832 -6.67,1.664 -5.83,-1.664 -6.67,0.832 -5.83,1.668 -5.84,0.832 -5.83,0.832 -5.83,0.836 -5.84,0 -5.83,2.5 -5.83,1.664 -5.84,4.168 -5.83,0 -5.83,1.668 -6.67,4.164 -5.83,3.336 -6.67,2.5 -5.83,5 -5.84,5.832 -6.66,5 -5.84,1.668 -5.83,5 -5.83,5 -5,6.664 -5.84,3.336 -5.83,8.332 -5,5 -5.83,3.332 -5.84,8.336 -5.83,7.5 -5.83,5 -6.67,5 -5.83,4.164 -5.84,4.168 -5.83,2.5 -5.83,3.332 -5.84,5 -5.83,1.668 -5,-0.832 -5.83,-1.668 -5,0.832 -5.84,-0.832 -5,-3.332 -5.83,-2.5 -5,-6.668 -5.83,-4.168 -5.84,-8.332 -5.83,-10.832 -5.83,-7.5 -5.84,-10 -5.83,-12.5 -5.83,-10.836 -5,-14.164 -5.84,-14.168 -5.83,-14.168 -5,-14.164 -5,-15 -5.83,-14.168 -5,-13.332 -5,-14.168 -5,-13.332 -5.84,-15 -5.83,-15.836 -5.83,-14.164 -5.84,-15 -5,-14.168 -5.83,-14.168 -5.83,-14.164 -5,-13.336 -5.84,-12.5 -5,-11.664 -5,-12.5 -5,-11.668 -5,-10 -5.83,-10 -5,-10.832 -5,-9.168 -5,-9.168 -5.83,-10 -5.84,-8.332 -5,-9.168 -5.83,-7.5 -5,-5.832 -5.83,-7.5 -5,-5.832 -5,-5 -5.84,-5.836 -5,-5 -5,-5 -5,-4.164 -5,-4.168 -5,-3.332 -5,-3.336 -5,-4.164 -5.83,-3.336 -5,-3.332 -5.83,-2.5 -5,-2.5 -5.84,-2.5 -5,-2.5 -5,-1.668 -5.83,-1.664 -5,-2.5 -5,-1.668 -5,-1.668 -5,-1.664 -5,-0.836 -4.17,-1.664 -5,-1.668 -5.83,-0.832 -5,-1.668 -5.83,-0.832 -5,-0.836 -5.84,-0.832 -5,-0.832 -5,-0.836 -5,-0.832 -5.83,0 -5,-0.832 -5,-0.836 -5,-0.832 -5,0 -4.17,-0.832 -5,0 -5,-0.836 -5,0 -5.83,-0.832 -5.83,0 -5,-0.832 -15.84,0 -5.83,-0.836 -15,0 -5,-0.832 -19.17,0 -5.83,-0.832 -44.17,0 -5,-0.836 -628.33,0"
         style="fill:none;stroke:#00cc00;stroke-width:20;stroke-linecap:butt;stroke-linejoin:round;stroke-miterlimit:10;stroke-opacity:1;stroke-dasharray:none"
         id="path242"
         inkscape:connector-curvature="0" /><path
         d="m 4055,1764.17 -10,-21.67 -10,-11.67 -9.17,-10 -10,-20.83 -9.16,-12.5 -9.17,-15 -8.33,-9.17 -9.17,-22.5 -8.33,-11.66 -9.17,-17.5 -8.33,-7.5 -7.5,-14.17 -8.34,-7.5 -10,-10 -10.83,-23.33 -10,-14.17 -10,-10.83 -9.17,-13.34 -10,-10.83 -9.16,-15.83 -9.17,-15 -9.17,-1.67 -8.33,-12.5 -9.17,-11.67 -8.33,-8.33 -8.33,-6.67 -8.34,-9.16 -8.33,-10.84 -7.5,-6.66 -10,-12.5 -10,-15 -10,-5.84 -10,-17.5 -9.17,-13.33 -9.16,-14.17 -9.17,1.67 -9.17,-5 -9.16,-16.67 -8.34,-13.33 -8.33,-15 -9.17,-7.5 -7.5,-1.67 -8.33,-14.16 -8.33,-5 -7.5,-11.67 -10,-5.83 -9.17,-6.67 -10,-4.17 -9.17,-10 -10,-9.16 -9.16,-9.17 -9.17,-8.33 -8.33,-9.17 -9.17,-0.83 -8.33,-9.17 -8.34,-10 -8.33,-1.67 -8.33,-13.33 -7.5,0 -8.34,-6.67 -7.5,-6.66 -9.16,-5.84 -9.17,-2.5 -10,-10 -9.17,-3.33 -9.16,-6.67 -9.17,-6.66 -8.33,-0.84 -9.17,-5.83 -8.33,0 -8.34,-1.67 -8.33,-9.16 -8.33,2.5 -8.34,-7.5 -7.5,-5 -7.5,2.5 -7.5,-1.67 -9.16,-5.83 -9.17,-10.84 -9.17,-0.83 -9.16,-7.5 -9.17,-1.67 -9.17,0 -8.33,-10 -8.33,-2.5 -8.34,-1.66 -8.33,-6.67 -8.33,0 -8.34,-0.83 -7.5,-3.34 -7.5,-10 -7.5,2.5 -7.5,-8.33 -8.33,0 -9.17,-2.5 -9.16,-3.332 -9.17,3.332 -9.17,-5.832 -8.33,-3.336 -8.33,-3.332 -8.34,-2.5 -8.33,0.832 -8.33,-3.332 -7.5,0.832 -8.34,-3.332 -7.5,-10.832 -7.5,1.664 -7.5,3.336 -7.5,-5.836 -7.5,4.168 -9.16,-5 -9.17,1.668 -8.33,-6.668 -8.34,0.832 -9.16,-7.5 -7.5,3.336 -8.34,-4.168 -8.33,3.332 -7.5,-4.164 -8.33,-0.836 -7.5,-5.832 -7.5,-3.332 -7.5,0 -7.5,3.332 -6.67,-1.668 -7.5,-5.832 -9.17,-3.332 -8.33,2.5 -8.33,-2.5 -8.34,0 -8.33,-3.336 -8.33,-1.664 -8.34,-5 -7.5,-0.836 -7.5,1.668 -7.5,-5 -7.5,-0.832 -7.5,-6.668 -7.5,0 -7.5,-4.168 -6.66,-0.832 -7.5,0.832 -8.34,-5.832 -8.33,3.332 -8.33,-4.164 -8.34,0 -7.5,0.832 -8.33,-5.832 -7.5,-1.668 -7.5,-1.668 -7.5,-1.664 -7.5,1.664 -7.5,0 -7.5,-2.5 -6.67,0.836 -6.66,-2.5 -7.5,-1.668 -6.67,0 -8.33,-2.5 -8.34,0 -7.5,0.832 -8.33,-1.664 -7.5,0 -7.5,-0.836 -7.5,0 -7.5,-2.5 -7.5,-0.832 -7.5,-2.5 -6.67,-0.832 -7.5,-4.168 -6.66,1.668 -6.67,0 -6.67,-1.668 -6.66,-5 -8.34,0.832 -7.5,-0.832 -8.33,-2.5 -7.5,0 -7.5,2.5 -7.5,-6.668 -7.5,-0.832 -6.67,1.668 -7.5,-2.5 -6.66,2.5 -7.5,-4.168 -6.67,0.832 -6.67,1.668 -6.66,-0.832 -6.67,-1.668 -5.83,2.5 -7.5,-3.332 -8.34,-2.5 -7.5,1.664"
         style="fill:none;stroke:#00cc00;stroke-width:20;stroke-linecap:butt;stroke-linejoin:round;stroke-miterlimit:10;stroke-opacity:1;stroke-dasharray:none"
         id="path244"
         inkscape:connector-curvature="0" /><path
         d="m 2463.33,755 -7.5,0 -6.66,0.832 -7.5,0.836 -7.5,-0.836 -6.67,-0.832 -6.67,-0.832 -6.66,-0.836 -6.67,0.836 -6.67,0.832 -6.66,0.832 -6.67,0 -6.67,0.836 -5.83,0 -7.5,-1.668 -7.5,0.832 -6.67,2.5 -7.5,-2.5 -7.5,2.5 -6.66,-0.832 -6.67,-4.168 -6.67,0 -6.66,0.836 -6.67,-2.5 -6.67,3.332 -6.66,0 -6.67,-0.832 -12.5,0 -5.83,-0.836 -6.67,0.836 -7.5,1.664 -6.67,-3.332 -6.66,0.832 -7.5,-1.664 -6.67,0 -6.67,1.664 -6.66,-1.664 -5.84,0 -6.66,3.332 -6.67,-2.5 -5.83,1.668 -6.67,-2.5 -5.83,0 -5.84,0.832 -5.83,-0.832 -6.67,-0.836 -6.66,2.5 -6.67,0.836 -6.67,-1.668 -6.66,1.668 -6.67,1.664 -6.67,0.836 -6.66,-2.5 -5.84,1.664 -6.66,-1.664 -5.84,0 -5.83,2.5 -5.83,1.664 -5.84,-0.832 -5.83,0.832 -25.83,0 -5.84,1.668 -6.66,0 -6.67,0.832 -5.83,1.668 -6.67,0 -5.83,1.668 -11.67,0 -5.83,0.832 -5.84,0.832 -5.83,3.336 -5.83,0 -5.84,1.664 -5.83,1.668 -5.83,0.832 -6.67,3.336 -5.83,0.832 -6.67,3.332 -5.83,3.336 -5.84,3.332 -6.66,5.832 -5.84,4.168 -5.83,4.168 -5.83,3.332 -5,4.168 -5.84,6.664 -5.83,5 -5,5.836 -5.83,4.164 -5.84,5 -5.83,5.836 -5.83,5 -6.67,5 -5.83,4.164 -5.84,3.336 -5.83,4.164 -5.83,3.336 -5.84,1.664 -5.83,1.668 -5,3.332 -5.83,-0.832 -5,0.832 -5.84,-4.164 -5,-3.336 -5.83,-0.832 -5,-3.332 -5.83,-5 -5.84,-8.336 -5.83,-8.332 -5.83,-5 -5.84,-6.668 -5.83,-11.664 -5.83,-10 -5,-10.836 -5.84,-12.5 L 1715,770 l -5,-10.832 -5,-12.5 -5.83,-10.836 -5,-12.5 -5,-11.664 -5,-11.668 -5.84,-12.5 -5.83,-13.332 -5.83,-11.668 -5.84,-12.5 -5,-11.668 -5.83,-10.832 -5.83,-11.668 -5,-11.664 -5.84,-10 -5,-11.668 -5,-8.332 -5,-9.168 -5,-8.332 -5.83,-8.336 -5,-9.164 -5,-5.836 -5,-8.332 -5.83,-8.332 -5.84,-5.836 -5,-7.5 -5.83,-6.664 -5,-5 -5.83,-5 -5,-5 -5,-4.168 -5.84,-4.168 -5,-3.332 -5,-5 -5,-3.332 -5,-2.5 -5,-3.336 -5,-2.5 -5,-3.332 -5.83,-2.5 -5,-2.5 -5.83,-2.5 -5,-1.668 -5.84,-1.664 -5,-1.668 -5,-1.668 -5.83,-1.664 -5,-1.668 -5,-0.832 -5,-1.668 -5,-0.832 -5,-0.836 -4.17,-1.664 -5,-0.836 -5.83,-0.832 -5,-0.832 -5.83,-0.836 -5,-0.832 -5.84,0 -5,-0.832 -5,-0.836 -5,-0.832 -5.83,0 -5,-0.832 -5,-0.836 -10,0 -4.17,-0.832 -5,0 -5,-0.832 -16.66,0 -5,-0.836 -10.84,0 -5,-0.832 -20.83,0 -5,-0.832 -47.5,0 -5,-0.836 -650,0"
         style="fill:none;stroke:#ff8000;stroke-width:20;stroke-linecap:butt;stroke-linejoin:round;stroke-miterlimit:10;stroke-opacity:1;stroke-dasharray:none"
         id="path246"
         inkscape:connector-curvature="0" /><path
         d="m 4055,1415.83 -10,-6.66 -10,-10.84 -9.17,-11.66 -10,-14.17 -9.16,-5.83 -9.17,-18.34 -8.33,-10 -9.17,-15 -8.33,-11.66 -9.17,-7.5 -8.33,-5.84 -7.5,-8.33 -8.34,-12.5 -10,-15 -10.83,-12.5 -10,-4.17 -10,-9.16 -9.17,-18.34 -10,-10 -9.16,-6.66 -9.17,-10.84 -9.17,-0.83 -8.33,-7.5 -9.17,-10 -8.33,-3.33 -8.33,-8.34 -8.34,-9.16 -8.33,-8.34 -7.5,-2.5 -10,-13.33 -10,-8.33 -10,-4.17 -10,-12.5 -9.17,-5 -9.16,-7.5 -9.17,-3.33 -9.17,-10.84 -9.16,-10.83 -8.34,-5 -8.33,-9.17 -9.17,-5 -7.5,-8.33 -8.33,-6.67 -8.33,-3.33 -7.5,-4.17 -10,-9.16 -9.17,-5 -10,-11.67 -9.17,-10.832 -10,-2.5 -9.16,-4.168 -9.17,-7.5 -8.33,-1.668 -9.17,-3.332 -8.33,-5.832 -8.34,-5 -8.33,-4.168 -8.33,-10 -7.5,-4.168 -8.34,-1.664 -7.5,-7.5 -9.16,-0.836 -9.17,-4.164 -10,-0.836 -9.17,-3.332 -9.16,-8.332 -9.17,-0.836 -8.33,-2.5 -9.17,-3.332 -8.33,-3.332 -8.34,5 -8.33,-4.168 -8.33,1.668 -8.34,-4.168 -7.5,-8.332 -7.5,-2.5 -7.5,0.832 -9.16,-3.332 -9.17,-4.168 -9.17,0.832 -9.16,-6.664 -9.17,-1.668 -9.17,0 -8.33,-5.832 -8.33,-1.668 -8.34,-0.832 -8.33,-5 -16.67,0 -7.5,-4.168 -7.5,-2.5 -7.5,-1.668 -7.5,-4.164 -8.33,-3.336 -9.17,-5 -9.16,4.168 -9.17,-1.668 -9.17,-5.832 -8.33,3.332 -8.33,-2.5 -8.34,-4.164 -8.33,5 -8.33,-3.336 -7.5,-2.5 -8.34,-1.664 -7.5,-1.668 -7.5,-2.5 -7.5,-0.832 -7.5,0.832 -7.5,-3.332 -9.16,0 -9.17,-2.5 -8.33,2.5 -8.34,-3.336 -9.16,-5.832 -7.5,6.668 -8.34,-5.836 -8.33,2.5 -7.5,-3.332 -8.33,-0.832 -7.5,-1.668 -7.5,-0.832 -7.5,-2.5 -7.5,-0.836 -6.67,5.836 -7.5,-6.668 -9.17,-1.668 -8.33,0.836 -8.33,-0.836 -8.34,0.836 -8.33,-1.668 -8.33,-1.668 -8.34,-1.664 -7.5,-4.168 -7.5,1.668 -7.5,-4.168 -7.5,-1.668 -7.5,0 -7.5,-4.164 -7.5,1.664 -6.66,-4.164 -7.5,0.832 -8.34,-4.168 -8.33,5.836 -8.33,-2.5 -8.34,-2.5 -7.5,-1.668 -8.33,-4.168 -7.5,-0.832 -7.5,1.668 -7.5,-1.668 -7.5,0 -7.5,0.832 -7.5,-2.5 -6.67,0.836 -6.66,4.164 -7.5,-4.164 -6.67,0 -8.33,-2.5 -8.34,-0.836 -7.5,0 -8.33,-0.832 -7.5,1.668 -7.5,-1.668 -7.5,0 -7.5,-2.5 -7.5,-1.668 -7.5,0.836 -6.67,-3.336 -7.5,0.836 -6.66,-1.668 -6.67,2.5 -6.67,-2.5 -6.66,-1.668 -8.34,-2.5 -7.5,0.836 -8.33,-0.836 -7.5,-4.164 -7.5,2.5 -7.5,0 -7.5,-1.668 -6.67,0 -7.5,0.832 -6.66,-1.664 -7.5,-1.668 -6.67,4.168 -6.67,-1.668 -6.66,-2.5 -6.67,0 -5.83,1.668 -7.5,-1.668 -8.34,-1.668 -7.5,1.668"
         style="fill:none;stroke:#ff8000;stroke-width:20;stroke-linecap:butt;stroke-linejoin:round;stroke-miterlimit:10;stroke-opacity:1;stroke-dasharray:none"
         id="path248"
         inkscape:connector-curvature="0" /><path
         d="m 2463.33,699.168 -14.16,0 -7.5,0.832 -7.5,-0.832 -6.67,0.832 -20,0 -6.67,1.668 -6.66,0 -6.67,-0.836 -6.67,0 -5.83,0.836 -7.5,0 -7.5,0.832 -6.67,0 -7.5,0.832 -7.5,1.668 -6.66,0 -6.67,-3.332 -6.67,-0.836 -6.66,-0.832 -6.67,0 -6.67,0.832 -6.66,0 -6.67,-1.664 -5.83,1.664 -6.67,0 -5.83,0.836 -6.67,-0.836 -7.5,-0.832 -6.67,0 -6.66,0.832 -7.5,0.836 -6.67,-0.836 -6.67,-0.832 -6.66,0.832 -5.84,-0.832 -6.66,0 -6.67,-0.832 -5.83,0.832 -6.67,-1.668 -5.83,2.5 -5.84,0 -5.83,0.836 -6.67,-2.5 -6.66,1.664 -6.67,2.5 -6.67,0 -6.66,-1.664 -6.67,0.832 -6.67,0 -6.66,0.832 -5.84,0 -6.66,0.836 -5.84,0 -5.83,1.664 -5.83,0.836 -5.84,-0.836 -5.83,-1.664 -5.83,1.664 -6.67,0.836 -6.67,-0.836 -6.66,0.836 -5.84,3.332 -6.66,0 -6.67,-0.832 -5.83,0.832 -6.67,1.668 -11.67,0 -5.83,0.832 -5.83,0.832 -5.84,0 -5.83,1.668 -5.83,3.332 -5.84,0.836 -5.83,0 -5.83,2.5 -6.67,0 -5.83,3.332 -6.67,4.168 -5.83,2.5 -5.84,1.664 -6.66,4.168 -5.84,4.168 -5.83,5.832 -5.83,4.168 -5,3.332 -5.84,2.5 -5.83,5 -5,5.832 -5.83,5 -5.84,5 -5.83,5.836 -5.83,3.332 -6.67,5 -5.83,4.168 -5.84,4.164 -5.83,4.168 -5.83,3.332 -5.84,-0.832 -5.83,3.332 -5,2.5 -5.83,-1.664 -5,0.832 -5.84,-0.832 -5,-2.5 -5.83,-1.668 -5,-3.332 -5.83,-4.168 -5.84,-5 -5.83,-8.332 -5.83,-6.668 -5.84,-7.5 -5.83,-9.168 -5.83,-8.332 -5,-10.832 -5.84,-10.836 -5.83,-10 -5,-9.164 -5,-12.5 -5.83,-10 -5,-10 -5,-10.836 -5,-10 -5.84,-11.664 -5.83,-9.168 -5.83,-11.668 -5.84,-11.664 -5,-10 -5.83,-10 -5.83,-10 -5,-10 -5.84,-10 -5,-7.5 -5,-9.168 -5,-7.5 -5,-7.5 -5.83,-7.5 -5,-7.5 -5,-5.832 -5,-6.668 -5.83,-6.668 -5.84,-5.832 -5,-5.832 -5.83,-5 -5,-5 -5.83,-4.168 -5,-5 -5,-3.332 -5.84,-3.336 -5,-3.332 -5,-3.332 -5,-3.336 -5,-2.5 -5,-2.5 -5,-1.664 -5,-2.5 -5.83,-2.5 -5,-2.5 -5.83,-1.668 -5,-0.832 -5.84,-2.5 -5,-0.836 -5,-1.664 -5.83,-0.836 -5,-1.664 -5,-0.836 -5,-0.832 -5,-1.668 -5,-0.832 -4.17,-0.832 -5,-0.836 -5.83,-0.832 -5,-0.832 -5.83,0 -5,-0.836 -5.84,0 -5,-0.832 -5,-0.832 -5,0 -5.83,-0.836 -5,0 -5,-0.832 -5,0 -5,-0.832 -14.17,0 -5,-0.836 -11.66,0 -5,-0.832 -26.67,0 -5,-0.832 -35,0 -5.83,-0.836 -671.67,0"
         style="fill:none;stroke:#ff0000;stroke-width:20;stroke-linecap:butt;stroke-linejoin:round;stroke-miterlimit:10;stroke-opacity:1;stroke-dasharray:none"
         id="path250"
         inkscape:connector-curvature="0" /><path
         d="m 4055,1201.67 -10,-4.17 -10,-11.67 -9.17,-10.83 -10,-5.83 -9.16,0 -9.17,-2.5 -8.33,-16.67 -9.17,-23.33 -8.33,-2.5 -9.17,-15 -8.33,-5 -7.5,-3.34 -8.34,-9.16 -10,-10 -10.83,-9.17 -10,-5.83 -10,-6.67 -9.17,-11.67 -10,-15.83 -9.16,-2.5 -9.17,-5.83 -9.17,-5.84 -8.33,-6.66 -9.17,-3.34 -8.33,-1.66 -8.33,-5 -8.34,-8.338 -8.33,-4.164 -7.5,-5.836 -10,-8.332 -10,-6.668 -10,-5.832 -10,-2.5 -9.17,-8.332 -9.16,-6.668 -9.17,2.5 -9.17,-15 -9.16,-8.332 -8.34,-5.836 -8.33,-6.664 -9.17,-4.168 -7.5,-5 -8.33,-5.832 -8.33,-2.5 -7.5,-10 -10,-1.668 -9.17,-5 -10,-2.5 -9.17,-8.332 -10,-7.5 -9.16,-3.336 -9.17,-4.164 -8.33,-1.668 -9.17,-5 -8.33,-5.832 -8.34,1.664 -8.33,-5 -8.33,-2.5 -7.5,-6.664 -8.34,-5 -7.5,-1.668 -9.16,0 -9.17,-3.332 -10,-1.668 -9.17,-4.168 -9.16,0 -9.17,-2.5 -8.33,0.836 -9.17,-9.168 -8.33,0 -8.34,-5.832 -8.33,7.5 -8.33,-0.836 -8.34,-6.664 -7.5,-0.836 -7.5,0 -7.5,-0.832 -9.16,-5 -9.17,-0.832 -9.17,0.832 -9.16,-0.832 -9.17,-2.5 -9.17,-6.668 -8.33,0 -8.33,3.332 -8.34,-6.664 -8.33,-3.336 -8.33,-3.332 -8.34,-1.668 -7.5,1.668 -7.5,0.832 -7.5,-4.164 -7.5,-4.168 -8.33,0 -9.17,-2.5 -9.16,1.668 -9.17,0.832 -9.17,-1.668 -8.33,-3.332 -8.33,1.668 -8.34,-0.836 -8.33,-1.664 -8.33,0.832 -7.5,0 -8.34,-2.5 -7.5,-3.332 -7.5,-0.836 -7.5,-0.832 -7.5,-1.668 -7.5,2.5 -9.16,0 -9.17,1.668 -8.33,-5.832 -8.34,0.832 -9.16,-2.5 -7.5,4.168 -8.34,-4.168 -8.33,-0.832 -7.5,-1.668 -8.33,-1.668 -7.5,2.5 -7.5,-1.664 -7.5,-5.836 -7.5,1.668 -6.67,5 -7.5,0 -9.17,-4.168 -8.33,3.336 -8.33,-0.836 -8.34,-0.832 -8.33,-5.832 -8.33,-0.836 -8.34,2.5 -7.5,-2.5 -7.5,1.668 -7.5,-5 -7.5,-1.668 -7.5,-0.832 -7.5,-1.668 -7.5,0.836 -6.66,-2.5 -7.5,0.832 -8.34,-4.168 -8.33,2.5 -8.33,0 -8.34,-4.164 -7.5,0 -8.33,-2.5 -7.5,0.832 -7.5,-0.832 -7.5,-1.668 -7.5,1.668 -7.5,0.832 -7.5,1.668 -6.67,-1.668 -6.66,-1.668 -7.5,1.668 -6.67,-3.332 -8.33,4.164 -8.34,-3.332 -7.5,0.832 -8.33,2.5 -7.5,-5 -7.5,0.836 -7.5,-0.836 -15,0 -7.5,-0.832 -6.67,-2.5 -7.5,-0.832 -6.66,3.332 -6.67,-1.668 -6.67,-2.5 -6.66,-0.832 -8.34,-3.332 -7.5,1.664 -8.33,-0.832 -7.5,-1.668 -7.5,1.668 -7.5,-3.332 -7.5,1.664 -6.67,-0.832 -7.5,0.832 -6.66,-1.664 -7.5,-0.836 -6.67,0.836 -6.67,0.832 -6.66,-1.668 -6.67,0 -5.83,0.836 -7.5,0.832 -8.34,-1.668 -7.5,0.836"
         style="fill:none;stroke:#ff0000;stroke-width:20;stroke-linecap:butt;stroke-linejoin:round;stroke-miterlimit:10;stroke-opacity:1;stroke-dasharray:none"
         id="path252"
         inkscape:connector-curvature="0" /><path
         d="m 2463.33,667.5 -14.16,0 -7.5,-1.668 -7.5,1.668 -6.67,0.832 -13.33,0 -6.67,0.836 -6.67,-1.668 -6.66,2.5 -6.67,0.832 -20,0 -7.5,-1.664 -6.67,1.664 -7.5,0.836 -7.5,-0.836 -6.66,1.668 -6.67,-1.668 -6.67,0.836 -6.66,1.664 -6.67,-0.832 -6.67,0.832 -6.66,-0.832 -6.67,-3.332 -5.83,0 -6.67,1.664 -5.83,0.836 -6.67,0 -7.5,-0.836 -13.33,0 -7.5,-0.832 -6.67,-1.668 -6.67,1.668 -6.66,0 -5.84,0.832 -6.66,-0.832 -6.67,-1.668 -5.83,2.5 -6.67,-0.832 -5.83,-2.5 -5.84,1.668 -5.83,1.664 -6.67,0 -6.66,0.836 -6.67,-0.836 -6.67,1.668 -6.66,-0.832 -6.67,1.664 -6.67,1.668 -6.66,0 -5.84,1.668 -6.66,-0.836 -5.84,0 -5.83,0.836 -5.83,-0.836 -5.84,0 -5.83,-0.832 -5.83,0 -6.67,1.668 -6.67,0 -6.66,-0.836 -5.84,2.5 -6.66,0.836 -6.67,-0.836 -5.83,1.668 -6.67,0 -5.83,-0.832 -5.84,1.664 -5.83,1.668 -5.83,1.668 -5.84,-1.668 -5.83,1.668 -5.83,0.832 -5.84,1.668 -5.83,1.664 -5.83,2.5 -6.67,1.668 -5.83,1.668 -6.67,2.5 -5.83,3.332 -5.84,2.5 -6.66,4.168 -5.84,3.332 -5.83,4.168 -5.83,4.164 -5,2.5 -5.84,5 -5.83,3.336 -5,4.164 -5.83,4.168 -5.84,5 -5.83,6.668 -5.83,5.832 -6.67,3.332 -5.83,5 -5.84,2.5 -5.83,5 -5.83,2.5 -5.84,0.836 -5.83,1.664 -5,1.668 -5.83,-0.832 -5,1.664 -5.84,-0.832 -5,-1.668 -5.83,-1.664 -5,-3.336 -5.83,-4.164 -5.84,-3.336 -5.83,-7.5 -5.83,-7.5 -5.84,-5.832 -5.83,-9.168 -5.83,-8.332 -5,-10.832 -5.84,-9.168 -5.83,-9.168 -5,-10 -5,-10 -5.83,-9.164 -5,-9.168 -5,-8.332 -5,-10 -5.84,-10.836 -5.83,-10.832 -5.83,-10 -5.84,-10 -5,-9.168 -5.83,-10 -5.83,-9.164 -5,-8.336 -5.84,-9.164 -5,-7.5 -5,-7.5 -5,-6.668 -5,-8.332 -5.83,-6.668 -5,-5.832 -5,-5 -5,-5.836 -5.83,-5.832 -5.84,-5.832 -5,-5 -5.83,-5 -5,-4.168 -5.83,-4.168 -5,-4.164 -5,-3.336 -5.84,-3.332 -5,-2.5 -5,-3.332 -5,-2.5 -5,-2.5 -5,-2.5 -5,-1.668 -5,-1.668 -5.83,-2.5 -5,-1.664 -5.83,-1.668 -5,-1.668 -5.84,-1.664 -5,-0.836 -5,-1.664 -5.83,-0.836 -5,-0.832 -5,-0.832 -5,-1.668 -5,-0.832 -5,-0.836 -4.17,0 -5,-0.832 -5.83,-0.832 -5,-0.836 -5.83,-0.832 -5,0 -5.84,-0.832 -5,0 -5,-0.836 -5,0 -5.83,-0.832 -5,0 -5,-0.832 -10,0 -4.17,-0.836 -15,0 -5.83,-0.832 -21.67,0 -5,-0.832 -40.83,0 -4.17,-0.836 -683.33,0"
         style="fill:none;stroke:#000000;stroke-width:20;stroke-linecap:butt;stroke-linejoin:round;stroke-miterlimit:10;stroke-opacity:1;stroke-dasharray:none"
         id="path254"
         inkscape:connector-curvature="0" /><path
         d="m 4055,1077.5 -10,-5 -10,-11.67 -9.17,-5.83 -10,-9.17 -9.16,-6.66 -9.17,0 -8.33,-18.34 -9.17,-8.33 -8.33,-4.17 -9.17,-10.83 -8.33,-9.168 -7.5,-5.832 -8.34,-1.668 -10,-3.332 -10.83,-4.168 -10,-14.164 -10,-13.336 -9.17,-3.332 -10,-7.5 -9.16,-3.332 -9.17,-5.836 -9.17,-5 -8.33,-5.832 -9.17,-5.832 -8.33,-0.836 -8.33,-7.5 -8.34,-5 -8.33,1.668 -7.5,-3.332 -10,-10 -10,-5 -10,0 -10,-12.5 -9.17,-0.836 -9.16,-3.332 -9.17,-0.832 -9.17,-10 -9.16,-10.836 -8.34,-5.832 -8.33,4.168 -9.17,-5.836 -7.5,-7.5 -8.33,-3.332 -8.33,-2.5 -7.5,-4.168 -10,-8.332 -9.17,0 -10,-4.168 -9.17,-7.5 -10,-4.164 -9.16,-8.336 -9.17,-2.5 -8.33,-0.832 -9.17,1.668 -8.33,-5.836 -8.34,-5 -8.33,-4.164 -8.33,-6.668 -7.5,-0.832 -8.34,-0.836 -7.5,-5 -9.16,-0.832 -9.17,-0.832 -10,2.5 -9.17,-3.336 -9.16,-5.832 -9.17,0.832 -8.33,1.668 -9.17,-6.668 -8.33,-5.832 -8.34,5.832 -8.33,2.5 -8.33,-1.664 -8.34,-1.668 -7.5,-2.5 -7.5,-0.832 -7.5,2.5 -9.16,-1.668 -9.17,-1.668 -9.17,-2.5 -9.16,-1.664 -9.17,-1.668 -9.17,-3.332 -8.33,-3.336 -8.33,0.836 -8.34,-2.5 -8.33,0.832 -8.33,-1.668 -8.34,-2.5 -7.5,1.668 -7.5,-7.5 -7.5,0 -7.5,-5 -8.33,0.832 -9.17,0.836 -9.16,3.332 -9.17,0 -9.17,-4.168 -8.33,0.836 -16.67,0 -8.33,0.832 -8.33,-3.332 -7.5,-0.836 -8.34,-2.5 -7.5,-1.664 -7.5,-1.668 -7.5,0 -7.5,5.832 -7.5,-4.164 -9.16,-0.836 -9.17,-0.832 -8.33,2.5 -8.34,0 -9.16,-1.668 -7.5,2.5 -8.34,-0.832 -8.33,-4.168 -15.83,0 -7.5,0.836 -7.5,0 -7.5,-3.336 -7.5,-2.5 -6.67,3.336 -7.5,1.664 -9.17,-1.664 -8.33,3.332 -8.33,-2.5 -8.34,0 -8.33,-0.832 -8.33,-3.336 -8.34,-2.5 -7.5,-4.164 -7.5,2.5 -7.5,0.832 -7.5,0 -7.5,-3.332 -7.5,-1.668 -7.5,0 -6.66,-1.668 -15.84,0 -8.33,0.836 -8.33,-2.5 -8.34,1.664 -7.5,-4.164 -8.33,-1.668 -7.5,2.5 -15,0 -7.5,-1.668 -7.5,0 -7.5,-0.832 -6.67,1.668 -6.66,0.832 -7.5,-1.668 -6.67,-0.832 -8.33,-1.668 -8.34,0.836 -7.5,2.5 -8.33,0 -7.5,-2.5 -7.5,-0.836 -7.5,0 -7.5,1.668 -7.5,-3.332 -7.5,1.664 -6.67,0 -7.5,-2.5 -6.66,0 -6.67,-1.664 -6.67,0 -6.66,0.832 -8.34,-3.332 -7.5,0 -8.33,-0.836 -7.5,0 -7.5,0.836 -7.5,-3.336 -7.5,1.668 -6.67,-0.832 -7.5,0 -6.66,-0.836 -7.5,-3.332 -6.67,5.832 -6.67,-1.664 -6.66,1.664 -6.67,-2.5 -21.67,0 -7.5,1.668"
         style="fill:none;stroke:#000000;stroke-width:20;stroke-linecap:butt;stroke-linejoin:round;stroke-miterlimit:10;stroke-opacity:1;stroke-dasharray:none"
         id="path256"
         inkscape:connector-curvature="0" /></g><g
       id="g260"
       clip-path="url(#clipPath262)"
       transform="scale(0.1,0.1)"><g
         id="g266"
         transform="scale(10,10)"><text
           transform="matrix(0,1,1,0,442.333,113.917)"
           id="text268"><tspan
             style="font-size:14px;font-variant:normal;font-weight:normal;writing-mode:lr-tb;fill:#000000;fill-opacity:1;fill-rule:nonzero;stroke:none;font-family:Symbol;-inkscape-font-specification:Symbol"
             x="0"
             y="0"
             id="tspan270"></tspan></text>
<text
           transform="matrix(0,1,1,0,442.333,126.309)"
           id="text272"><tspan
             style="font-size:14px;font-variant:normal;font-weight:normal;writing-mode:lr-tb;fill:#000000;fill-opacity:1;fill-rule:nonzero;stroke:none;font-family:Helvetica;-inkscape-font-specification:Helvetica"
             x="0 3.108 10.892 18.676001"
             y="0"
             sodipodi:role="line"
             id="tspan274">log </tspan></text>
<text
           transform="matrix(0,1,1,0,442.333,148.8334)"
           id="text276"><tspan
             style="font-size:14px;font-variant:normal;font-weight:normal;writing-mode:lr-tb;fill:#000000;fill-opacity:1;fill-rule:nonzero;stroke:none;font-family:Symbol;-inkscape-font-specification:Symbol"
             x="0"
             y="0"
             id="tspan278"></tspan></text>
<text
           transform="matrix(0,1,1,0,442.333,158.80899)"
           id="text280"><tspan
             style="font-size:14px;font-variant:normal;font-weight:normal;writing-mode:lr-tb;fill:#000000;fill-opacity:1;fill-rule:nonzero;stroke:none;font-family:Helvetica;-inkscape-font-specification:Helvetica"
             x="0 4.6620002 11.662 19.445999 22.554001 25.662001 33.445999 37.338001 40.445999 43.554001 51.338001 59.122002 66.122002"
             y="0"
             sodipodi:role="line"
             id="tspan282">(solid lines)</tspan></text>
</g><path
         d="m 4054.17,412.5 -3471.67,0"
         style="fill:none;stroke:#000000;stroke-width:5;stroke-linecap:butt;stroke-linejoin:round;stroke-miterlimit:10;stroke-opacity:1;stroke-dasharray:none"
         id="path284"
         inkscape:connector-curvature="0" /><path
         d="m 582.5,412.5 0,2605"
         style="fill:none;stroke:#000000;stroke-width:5;stroke-linecap:butt;stroke-linejoin:round;stroke-miterlimit:10;stroke-opacity:1;stroke-dasharray:none"
         id="path286"
         inkscape:connector-curvature="0" /><path
         d="m 4054.17,412.5 0,35"
         style="fill:none;stroke:#000000;stroke-width:5;stroke-linecap:butt;stroke-linejoin:round;stroke-miterlimit:10;stroke-opacity:1;stroke-dasharray:none"
         id="path288"
         inkscape:connector-curvature="0" /><g
         id="g290"
         transform="scale(10,10)"><text
           transform="matrix(1,0,0,-1,393.417,25.4168)"
           id="text292"><tspan
             style="font-size:14px;font-variant:normal;font-weight:normal;writing-mode:lr-tb;fill:#000000;fill-opacity:1;fill-rule:nonzero;stroke:none;font-family:Helvetica;-inkscape-font-specification:Helvetica"
             x="0 8.1759996"
             y="0"
             sodipodi:role="line"
             id="tspan294">3</tspan></text>
</g><path
         d="m 3475,412.5 0,35"
         style="fill:none;stroke:#000000;stroke-width:5;stroke-linecap:butt;stroke-linejoin:round;stroke-miterlimit:10;stroke-opacity:1;stroke-dasharray:none"
         id="path296"
         inkscape:connector-curvature="0" /><g
         id="g298"
         transform="scale(10,10)"><text
           transform="matrix(1,0,0,-1,329.667,25.4168)"
           id="text300"><tspan
             style="font-size:14px;font-variant:normal;font-weight:normal;writing-mode:lr-tb;fill:#000000;fill-opacity:1;fill-rule:nonzero;stroke:none;font-family:Helvetica;-inkscape-font-specification:Helvetica"
             x="0 8.1759996 15.96 19.851999"
             y="0"
             sodipodi:role="line"
             id="tspan302">2.5</tspan></text>
</g><path
         d="m 2896.67,412.5 0,35"
         style="fill:none;stroke:#000000;stroke-width:5;stroke-linecap:butt;stroke-linejoin:round;stroke-miterlimit:10;stroke-opacity:1;stroke-dasharray:none"
         id="path304"
         inkscape:connector-curvature="0" /><g
         id="g306"
         transform="scale(10,10)"><text
           transform="matrix(1,0,0,-1,277.667,25.4168)"
           id="text308"><tspan
             style="font-size:14px;font-variant:normal;font-weight:normal;writing-mode:lr-tb;fill:#000000;fill-opacity:1;fill-rule:nonzero;stroke:none;font-family:Helvetica;-inkscape-font-specification:Helvetica"
             x="0 8.1759996"
             y="0"
             sodipodi:role="line"
             id="tspan310">2</tspan></text>
</g><path
         d="m 2318.33,412.5 0,35"
         style="fill:none;stroke:#000000;stroke-width:5;stroke-linecap:butt;stroke-linejoin:round;stroke-miterlimit:10;stroke-opacity:1;stroke-dasharray:none"
         id="path312"
         inkscape:connector-curvature="0" /><g
         id="g314"
         transform="scale(10,10)"><text
           transform="matrix(1,0,0,-1,214,25.4168)"
           id="text316"><tspan
             style="font-size:14px;font-variant:normal;font-weight:normal;writing-mode:lr-tb;fill:#000000;fill-opacity:1;fill-rule:nonzero;stroke:none;font-family:Helvetica;-inkscape-font-specification:Helvetica"
             x="0 8.1759996 15.96 19.851999"
             y="0"
             sodipodi:role="line"
             id="tspan318">1.5</tspan></text>
</g><path
         d="m 1739.17,412.5 0,35"
         style="fill:none;stroke:#000000;stroke-width:5;stroke-linecap:butt;stroke-linejoin:round;stroke-miterlimit:10;stroke-opacity:1;stroke-dasharray:none"
         id="path320"
         inkscape:connector-curvature="0" /><g
         id="g322"
         transform="scale(10,10)"><text
           transform="matrix(1,0,0,-1,161.917,25.4168)"
           id="text324"><tspan
             style="font-size:14px;font-variant:normal;font-weight:normal;writing-mode:lr-tb;fill:#000000;fill-opacity:1;fill-rule:nonzero;stroke:none;font-family:Helvetica;-inkscape-font-specification:Helvetica"
             x="0 8.1759996"
             y="0"
             sodipodi:role="line"
             id="tspan326">1</tspan></text>
</g><path
         d="m 1160.83,412.5 0,35"
         style="fill:none;stroke:#000000;stroke-width:5;stroke-linecap:butt;stroke-linejoin:round;stroke-miterlimit:10;stroke-opacity:1;stroke-dasharray:none"
         id="path328"
         inkscape:connector-curvature="0" /><g
         id="g330"
         transform="scale(10,10)"><text
           transform="matrix(1,0,0,-1,98.25,25.4168)"
           id="text332"><tspan
             style="font-size:14px;font-variant:normal;font-weight:normal;writing-mode:lr-tb;fill:#000000;fill-opacity:1;fill-rule:nonzero;stroke:none;font-family:Helvetica;-inkscape-font-specification:Helvetica"
             x="0 8.1759996 15.96 19.851999"
             y="0"
             sodipodi:role="line"
             id="tspan334">0.5</tspan></text>
</g><path
         d="m 582.5,412.5 0,35"
         style="fill:none;stroke:#000000;stroke-width:5;stroke-linecap:butt;stroke-linejoin:round;stroke-miterlimit:10;stroke-opacity:1;stroke-dasharray:none"
         id="path336"
         inkscape:connector-curvature="0" /><g
         id="g338"
         transform="scale(10,10)"><text
           transform="matrix(1,0,0,-1,54.4168,25.4168)"
           id="text340"><tspan
             style="font-size:14px;font-variant:normal;font-weight:normal;writing-mode:lr-tb;fill:#000000;fill-opacity:1;fill-rule:nonzero;stroke:none;font-family:Helvetica;-inkscape-font-specification:Helvetica"
             x="0"
             y="0"
             id="tspan342">0</tspan></text>
</g><path
         d="m 582.5,412.5 34.168,0"
         style="fill:none;stroke:#000000;stroke-width:5;stroke-linecap:butt;stroke-linejoin:round;stroke-miterlimit:10;stroke-opacity:1;stroke-dasharray:none"
         id="path344"
         inkscape:connector-curvature="0" /><g
         id="g346"
         transform="scale(10,10)"><text
           transform="matrix(1,0,0,-1,47.5832,36.0832)"
           id="text348"><tspan
             style="font-size:14px;font-variant:normal;font-weight:normal;writing-mode:lr-tb;fill:#000000;fill-opacity:1;fill-rule:nonzero;stroke:none;font-family:Helvetica;-inkscape-font-specification:Helvetica"
             x="0"
             y="0"
             id="tspan350">0</tspan></text>
</g><path
         d="m 582.5,517.5 16.668,0"
         style="fill:none;stroke:#000000;stroke-width:5;stroke-linecap:butt;stroke-linejoin:round;stroke-miterlimit:10;stroke-opacity:1;stroke-dasharray:none"
         id="path352"
         inkscape:connector-curvature="0" /><path
         d="m 582.5,621.668 16.668,0"
         style="fill:none;stroke:#000000;stroke-width:5;stroke-linecap:butt;stroke-linejoin:round;stroke-miterlimit:10;stroke-opacity:1;stroke-dasharray:none"
         id="path354"
         inkscape:connector-curvature="0" /><path
         d="m 582.5,725.832 16.668,0"
         style="fill:none;stroke:#000000;stroke-width:5;stroke-linecap:butt;stroke-linejoin:round;stroke-miterlimit:10;stroke-opacity:1;stroke-dasharray:none"
         id="path356"
         inkscape:connector-curvature="0" /><path
         d="m 582.5,830 16.668,0"
         style="fill:none;stroke:#000000;stroke-width:5;stroke-linecap:butt;stroke-linejoin:round;stroke-miterlimit:10;stroke-opacity:1;stroke-dasharray:none"
         id="path358"
         inkscape:connector-curvature="0" /><path
         d="m 582.5,934.168 16.668,0"
         style="fill:none;stroke:#000000;stroke-width:5;stroke-linecap:butt;stroke-linejoin:round;stroke-miterlimit:10;stroke-opacity:1;stroke-dasharray:none"
         id="path360"
         inkscape:connector-curvature="0" /><path
         d="m 582.5,934.168 16.668,0"
         style="fill:none;stroke:#000000;stroke-width:5;stroke-linecap:butt;stroke-linejoin:round;stroke-miterlimit:10;stroke-opacity:1;stroke-dasharray:none"
         id="path362"
         inkscape:connector-curvature="0" /><path
         d="m 582.5,934.168 16.668,0"
         style="fill:none;stroke:#000000;stroke-width:5;stroke-linecap:butt;stroke-linejoin:round;stroke-miterlimit:10;stroke-opacity:1;stroke-dasharray:none"
         id="path364"
         inkscape:connector-curvature="0" /><path
         d="m 582.5,934.168 16.668,0"
         style="fill:none;stroke:#000000;stroke-width:5;stroke-linecap:butt;stroke-linejoin:round;stroke-miterlimit:10;stroke-opacity:1;stroke-dasharray:none"
         id="path366"
         inkscape:connector-curvature="0" /><path
         d="m 582.5,934.168 16.668,0"
         style="fill:none;stroke:#000000;stroke-width:5;stroke-linecap:butt;stroke-linejoin:round;stroke-miterlimit:10;stroke-opacity:1;stroke-dasharray:none"
         id="path368"
         inkscape:connector-curvature="0" /><path
         d="m 582.5,934.168 34.168,0"
         style="fill:none;stroke:#000000;stroke-width:5;stroke-linecap:butt;stroke-linejoin:round;stroke-miterlimit:10;stroke-opacity:1;stroke-dasharray:none"
         id="path370"
         inkscape:connector-curvature="0" /><g
         id="g372"
         transform="scale(10,10)"><text
           transform="matrix(1,0,0,-1,35.9168,88.25)"
           id="text374"><tspan
             style="font-size:14px;font-variant:normal;font-weight:normal;writing-mode:lr-tb;fill:#000000;fill-opacity:1;fill-rule:nonzero;stroke:none;font-family:Helvetica;-inkscape-font-specification:Helvetica"
             x="0 7.7839999 11.676"
             y="0"
             sodipodi:role="line"
             id="tspan376">0.2</tspan></text>
</g><path
         d="m 582.5,1038.33 16.668,0"
         style="fill:none;stroke:#000000;stroke-width:5;stroke-linecap:butt;stroke-linejoin:round;stroke-miterlimit:10;stroke-opacity:1;stroke-dasharray:none"
         id="path378"
         inkscape:connector-curvature="0" /><path
         d="m 582.5,1142.5 16.668,0"
         style="fill:none;stroke:#000000;stroke-width:5;stroke-linecap:butt;stroke-linejoin:round;stroke-miterlimit:10;stroke-opacity:1;stroke-dasharray:none"
         id="path380"
         inkscape:connector-curvature="0" /><path
         d="m 582.5,1246.67 16.668,0"
         style="fill:none;stroke:#000000;stroke-width:5;stroke-linecap:butt;stroke-linejoin:round;stroke-miterlimit:10;stroke-opacity:1;stroke-dasharray:none"
         id="path382"
         inkscape:connector-curvature="0" /><path
         d="m 582.5,1350.83 16.668,0"
         style="fill:none;stroke:#000000;stroke-width:5;stroke-linecap:butt;stroke-linejoin:round;stroke-miterlimit:10;stroke-opacity:1;stroke-dasharray:none"
         id="path384"
         inkscape:connector-curvature="0" /><path
         d="m 582.5,1455 16.668,0"
         style="fill:none;stroke:#000000;stroke-width:5;stroke-linecap:butt;stroke-linejoin:round;stroke-miterlimit:10;stroke-opacity:1;stroke-dasharray:none"
         id="path386"
         inkscape:connector-curvature="0" /><path
         d="m 582.5,1455 16.668,0"
         style="fill:none;stroke:#000000;stroke-width:5;stroke-linecap:butt;stroke-linejoin:round;stroke-miterlimit:10;stroke-opacity:1;stroke-dasharray:none"
         id="path388"
         inkscape:connector-curvature="0" /><path
         d="m 582.5,1455 16.668,0"
         style="fill:none;stroke:#000000;stroke-width:5;stroke-linecap:butt;stroke-linejoin:round;stroke-miterlimit:10;stroke-opacity:1;stroke-dasharray:none"
         id="path390"
         inkscape:connector-curvature="0" /><path
         d="m 582.5,1455 16.668,0"
         style="fill:none;stroke:#000000;stroke-width:5;stroke-linecap:butt;stroke-linejoin:round;stroke-miterlimit:10;stroke-opacity:1;stroke-dasharray:none"
         id="path392"
         inkscape:connector-curvature="0" /><path
         d="m 582.5,1455 16.668,0"
         style="fill:none;stroke:#000000;stroke-width:5;stroke-linecap:butt;stroke-linejoin:round;stroke-miterlimit:10;stroke-opacity:1;stroke-dasharray:none"
         id="path394"
         inkscape:connector-curvature="0" /><path
         d="m 582.5,1455 34.168,0"
         style="fill:none;stroke:#000000;stroke-width:5;stroke-linecap:butt;stroke-linejoin:round;stroke-miterlimit:10;stroke-opacity:1;stroke-dasharray:none"
         id="path396"
         inkscape:connector-curvature="0" /><g
         id="g398"
         transform="scale(10,10)"><text
           transform="matrix(1,0,0,-1,35.9168,140.333)"
           id="text400"><tspan
             style="font-size:14px;font-variant:normal;font-weight:normal;writing-mode:lr-tb;fill:#000000;fill-opacity:1;fill-rule:nonzero;stroke:none;font-family:Helvetica;-inkscape-font-specification:Helvetica"
             x="0 7.7839999 11.676"
             y="0"
             sodipodi:role="line"
             id="tspan402">0.4</tspan></text>
</g><path
         d="m 582.5,1559.17 16.668,0"
         style="fill:none;stroke:#000000;stroke-width:5;stroke-linecap:butt;stroke-linejoin:round;stroke-miterlimit:10;stroke-opacity:1;stroke-dasharray:none"
         id="path404"
         inkscape:connector-curvature="0" /><path
         d="m 582.5,1663.33 16.668,0"
         style="fill:none;stroke:#000000;stroke-width:5;stroke-linecap:butt;stroke-linejoin:round;stroke-miterlimit:10;stroke-opacity:1;stroke-dasharray:none"
         id="path406"
         inkscape:connector-curvature="0" /><path
         d="m 582.5,1767.5 16.668,0"
         style="fill:none;stroke:#000000;stroke-width:5;stroke-linecap:butt;stroke-linejoin:round;stroke-miterlimit:10;stroke-opacity:1;stroke-dasharray:none"
         id="path408"
         inkscape:connector-curvature="0" /><path
         d="m 582.5,1871.67 16.668,0"
         style="fill:none;stroke:#000000;stroke-width:5;stroke-linecap:butt;stroke-linejoin:round;stroke-miterlimit:10;stroke-opacity:1;stroke-dasharray:none"
         id="path410"
         inkscape:connector-curvature="0" /><path
         d="m 582.5,1975.83 16.668,0"
         style="fill:none;stroke:#000000;stroke-width:5;stroke-linecap:butt;stroke-linejoin:round;stroke-miterlimit:10;stroke-opacity:1;stroke-dasharray:none"
         id="path412"
         inkscape:connector-curvature="0" /><path
         d="m 582.5,1975.83 16.668,0"
         style="fill:none;stroke:#000000;stroke-width:5;stroke-linecap:butt;stroke-linejoin:round;stroke-miterlimit:10;stroke-opacity:1;stroke-dasharray:none"
         id="path414"
         inkscape:connector-curvature="0" /><path
         d="m 582.5,1975.83 16.668,0"
         style="fill:none;stroke:#000000;stroke-width:5;stroke-linecap:butt;stroke-linejoin:round;stroke-miterlimit:10;stroke-opacity:1;stroke-dasharray:none"
         id="path416"
         inkscape:connector-curvature="0" /><path
         d="m 582.5,1975.83 16.668,0"
         style="fill:none;stroke:#000000;stroke-width:5;stroke-linecap:butt;stroke-linejoin:round;stroke-miterlimit:10;stroke-opacity:1;stroke-dasharray:none"
         id="path418"
         inkscape:connector-curvature="0" /><path
         d="m 582.5,1975.83 16.668,0"
         style="fill:none;stroke:#000000;stroke-width:5;stroke-linecap:butt;stroke-linejoin:round;stroke-miterlimit:10;stroke-opacity:1;stroke-dasharray:none"
         id="path420"
         inkscape:connector-curvature="0" /><path
         d="m 582.5,1975.83 34.168,0"
         style="fill:none;stroke:#000000;stroke-width:5;stroke-linecap:butt;stroke-linejoin:round;stroke-miterlimit:10;stroke-opacity:1;stroke-dasharray:none"
         id="path422"
         inkscape:connector-curvature="0" /><g
         id="g424"
         transform="scale(10,10)"><text
           transform="matrix(1,0,0,-1,35.9168,192.417)"
           id="text426"><tspan
             style="font-size:14px;font-variant:normal;font-weight:normal;writing-mode:lr-tb;fill:#000000;fill-opacity:1;fill-rule:nonzero;stroke:none;font-family:Helvetica;-inkscape-font-specification:Helvetica"
             x="0 7.7839999 11.676"
             y="0"
             sodipodi:role="line"
             id="tspan428">0.6</tspan></text>
</g><path
         d="m 582.5,2080 16.668,0"
         style="fill:none;stroke:#000000;stroke-width:5;stroke-linecap:butt;stroke-linejoin:round;stroke-miterlimit:10;stroke-opacity:1;stroke-dasharray:none"
         id="path430"
         inkscape:connector-curvature="0" /><path
         d="m 582.5,2184.17 16.668,0"
         style="fill:none;stroke:#000000;stroke-width:5;stroke-linecap:butt;stroke-linejoin:round;stroke-miterlimit:10;stroke-opacity:1;stroke-dasharray:none"
         id="path432"
         inkscape:connector-curvature="0" /><path
         d="m 582.5,2288.33 16.668,0"
         style="fill:none;stroke:#000000;stroke-width:5;stroke-linecap:butt;stroke-linejoin:round;stroke-miterlimit:10;stroke-opacity:1;stroke-dasharray:none"
         id="path434"
         inkscape:connector-curvature="0" /><path
         d="m 582.5,2392.5 16.668,0"
         style="fill:none;stroke:#000000;stroke-width:5;stroke-linecap:butt;stroke-linejoin:round;stroke-miterlimit:10;stroke-opacity:1;stroke-dasharray:none"
         id="path436"
         inkscape:connector-curvature="0" /><path
         d="m 582.5,2496.67 16.668,0"
         style="fill:none;stroke:#000000;stroke-width:5;stroke-linecap:butt;stroke-linejoin:round;stroke-miterlimit:10;stroke-opacity:1;stroke-dasharray:none"
         id="path438"
         inkscape:connector-curvature="0" /><path
         d="m 582.5,2496.67 16.668,0"
         style="fill:none;stroke:#000000;stroke-width:5;stroke-linecap:butt;stroke-linejoin:round;stroke-miterlimit:10;stroke-opacity:1;stroke-dasharray:none"
         id="path440"
         inkscape:connector-curvature="0" /><path
         d="m 582.5,2496.67 16.668,0"
         style="fill:none;stroke:#000000;stroke-width:5;stroke-linecap:butt;stroke-linejoin:round;stroke-miterlimit:10;stroke-opacity:1;stroke-dasharray:none"
         id="path442"
         inkscape:connector-curvature="0" /><path
         d="m 582.5,2496.67 16.668,0"
         style="fill:none;stroke:#000000;stroke-width:5;stroke-linecap:butt;stroke-linejoin:round;stroke-miterlimit:10;stroke-opacity:1;stroke-dasharray:none"
         id="path444"
         inkscape:connector-curvature="0" /><path
         d="m 582.5,2496.67 16.668,0"
         style="fill:none;stroke:#000000;stroke-width:5;stroke-linecap:butt;stroke-linejoin:round;stroke-miterlimit:10;stroke-opacity:1;stroke-dasharray:none"
         id="path446"
         inkscape:connector-curvature="0" /><path
         d="m 582.5,2496.67 34.168,0"
         style="fill:none;stroke:#000000;stroke-width:5;stroke-linecap:butt;stroke-linejoin:round;stroke-miterlimit:10;stroke-opacity:1;stroke-dasharray:none"
         id="path448"
         inkscape:connector-curvature="0" /><g
         id="g450"
         transform="scale(10,10)"><text
           transform="matrix(1,0,0,-1,35.9168,244.5)"
           id="text452"><tspan
             style="font-size:14px;font-variant:normal;font-weight:normal;writing-mode:lr-tb;fill:#000000;fill-opacity:1;fill-rule:nonzero;stroke:none;font-family:Helvetica;-inkscape-font-specification:Helvetica"
             x="0 7.7839999 11.676"
             y="0"
             sodipodi:role="line"
             id="tspan454">0.8</tspan></text>
</g><path
         d="m 582.5,2600.83 16.668,0"
         style="fill:none;stroke:#000000;stroke-width:5;stroke-linecap:butt;stroke-linejoin:round;stroke-miterlimit:10;stroke-opacity:1;stroke-dasharray:none"
         id="path456"
         inkscape:connector-curvature="0" /><path
         d="m 582.5,2705 16.668,0"
         style="fill:none;stroke:#000000;stroke-width:5;stroke-linecap:butt;stroke-linejoin:round;stroke-miterlimit:10;stroke-opacity:1;stroke-dasharray:none"
         id="path458"
         inkscape:connector-curvature="0" /><path
         d="m 582.5,2809.17 16.668,0"
         style="fill:none;stroke:#000000;stroke-width:5;stroke-linecap:butt;stroke-linejoin:round;stroke-miterlimit:10;stroke-opacity:1;stroke-dasharray:none"
         id="path460"
         inkscape:connector-curvature="0" /><path
         d="m 582.5,2913.33 16.668,0"
         style="fill:none;stroke:#000000;stroke-width:5;stroke-linecap:butt;stroke-linejoin:round;stroke-miterlimit:10;stroke-opacity:1;stroke-dasharray:none"
         id="path462"
         inkscape:connector-curvature="0" /><path
         d="m 582.5,3017.5 16.668,0"
         style="fill:none;stroke:#000000;stroke-width:5;stroke-linecap:butt;stroke-linejoin:round;stroke-miterlimit:10;stroke-opacity:1;stroke-dasharray:none"
         id="path464"
         inkscape:connector-curvature="0" /><path
         d="m 582.5,3017.5 16.668,0"
         style="fill:none;stroke:#000000;stroke-width:5;stroke-linecap:butt;stroke-linejoin:round;stroke-miterlimit:10;stroke-opacity:1;stroke-dasharray:none"
         id="path466"
         inkscape:connector-curvature="0" /><path
         d="m 582.5,3017.5 16.668,0"
         style="fill:none;stroke:#000000;stroke-width:5;stroke-linecap:butt;stroke-linejoin:round;stroke-miterlimit:10;stroke-opacity:1;stroke-dasharray:none"
         id="path468"
         inkscape:connector-curvature="0" /><path
         d="m 582.5,3017.5 16.668,0"
         style="fill:none;stroke:#000000;stroke-width:5;stroke-linecap:butt;stroke-linejoin:round;stroke-miterlimit:10;stroke-opacity:1;stroke-dasharray:none"
         id="path470"
         inkscape:connector-curvature="0" /><path
         d="m 582.5,3017.5 16.668,0"
         style="fill:none;stroke:#000000;stroke-width:5;stroke-linecap:butt;stroke-linejoin:round;stroke-miterlimit:10;stroke-opacity:1;stroke-dasharray:none"
         id="path472"
         inkscape:connector-curvature="0" /><path
         d="m 582.5,3017.5 34.168,0"
         style="fill:none;stroke:#000000;stroke-width:5;stroke-linecap:butt;stroke-linejoin:round;stroke-miterlimit:10;stroke-opacity:1;stroke-dasharray:none"
         id="path474"
         inkscape:connector-curvature="0" /><g
         id="g476"
         transform="scale(10,10)"><text
           transform="matrix(1,0,0,-1,47.5832,296.583)"
           id="text478"><tspan
             style="font-size:14px;font-variant:normal;font-weight:normal;writing-mode:lr-tb;fill:#000000;fill-opacity:1;fill-rule:nonzero;stroke:none;font-family:Helvetica;-inkscape-font-specification:Helvetica"
             x="0"
             y="0"
             id="tspan480">1</tspan></text>
</g></g><g
       id="g484"
       clip-path="url(#clipPath486)"
       transform="scale(0.1,0.1)"><path
         d="m 585,412.5 c 0,-1.379 -1.121,-2.5 -2.5,-2.5 -1.379,0 -2.5,1.121 -2.5,2.5 0,1.379 1.121,2.5 2.5,2.5 1.379,0 2.5,-1.121 2.5,-2.5"
         style="fill:#0000ff;fill-opacity:1;fill-rule:nonzero;stroke:none"
         id="path490"
         inkscape:connector-curvature="0" /><path
         d="m 4055,488.332 -35.83,0 -17.5,5.836 -35,0 -16.67,5.832 -35,0 -17.5,5.832 -35,0 -17.5,5 -34.17,0 -17.5,5.836 -17.5,0 -17.5,5.832 -35,0 -16.66,5 -17.5,0 -17.5,5.832 -35,0 -17.5,5.836 -17.5,0 -17.5,5 -16.67,0 -17.5,5.832 -17.5,0 -17.5,5.832 -17.5,0 -17.5,5.836 -17.5,0 -16.67,5 -17.5,5.832 -17.5,0 -17.5,5.832 -17.5,0 -17.5,5 -17.5,5.836 -17.5,0 -16.66,5.832 -17.5,5 -17.5,0 -17.5,5.832 -17.5,5.836 -17.5,0 -17.5,5 -17.5,5.832 -16.67,5.832 -17.5,0 -17.5,5.836 -17.5,5 -17.5,5.832 -17.5,5.832 -17.5,5 -17.5,0 -16.67,5.836 -17.5,5.832 -17.5,5 -17.5,5.832 -17.5,5.836 -17.5,5.832 -17.5,5 -17.5,5.832 -16.66,5.836 -17.5,10.832 -17.5,5.832 -17.5,16.668 -17.5,5 -17.5,5.832 -17.5,5.836 -17.5,10.832 -17.5,5.832 -16.67,5.836 -17.5,10.832 -17.5,5.832 -17.5,5 -17.5,11.668 -17.5,5 -17.5,11.668 -17.5,5.832 -17.5,10.832 -17.5,10.836 -16.67,5.832 -17.5,10.832 -17.5,11.668 -17.5,10.832 -17.5,5.836 -17.5,10.832 -17.5,11.668 -17.5,10.832 -17.5,10.832 -17.5,11.668 -16.66,10.832 -17.5,11.668 -17.5,16.668 -17.5,10.832 -17.5,10.83 -17.5,11.67 -17.5,16.67 -17.5,10.83 -17.5,16.67 -17.5,11.66 -17.5,16.67 -17.5,16.67 -16.67,10.83 -17.5,16.67 -17.5,16.66 -17.5,16.67 -17.5,17.5 -17.5,16.67 -17.5,16.66 -17.5,16.67 -17.5,16.67 -17.5,16.66 -17.5,22.5 -17.5,16.67 -17.5,21.67 -17.5,17.5 -17.5,21.66 -17.5,16.67 -17.5,22.5 -17.5,22.5 -16.67,22.5 -17.5,16.67 -17.5,22.5 -17.5,21.66 -17.5,22.5 -17.5,22.5 -17.5,27.5 -17.5,22.5 -17.5,22.5 -17.5,22.5 -17.5,27.5 -17.5,22.5 -17.5,22.5 -17.5,27.5 -17.5,22.5 -17.5,22.5 -17.5,27.5 -17.5,22.5 -17.5,27.5 -17.5,22.5 -17.5,22.5 -17.5,22.5 -17.5,27.5 -17.5,22.5 -17.5,22.5 -17.5,16.67 -17.5,21.67 -17.5,22.5 -17.5,22.5 -16.66,16.66 -17.5,16.67 -17.5,16.67 -17.5,16.66 -17.5,16.67 -17.5,11.67 -17.5,5 -17.5,11.66 -17.5,10.84 -17.5,5.83 -17.5,5 -34.17,0 -17.5,0.83 -17.5,-5.83 -17.5,0 -17.5,-5.83 -16.67,-10.84 -17.5,-11.66 -17.5,-10.84 -17.5,-10.83 -17.498,-11.67 -16.664,-44.16 -17.5,-22.5 -17.5,-22.5 -16.668,-22.5 -17.5,-27.5 -17.5,-27.5 -17.5,-34.17 -16.668,-33.33 -17.5,-27.5 -17.5,-33.34 -16.664,-39.16 -17.5,-39.17 -17.5,-39.17 -16.668,-39.16 -17.5,-38.34 -17.5,-39.16 -16.668,-45 -17.5,-39.17 -17.5,-44.17 -16.664,-39.16 -17.5,-45 -17.5,-38.34 -16.668,-45 -10,-23.33"
         style="fill:none;stroke:#000000;stroke-width:20;stroke-linecap:butt;stroke-linejoin:round;stroke-miterlimit:10;stroke-opacity:1;stroke-dasharray:60;stroke-dashoffset:0"
         id="path492"
         inkscape:connector-curvature="0" /><path
         d="m 4055,509.168 -31.67,0 -14.16,6.664 -40,0 -14.17,5.836 -26.67,0 -14.16,5.832 -40.84,0 -13.33,6.668 -26.67,0 -14.16,5.832 -26.67,0 -14.17,6.668 -26.66,0 -13.34,5.832 -27.5,0 -13.33,5.832 -27.5,0 -13.33,6.668 -27.5,0 -13.34,5.832 -13.33,0 -14.17,6.668 -26.66,0 -14.17,5.832 -13.33,0 -13.34,5.836 -13.33,0 -14.17,6.664 -13.33,0 -13.33,5.836 -14.17,0 -13.33,6.664 -13.34,0 -14.16,5.836 -13.34,0 -13.33,5.832 -13.33,0 -14.17,6.668 -13.33,0 -13.34,5.832 -14.16,0 -13.34,6.668 -13.33,0 -13.33,5.832 -14.17,5.832 -13.33,0 -13.34,6.668 -14.16,0 -13.34,5.832 -13.33,6.668 -14.17,0 -13.33,5.832 -13.33,5.836 -13.34,0 -14.16,6.664 -13.34,5.836 -13.33,0 -14.17,6.664 -13.33,5.836 -13.33,5.832 -14.17,0 -13.33,6.668 -13.34,5.832 -13.33,5.832 -14.17,6.668 -13.33,0 -13.33,5.832 -14.17,6.668 -13.33,5.832 -13.34,5.836 -14.16,6.664 -13.34,5.836 -13.33,6.664 -13.33,5.836 -14.17,5.832 -13.33,6.668 -13.34,5.832 -14.16,6.668 -13.34,5.832 -13.33,5.832 -14.17,12.5 -13.33,6.668 -13.33,5.832 -13.34,5.836 -14.16,6.664 -13.34,5.836 -13.33,5.832 -14.17,12.5 -13.33,6.668 -13.33,5.832 -14.17,5.832 -13.33,6.668 -13.34,12.5 -13.33,5.832 -14.17,5.836 -13.33,12.5 -13.33,5.832 -14.17,12.5 -13.33,6.668 -13.34,5.832 -14.16,12.5 -13.34,5.832 -13.33,12.498 -13.33,5.84 -14.17,12.5 -13.33,6.66 -13.34,11.67 -14.16,12.5 -13.34,5.83 -13.33,12.5 -14.17,12.5 -13.33,5.84 -13.33,12.5 -14.17,12.5 -13.33,12.5 -13.34,5.83 -13.33,12.5 -14.17,12.5 -13.33,11.67 -13.33,12.5 -14.17,12.5 -13.33,12.5 -13.34,12.5 -14.16,11.66 -13.34,12.5 -13.33,12.5 -14.17,12.5 -13.33,11.67 -13.33,12.5 -14.17,12.5 -13.33,18.33 -13.34,12.5 -13.33,12.5 -14.17,11.67 -13.33,12.5 -13.33,18.33 -14.17,12.5 -13.33,12.5 -13.34,18.34 -14.16,12.5 -13.34,12.5 -13.33,18.33 -14.17,11.67 -13.33,19.16 -13.33,11.67 -14.17,19.17 -13.33,11.66 -13.34,19.17 -14.16,11.67 -13.34,18.33 -13.33,12.5 -13.33,18.33 -14.17,12.5 -13.33,18.34 -13.34,12.5 -14.16,18.33 -13.34,12.5 -13.33,18.33 -14.17,12.5 -13.33,18.34 -13.33,12.5 -14.17,18.33 -13.33,12.5 -13.34,12.5 -14.16,18.33 -13.34,11.67 -13.33,19.17 -14.17,11.66 -13.33,12.5 -13.33,12.5 -13.34,12.5 -14.16,11.67 -13.34,19.17 -13.33,11.66 -14.17,12.5 -13.33,6.67 -13.33,11.67 -14.17,12.5 -13.33,6.66 -13.34,11.67 -14.16,6.67 -13.34,11.66 -13.33,6.67 -13.33,5.83 -14.17,6.67 -13.33,5.83 -13.34,5.84 -27.5,0 -13.33,6.66 -68.33,0 -13.34,-6.66 -13.33,0 -14.17,-5.84 -13.33,-5.83 -13.33,-6.67 -13.34,-5.83 -14.16,-5.83 -13.34,-6.67 -13.33,-12.5 -13.33,-11.67 -14.17,-18.33 -13.33,-12.5 -13.34,-6.67 -14.16,-18.33 -13.34,-11.67 -13.33,-19.16 -13.332,-18.34 L 980,1888.33 966.668,1870 953.332,1851.67 940,1833.33 925.832,1809.17 912.5,1790 l -13.332,-24.17 -13.336,-18.33 -14.164,-18.33 -13.336,-25 L 845,1680 l -13.332,-25 -14.168,-24.17 -13.332,-25 -13.336,-25 -13.332,-24.16 -14.168,-25 -13.332,-24.17 -13.332,-30.83 -13.336,-25 -14.164,-24.17 -13.336,-25 -13.332,-30 -13.332,-25 -14.168,-25 -13.332,-30 -13.336,-25 -13.332,-24.17 -13.332,-30.83 -14.168,-25 -5,-10"
         style="fill:none;stroke:#00cc00;stroke-width:20;stroke-linecap:butt;stroke-linejoin:round;stroke-miterlimit:10;stroke-opacity:1;stroke-dasharray:60;stroke-dashoffset:0"
         id="path494"
         inkscape:connector-curvature="0" /></g><g
       id="g498"
       clip-path="url(#clipPath500)"
       transform="scale(0.1,0.1)"><g
         id="g504"
         transform="scale(10,10)"><text
           transform="matrix(1,0,0,-1,204.167,14.5)"
           id="text506"><tspan
             style="font-size:14px;font-variant:normal;font-weight:normal;writing-mode:lr-tb;fill:#000000;fill-opacity:1;fill-rule:nonzero;stroke:none;font-family:Helvetica;-inkscape-font-specification:Helvetica"
             x="0 3.108 10.892"
             y="0"
             sodipodi:role="line"
             id="tspan508">log</tspan></text>
<text
           transform="matrix(1,0,0,-1,222.8334,7.5)"
           id="text510"><tspan
             style="font-size:11px;font-variant:normal;font-weight:normal;writing-mode:lr-tb;fill:#000000;fill-opacity:1;fill-rule:nonzero;stroke:none;font-family:Helvetica;-inkscape-font-specification:Helvetica"
             x="0 6.1160002"
             y="0"
             sodipodi:role="line"
             id="tspan512">10</tspan></text>
<text
           transform="matrix(1,0,0,-1,235.0002,14.5)"
           id="text514"><tspan
             style="font-size:14px;font-variant:normal;font-weight:normal;writing-mode:lr-tb;fill:#000000;fill-opacity:1;fill-rule:nonzero;stroke:none;font-family:Symbol;-inkscape-font-specification:Symbol"
             x="0"
             y="0"
             id="tspan516"></tspan></text>
<text
           transform="matrix(1,0,0,-1,241.0834,7.5)"
           id="text518"><tspan
             style="font-size:11px;font-variant:normal;font-weight:normal;writing-mode:lr-tb;fill:#000000;fill-opacity:1;fill-rule:nonzero;stroke:none;font-family:Helvetica;-inkscape-font-specification:Helvetica"
             x="0 6.1160002 12.232"
             y="0"
             sodipodi:role="line"
             id="tspan520">500</tspan></text>
<text
           transform="matrix(0,1,1,0,27.25,93.3332)"
           id="text522"><tspan
             style="font-size:14px;font-variant:normal;font-weight:normal;writing-mode:lr-tb;fill:#000000;fill-opacity:1;fill-rule:nonzero;stroke:none;font-family:Helvetica;-inkscape-font-specification:Helvetica"
             x="0"
             y="0"
             id="tspan524">d</tspan></text>
<text
           transform="matrix(0,1,1,0,27.25,104.9752)"
           id="text526"><tspan
             style="font-size:14px;font-style:oblique;font-variant:normal;writing-mode:lr-tb;fill:#000000;fill-opacity:1;fill-rule:nonzero;stroke:none;font-family:Helvetica;-inkscape-font-specification:Helvetica-Oblique"
             x="0"
             y="0"
             id="tspan528">P</tspan></text>
<text
           transform="matrix(0,1,1,0,27.25,114.25)"
           id="text530"><tspan
             style="font-size:14px;font-variant:normal;font-weight:normal;writing-mode:lr-tb;fill:#000000;fill-opacity:1;fill-rule:nonzero;stroke:none;font-family:Helvetica;-inkscape-font-specification:Helvetica"
             x="0 3.892 11.676 15.568 18.676001 26.459999 34.243999"
             y="0"
             sodipodi:role="line"
             id="tspan532">/d log </tspan></text>
<text
           transform="matrix(0,1,1,0,27.25,152.3332)"
           id="text534"><tspan
             style="font-size:14px;font-variant:normal;font-weight:normal;writing-mode:lr-tb;fill:#000000;fill-opacity:1;fill-rule:nonzero;stroke:none;font-family:Symbol;-inkscape-font-specification:Symbol"
             x="0"
             y="0"
             id="tspan536"></tspan></text>
<text
           transform="matrix(0,1,1,0,27.25,162.30879)"
           id="text538"><tspan
             style="font-size:14px;font-variant:normal;font-weight:normal;writing-mode:lr-tb;fill:#000000;fill-opacity:1;fill-rule:nonzero;stroke:none;font-family:Helvetica;-inkscape-font-specification:Helvetica"
             x="0 4.6620002 12.446 20.23 27.23 35.014 42.798 50.582001 54.473999 57.582001 60.689999 68.473999 76.258003 83.258003"
             y="0"
             sodipodi:role="line"
             id="tspan540">(dashed lines)</tspan></text>
</g></g><text
       style="font-size:12px"
       id="text168-7"
       x="83.673157"
       y="-237.58179"
       transform="scale(1,-1)"><tspan
         style="font-size:14px;font-variant:normal;font-weight:normal;writing-mode:lr-tb;fill:#000000;fill-opacity:1;fill-rule:nonzero;stroke:none;font-family:Helvetica;-inkscape-font-specification:Helvetica"
         sodipodi:role="line"
         id="tspan170-5"
         x="83.673157"
         y="-237.58179">[CI] 870nm</tspan></text>
<text
       style="font-size:12px;fill:#06cd06;fill-opacity:1"
       id="text168-7-1"
       x="164.32961"
       y="-188.88721"
       transform="scale(1,-1)"><tspan
         style="font-size:14px;font-variant:normal;font-weight:normal;writing-mode:lr-tb;fill:#06cd06;fill-opacity:1;fill-rule:nonzero;stroke:none;font-family:Helvetica;-inkscape-font-specification:Helvetica"
         sodipodi:role="line"
         id="tspan170-5-8"
         x="164.32961"
         y="-188.88721">[OI] 630nm</tspan></text>
<text
       style="font-size:12px;fill:#ff0aff;fill-opacity:1"
       id="text168-7-1-0"
       x="356.99774"
       y="195.20384"
       transform="matrix(0.53691195,0.84363829,0.84363829,-0.53691195,0,0)"><tspan
         style="font-size:14px;font-variant:normal;font-weight:normal;writing-mode:lr-tb;fill:#ff0aff;fill-opacity:1;fill-rule:nonzero;stroke:none;font-family:Helvetica;-inkscape-font-specification:Helvetica"
         sodipodi:role="line"
         id="tspan170-5-8-5"
         x="356.99774"
         y="195.20384">400nm</tspan></text>
<text
       style="font-size:12px;fill:#000000;fill-opacity:1"
       id="text168-7-1-0-0"
       x="350.80933"
       y="111.90929"
       transform="matrix(0.88255326,0.47021245,0.47021245,-0.88255326,0,0)"><tspan
         style="font-size:14px;font-variant:normal;font-weight:normal;writing-mode:lr-tb;fill:#000000;fill-opacity:1;fill-rule:nonzero;stroke:none;font-family:Helvetica;-inkscape-font-specification:Helvetica"
         sodipodi:role="line"
         id="tspan170-5-8-5-4"
         x="350.80933"
         y="111.90929">900nm</tspan></text>
</g></svg>