<?xml version="1.0" encoding="UTF-8" standalone="no"?>
<!DOCTYPE svg PUBLIC "-//W3C//DTD SVG 20010904//EN"
              "http://www.w3.org/TR/2001/REC-SVG-20010904/DTD/svg10.dtd">

<svg xmlns="http://www.w3.org/2000/svg"
     width="14.8472in" height="13.1667in"
     viewBox="0 0 1069 948">
  <path id="Axis_50-100_0-100"
        fill="none" stroke="black" stroke-width="1"
        d="M 875.00,819.00
           C 875.00,819.00 875.00,805.00 875.00,805.00
             875.00,805.00 169.00,805.00 169.00,805.00
             169.00,805.00 169.00,66.00 169.00,66.00
             169.00,66.00 155.00,66.00 155.00,66.00M 232.00,819.00
           C 232.00,819.00 232.00,805.00 232.00,805.00" />
  <path id="0.14pb"
        fill="none" stroke="black" stroke-width="1"
        d="M 720.00,266.00
           C 720.00,266.00 720.00,273.00 720.00,273.00
             720.00,273.00 708.00,273.00 708.00,273.00
             708.00,273.00 708.00,266.00 708.00,266.00
             708.00,266.00 720.00,266.00 720.00,266.00 Z
           M 694.00,281.00
           C 694.00,281.00 694.00,289.00 694.00,289.00
             694.00,289.00 681.00,289.00 681.00,289.00
             681.00,289.00 681.00,281.00 681.00,281.00
             681.00,281.00 694.00,281.00 694.00,281.00 Z
           M 643.00,296.00
           C 643.00,296.00 643.00,304.00 643.00,304.00
             643.00,304.00 630.00,304.00 630.00,304.00
             630.00,304.00 630.00,296.00 630.00,296.00
             630.00,296.00 643.00,296.00 643.00,296.00 Z
           M 694.00,296.00
           C 694.00,296.00 694.00,304.00 694.00,304.00
             694.00,304.00 681.00,304.00 681.00,304.00
             681.00,304.00 681.00,296.00 681.00,296.00
             681.00,296.00 694.00,296.00 694.00,296.00 Z
           M 643.00,311.00
           C 643.00,311.00 643.00,318.00 643.00,318.00
             643.00,318.00 630.00,318.00 630.00,318.00
             630.00,318.00 630.00,311.00 630.00,311.00
             630.00,311.00 643.00,311.00 643.00,311.00 Z
           M 823.00,318.00
           C 823.00,318.00 823.00,326.00 823.00,326.00
             823.00,326.00 836.00,326.00 836.00,326.00
             836.00,326.00 836.00,348.00 836.00,348.00
             836.00,348.00 849.00,348.00 849.00,348.00
             849.00,348.00 849.00,370.00 849.00,370.00
             849.00,370.00 836.00,370.00 836.00,370.00
             836.00,370.00 836.00,377.00 836.00,377.00
             836.00,377.00 849.00,377.00 849.00,377.00
             849.00,377.00 849.00,385.00 849.00,385.00
             849.00,385.00 836.00,385.00 836.00,385.00
             836.00,385.00 836.00,407.00 836.00,407.00
             836.00,407.00 797.00,407.00 797.00,407.00
             797.00,407.00 797.00,415.00 797.00,415.00
             797.00,415.00 810.00,415.00 810.00,415.00
             810.00,415.00 810.00,422.00 810.00,422.00
             810.00,422.00 797.00,422.00 797.00,422.00
             797.00,422.00 797.00,415.00 797.00,415.00
             797.00,415.00 784.00,415.00 784.00,415.00
             784.00,415.00 784.00,407.00 784.00,407.00
             784.00,407.00 758.00,407.00 758.00,407.00
             758.00,407.00 758.00,400.00 758.00,400.00
             758.00,400.00 746.00,400.00 746.00,400.00
             746.00,400.00 746.00,407.00 746.00,407.00
             746.00,407.00 708.00,407.00 708.00,407.00
             708.00,407.00 708.00,415.00 708.00,415.00
             708.00,415.00 694.00,415.00 694.00,415.00
             694.00,415.00 694.00,422.00 694.00,422.00
             694.00,422.00 656.00,422.00 656.00,422.00
             656.00,422.00 656.00,415.00 656.00,415.00
             656.00,415.00 669.00,415.00 669.00,415.00
             669.00,415.00 669.00,407.00 669.00,407.00
             669.00,407.00 681.00,407.00 681.00,407.00
             681.00,407.00 681.00,400.00 681.00,400.00
             681.00,400.00 694.00,400.00 694.00,400.00
             694.00,400.00 694.00,393.00 694.00,393.00
             694.00,393.00 681.00,393.00 681.00,393.00
             681.00,393.00 681.00,386.00 681.00,386.00
             681.00,386.00 694.00,386.00 694.00,386.00
             694.00,386.00 694.00,393.00 694.00,393.00
             694.00,393.00 708.00,393.00 708.00,393.00
             708.00,393.00 708.00,386.00 708.00,386.00
             708.00,386.00 720.00,386.00 720.00,386.00
             720.00,386.00 720.00,377.00 720.00,377.00
             720.00,377.00 708.00,377.00 708.00,377.00
             708.00,377.00 708.00,370.00 708.00,370.00
             708.00,370.00 720.00,370.00 720.00,370.00
             720.00,370.00 720.00,377.00 720.00,377.00
             720.00,377.00 733.00,377.00 733.00,377.00
             733.00,377.00 733.00,370.00 733.00,370.00
             733.00,370.00 746.00,370.00 746.00,370.00
             746.00,370.00 746.00,363.00 746.00,363.00
             746.00,363.00 758.00,363.00 758.00,363.00
             758.00,363.00 758.00,356.00 758.00,356.00
             758.00,356.00 772.00,356.00 772.00,356.00
             772.00,356.00 772.00,348.00 772.00,348.00
             772.00,348.00 784.00,348.00 784.00,348.00
             784.00,348.00 784.00,334.00 784.00,334.00
             784.00,334.00 798.00,334.00 798.00,334.00
             798.00,334.00 798.00,326.00 798.00,326.00
             798.00,326.00 810.00,326.00 810.00,326.00
             810.00,326.00 810.00,318.00 810.00,318.00
             810.00,318.00 823.00,318.00 823.00,318.00 Z
           M 669.00,325.00
           C 669.00,325.00 669.00,334.00 669.00,334.00
             669.00,334.00 656.00,334.00 656.00,334.00
             656.00,334.00 656.00,325.00 656.00,325.00
             656.00,325.00 669.00,325.00 669.00,325.00 Z
           M 643.00,340.00
           C 643.00,340.00 643.00,348.00 643.00,348.00
             643.00,348.00 630.00,348.00 630.00,348.00
             630.00,348.00 630.00,340.00 630.00,340.00
             630.00,340.00 643.00,340.00 643.00,340.00 Z
           M 669.00,340.00
           C 669.00,340.00 669.00,348.00 669.00,348.00
             669.00,348.00 656.00,348.00 656.00,348.00
             656.00,348.00 656.00,340.00 656.00,340.00
             656.00,340.00 669.00,340.00 669.00,340.00 Z
           M 694.00,356.00
           C 694.00,356.00 694.00,363.00 694.00,363.00
             694.00,363.00 681.00,363.00 681.00,363.00
             681.00,363.00 681.00,356.00 681.00,356.00
             681.00,356.00 694.00,356.00 694.00,356.00 Z
           M 643.00,370.00
           C 643.00,370.00 643.00,377.00 643.00,377.00
             643.00,377.00 630.00,377.00 630.00,377.00
             630.00,377.00 630.00,370.00 630.00,370.00
             630.00,370.00 643.00,370.00 643.00,370.00 Z
           M 669.00,370.00
           C 669.00,370.00 669.00,377.00 669.00,377.00
             669.00,377.00 656.00,377.00 656.00,377.00
             656.00,377.00 656.00,370.00 656.00,370.00
             656.00,370.00 669.00,370.00 669.00,370.00 Z
           M 643.00,386.00
           C 643.00,386.00 643.00,393.00 643.00,393.00
             643.00,393.00 630.00,393.00 630.00,393.00
             630.00,393.00 630.00,386.00 630.00,386.00
             630.00,386.00 643.00,386.00 643.00,386.00 Z
           M 617.00,400.00
           C 617.00,400.00 617.00,415.00 617.00,415.00
             617.00,415.00 605.00,415.00 605.00,415.00
             605.00,415.00 605.00,422.00 605.00,422.00
             605.00,422.00 579.00,422.00 579.00,422.00
             579.00,422.00 579.00,400.00 579.00,400.00
             579.00,400.00 617.00,400.00 617.00,400.00 Z
           M 541.00,415.00
           C 541.00,415.00 541.00,422.00 541.00,422.00
             541.00,422.00 565.00,422.00 565.00,422.00
             565.00,422.00 565.00,429.00 565.00,429.00
             565.00,429.00 527.00,429.00 527.00,429.00
             527.00,429.00 527.00,437.00 527.00,437.00
             527.00,437.00 514.00,437.00 514.00,437.00
             514.00,437.00 514.00,452.00 514.00,452.00
             514.00,452.00 476.00,452.00 476.00,452.00
             476.00,452.00 476.00,459.00 476.00,459.00
             476.00,459.00 449.00,459.00 449.00,459.00
             449.00,459.00 449.00,466.00 449.00,466.00
             449.00,466.00 412.00,466.00 412.00,466.00
             412.00,466.00 412.00,481.00 412.00,481.00
             412.00,481.00 374.00,481.00 374.00,481.00
             374.00,481.00 374.00,466.00 374.00,466.00
             374.00,466.00 386.00,466.00 386.00,466.00
             386.00,466.00 386.00,459.00 386.00,459.00
             386.00,459.00 398.00,459.00 398.00,459.00
             398.00,459.00 398.00,452.00 398.00,452.00
             398.00,452.00 412.00,452.00 412.00,452.00
             412.00,452.00 412.00,445.00 412.00,445.00
             412.00,445.00 463.00,445.00 463.00,445.00
             463.00,445.00 463.00,452.00 463.00,452.00
             463.00,452.00 476.00,452.00 476.00,452.00
             476.00,452.00 476.00,430.00 476.00,430.00
             476.00,430.00 489.00,430.00 489.00,430.00
             489.00,430.00 489.00,422.00 489.00,422.00
             489.00,422.00 514.00,422.00 514.00,422.00
             514.00,422.00 514.00,415.00 514.00,415.00
             514.00,415.00 541.00,415.00 541.00,415.00 Z
           M 643.00,415.00
           C 643.00,415.00 643.00,422.00 643.00,422.00
             643.00,422.00 630.00,422.00 630.00,422.00
             630.00,422.00 630.00,415.00 630.00,415.00
             630.00,415.00 643.00,415.00 643.00,415.00 Z
           M 617.00,429.00
           C 617.00,429.00 617.00,437.00 617.00,437.00
             617.00,437.00 643.00,437.00 643.00,437.00
             643.00,437.00 643.00,429.00 643.00,429.00
             643.00,429.00 669.00,429.00 669.00,429.00
             669.00,429.00 669.00,437.00 669.00,437.00
             669.00,437.00 694.00,437.00 694.00,437.00
             694.00,437.00 694.00,452.00 694.00,452.00
             694.00,452.00 708.00,452.00 708.00,452.00
             708.00,452.00 708.00,482.00 708.00,482.00
             708.00,482.00 656.00,482.00 656.00,482.00
             656.00,482.00 656.00,496.00 656.00,496.00
             656.00,496.00 669.00,496.00 669.00,496.00
             669.00,496.00 669.00,503.00 669.00,503.00
             669.00,503.00 630.00,503.00 630.00,503.00
             630.00,503.00 630.00,511.00 630.00,511.00
             630.00,511.00 617.00,511.00 617.00,511.00
             617.00,511.00 617.00,503.00 617.00,503.00
             617.00,503.00 605.00,503.00 605.00,503.00
             605.00,503.00 605.00,511.00 605.00,511.00
             605.00,511.00 579.00,511.00 579.00,511.00
             579.00,511.00 579.00,525.00 579.00,525.00
             579.00,525.00 565.00,525.00 565.00,525.00
             565.00,525.00 565.00,541.00 565.00,541.00
             565.00,541.00 541.00,541.00 541.00,541.00
             541.00,541.00 541.00,548.00 541.00,548.00
             541.00,548.00 527.00,548.00 527.00,548.00
             527.00,548.00 527.00,555.00 527.00,555.00
             527.00,555.00 514.00,555.00 514.00,555.00
             514.00,555.00 514.00,570.00 514.00,570.00
             514.00,570.00 502.00,570.00 502.00,570.00
             502.00,570.00 502.00,585.00 502.00,585.00
             502.00,585.00 489.00,585.00 489.00,585.00
             489.00,585.00 489.00,614.00 489.00,614.00
             489.00,614.00 476.00,614.00 476.00,614.00
             476.00,614.00 476.00,621.00 476.00,621.00
             476.00,621.00 463.00,621.00 463.00,621.00
             463.00,621.00 463.00,637.00 463.00,637.00
             463.00,637.00 476.00,637.00 476.00,637.00
             476.00,637.00 476.00,644.00 476.00,644.00
             476.00,644.00 489.00,644.00 489.00,644.00
             489.00,644.00 489.00,651.00 489.00,651.00
             489.00,651.00 502.00,651.00 502.00,651.00
             502.00,651.00 502.00,682.00 502.00,682.00
             502.00,682.00 489.00,682.00 489.00,682.00
             489.00,682.00 489.00,696.00 489.00,696.00
             489.00,696.00 476.00,696.00 476.00,696.00
             476.00,696.00 476.00,718.00 476.00,718.00
             476.00,718.00 463.00,718.00 463.00,718.00
             463.00,718.00 463.00,725.00 463.00,725.00
             463.00,725.00 450.00,725.00 450.00,725.00
             450.00,725.00 450.00,741.00 450.00,741.00
             450.00,741.00 437.00,741.00 437.00,741.00
             437.00,741.00 437.00,748.00 437.00,748.00
             437.00,748.00 424.00,748.00 424.00,748.00
             424.00,748.00 424.00,762.00 424.00,762.00
             424.00,762.00 412.00,762.00 412.00,762.00
             412.00,762.00 412.00,770.00 412.00,770.00
             412.00,770.00 398.00,770.00 398.00,770.00
             398.00,770.00 398.00,785.00 398.00,785.00
             398.00,785.00 386.00,785.00 386.00,785.00
             386.00,785.00 386.00,800.00 386.00,800.00
             386.00,800.00 374.00,800.00 374.00,800.00
             374.00,800.00 374.00,805.00 374.00,805.00
             374.00,805.00 169.00,805.00 169.00,805.00
             169.00,805.00 169.00,689.00 169.00,689.00
             169.00,689.00 218.00,689.00 218.00,689.00
             218.00,689.00 218.00,681.00 218.00,681.00
             218.00,681.00 245.00,681.00 245.00,681.00
             245.00,681.00 245.00,666.00 245.00,666.00
             245.00,666.00 257.00,666.00 257.00,666.00
             257.00,666.00 257.00,659.00 257.00,659.00
             257.00,659.00 283.00,659.00 283.00,659.00
             283.00,659.00 283.00,651.00 283.00,651.00
             283.00,651.00 296.00,651.00 296.00,651.00
             296.00,651.00 296.00,644.00 296.00,644.00
             296.00,644.00 309.00,644.00 309.00,644.00
             309.00,644.00 309.00,629.00 309.00,629.00
             309.00,629.00 334.00,629.00 334.00,629.00
             334.00,629.00 334.00,622.00 334.00,622.00
             334.00,622.00 347.00,622.00 347.00,622.00
             347.00,622.00 347.00,614.00 347.00,614.00
             347.00,614.00 360.00,614.00 360.00,614.00
             360.00,614.00 360.00,599.00 360.00,599.00
             360.00,599.00 374.00,599.00 374.00,599.00
             374.00,599.00 374.00,585.00 374.00,585.00
             374.00,585.00 385.00,585.00 385.00,585.00
             385.00,585.00 385.00,578.00 385.00,578.00
             385.00,578.00 412.00,578.00 412.00,578.00
             412.00,578.00 412.00,570.00 412.00,570.00
             412.00,570.00 449.00,570.00 449.00,570.00
             449.00,570.00 449.00,562.00 449.00,562.00
             449.00,562.00 463.00,562.00 463.00,562.00
             463.00,562.00 463.00,541.00 463.00,541.00
             463.00,541.00 514.00,541.00 514.00,541.00
             514.00,541.00 514.00,511.00 514.00,511.00
             514.00,511.00 553.00,511.00 553.00,511.00
             553.00,511.00 553.00,482.00 553.00,482.00
             553.00,482.00 527.00,482.00 527.00,482.00
             527.00,482.00 527.00,474.00 527.00,474.00
             527.00,474.00 541.00,474.00 541.00,474.00
             541.00,474.00 541.00,459.00 541.00,459.00
             541.00,459.00 565.00,459.00 565.00,459.00
             565.00,459.00 565.00,474.00 565.00,474.00
             565.00,474.00 579.00,474.00 579.00,474.00
             579.00,474.00 579.00,459.00 579.00,459.00
             579.00,459.00 605.00,459.00 605.00,459.00
             605.00,459.00 605.00,452.00 605.00,452.00
             605.00,452.00 579.00,452.00 579.00,452.00
             579.00,452.00 579.00,437.00 579.00,437.00
             579.00,437.00 591.00,437.00 591.00,437.00
             591.00,437.00 591.00,429.00 591.00,429.00
             591.00,429.00 617.00,429.00 617.00,429.00 Z
           M 772.00,445.00
           C 772.00,445.00 772.00,452.00 772.00,452.00
             772.00,452.00 758.00,452.00 758.00,452.00
             758.00,452.00 758.00,445.00 758.00,445.00
             758.00,445.00 772.00,445.00 772.00,445.00 Z
           M 772.00,459.00
           C 772.00,459.00 772.00,466.00 772.00,466.00
             772.00,466.00 758.00,466.00 758.00,466.00
             758.00,466.00 758.00,459.00 758.00,459.00
             758.00,459.00 772.00,459.00 772.00,459.00 Z
           M 772.00,474.00
           C 772.00,474.00 772.00,482.00 772.00,482.00
             772.00,482.00 758.00,482.00 758.00,482.00
             758.00,482.00 758.00,474.00 758.00,474.00
             758.00,474.00 772.00,474.00 772.00,474.00 Z
           M 360.00,489.00
           C 360.00,489.00 360.00,511.00 360.00,511.00
             360.00,511.00 322.00,511.00 322.00,511.00
             322.00,511.00 322.00,496.00 322.00,496.00
             322.00,496.00 334.00,496.00 334.00,496.00
             334.00,496.00 334.00,489.00 334.00,489.00
             334.00,489.00 360.00,489.00 360.00,489.00 Z
           M 514.00,489.00
           C 514.00,489.00 514.00,503.00 514.00,503.00
             514.00,503.00 489.00,503.00 489.00,503.00
             489.00,503.00 489.00,511.00 489.00,511.00
             489.00,511.00 476.00,511.00 476.00,511.00
             476.00,511.00 476.00,503.00 476.00,503.00
             476.00,503.00 489.00,503.00 489.00,503.00
             489.00,503.00 489.00,496.00 489.00,496.00
             489.00,496.00 501.00,496.00 501.00,496.00
             501.00,496.00 501.00,489.00 501.00,489.00
             501.00,489.00 514.00,489.00 514.00,489.00 Z
           M 694.00,489.00
           C 694.00,489.00 694.00,496.00 694.00,496.00
             694.00,496.00 682.00,496.00 682.00,496.00
             682.00,496.00 682.00,489.00 682.00,489.00
             682.00,489.00 694.00,489.00 694.00,489.00 Z
           M 309.00,518.00
           C 309.00,518.00 309.00,533.00 309.00,533.00
             309.00,533.00 296.00,533.00 296.00,533.00
             296.00,533.00 296.00,541.00 296.00,541.00
             296.00,541.00 270.00,541.00 270.00,541.00
             270.00,541.00 270.00,518.00 270.00,518.00
             270.00,518.00 309.00,518.00 309.00,518.00 Z
           M 463.00,518.00
           C 463.00,518.00 463.00,525.00 463.00,525.00
             463.00,525.00 449.00,525.00 449.00,525.00
             449.00,525.00 449.00,533.00 449.00,533.00
             449.00,533.00 437.00,533.00 437.00,533.00
             437.00,533.00 437.00,525.00 437.00,525.00
             437.00,525.00 449.00,525.00 449.00,525.00
             449.00,525.00 449.00,518.00 449.00,518.00
             449.00,518.00 463.00,518.00 463.00,518.00 Z
           M 643.00,518.00
           C 643.00,518.00 643.00,525.00 643.00,525.00
             643.00,525.00 630.00,525.00 630.00,525.00
             630.00,525.00 630.00,518.00 630.00,518.00
             630.00,518.00 643.00,518.00 643.00,518.00 Z
           M 643.00,533.00
           C 643.00,533.00 643.00,541.00 643.00,541.00
             643.00,541.00 630.00,541.00 630.00,541.00
             630.00,541.00 630.00,533.00 630.00,533.00
             630.00,533.00 643.00,533.00 643.00,533.00 Z
           M 257.00,548.00
           C 257.00,548.00 257.00,555.00 257.00,555.00
             257.00,555.00 245.00,555.00 245.00,555.00
             245.00,555.00 245.00,562.00 245.00,562.00
             245.00,562.00 232.00,562.00 232.00,562.00
             232.00,562.00 232.00,570.00 232.00,570.00
             232.00,570.00 218.00,570.00 218.00,570.00
             218.00,570.00 218.00,555.00 218.00,555.00
             218.00,555.00 232.00,555.00 232.00,555.00
             232.00,555.00 232.00,548.00 232.00,548.00
             232.00,548.00 257.00,548.00 257.00,548.00 Z
           M 746.00,548.00
           C 746.00,548.00 746.00,555.00 746.00,555.00
             746.00,555.00 733.00,555.00 733.00,555.00
             733.00,555.00 733.00,548.00 733.00,548.00
             733.00,548.00 746.00,548.00 746.00,548.00 Z
           M 398.00,555.00
           C 398.00,555.00 398.00,562.00 398.00,562.00
             398.00,562.00 385.00,562.00 385.00,562.00
             385.00,562.00 385.00,555.00 385.00,555.00
             385.00,555.00 398.00,555.00 398.00,555.00 Z
           M 720.00,563.00
           C 720.00,563.00 720.00,570.00 720.00,570.00
             720.00,570.00 708.00,570.00 708.00,570.00
             708.00,570.00 708.00,563.00 708.00,563.00
             708.00,563.00 720.00,563.00 720.00,563.00 Z
           M 746.00,578.00
           C 746.00,578.00 746.00,585.00 746.00,585.00
             746.00,585.00 733.00,585.00 733.00,585.00
             733.00,585.00 733.00,578.00 733.00,578.00
             733.00,578.00 746.00,578.00 746.00,578.00 Z
           M 347.00,585.00
           C 347.00,585.00 347.00,592.00 347.00,592.00
             347.00,592.00 334.00,592.00 334.00,592.00
             334.00,592.00 334.00,585.00 334.00,585.00
             334.00,585.00 347.00,585.00 347.00,585.00 Z
           M 694.00,607.00
           C 694.00,607.00 694.00,614.00 694.00,614.00
             694.00,614.00 681.00,614.00 681.00,614.00
             681.00,614.00 681.00,607.00 681.00,607.00
             681.00,607.00 694.00,607.00 694.00,607.00 Z
           M 296.00,614.00
           C 296.00,614.00 296.00,621.00 296.00,621.00
             296.00,621.00 283.00,621.00 283.00,621.00
             283.00,621.00 283.00,614.00 283.00,614.00
             283.00,614.00 296.00,614.00 296.00,614.00 Z
           M 720.00,637.00
           C 720.00,637.00 720.00,644.00 720.00,644.00
             720.00,644.00 708.00,644.00 708.00,644.00
             708.00,644.00 708.00,637.00 708.00,637.00
             708.00,637.00 720.00,637.00 720.00,637.00 Z
           M 245.00,644.00
           C 245.00,644.00 245.00,651.00 245.00,651.00
             245.00,651.00 232.00,651.00 232.00,651.00
             232.00,651.00 232.00,644.00 232.00,644.00
             232.00,644.00 245.00,644.00 245.00,644.00 Z
           M 746.00,666.00
           C 746.00,666.00 746.00,673.00 746.00,673.00
             746.00,673.00 733.00,673.00 733.00,673.00
             733.00,673.00 733.00,666.00 733.00,666.00
             733.00,666.00 746.00,666.00 746.00,666.00 Z
           M 514.00,755.00
           C 514.00,755.00 514.00,777.00 514.00,777.00
             514.00,777.00 476.00,777.00 476.00,777.00
             476.00,777.00 476.00,755.00 476.00,755.00
             476.00,755.00 514.00,755.00 514.00,755.00 Z" />
  <path id="0.21pb"
        fill="none" stroke="black" stroke-width="1"
        d="M 836.00,215.00
           C 836.00,215.00 836.00,237.00 836.00,237.00
             836.00,237.00 849.00,237.00 849.00,237.00
             849.00,237.00 849.00,244.00 849.00,244.00
             849.00,244.00 823.00,244.00 823.00,244.00
             823.00,244.00 823.00,259.00 823.00,259.00
             823.00,259.00 784.00,259.00 784.00,259.00
             784.00,259.00 784.00,266.00 784.00,266.00
             784.00,266.00 823.00,266.00 823.00,266.00
             823.00,266.00 823.00,289.00 823.00,289.00
             823.00,289.00 836.00,289.00 836.00,289.00
             836.00,289.00 836.00,304.00 836.00,304.00
             836.00,304.00 849.00,304.00 849.00,304.00
             849.00,304.00 849.00,296.00 849.00,296.00
             849.00,296.00 874.00,296.00 874.00,296.00
             874.00,296.00 874.00,333.00 874.00,333.00
             874.00,333.00 887.00,333.00 887.00,333.00
             887.00,333.00 887.00,386.00 887.00,386.00
             887.00,386.00 874.00,386.00 874.00,386.00
             874.00,386.00 874.00,466.00 874.00,466.00
             874.00,466.00 862.00,466.00 862.00,466.00
             862.00,466.00 862.00,481.00 862.00,481.00
             862.00,481.00 874.00,481.00 874.00,481.00
             874.00,481.00 874.00,548.00 874.00,548.00
             874.00,548.00 862.00,548.00 862.00,548.00
             862.00,548.00 862.00,562.00 862.00,562.00
             862.00,562.00 874.00,562.00 874.00,562.00
             874.00,562.00 874.00,805.00 874.00,805.00
             874.00,805.00 169.00,805.00 169.00,805.00
             169.00,805.00 169.00,548.00 169.00,548.00
             169.00,548.00 180.00,548.00 180.00,548.00
             180.00,548.00 180.00,541.00 180.00,541.00
             180.00,541.00 193.00,541.00 193.00,541.00
             193.00,541.00 193.00,533.00 193.00,533.00
             193.00,533.00 206.00,533.00 206.00,533.00
             206.00,533.00 206.00,518.00 206.00,518.00
             206.00,518.00 218.00,518.00 218.00,518.00
             218.00,518.00 218.00,511.00 218.00,511.00
             218.00,511.00 257.00,511.00 257.00,511.00
             257.00,511.00 257.00,489.00 257.00,489.00
             257.00,489.00 283.00,489.00 283.00,489.00
             283.00,489.00 283.00,482.00 283.00,482.00
             283.00,482.00 309.00,482.00 309.00,482.00
             309.00,482.00 309.00,466.00 309.00,466.00
             309.00,466.00 322.00,466.00 322.00,466.00
             322.00,466.00 322.00,459.00 322.00,459.00
             322.00,459.00 334.00,459.00 334.00,459.00
             334.00,459.00 334.00,452.00 334.00,452.00
             334.00,452.00 360.00,452.00 360.00,452.00
             360.00,452.00 360.00,422.00 360.00,422.00
             360.00,422.00 374.00,422.00 374.00,422.00
             374.00,422.00 374.00,415.00 374.00,415.00
             374.00,415.00 386.00,415.00 386.00,415.00
             386.00,415.00 386.00,407.00 386.00,407.00
             386.00,407.00 398.00,407.00 398.00,407.00
             398.00,407.00 398.00,400.00 398.00,400.00
             398.00,400.00 412.00,400.00 412.00,400.00
             412.00,400.00 412.00,393.00 412.00,393.00
             412.00,393.00 424.00,393.00 424.00,393.00
             424.00,393.00 424.00,385.00 424.00,385.00
             424.00,385.00 438.00,385.00 438.00,385.00
             438.00,385.00 438.00,377.00 438.00,377.00
             438.00,377.00 450.00,377.00 450.00,377.00
             450.00,377.00 450.00,370.00 450.00,370.00
             450.00,370.00 463.00,370.00 463.00,370.00
             463.00,370.00 463.00,363.00 463.00,363.00
             463.00,363.00 476.00,363.00 476.00,363.00
             476.00,363.00 476.00,356.00 476.00,356.00
             476.00,356.00 489.00,356.00 489.00,356.00
             489.00,356.00 489.00,363.00 489.00,363.00
             489.00,363.00 514.00,363.00 514.00,363.00
             514.00,363.00 514.00,356.00 514.00,356.00
             514.00,356.00 527.00,356.00 527.00,356.00
             527.00,356.00 527.00,348.00 527.00,348.00
             527.00,348.00 541.00,348.00 541.00,348.00
             541.00,348.00 541.00,341.00 541.00,341.00
             541.00,341.00 553.00,341.00 553.00,341.00
             553.00,341.00 553.00,334.00 553.00,334.00
             553.00,334.00 579.00,334.00 579.00,334.00
             579.00,334.00 579.00,325.00 579.00,325.00
             579.00,325.00 591.00,325.00 591.00,325.00
             591.00,325.00 591.00,311.00 591.00,311.00
             591.00,311.00 605.00,311.00 605.00,311.00
             605.00,311.00 605.00,304.00 605.00,304.00
             605.00,304.00 618.00,304.00 618.00,304.00
             618.00,304.00 618.00,289.00 618.00,289.00
             618.00,289.00 643.00,289.00 643.00,289.00
             643.00,289.00 643.00,281.00 643.00,281.00
             643.00,281.00 656.00,281.00 656.00,281.00
             656.00,281.00 656.00,273.00 656.00,273.00
             656.00,273.00 669.00,273.00 669.00,273.00
             669.00,273.00 669.00,266.00 669.00,266.00
             669.00,266.00 694.00,266.00 694.00,266.00
             694.00,266.00 694.00,259.00 694.00,259.00
             694.00,259.00 708.00,259.00 708.00,259.00
             708.00,259.00 708.00,252.00 708.00,252.00
             708.00,252.00 720.00,252.00 720.00,252.00
             720.00,252.00 720.00,244.00 720.00,244.00
             720.00,244.00 746.00,244.00 746.00,244.00
             746.00,244.00 746.00,237.00 746.00,237.00
             746.00,237.00 758.00,237.00 758.00,237.00
             758.00,237.00 758.00,229.00 758.00,229.00
             758.00,229.00 784.00,229.00 784.00,229.00
             784.00,229.00 784.00,222.00 784.00,222.00
             784.00,222.00 797.00,222.00 797.00,222.00
             797.00,222.00 797.00,215.00 797.00,215.00
             797.00,215.00 836.00,215.00 836.00,215.00 Z
           M 450.00,377.00
           C 450.00,377.00 450.00,385.00 450.00,385.00
             450.00,385.00 438.00,385.00 438.00,385.00
             438.00,385.00 438.00,393.00 438.00,393.00
             438.00,393.00 463.00,393.00 463.00,393.00
             463.00,393.00 463.00,377.00 463.00,377.00
             463.00,377.00 450.00,377.00 450.00,377.00 Z
           M 398.00,407.00
           C 398.00,407.00 398.00,415.00 398.00,415.00
             398.00,415.00 386.00,415.00 386.00,415.00
             386.00,415.00 386.00,422.00 386.00,422.00
             386.00,422.00 412.00,422.00 412.00,422.00
             412.00,422.00 412.00,407.00 412.00,407.00
             412.00,407.00 398.00,407.00 398.00,407.00 Z" />
  <path id="0.28pb"
        fill="none" stroke="black" stroke-width="1"
        d="M 887.00,170.00
           C 887.00,170.00 887.00,178.00 887.00,178.00
             887.00,178.00 874.00,178.00 874.00,178.00
             874.00,178.00 874.00,200.00 874.00,200.00
             874.00,200.00 887.00,200.00 887.00,200.00
             887.00,200.00 887.00,215.00 887.00,215.00
             887.00,215.00 874.00,215.00 874.00,215.00
             874.00,215.00 874.00,222.00 874.00,222.00
             874.00,222.00 887.00,222.00 887.00,222.00
             887.00,222.00 887.00,237.00 887.00,237.00
             887.00,237.00 874.00,237.00 874.00,237.00
             874.00,237.00 874.00,282.00 874.00,282.00
             874.00,282.00 887.00,282.00 887.00,282.00
             887.00,282.00 887.00,333.00 887.00,333.00
             887.00,333.00 900.00,333.00 900.00,333.00
             900.00,333.00 900.00,393.00 900.00,393.00
             900.00,393.00 887.00,393.00 887.00,393.00
             887.00,393.00 887.00,422.00 887.00,422.00
             887.00,422.00 900.00,422.00 900.00,422.00
             900.00,422.00 900.00,429.00 900.00,429.00
             900.00,429.00 887.00,429.00 887.00,429.00
             887.00,429.00 887.00,805.00 887.00,805.00
             887.00,805.00 169.00,805.00 169.00,805.00
             169.00,805.00 169.00,526.00 169.00,526.00
             169.00,526.00 180.00,526.00 180.00,526.00
             180.00,526.00 180.00,518.00 180.00,518.00
             180.00,518.00 193.00,518.00 193.00,518.00
             193.00,518.00 193.00,511.00 193.00,511.00
             193.00,511.00 206.00,511.00 206.00,511.00
             206.00,511.00 206.00,503.00 206.00,503.00
             206.00,503.00 218.00,503.00 218.00,503.00
             218.00,503.00 218.00,496.00 218.00,496.00
             218.00,496.00 232.00,496.00 232.00,496.00
             232.00,496.00 232.00,489.00 232.00,489.00
             232.00,489.00 245.00,489.00 245.00,489.00
             245.00,489.00 245.00,482.00 245.00,482.00
             245.00,482.00 257.00,482.00 257.00,482.00
             257.00,482.00 257.00,466.00 257.00,466.00
             257.00,466.00 270.00,466.00 270.00,466.00
             270.00,466.00 270.00,459.00 270.00,459.00
             270.00,459.00 283.00,459.00 283.00,459.00
             283.00,459.00 283.00,452.00 283.00,452.00
             283.00,452.00 309.00,452.00 309.00,452.00
             309.00,452.00 309.00,445.00 309.00,445.00
             309.00,445.00 322.00,445.00 322.00,445.00
             322.00,445.00 322.00,437.00 322.00,437.00
             322.00,437.00 335.00,437.00 335.00,437.00
             335.00,437.00 335.00,430.00 335.00,430.00
             335.00,430.00 347.00,430.00 347.00,430.00
             347.00,430.00 347.00,422.00 347.00,422.00
             347.00,422.00 360.00,422.00 360.00,422.00
             360.00,422.00 360.00,415.00 360.00,415.00
             360.00,415.00 374.00,415.00 374.00,415.00
             374.00,415.00 374.00,407.00 374.00,407.00
             374.00,407.00 386.00,407.00 386.00,407.00
             386.00,407.00 386.00,400.00 386.00,400.00
             386.00,400.00 398.00,400.00 398.00,400.00
             398.00,400.00 398.00,393.00 398.00,393.00
             398.00,393.00 412.00,393.00 412.00,393.00
             412.00,393.00 412.00,385.00 412.00,385.00
             412.00,385.00 424.00,385.00 424.00,385.00
             424.00,385.00 424.00,377.00 424.00,377.00
             424.00,377.00 438.00,377.00 438.00,377.00
             438.00,377.00 438.00,370.00 438.00,370.00
             438.00,370.00 450.00,370.00 450.00,370.00
             450.00,370.00 450.00,363.00 450.00,363.00
             450.00,363.00 463.00,363.00 463.00,363.00
             463.00,363.00 463.00,356.00 463.00,356.00
             463.00,356.00 489.00,356.00 489.00,356.00
             489.00,356.00 489.00,348.00 489.00,348.00
             489.00,348.00 502.00,348.00 502.00,348.00
             502.00,348.00 502.00,341.00 502.00,341.00
             502.00,341.00 514.00,341.00 514.00,341.00
             514.00,341.00 514.00,326.00 514.00,326.00
             514.00,326.00 541.00,326.00 541.00,326.00
             541.00,326.00 541.00,318.00 541.00,318.00
             541.00,318.00 553.00,318.00 553.00,318.00
             553.00,318.00 553.00,311.00 553.00,311.00
             553.00,311.00 566.00,311.00 566.00,311.00
             566.00,311.00 566.00,304.00 566.00,304.00
             566.00,304.00 579.00,304.00 579.00,304.00
             579.00,304.00 579.00,296.00 579.00,296.00
             579.00,296.00 591.00,296.00 591.00,296.00
             591.00,296.00 591.00,289.00 591.00,289.00
             591.00,289.00 605.00,289.00 605.00,289.00
             605.00,289.00 605.00,282.00 605.00,282.00
             605.00,282.00 618.00,282.00 618.00,282.00
             618.00,282.00 618.00,274.00 618.00,274.00
             618.00,274.00 631.00,274.00 631.00,274.00
             631.00,274.00 631.00,266.00 631.00,266.00
             631.00,266.00 643.00,266.00 643.00,266.00
             643.00,266.00 643.00,259.00 643.00,259.00
             643.00,259.00 669.00,259.00 669.00,259.00
             669.00,259.00 669.00,244.00 669.00,244.00
             669.00,244.00 694.00,244.00 694.00,244.00
             694.00,244.00 694.00,237.00 694.00,237.00
             694.00,237.00 708.00,237.00 708.00,237.00
             708.00,237.00 708.00,229.00 708.00,229.00
             708.00,229.00 720.00,229.00 720.00,229.00
             720.00,229.00 720.00,222.00 720.00,222.00
             720.00,222.00 733.00,222.00 733.00,222.00
             733.00,222.00 733.00,215.00 733.00,215.00
             733.00,215.00 758.00,215.00 758.00,215.00
             758.00,215.00 758.00,207.00 758.00,207.00
             758.00,207.00 772.00,207.00 772.00,207.00
             772.00,207.00 772.00,200.00 772.00,200.00
             772.00,200.00 797.00,200.00 797.00,200.00
             797.00,200.00 797.00,186.00 797.00,186.00
             797.00,186.00 836.00,186.00 836.00,186.00
             836.00,186.00 836.00,177.00 836.00,177.00
             836.00,177.00 849.00,177.00 849.00,177.00
             849.00,177.00 849.00,170.00 849.00,170.00
             849.00,170.00 887.00,170.00 887.00,170.00 Z
           M 553.00,318.00
           C 553.00,318.00 553.00,326.00 553.00,326.00
             553.00,326.00 541.00,326.00 541.00,326.00
             541.00,326.00 541.00,334.00 541.00,334.00
             541.00,334.00 566.00,334.00 566.00,334.00
             566.00,334.00 566.00,318.00 566.00,318.00
             566.00,318.00 553.00,318.00 553.00,318.00 Z
           M 502.00,348.00
           C 502.00,348.00 502.00,356.00 502.00,356.00
             502.00,356.00 514.00,356.00 514.00,356.00
             514.00,356.00 514.00,348.00 514.00,348.00
             514.00,348.00 502.00,348.00 502.00,348.00 Z
           M 489.00,356.00
           C 489.00,356.00 489.00,363.00 489.00,363.00
             489.00,363.00 502.00,363.00 502.00,363.00
             502.00,363.00 502.00,356.00 502.00,356.00
             502.00,356.00 489.00,356.00 489.00,356.00 Z
           M 450.00,377.00
           C 450.00,377.00 450.00,385.00 450.00,385.00
             450.00,385.00 463.00,385.00 463.00,385.00
             463.00,385.00 463.00,377.00 463.00,377.00
             463.00,377.00 450.00,377.00 450.00,377.00 Z
           M 438.00,385.00
           C 438.00,385.00 438.00,393.00 438.00,393.00
             438.00,393.00 450.00,393.00 450.00,393.00
             450.00,393.00 450.00,385.00 450.00,385.00
             450.00,385.00 438.00,385.00 438.00,385.00 Z
           M 334.00,445.00
           C 334.00,445.00 334.00,452.00 334.00,452.00
             334.00,452.00 347.00,452.00 347.00,452.00
             347.00,452.00 347.00,445.00 347.00,445.00
             347.00,445.00 334.00,445.00 334.00,445.00 Z
           M 296.00,466.00
           C 296.00,466.00 296.00,474.00 296.00,474.00
             296.00,474.00 309.00,474.00 309.00,474.00
             309.00,474.00 309.00,466.00 309.00,466.00
             309.00,466.00 296.00,466.00 296.00,466.00 Z
           M 283.00,474.00
           C 283.00,474.00 283.00,482.00 283.00,482.00
             283.00,482.00 296.00,482.00 296.00,482.00
             296.00,482.00 296.00,474.00 296.00,474.00
             296.00,474.00 283.00,474.00 283.00,474.00 Z" />
  <path id="0.35pb"
        fill="none" stroke="black" stroke-width="1"
        d="M 887.00,156.00
           C 887.00,156.00 887.00,170.00 887.00,170.00
             887.00,170.00 900.00,170.00 900.00,170.00
             900.00,170.00 900.00,178.00 900.00,178.00
             900.00,178.00 887.00,178.00 887.00,178.00
             887.00,178.00 887.00,193.00 887.00,193.00
             887.00,193.00 900.00,193.00 900.00,193.00
             900.00,193.00 900.00,215.00 900.00,215.00
             900.00,215.00 887.00,215.00 887.00,215.00
             887.00,215.00 887.00,222.00 887.00,222.00
             887.00,222.00 900.00,222.00 900.00,222.00
             900.00,222.00 900.00,237.00 900.00,237.00
             900.00,237.00 887.00,237.00 887.00,237.00
             887.00,237.00 887.00,273.00 887.00,273.00
             887.00,273.00 900.00,273.00 900.00,273.00
             900.00,273.00 900.00,805.00 900.00,805.00
             900.00,805.00 169.00,805.00 169.00,805.00
             169.00,805.00 169.00,518.00 169.00,518.00
             169.00,518.00 180.00,518.00 180.00,518.00
             180.00,518.00 180.00,511.00 180.00,511.00
             180.00,511.00 193.00,511.00 193.00,511.00
             193.00,511.00 193.00,503.00 193.00,503.00
             193.00,503.00 206.00,503.00 206.00,503.00
             206.00,503.00 206.00,496.00 206.00,496.00
             206.00,496.00 218.00,496.00 218.00,496.00
             218.00,496.00 218.00,489.00 218.00,489.00
             218.00,489.00 232.00,489.00 232.00,489.00
             232.00,489.00 232.00,482.00 232.00,482.00
             232.00,482.00 245.00,482.00 245.00,482.00
             245.00,482.00 245.00,474.00 245.00,474.00
             245.00,474.00 257.00,474.00 257.00,474.00
             257.00,474.00 257.00,466.00 257.00,466.00
             257.00,466.00 270.00,466.00 270.00,466.00
             270.00,466.00 270.00,459.00 270.00,459.00
             270.00,459.00 283.00,459.00 283.00,459.00
             283.00,459.00 283.00,452.00 283.00,452.00
             283.00,452.00 296.00,452.00 296.00,452.00
             296.00,452.00 296.00,445.00 296.00,445.00
             296.00,445.00 309.00,445.00 309.00,445.00
             309.00,445.00 309.00,437.00 309.00,437.00
             309.00,437.00 322.00,437.00 322.00,437.00
             322.00,437.00 322.00,430.00 322.00,430.00
             322.00,430.00 335.00,430.00 335.00,430.00
             335.00,430.00 335.00,422.00 335.00,422.00
             335.00,422.00 347.00,422.00 347.00,422.00
             347.00,422.00 347.00,415.00 347.00,415.00
             347.00,415.00 360.00,415.00 360.00,415.00
             360.00,415.00 360.00,407.00 360.00,407.00
             360.00,407.00 374.00,407.00 374.00,407.00
             374.00,407.00 374.00,400.00 374.00,400.00
             374.00,400.00 386.00,400.00 386.00,400.00
             386.00,400.00 386.00,393.00 386.00,393.00
             386.00,393.00 398.00,393.00 398.00,393.00
             398.00,393.00 398.00,385.00 398.00,385.00
             398.00,385.00 412.00,385.00 412.00,385.00
             412.00,385.00 412.00,377.00 412.00,377.00
             412.00,377.00 424.00,377.00 424.00,377.00
             424.00,377.00 424.00,370.00 424.00,370.00
             424.00,370.00 438.00,370.00 438.00,370.00
             438.00,370.00 438.00,363.00 438.00,363.00
             438.00,363.00 450.00,363.00 450.00,363.00
             450.00,363.00 450.00,356.00 450.00,356.00
             450.00,356.00 476.00,356.00 476.00,356.00
             476.00,356.00 476.00,348.00 476.00,348.00
             476.00,348.00 489.00,348.00 489.00,348.00
             489.00,348.00 489.00,334.00 489.00,334.00
             489.00,334.00 502.00,334.00 502.00,334.00
             502.00,334.00 502.00,326.00 502.00,326.00
             502.00,326.00 514.00,326.00 514.00,326.00
             514.00,326.00 514.00,318.00 514.00,318.00
             514.00,318.00 541.00,318.00 541.00,318.00
             541.00,318.00 541.00,311.00 541.00,311.00
             541.00,311.00 553.00,311.00 553.00,311.00
             553.00,311.00 553.00,304.00 553.00,304.00
             553.00,304.00 566.00,304.00 566.00,304.00
             566.00,304.00 566.00,296.00 566.00,296.00
             566.00,296.00 579.00,296.00 579.00,296.00
             579.00,296.00 579.00,289.00 579.00,289.00
             579.00,289.00 591.00,289.00 591.00,289.00
             591.00,289.00 591.00,282.00 591.00,282.00
             591.00,282.00 605.00,282.00 605.00,282.00
             605.00,282.00 605.00,274.00 605.00,274.00
             605.00,274.00 618.00,274.00 618.00,274.00
             618.00,274.00 618.00,266.00 618.00,266.00
             618.00,266.00 631.00,266.00 631.00,266.00
             631.00,266.00 631.00,259.00 631.00,259.00
             631.00,259.00 643.00,259.00 643.00,259.00
             643.00,259.00 643.00,252.00 643.00,252.00
             643.00,252.00 656.00,252.00 656.00,252.00
             656.00,252.00 656.00,244.00 656.00,244.00
             656.00,244.00 681.00,244.00 681.00,244.00
             681.00,244.00 681.00,237.00 681.00,237.00
             681.00,237.00 694.00,237.00 694.00,237.00
             694.00,237.00 694.00,229.00 694.00,229.00
             694.00,229.00 708.00,229.00 708.00,229.00
             708.00,229.00 708.00,222.00 708.00,222.00
             708.00,222.00 720.00,222.00 720.00,222.00
             720.00,222.00 720.00,215.00 720.00,215.00
             720.00,215.00 733.00,215.00 733.00,215.00
             733.00,215.00 733.00,207.00 733.00,207.00
             733.00,207.00 746.00,207.00 746.00,207.00
             746.00,207.00 746.00,200.00 746.00,200.00
             746.00,200.00 758.00,200.00 758.00,200.00
             758.00,200.00 758.00,193.00 758.00,193.00
             758.00,193.00 784.00,193.00 784.00,193.00
             784.00,193.00 784.00,186.00 784.00,186.00
             784.00,186.00 797.00,186.00 797.00,186.00
             797.00,186.00 797.00,177.00 797.00,177.00
             797.00,177.00 810.00,177.00 810.00,177.00
             810.00,177.00 810.00,170.00 810.00,170.00
             810.00,170.00 836.00,170.00 836.00,170.00
             836.00,170.00 836.00,163.00 836.00,163.00
             836.00,163.00 849.00,163.00 849.00,163.00
             849.00,163.00 849.00,156.00 849.00,156.00
             849.00,156.00 887.00,156.00 887.00,156.00 Z
           M 553.00,318.00
           C 553.00,318.00 553.00,326.00 553.00,326.00
             553.00,326.00 566.00,326.00 566.00,326.00
             566.00,326.00 566.00,318.00 566.00,318.00
             566.00,318.00 553.00,318.00 553.00,318.00 Z
           M 541.00,326.00
           C 541.00,326.00 541.00,334.00 541.00,334.00
             541.00,334.00 553.00,334.00 553.00,334.00
             553.00,334.00 553.00,326.00 553.00,326.00
             553.00,326.00 541.00,326.00 541.00,326.00 Z" />
  <path id="0.42pb"
        fill="none" stroke="black" stroke-width="1"
        d="M 874.00,134.00
           C 874.00,134.00 874.00,141.00 874.00,141.00
             874.00,141.00 887.00,141.00 887.00,141.00
             887.00,141.00 887.00,156.00 887.00,156.00
             887.00,156.00 900.00,156.00 900.00,156.00
             900.00,156.00 900.00,805.00 900.00,805.00
             900.00,805.00 169.00,805.00 169.00,805.00
             169.00,805.00 169.00,511.00 169.00,511.00
             169.00,511.00 180.00,511.00 180.00,511.00
             180.00,511.00 180.00,503.00 180.00,503.00
             180.00,503.00 193.00,503.00 193.00,503.00
             193.00,503.00 193.00,496.00 193.00,496.00
             193.00,496.00 206.00,496.00 206.00,496.00
             206.00,496.00 206.00,489.00 206.00,489.00
             206.00,489.00 218.00,489.00 218.00,489.00
             218.00,489.00 218.00,482.00 218.00,482.00
             218.00,482.00 232.00,482.00 232.00,482.00
             232.00,482.00 232.00,474.00 232.00,474.00
             232.00,474.00 257.00,474.00 257.00,474.00
             257.00,474.00 257.00,466.00 257.00,466.00
             257.00,466.00 270.00,466.00 270.00,466.00
             270.00,466.00 270.00,459.00 270.00,459.00
             270.00,459.00 283.00,459.00 283.00,459.00
             283.00,459.00 283.00,452.00 283.00,452.00
             283.00,452.00 296.00,452.00 296.00,452.00
             296.00,452.00 296.00,445.00 296.00,445.00
             296.00,445.00 309.00,445.00 309.00,445.00
             309.00,445.00 309.00,437.00 309.00,437.00
             309.00,437.00 322.00,437.00 322.00,437.00
             322.00,437.00 322.00,430.00 322.00,430.00
             322.00,430.00 335.00,430.00 335.00,430.00
             335.00,430.00 335.00,422.00 335.00,422.00
             335.00,422.00 347.00,422.00 347.00,422.00
             347.00,422.00 347.00,415.00 347.00,415.00
             347.00,415.00 360.00,415.00 360.00,415.00
             360.00,415.00 360.00,407.00 360.00,407.00
             360.00,407.00 374.00,407.00 374.00,407.00
             374.00,407.00 374.00,400.00 374.00,400.00
             374.00,400.00 386.00,400.00 386.00,400.00
             386.00,400.00 386.00,393.00 386.00,393.00
             386.00,393.00 398.00,393.00 398.00,393.00
             398.00,393.00 398.00,385.00 398.00,385.00
             398.00,385.00 412.00,385.00 412.00,385.00
             412.00,385.00 412.00,377.00 412.00,377.00
             412.00,377.00 424.00,377.00 424.00,377.00
             424.00,377.00 424.00,370.00 424.00,370.00
             424.00,370.00 438.00,370.00 438.00,370.00
             438.00,370.00 438.00,363.00 438.00,363.00
             438.00,363.00 450.00,363.00 450.00,363.00
             450.00,363.00 450.00,356.00 450.00,356.00
             450.00,356.00 463.00,356.00 463.00,356.00
             463.00,356.00 463.00,348.00 463.00,348.00
             463.00,348.00 476.00,348.00 476.00,348.00
             476.00,348.00 476.00,341.00 476.00,341.00
             476.00,341.00 489.00,341.00 489.00,341.00
             489.00,341.00 489.00,334.00 489.00,334.00
             489.00,334.00 502.00,334.00 502.00,334.00
             502.00,334.00 502.00,326.00 502.00,326.00
             502.00,326.00 514.00,326.00 514.00,326.00
             514.00,326.00 514.00,318.00 514.00,318.00
             514.00,318.00 527.00,318.00 527.00,318.00
             527.00,318.00 527.00,311.00 527.00,311.00
             527.00,311.00 541.00,311.00 541.00,311.00
             541.00,311.00 541.00,304.00 541.00,304.00
             541.00,304.00 553.00,304.00 553.00,304.00
             553.00,304.00 553.00,296.00 553.00,296.00
             553.00,296.00 566.00,296.00 566.00,296.00
             566.00,296.00 566.00,289.00 566.00,289.00
             566.00,289.00 579.00,289.00 579.00,289.00
             579.00,289.00 579.00,282.00 579.00,282.00
             579.00,282.00 605.00,282.00 605.00,282.00
             605.00,282.00 605.00,274.00 605.00,274.00
             605.00,274.00 618.00,274.00 618.00,274.00
             618.00,274.00 618.00,266.00 618.00,266.00
             618.00,266.00 631.00,266.00 631.00,266.00
             631.00,266.00 631.00,259.00 631.00,259.00
             631.00,259.00 643.00,259.00 643.00,259.00
             643.00,259.00 643.00,252.00 643.00,252.00
             643.00,252.00 656.00,252.00 656.00,252.00
             656.00,252.00 656.00,244.00 656.00,244.00
             656.00,244.00 669.00,244.00 669.00,244.00
             669.00,244.00 669.00,237.00 669.00,237.00
             669.00,237.00 681.00,237.00 681.00,237.00
             681.00,237.00 681.00,229.00 681.00,229.00
             681.00,229.00 694.00,229.00 694.00,229.00
             694.00,229.00 694.00,222.00 694.00,222.00
             694.00,222.00 708.00,222.00 708.00,222.00
             708.00,222.00 708.00,215.00 708.00,215.00
             708.00,215.00 720.00,215.00 720.00,215.00
             720.00,215.00 720.00,207.00 720.00,207.00
             720.00,207.00 733.00,207.00 733.00,207.00
             733.00,207.00 733.00,200.00 733.00,200.00
             733.00,200.00 758.00,200.00 758.00,200.00
             758.00,200.00 758.00,193.00 758.00,193.00
             758.00,193.00 772.00,193.00 772.00,193.00
             772.00,193.00 772.00,186.00 772.00,186.00
             772.00,186.00 784.00,186.00 784.00,186.00
             784.00,186.00 784.00,177.00 784.00,177.00
             784.00,177.00 797.00,177.00 797.00,177.00
             797.00,177.00 797.00,170.00 797.00,170.00
             797.00,170.00 810.00,170.00 810.00,170.00
             810.00,170.00 810.00,163.00 810.00,163.00
             810.00,163.00 823.00,163.00 823.00,163.00
             823.00,163.00 823.00,156.00 823.00,156.00
             823.00,156.00 849.00,156.00 849.00,156.00
             849.00,156.00 849.00,149.00 849.00,149.00
             849.00,149.00 861.00,149.00 861.00,149.00
             861.00,149.00 861.00,134.00 861.00,134.00
             861.00,134.00 874.00,134.00 874.00,134.00 Z" />
  <path id="0.49pb"
        fill="none" stroke="black" stroke-width="1"
        d="M 887.00,126.00
           C 887.00,126.00 887.00,141.00 887.00,141.00
             887.00,141.00 900.00,141.00 900.00,141.00
             900.00,141.00 900.00,215.00 900.00,215.00
             900.00,215.00 913.00,215.00 913.00,215.00
             913.00,215.00 913.00,222.00 913.00,222.00
             913.00,222.00 900.00,222.00 900.00,222.00
             900.00,222.00 900.00,805.00 900.00,805.00
             900.00,805.00 169.00,805.00 169.00,805.00
             169.00,805.00 169.00,511.00 169.00,511.00
             169.00,511.00 180.00,511.00 180.00,511.00
             180.00,511.00 180.00,503.00 180.00,503.00
             180.00,503.00 193.00,503.00 193.00,503.00
             193.00,503.00 193.00,496.00 193.00,496.00
             193.00,496.00 206.00,496.00 206.00,496.00
             206.00,496.00 206.00,489.00 206.00,489.00
             206.00,489.00 218.00,489.00 218.00,489.00
             218.00,489.00 218.00,482.00 218.00,482.00
             218.00,482.00 232.00,482.00 232.00,482.00
             232.00,482.00 232.00,474.00 232.00,474.00
             232.00,474.00 245.00,474.00 245.00,474.00
             245.00,474.00 245.00,466.00 245.00,466.00
             245.00,466.00 257.00,466.00 257.00,466.00
             257.00,466.00 257.00,459.00 257.00,459.00
             257.00,459.00 270.00,459.00 270.00,459.00
             270.00,459.00 270.00,452.00 270.00,452.00
             270.00,452.00 283.00,452.00 283.00,452.00
             283.00,452.00 283.00,445.00 283.00,445.00
             283.00,445.00 296.00,445.00 296.00,445.00
             296.00,445.00 296.00,437.00 296.00,437.00
             296.00,437.00 309.00,437.00 309.00,437.00
             309.00,437.00 309.00,430.00 309.00,430.00
             309.00,430.00 322.00,430.00 322.00,430.00
             322.00,430.00 322.00,422.00 322.00,422.00
             322.00,422.00 335.00,422.00 335.00,422.00
             335.00,422.00 335.00,415.00 335.00,415.00
             335.00,415.00 347.00,415.00 347.00,415.00
             347.00,415.00 347.00,407.00 347.00,407.00
             347.00,407.00 360.00,407.00 360.00,407.00
             360.00,407.00 360.00,400.00 360.00,400.00
             360.00,400.00 374.00,400.00 374.00,400.00
             374.00,400.00 374.00,393.00 374.00,393.00
             374.00,393.00 398.00,393.00 398.00,393.00
             398.00,393.00 398.00,377.00 398.00,377.00
             398.00,377.00 412.00,377.00 412.00,377.00
             412.00,377.00 412.00,370.00 412.00,370.00
             412.00,370.00 424.00,370.00 424.00,370.00
             424.00,370.00 424.00,363.00 424.00,363.00
             424.00,363.00 438.00,363.00 438.00,363.00
             438.00,363.00 438.00,356.00 438.00,356.00
             438.00,356.00 463.00,356.00 463.00,356.00
             463.00,356.00 463.00,348.00 463.00,348.00
             463.00,348.00 476.00,348.00 476.00,348.00
             476.00,348.00 476.00,341.00 476.00,341.00
             476.00,341.00 489.00,341.00 489.00,341.00
             489.00,341.00 489.00,334.00 489.00,334.00
             489.00,334.00 502.00,334.00 502.00,334.00
             502.00,334.00 502.00,326.00 502.00,326.00
             502.00,326.00 514.00,326.00 514.00,326.00
             514.00,326.00 514.00,318.00 514.00,318.00
             514.00,318.00 527.00,318.00 527.00,318.00
             527.00,318.00 527.00,311.00 527.00,311.00
             527.00,311.00 541.00,311.00 541.00,311.00
             541.00,311.00 541.00,304.00 541.00,304.00
             541.00,304.00 553.00,304.00 553.00,304.00
             553.00,304.00 553.00,296.00 553.00,296.00
             553.00,296.00 566.00,296.00 566.00,296.00
             566.00,296.00 566.00,289.00 566.00,289.00
             566.00,289.00 579.00,289.00 579.00,289.00
             579.00,289.00 579.00,282.00 579.00,282.00
             579.00,282.00 591.00,282.00 591.00,282.00
             591.00,282.00 591.00,274.00 591.00,274.00
             591.00,274.00 605.00,274.00 605.00,274.00
             605.00,274.00 605.00,266.00 605.00,266.00
             605.00,266.00 618.00,266.00 618.00,266.00
             618.00,266.00 618.00,259.00 618.00,259.00
             618.00,259.00 631.00,259.00 631.00,259.00
             631.00,259.00 631.00,252.00 631.00,252.00
             631.00,252.00 643.00,252.00 643.00,252.00
             643.00,252.00 643.00,244.00 643.00,244.00
             643.00,244.00 669.00,244.00 669.00,244.00
             669.00,244.00 669.00,237.00 669.00,237.00
             669.00,237.00 681.00,237.00 681.00,237.00
             681.00,237.00 681.00,229.00 681.00,229.00
             681.00,229.00 694.00,229.00 694.00,229.00
             694.00,229.00 694.00,222.00 694.00,222.00
             694.00,222.00 708.00,222.00 708.00,222.00
             708.00,222.00 708.00,215.00 708.00,215.00
             708.00,215.00 720.00,215.00 720.00,215.00
             720.00,215.00 720.00,207.00 720.00,207.00
             720.00,207.00 733.00,207.00 733.00,207.00
             733.00,207.00 733.00,200.00 733.00,200.00
             733.00,200.00 746.00,200.00 746.00,200.00
             746.00,200.00 746.00,193.00 746.00,193.00
             746.00,193.00 758.00,193.00 758.00,193.00
             758.00,193.00 758.00,186.00 758.00,186.00
             758.00,186.00 772.00,186.00 772.00,186.00
             772.00,186.00 772.00,177.00 772.00,177.00
             772.00,177.00 784.00,177.00 784.00,177.00
             784.00,177.00 784.00,170.00 784.00,170.00
             784.00,170.00 797.00,170.00 797.00,170.00
             797.00,170.00 797.00,163.00 797.00,163.00
             797.00,163.00 810.00,163.00 810.00,163.00
             810.00,163.00 810.00,156.00 810.00,156.00
             810.00,156.00 823.00,156.00 823.00,156.00
             823.00,156.00 823.00,149.00 823.00,149.00
             823.00,149.00 836.00,149.00 836.00,149.00
             836.00,149.00 836.00,141.00 836.00,141.00
             836.00,141.00 861.00,141.00 861.00,141.00
             861.00,141.00 861.00,126.00 861.00,126.00
             861.00,126.00 887.00,126.00 887.00,126.00 Z" />
  <path id="0.56pb"
        fill="none" stroke="black" stroke-width="1"
        d="M 887.00,119.00
           C 887.00,119.00 887.00,133.00 887.00,133.00
             887.00,133.00 900.00,133.00 900.00,133.00
             900.00,133.00 900.00,156.00 900.00,156.00
             900.00,156.00 913.00,156.00 913.00,156.00
             913.00,156.00 913.00,244.00 913.00,244.00
             913.00,244.00 900.00,244.00 900.00,244.00
             900.00,244.00 900.00,318.00 900.00,318.00
             900.00,318.00 913.00,318.00 913.00,318.00
             913.00,318.00 913.00,422.00 913.00,422.00
             913.00,422.00 900.00,422.00 900.00,422.00
             900.00,422.00 900.00,466.00 900.00,466.00
             900.00,466.00 913.00,466.00 913.00,466.00
             913.00,466.00 913.00,481.00 913.00,481.00
             913.00,481.00 900.00,481.00 900.00,481.00
             900.00,481.00 900.00,488.00 900.00,488.00
             900.00,488.00 913.00,488.00 913.00,488.00
             913.00,488.00 913.00,496.00 913.00,496.00
             913.00,496.00 900.00,496.00 900.00,496.00
             900.00,496.00 900.00,805.00 900.00,805.00
             900.00,805.00 169.00,805.00 169.00,805.00
             169.00,805.00 169.00,511.00 169.00,511.00
             169.00,511.00 180.00,511.00 180.00,511.00
             180.00,511.00 180.00,503.00 180.00,503.00
             180.00,503.00 193.00,503.00 193.00,503.00
             193.00,503.00 193.00,496.00 193.00,496.00
             193.00,496.00 206.00,496.00 206.00,496.00
             206.00,496.00 206.00,489.00 206.00,489.00
             206.00,489.00 218.00,489.00 218.00,489.00
             218.00,489.00 218.00,482.00 218.00,482.00
             218.00,482.00 232.00,482.00 232.00,482.00
             232.00,482.00 232.00,474.00 232.00,474.00
             232.00,474.00 245.00,474.00 245.00,474.00
             245.00,474.00 245.00,466.00 245.00,466.00
             245.00,466.00 257.00,466.00 257.00,466.00
             257.00,466.00 257.00,459.00 257.00,459.00
             257.00,459.00 270.00,459.00 270.00,459.00
             270.00,459.00 270.00,452.00 270.00,452.00
             270.00,452.00 283.00,452.00 283.00,452.00
             283.00,452.00 283.00,445.00 283.00,445.00
             283.00,445.00 296.00,445.00 296.00,445.00
             296.00,445.00 296.00,437.00 296.00,437.00
             296.00,437.00 309.00,437.00 309.00,437.00
             309.00,437.00 309.00,430.00 309.00,430.00
             309.00,430.00 322.00,430.00 322.00,430.00
             322.00,430.00 322.00,422.00 322.00,422.00
             322.00,422.00 335.00,422.00 335.00,422.00
             335.00,422.00 335.00,415.00 335.00,415.00
             335.00,415.00 347.00,415.00 347.00,415.00
             347.00,415.00 347.00,407.00 347.00,407.00
             347.00,407.00 360.00,407.00 360.00,407.00
             360.00,407.00 360.00,400.00 360.00,400.00
             360.00,400.00 374.00,400.00 374.00,400.00
             374.00,400.00 374.00,393.00 374.00,393.00
             374.00,393.00 386.00,393.00 386.00,393.00
             386.00,393.00 386.00,385.00 386.00,385.00
             386.00,385.00 398.00,385.00 398.00,385.00
             398.00,385.00 398.00,377.00 398.00,377.00
             398.00,377.00 412.00,377.00 412.00,377.00
             412.00,377.00 412.00,370.00 412.00,370.00
             412.00,370.00 424.00,370.00 424.00,370.00
             424.00,370.00 424.00,363.00 424.00,363.00
             424.00,363.00 438.00,363.00 438.00,363.00
             438.00,363.00 438.00,356.00 438.00,356.00
             438.00,356.00 450.00,356.00 450.00,356.00
             450.00,356.00 450.00,348.00 450.00,348.00
             450.00,348.00 463.00,348.00 463.00,348.00
             463.00,348.00 463.00,341.00 463.00,341.00
             463.00,341.00 476.00,341.00 476.00,341.00
             476.00,341.00 476.00,334.00 476.00,334.00
             476.00,334.00 502.00,334.00 502.00,334.00
             502.00,334.00 502.00,326.00 502.00,326.00
             502.00,326.00 514.00,326.00 514.00,326.00
             514.00,326.00 514.00,318.00 514.00,318.00
             514.00,318.00 527.00,318.00 527.00,318.00
             527.00,318.00 527.00,311.00 527.00,311.00
             527.00,311.00 541.00,311.00 541.00,311.00
             541.00,311.00 541.00,304.00 541.00,304.00
             541.00,304.00 553.00,304.00 553.00,304.00
             553.00,304.00 553.00,296.00 553.00,296.00
             553.00,296.00 566.00,296.00 566.00,296.00
             566.00,296.00 566.00,289.00 566.00,289.00
             566.00,289.00 579.00,289.00 579.00,289.00
             579.00,289.00 579.00,282.00 579.00,282.00
             579.00,282.00 591.00,282.00 591.00,282.00
             591.00,282.00 591.00,274.00 591.00,274.00
             591.00,274.00 605.00,274.00 605.00,274.00
             605.00,274.00 605.00,266.00 605.00,266.00
             605.00,266.00 618.00,266.00 618.00,266.00
             618.00,266.00 618.00,259.00 618.00,259.00
             618.00,259.00 631.00,259.00 631.00,259.00
             631.00,259.00 631.00,252.00 631.00,252.00
             631.00,252.00 643.00,252.00 643.00,252.00
             643.00,252.00 643.00,244.00 643.00,244.00
             643.00,244.00 656.00,244.00 656.00,244.00
             656.00,244.00 656.00,237.00 656.00,237.00
             656.00,237.00 669.00,237.00 669.00,237.00
             669.00,237.00 669.00,229.00 669.00,229.00
             669.00,229.00 681.00,229.00 681.00,229.00
             681.00,229.00 681.00,222.00 681.00,222.00
             681.00,222.00 694.00,222.00 694.00,222.00
             694.00,222.00 694.00,215.00 694.00,215.00
             694.00,215.00 708.00,215.00 708.00,215.00
             708.00,215.00 708.00,207.00 708.00,207.00
             708.00,207.00 733.00,207.00 733.00,207.00
             733.00,207.00 733.00,193.00 733.00,193.00
             733.00,193.00 746.00,193.00 746.00,193.00
             746.00,193.00 746.00,186.00 746.00,186.00
             746.00,186.00 758.00,186.00 758.00,186.00
             758.00,186.00 758.00,177.00 758.00,177.00
             758.00,177.00 772.00,177.00 772.00,177.00
             772.00,177.00 772.00,170.00 772.00,170.00
             772.00,170.00 784.00,170.00 784.00,170.00
             784.00,170.00 784.00,163.00 784.00,163.00
             784.00,163.00 810.00,163.00 810.00,163.00
             810.00,163.00 810.00,149.00 810.00,149.00
             810.00,149.00 823.00,149.00 823.00,149.00
             823.00,149.00 823.00,141.00 823.00,141.00
             823.00,141.00 836.00,141.00 836.00,141.00
             836.00,141.00 836.00,134.00 836.00,134.00
             836.00,134.00 861.00,134.00 861.00,134.00
             861.00,134.00 861.00,126.00 861.00,126.00
             861.00,126.00 874.00,126.00 874.00,126.00
             874.00,126.00 874.00,119.00 874.00,119.00
             874.00,119.00 887.00,119.00 887.00,119.00 Z" />
  <path id="0.63pb"
        fill="none" stroke="black" stroke-width="1"
        d="M 900.00,119.00
           C 900.00,119.00 900.00,149.00 900.00,149.00
             900.00,149.00 913.00,149.00 913.00,149.00
             913.00,149.00 913.00,259.00 913.00,259.00
             913.00,259.00 900.00,259.00 900.00,259.00
             900.00,259.00 900.00,266.00 900.00,266.00
             900.00,266.00 913.00,266.00 913.00,266.00
             913.00,266.00 913.00,511.00 913.00,511.00
             913.00,511.00 900.00,511.00 900.00,511.00
             900.00,511.00 900.00,555.00 900.00,555.00
             900.00,555.00 912.00,555.00 912.00,555.00
             912.00,555.00 912.00,805.00 912.00,805.00
             912.00,805.00 169.00,805.00 169.00,805.00
             169.00,805.00 169.00,511.00 169.00,511.00
             169.00,511.00 180.00,511.00 180.00,511.00
             180.00,511.00 180.00,503.00 180.00,503.00
             180.00,503.00 193.00,503.00 193.00,503.00
             193.00,503.00 193.00,496.00 193.00,496.00
             193.00,496.00 206.00,496.00 206.00,496.00
             206.00,496.00 206.00,489.00 206.00,489.00
             206.00,489.00 218.00,489.00 218.00,489.00
             218.00,489.00 218.00,482.00 218.00,482.00
             218.00,482.00 232.00,482.00 232.00,482.00
             232.00,482.00 232.00,474.00 232.00,474.00
             232.00,474.00 245.00,474.00 245.00,474.00
             245.00,474.00 245.00,466.00 245.00,466.00
             245.00,466.00 257.00,466.00 257.00,466.00
             257.00,466.00 257.00,459.00 257.00,459.00
             257.00,459.00 270.00,459.00 270.00,459.00
             270.00,459.00 270.00,452.00 270.00,452.00
             270.00,452.00 283.00,452.00 283.00,452.00
             283.00,452.00 283.00,445.00 283.00,445.00
             283.00,445.00 296.00,445.00 296.00,445.00
             296.00,445.00 296.00,437.00 296.00,437.00
             296.00,437.00 309.00,437.00 309.00,437.00
             309.00,437.00 309.00,430.00 309.00,430.00
             309.00,430.00 322.00,430.00 322.00,430.00
             322.00,430.00 322.00,422.00 322.00,422.00
             322.00,422.00 335.00,422.00 335.00,422.00
             335.00,422.00 335.00,415.00 335.00,415.00
             335.00,415.00 347.00,415.00 347.00,415.00
             347.00,415.00 347.00,407.00 347.00,407.00
             347.00,407.00 360.00,407.00 360.00,407.00
             360.00,407.00 360.00,400.00 360.00,400.00
             360.00,400.00 374.00,400.00 374.00,400.00
             374.00,400.00 374.00,393.00 374.00,393.00
             374.00,393.00 386.00,393.00 386.00,393.00
             386.00,393.00 386.00,385.00 386.00,385.00
             386.00,385.00 398.00,385.00 398.00,385.00
             398.00,385.00 398.00,377.00 398.00,377.00
             398.00,377.00 412.00,377.00 412.00,377.00
             412.00,377.00 412.00,370.00 412.00,370.00
             412.00,370.00 424.00,370.00 424.00,370.00
             424.00,370.00 424.00,363.00 424.00,363.00
             424.00,363.00 438.00,363.00 438.00,363.00
             438.00,363.00 438.00,356.00 438.00,356.00
             438.00,356.00 450.00,356.00 450.00,356.00
             450.00,356.00 450.00,348.00 450.00,348.00
             450.00,348.00 463.00,348.00 463.00,348.00
             463.00,348.00 463.00,341.00 463.00,341.00
             463.00,341.00 476.00,341.00 476.00,341.00
             476.00,341.00 476.00,334.00 476.00,334.00
             476.00,334.00 489.00,334.00 489.00,334.00
             489.00,334.00 489.00,326.00 489.00,326.00
             489.00,326.00 502.00,326.00 502.00,326.00
             502.00,326.00 502.00,318.00 502.00,318.00
             502.00,318.00 514.00,318.00 514.00,318.00
             514.00,318.00 514.00,311.00 514.00,311.00
             514.00,311.00 541.00,311.00 541.00,311.00
             541.00,311.00 541.00,304.00 541.00,304.00
             541.00,304.00 553.00,304.00 553.00,304.00
             553.00,304.00 553.00,296.00 553.00,296.00
             553.00,296.00 566.00,296.00 566.00,296.00
             566.00,296.00 566.00,289.00 566.00,289.00
             566.00,289.00 579.00,289.00 579.00,289.00
             579.00,289.00 579.00,282.00 579.00,282.00
             579.00,282.00 591.00,282.00 591.00,282.00
             591.00,282.00 591.00,274.00 591.00,274.00
             591.00,274.00 605.00,274.00 605.00,274.00
             605.00,274.00 605.00,266.00 605.00,266.00
             605.00,266.00 618.00,266.00 618.00,266.00
             618.00,266.00 618.00,259.00 618.00,259.00
             618.00,259.00 631.00,259.00 631.00,259.00
             631.00,259.00 631.00,252.00 631.00,252.00
             631.00,252.00 643.00,252.00 643.00,252.00
             643.00,252.00 643.00,244.00 643.00,244.00
             643.00,244.00 656.00,244.00 656.00,244.00
             656.00,244.00 656.00,237.00 656.00,237.00
             656.00,237.00 669.00,237.00 669.00,237.00
             669.00,237.00 669.00,229.00 669.00,229.00
             669.00,229.00 681.00,229.00 681.00,229.00
             681.00,229.00 681.00,222.00 681.00,222.00
             681.00,222.00 694.00,222.00 694.00,222.00
             694.00,222.00 694.00,215.00 694.00,215.00
             694.00,215.00 708.00,215.00 708.00,215.00
             708.00,215.00 708.00,207.00 708.00,207.00
             708.00,207.00 720.00,207.00 720.00,207.00
             720.00,207.00 720.00,200.00 720.00,200.00
             720.00,200.00 733.00,200.00 733.00,200.00
             733.00,200.00 733.00,193.00 733.00,193.00
             733.00,193.00 746.00,193.00 746.00,193.00
             746.00,193.00 746.00,186.00 746.00,186.00
             746.00,186.00 758.00,186.00 758.00,186.00
             758.00,186.00 758.00,177.00 758.00,177.00
             758.00,177.00 772.00,177.00 772.00,177.00
             772.00,177.00 772.00,170.00 772.00,170.00
             772.00,170.00 784.00,170.00 784.00,170.00
             784.00,170.00 784.00,163.00 784.00,163.00
             784.00,163.00 797.00,163.00 797.00,163.00
             797.00,163.00 797.00,156.00 797.00,156.00
             797.00,156.00 810.00,156.00 810.00,156.00
             810.00,156.00 810.00,149.00 810.00,149.00
             810.00,149.00 823.00,149.00 823.00,149.00
             823.00,149.00 823.00,141.00 823.00,141.00
             823.00,141.00 836.00,141.00 836.00,141.00
             836.00,141.00 836.00,134.00 836.00,134.00
             836.00,134.00 849.00,134.00 849.00,134.00
             849.00,134.00 849.00,126.00 849.00,126.00
             849.00,126.00 874.00,126.00 874.00,126.00
             874.00,126.00 874.00,119.00 874.00,119.00
             874.00,119.00 900.00,119.00 900.00,119.00 Z" />
  <path id="0.7pb"
        fill="none" stroke="black" stroke-width="1"
        d="M 925.00,52.00
           C 925.00,52.00 925.00,805.00 925.00,805.00
             925.00,805.00 169.00,805.00 169.00,805.00
             169.00,805.00 169.00,482.00 169.00,482.00
             169.00,482.00 180.00,482.00 180.00,482.00
             180.00,482.00 180.00,475.00 180.00,475.00
             180.00,475.00 193.00,475.00 193.00,475.00
             193.00,475.00 193.00,467.00 193.00,467.00
             193.00,467.00 207.00,467.00 207.00,467.00
             207.00,467.00 207.00,459.00 207.00,459.00
             207.00,459.00 219.00,459.00 219.00,459.00
             219.00,459.00 219.00,452.00 219.00,452.00
             219.00,452.00 232.00,452.00 232.00,452.00
             232.00,452.00 232.00,445.00 232.00,445.00
             232.00,445.00 245.00,445.00 245.00,445.00
             245.00,445.00 245.00,437.00 245.00,437.00
             245.00,437.00 257.00,437.00 257.00,437.00
             257.00,437.00 257.00,430.00 257.00,430.00
             257.00,430.00 271.00,430.00 271.00,430.00
             271.00,430.00 271.00,423.00 271.00,423.00
             271.00,423.00 283.00,423.00 283.00,423.00
             283.00,423.00 283.00,415.00 283.00,415.00
             283.00,415.00 296.00,415.00 296.00,415.00
             296.00,415.00 296.00,408.00 296.00,408.00
             296.00,408.00 309.00,408.00 309.00,408.00
             309.00,408.00 309.00,400.00 309.00,400.00
             309.00,400.00 322.00,400.00 322.00,400.00
             322.00,400.00 322.00,393.00 322.00,393.00
             322.00,393.00 335.00,393.00 335.00,393.00
             335.00,393.00 335.00,386.00 335.00,386.00
             335.00,386.00 347.00,386.00 347.00,386.00
             347.00,386.00 347.00,378.00 347.00,378.00
             347.00,378.00 360.00,378.00 360.00,378.00
             360.00,378.00 360.00,371.00 360.00,371.00
             360.00,371.00 374.00,371.00 374.00,371.00
             374.00,371.00 374.00,364.00 374.00,364.00
             374.00,364.00 386.00,364.00 386.00,364.00
             386.00,364.00 386.00,356.00 386.00,356.00
             386.00,356.00 399.00,356.00 399.00,356.00
             399.00,356.00 399.00,348.00 399.00,348.00
             399.00,348.00 412.00,348.00 412.00,348.00
             412.00,348.00 412.00,341.00 412.00,341.00
             412.00,341.00 424.00,341.00 424.00,341.00
             424.00,341.00 424.00,334.00 424.00,334.00
             424.00,334.00 438.00,334.00 438.00,334.00
             438.00,334.00 438.00,326.00 438.00,326.00
             438.00,326.00 451.00,326.00 451.00,326.00
             451.00,326.00 451.00,319.00 451.00,319.00
             451.00,319.00 463.00,319.00 463.00,319.00
             463.00,319.00 463.00,311.00 463.00,311.00
             463.00,311.00 476.00,311.00 476.00,311.00
             476.00,311.00 476.00,304.00 476.00,304.00
             476.00,304.00 489.00,304.00 489.00,304.00
             489.00,304.00 489.00,296.00 489.00,296.00
             489.00,296.00 502.00,296.00 502.00,296.00
             502.00,296.00 502.00,289.00 502.00,289.00
             502.00,289.00 515.00,289.00 515.00,289.00
             515.00,289.00 515.00,282.00 515.00,282.00
             515.00,282.00 527.00,282.00 527.00,282.00
             527.00,282.00 527.00,274.00 527.00,274.00
             527.00,274.00 541.00,274.00 541.00,274.00
             541.00,274.00 541.00,267.00 541.00,267.00
             541.00,267.00 553.00,267.00 553.00,267.00
             553.00,267.00 553.00,260.00 553.00,260.00
             553.00,260.00 566.00,260.00 566.00,260.00
             566.00,260.00 566.00,252.00 566.00,252.00
             566.00,252.00 579.00,252.00 579.00,252.00
             579.00,252.00 579.00,244.00 579.00,244.00
             579.00,244.00 591.00,244.00 591.00,244.00
             591.00,244.00 591.00,237.00 591.00,237.00
             591.00,237.00 605.00,237.00 605.00,237.00
             605.00,237.00 605.00,230.00 605.00,230.00
             605.00,230.00 618.00,230.00 618.00,230.00
             618.00,230.00 618.00,223.00 618.00,223.00
             618.00,223.00 631.00,223.00 631.00,223.00
             631.00,223.00 631.00,216.00 631.00,216.00
             631.00,216.00 643.00,216.00 643.00,216.00
             643.00,216.00 643.00,208.00 643.00,208.00
             643.00,208.00 656.00,208.00 656.00,208.00
             656.00,208.00 656.00,200.00 656.00,200.00
             656.00,200.00 669.00,200.00 669.00,200.00
             669.00,200.00 669.00,193.00 669.00,193.00
             669.00,193.00 682.00,193.00 682.00,193.00
             682.00,193.00 682.00,186.00 682.00,186.00
             682.00,186.00 695.00,186.00 695.00,186.00
             695.00,186.00 695.00,178.00 695.00,178.00
             695.00,178.00 708.00,178.00 708.00,178.00
             708.00,178.00 708.00,171.00 708.00,171.00
             708.00,171.00 720.00,171.00 720.00,171.00
             720.00,171.00 720.00,163.00 720.00,163.00
             720.00,163.00 733.00,163.00 733.00,163.00
             733.00,163.00 733.00,156.00 733.00,156.00
             733.00,156.00 747.00,156.00 747.00,156.00
             747.00,156.00 747.00,149.00 747.00,149.00
             747.00,149.00 759.00,149.00 759.00,149.00
             759.00,149.00 759.00,141.00 759.00,141.00
             759.00,141.00 772.00,141.00 772.00,141.00
             772.00,141.00 772.00,134.00 772.00,134.00
             772.00,134.00 784.00,134.00 784.00,134.00
             784.00,134.00 784.00,127.00 784.00,127.00
             784.00,127.00 798.00,127.00 798.00,127.00
             798.00,127.00 798.00,119.00 798.00,119.00
             798.00,119.00 811.00,119.00 811.00,119.00
             811.00,119.00 811.00,112.00 811.00,112.00
             811.00,112.00 823.00,112.00 823.00,112.00
             823.00,112.00 823.00,104.00 823.00,104.00
             823.00,104.00 836.00,104.00 836.00,104.00
             836.00,104.00 836.00,97.00 836.00,97.00
             836.00,97.00 849.00,97.00 849.00,97.00
             849.00,97.00 849.00,90.00 849.00,90.00
             849.00,90.00 862.00,90.00 862.00,90.00
             862.00,90.00 862.00,82.00 862.00,82.00
             862.00,82.00 875.00,82.00 875.00,82.00
             875.00,82.00 875.00,75.00 875.00,75.00
             875.00,75.00 887.00,75.00 887.00,75.00
             887.00,75.00 887.00,68.00 887.00,68.00
             887.00,68.00 900.00,68.00 900.00,68.00
             900.00,68.00 900.00,60.00 900.00,60.00
             900.00,60.00 913.00,60.00 913.00,60.00
             913.00,60.00 913.00,52.00 913.00,52.00
             913.00,52.00 925.00,52.00 925.00,52.00 Z" />
</svg>
